<?xml version="1.0" encoding="UTF-8" standalone="no"?>
<!-- Created with Inkscape (http://www.inkscape.org/) -->

<svg
   version="1.1"
   id="svg1"
   width="1024"
   height="1024"
   viewBox="0 0 1024 1024"
   xmlns="http://www.w3.org/2000/svg"
   xmlns:svg="http://www.w3.org/2000/svg">
  <defs
     id="defs1" />
  <g
     id="g1">
    <path
       style="fill:#000000"
       d="m 524.89593,802.80792 c -2.6681,-0.51055 -10.54307,-3.27272 -17.49996,-6.13815 -15.81935,-6.51574 -21.89426,-6.85422 -34.64888,-1.93054 -4.4,1.69854 -9.8,3.54685 -12,4.10734 -6.48521,1.65225 -19.04072,2.46972 -21.00956,1.36791 -1.51823,-0.84965 -0.76371,-1.59485 5.11429,-5.05119 15.34834,-9.02499 14.14704,-9.67744 -7.84268,-4.25954 -15.64113,3.85373 -18.99922,4.33412 -35.76205,5.11598 -25.32554,1.18124 -37.25764,1.16605 -36.50826,-0.0465 0.33537,-0.54265 3.84943,-1.9526 7.80902,-3.13322 3.95958,-1.18062 10.99486,-4.11164 15.63396,-6.51337 7.23241,-3.74432 9.29928,-4.36757 14.5,-4.37236 10.28889,-0.009 13.20501,-1.36092 22.06528,-10.22608 6.9457,-6.94953 9.44967,-8.69376 19,-13.2351 17.28056,-8.21718 20.62494,-12.09709 22.587,-26.20378 1.42664,-10.25713 3.48069,-13.93256 13.89696,-24.86656 5.4165,-5.68572 9.2498,-10.64116 10.00751,-12.93704 0.78252,-2.37108 1.07356,-7.40489 0.80211,-13.87358 -0.36487,-8.69481 -0.86732,-11.10637 -3.4999,-16.7982 -4.65199,-10.05795 -15.28913,-20.56806 -33.09698,-32.70177 -16.91904,-11.5281 -18.73571,-13.11064 -24.07364,-20.9711 -7.22683,-10.64194 -24.08123,-24.03988 -39.12306,-31.09976 -5.16747,-2.42535 -6.40691,-2.57844 -20.5,-2.53221 -8.25,0.0271 -19.275,0.20531 -24.5,0.3961 -8.81961,0.32206 -10.28782,0.0792 -20.5,-3.39167 -14.1071,-4.79459 -24.65001,-5.62667 -35,-2.76231 -24.51434,6.78434 -29.91959,8.38501 -38,11.253 -10.09612,3.58343 -19.53185,4.22651 -37.72068,2.57081 l -9.72069,-0.88485 -6.04948,5.60076 c -8.00125,7.40774 -11.80732,8.5618 -20.48761,6.21215 -7.40314,-2.00393 -9.21972,-1.86033 -22.88102,1.80877 -15.134,4.06465 -24.75044,3.04256 -26.21334,-2.78607 -1.09302,-4.35495 0.39719,-7.40603 6.6003,-13.51357 6.058,-5.96468 6.44723,-6.65169 5.36553,-9.47054 -0.8875,-2.3128 -2.57545,-1.97514 -9.07134,1.81465 -9.86275,5.75407 -15.58487,5.60264 -21.9976,-0.58215 -3.41325,-3.29192 -2.84027,-3.26056 -14.824067,-0.81144 -9.26152,1.89277 -24.10853,0.7808 -30.86295,-2.31148 -3.0072,-1.37673 -6.23828,-3.67932 -7.18018,-5.11685 -2.43131,-3.71065 -1.46859,-10.6877 2.18301,-15.82079 2.47386,-3.47751 5.14354,-5.41376 17.36012,-12.59083 1.13696,-0.66795 1.5,-2.83778 1.5,-8.96529 0,-7.81646 0.11097,-8.19861 3.35253,-11.54423 1.94677,-2.00928 5.81144,-4.35673 9.21667,-5.59834 3.22528,-1.176 6.08149,-2.48985 6.34714,-2.91968 0.26565,-0.42983 0.94183,-3.63061 1.50263,-7.11285 2.520097,-15.64839 14.425017,-21.59481 32.174057,-16.07069 l 6.27122,1.95183 3.9475,-3.56633 c 3.85432,-3.48215 4.08805,-3.55042 9.90293,-2.89254 4.60682,0.5212 6.5023,0.31546 8.37038,-0.90855 1.32821,-0.87029 2.41494,-1.97133 2.41494,-2.44676 0,-0.47544 -2.95571,-2.12063 -6.56824,-3.65597 -3.61253,-1.53535 -7.43753,-3.89667 -8.5,-5.24738 -2.26131,-2.8748 -2.4903,-7.91358 -0.56864,-12.51277 2.01038,-4.81151 9.76496,-11.18693 15.37683,-12.64205 8.96555,-2.3247 9.76212,-2.69579 10.97213,-5.11148 0.66665,-1.3309 1.4742,-4.10555 1.79457,-6.16588 0.97227,-6.25274 4.14347,-8.93574 12.09355,-10.23175 l 12.19864,0.19991 -4.7802,-7.7734 c -1.86389,-3.031 1.06991,-7.4263 1.74368,-8.62115 1.81214,-3.21359 5.9922,-6.18436 10.35466,-7.35905 3.0865,-0.83111 4.64598,-2.20174 7.81554,-6.86913 9.41378,-13.86241 18.72594,-16.27172 35.10542,-9.08272 8.45214,3.70967 11.79713,3.91238 17.96206,1.08851 8.09838,-3.70949 13.39026,-2.66306 19.92833,3.94069 4.03929,4.07985 4.23553,4.15491 8.85127,3.38523 10.01042,-1.66925 13.88961,-0.002 17.22412,7.40175 4.51134,10.01705 4.18132,9.66717 9.11826,9.66717 3.69165,0 5.22702,0.60542 8.24219,3.25 2.03798,1.7875 3.92175,3.25 4.18615,3.25 0.2644,0 3.96124,-1.77312 8.21521,-3.94027 16.15308,-8.22907 24.37922,-7.30375 31.87924,3.58595 2.01403,2.92428 4.47769,5.5758 5.4748,5.89227 0.99711,0.31647 5.81902,-0.8001 10.71537,-2.48127 4.89634,-1.68118 10.13102,-3.05668 11.63262,-3.05668 7.20548,0 14.60018,6.90576 17.13284,16 0.84243,3.025 2.01536,6.75872 2.6065,8.29716 1.22787,3.1955 5.39342,5.70025 9.49344,5.70842 8.68716,0.0173 14.45282,4.29591 16.32923,12.11769 1.47278,6.13923 3.85511,7.60552 10.19278,6.27352 5.11592,-1.07523 5.58242,-2.59302 3.82929,-12.45874 -2.00666,-11.29241 -9.23272,-21.26682 -27.33448,-37.73081 -8.15421,-7.41646 -12.23626,-10.28221 -20.21716,-14.19317 -11.93288,-5.84759 -24.23485,-9.55084 -38.46685,-11.57963 -19.51737,-2.78223 -26.01096,-5.19923 -38.51174,-14.3346 -4.24881,-3.10497 -8.01874,-5.09984 -9.63772,-5.09984 -1.46253,0 -5.59849,1.37549 -9.19103,3.05664 -9.25659,4.33168 -14.3486,4.19972 -23.5297,-0.60981 l -7.14472,-3.74276 -10.325,1.69437 c -7.621,1.25063 -11.4457,1.44257 -14.60428,0.73288 -5.08941,-1.14351 -9.08896,-4.57834 -9.08896,-7.80563 0,-3.92513 -3.36365,-6.32569 -8.86351,-6.32569 -12.63192,0 -23.21486,-4.13842 -26.43099,-10.33575 -1.74096,-3.35475 -1.83164,-4.29988 -0.75673,-7.88759 1.68127,-5.61159 9.93038,-14.06046 17.34603,-17.76611 3.31356,-1.6558 6.65012,-3.01055 7.41458,-3.01055 3.70234,0 7.23755,-3.09404 8.2914,-7.25668 3.09214,-12.21374 6.72181,-15.79835 16.88597,-16.67632 l 6.56399,-0.567 0.74463,-4.37975 c 1.0402,-6.11817 3.03274,-8.69732 9.07262,-11.74366 6.1145,-3.08398 6.08912,-3.05218 8.74067,-10.95367 4.49143,-13.3843 16.66162,-18.61773 30.99134,-13.32692 8.35347,3.08426 9.6712,3.24771 12.15535,1.50774 1.43398,-1.0044 4.36565,-1.60374 7.84465,-1.60374 5.34256,0 10,-1.88475 10,-4.04675 0,-0.51334 -3.00643,-2.29652 -6.68096,-3.96263 -3.67453,-1.66611 -8.175,-4.16885 -10.00105,-5.56165 -6.0597,-4.62196 -7.92024,-11.42989 -4.78211,-17.49835 1.42683,-2.7592 8.73573,-8.93062 10.57665,-8.93062 0.44684,0 3.29053,-0.92717 6.31931,-2.06038 5.1812,-1.93854 5.80547,-2.55474 10.55622,-10.41985 4.22848,-7.00047 5.79694,-8.72137 9.64788,-10.58558 4.75676,-2.3027 6.01143,-2.25937 17.54135,0.60585 2.37252,0.58958 2.90493,0.21912 4.67692,-3.25426 2.7116,-5.31518 3.89244,-6.10691 9.65256,-6.47182 l 4.956,-0.31396 1.15156,-5.20719 c 1.87824,-8.49309 4.1745,-11.45779 11.07029,-14.29281 4.85991,-1.99802 7.59943,-4.12272 13.64362,-10.58162 7.66876,-8.19493 14.83513,-12.94566 23.29353,-15.44177 7.48412,-2.20859 14.25519,1.9814 19.35437,11.97662 1.78034,3.48975 2.55778,4.01581 7.42929,5.02714 6.34223,1.31664 7.02204,1.97407 9.45525,9.14403 2.36946,6.9821 4.32629,7.73669 14.82902,5.71833 9.94004,-1.91023 12.58614,-1.16848 18.40314,5.1588 2.5274,2.74916 5.003,4.9936 5.5012,4.98765 0.4983,-0.006 3.0543,-0.66269 5.68,-1.4594 5.5816,-1.69363 6.9408,-1.33769 11.9788,3.13697 2.0641,1.83329 4.1913,3.33325 4.7272,3.33325 0.5359,0 3.7971,-1.05564 7.2471,-2.34588 12.628,-4.72252 19.8948,-4.27229 25.446,1.57656 4.4691,4.70873 6.2659,8.84704 7.2524,16.70348 0.4782,3.8089 1.1731,7.41641 1.5441,8.01668 0.371,0.60028 5.2958,3.30379 10.944,6.00781 16.9301,8.10509 20.6433,14.94168 12.9789,23.89584 -4.5983,5.37214 -9.4029,7.7929 -20.2248,10.19025 -15.41,3.41372 -22.8035,6.52971 -21.9128,9.23518 0.6892,2.09337 4.7165,1.97858 12.8294,-0.36568 9.7811,-2.82628 13.0499,-2.0295 20.9157,5.09827 3.025,2.74117 6.0509,4.98474 6.7243,4.98572 0.6734,9.7e-4 1.8784,-1.26308 2.6778,-2.80902 2.3605,-4.56463 7.6843,-9.11481 11.5028,-9.83116 2.308,-0.43298 5.179,-0.0873 8.2067,0.988 6.6845,2.37414 8.4947,2.11555 15.8282,-2.26118 15.5722,-9.29358 25.7641,-9.42788 34.4977,-0.45459 4.2096,4.3251 6.4722,8.37495 9.0056,16.11918 1.8763,5.73587 4.5288,8.25054 8.7026,8.25054 3.5184,0 8.5355,4.27245 9.345,7.95793 1.1383,5.1828 2.6031,5.60775 12.4437,3.61005 8.4405,-1.71346 8.9561,-1.71376 12.5519,-0.007 4.0542,1.92386 6.9693,5.86252 8.5147,11.5046 0.5371,1.96082 2.1428,4.66082 3.5683,6 2.3562,2.21355 3.4781,2.44622 12.3432,2.55976 14.9052,0.1909 18.7125,2.95396 21.5136,15.61295 0.6632,2.99689 4.3503,5.26998 13.2933,8.19527 13.6254,4.45695 15.1469,14.39604 3.4222,22.35445 -5.4009,3.66595 -9.9296,5.36093 -23.5552,8.81625 -11.03,2.7971 -14.5705,4.35317 -19.3233,8.49278 -4.878,4.24866 -9.9438,5.20368 -23.3347,4.39911 -13.0572,-0.78453 -13.4448,-0.6741 -24.4284,6.95947 -7.2882,5.06527 -11.8505,7.04832 -20.9595,9.11027 -3.8276,0.86646 -7.3072,1.79034 -7.7323,2.05308 -0.4251,0.26273 0.3668,2.19993 1.7598,4.30487 3.0632,4.62881 2.5733,7.93845 -1.7082,11.54113 -5.6417,4.74715 -9.8784,5.23192 -51.0215,5.83798 l -14.6617,0.21598 -10.3383,10.02427 c -7.4141,7.18843 -12.1769,10.9178 -16.8383,13.1844 -3.575,1.73831 -13.1645,6.32536 -21.31,10.19343 -23.2339,11.03319 -41.2881,22.51205 -57.17161,36.34966 l -3.98157,3.46873 3.05554,2.57106 c 1.68198,1.41529 3.60314,4.39871 4.27364,6.63676 1.1145,3.72 1.8472,4.36424 8.6174,7.57696 7.9059,3.7517 11.5166,7.25566 11.5166,11.1764 0,5.81888 -4.3613,8.80567 -18.1417,12.42437 -6.56837,1.72484 -11.09526,2.18679 -21.13853,2.15711 -14.5711,-0.0431 -13.14732,-0.91102 -17.30386,10.5485 -5.28255,14.56394 -5.25124,32.65565 0.0722,41.73949 2.73756,4.67131 6.54362,7.40921 19.10996,13.74684 4.89601,2.46922 10.61555,5.66228 12.71009,7.09569 6.86774,4.69999 11.50484,6.5874 16.18404,6.5874 9.548,0 16.3073,-5.28122 27.4964,-21.48357 12.2038,-17.67186 18.3204,-20.75586 48.3642,-24.38508 7.9933,-0.96557 10.344,-1.80824 24.2096,-8.67825 18.0301,-8.93337 22.9452,-12.98728 23.9613,-19.76294 1.1795,-7.86563 -4.035,-24.79789 -8.1195,-26.36527 -0.9198,-0.35295 -5.2696,-0.0575 -9.6663,0.65647 -16.5889,2.694 -25.8964,0.973 -34.5124,-6.38152 -4.0423,-3.45042 -6.8,-4.80493 -13.4073,-6.58532 -14.0633,-3.78947 -22.8289,-9.68444 -22.8117,-15.34125 0.023,-7.67957 12.624,-15.62885 27.9934,-17.65988 12.8209,-1.69426 12.7903,-1.68202 14.9911,-5.99595 2.2858,-4.48045 4.3146,-5.83249 10.2802,-6.8509 3.058,-0.52204 4.4992,-1.37731 5.3754,-3.18991 0.6584,-1.36215 2.6094,-5.5119 4.3355,-9.22167 1.9369,-4.16311 4.4377,-7.73618 6.5329,-9.3343 9.6479,-7.35877 27.5258,-7.08989 41.2038,0.6197 l 5.2189,2.94161 3.7811,-2.57494 c 2.8536,-1.94328 4.5925,-2.44481 7.0888,-2.04449 4.5562,0.73066 6.1917,-0.11915 6.196,-3.21953 0.01,-5.05827 3.4133,-8.91765 9.4084,-10.66048 5.8002,-1.68617 5.9891,-1.93811 7.1109,-9.48253 2.2357,-15.0368 14.5832,-21.10998 32.7731,-16.11965 4.2494,1.16581 8.1947,2.11965 8.7672,2.11965 0.5726,0 4.394,-3.17355 8.492,-7.05232 4.098,-3.87878 9.0101,-7.70378 10.9157,-8.5 6.0733,-2.53759 12.567,-1.86991 19.9603,2.05232 3.6286,1.925 7.3785,3.49665 8.3331,3.49256 0.9546,-0.004 5.1673,-1.96777 9.3616,-4.36375 21.8631,-12.48916 34.0409,-10.01909 39.874,8.08783 2.6877,8.34296 5.0834,10.64513 12.6262,12.13336 11.7816,2.32456 16.466,7.96653 14.5712,17.54962 -1.2265,6.20285 -0.2283,9.04536 3.6513,10.3978 4.5227,1.57661 7.1513,4.71846 7.1513,8.54759 0,5.44864 2.3863,6.73042 14.3062,7.68448 14.8723,1.19037 19.9356,3.60853 23.9256,11.42643 1.6042,3.14332 1.9134,5.19745 1.5048,10 -0.2827,3.32424 -0.3016,6.60658 -0.042,7.29408 0.3334,0.88263 3.3469,1.25 10.2539,1.25 12.1651,0 14.3459,1.2839 16.0398,9.44325 1.3217,6.36684 2.0531,7.10933 8.4047,8.53277 6.0047,1.34567 10.1769,3.46058 10.9859,5.56878 0.3416,0.89033 0.6211,3.97096 0.6211,6.84586 0,6.38207 1.0857,7.92102 7.5,10.63134 6.9272,2.92699 9.5,5.56787 9.5,9.7511 0,4.1301 -3.8394,8.1658 -9.64,10.13271 -2.123,0.71989 -9.6693,1.54103 -16.7695,1.82475 -12.0589,0.48188 -13.2085,0.70543 -17.4458,3.39265 -5.5962,3.54902 -8.7408,3.60355 -19.0995,0.33125 -6.0579,-1.91371 -9.7319,-2.47219 -14.8016,-2.25 -8.2597,0.36198 -8.5489,1.45696 -1.7436,6.60045 4.2797,3.23455 5,4.26914 5,7.181 0,7.2774 -8.1057,8.68058 -39.457,6.83035 l -15.457,-0.91222 -9.043,3.29798 c -8.2984,3.02646 -9.9486,3.28903 -20.043,3.18922 -21.2682,-0.21027 -61.0704,-2.2069 -67.5,-3.38605 -11.3822,-2.08744 -23.5343,-1.76434 -32,0.85082 -10.1041,3.1213 -24.7221,10.87084 -35.4019,18.76784 -4.8329,3.57363 -9.982,6.95725 -11.4426,7.51916 -6.0351,2.32191 -13.8254,2.77735 -29.396,1.71858 -25.4037,-1.72742 -42.096,0.63264 -57.2595,8.09568 -10.9783,5.40323 -19.3464,13.3327 -24.8451,23.54273 -2.3696,4.4 -5.8303,10.40535 -7.6903,13.34522 -2.727,4.31012 -3.4622,6.60588 -3.7964,11.85514 -0.4047,6.35522 -0.2631,6.8079 5.9587,19.04882 l 6.3731,12.5389 v 9.10596 c 0,10.14064 -1.1872,14.56492 -7.8102,29.10596 -6.3012,13.83454 -6.1743,25.20739 0.4288,38.42126 3.5691,7.14249 6.4715,9.16258 17.403,12.11266 10.1657,2.74339 13.8276,4.88269 19.8172,11.57745 6.1664,6.89228 10.3587,9.28384 25.1612,14.3538 6.7681,2.31808 14.398,5.72866 17.5,7.82245 l 5.5,3.71238 -17.9161,0.27375 c -15.7827,0.24115 -18.8789,0.0152 -26,-1.8972 -4.4461,-1.19402 -10.7839,-2.77033 -14.0839,-3.50291 -6.7845,-1.50613 -20.5,-1.83306 -20.5,-0.48865 0,0.48674 1.2375,1.6713 2.75,2.63235 8.4719,5.38303 8.4025,7.45165 -0.25,7.45257 -6.6295,7e-4 -14.5845,-1.94548 -34.7953,-8.51258 -9.2375,-3.00153 -17.225,-5.45733 -17.75,-5.45733 -1.7712,0 -0.9727,2.08321 3.094,8.07164 5.4519,8.02832 4.8818,8.74381 -5.3998,6.77639 z m 26.9403,-39.27133 c -4.2808,-6.25279 -7.5891,-14.51718 -7.5891,-18.9582 0,-1.28777 -0.3471,-1.67142 -0.9588,-1.05975 -1.3942,1.39419 0.5604,13.74015 2.902,18.33004 2.1583,4.23063 9.2617,10.99652 9.8119,9.34578 0.1939,-0.58178 -1.6808,-4.02782 -4.166,-7.65787 z m -77.48797,-11.73435 c 1.72789,-2.69269 3.29218,-6.6835 3.55694,-9.07444 l 0.4726,-4.26791 -3.16231,5.65795 c -1.73927,3.11187 -5.36868,8.26739 -8.06535,11.45671 -2.69668,3.18933 -4.90305,6.18372 -4.90305,6.65419 0,1.97693 9.26383,-6.0049 12.10117,-10.4265 z m 85.43877,-72.31568 c 0.7211,-5.77153 -0.738,-14.15122 -3.2259,-18.52667 -1.3238,-2.32818 -1.3817,-2.12201 -0.8432,3 0.3181,3.025 0.8581,9.19837 1.2001,13.71859 0.6979,9.22575 1.8514,9.95271 2.869,1.80808 z m -51.97862,-10.27667 c -0.36617,-2.6125 -1.61521,-7.675 -2.77565,-11.25 -1.72428,-5.31203 -3.22254,-7.60603 -8.19778,-12.55165 -5.69409,-5.66019 -14.92006,-11.84736 -16.73698,-11.22425 -0.44247,0.15174 1.88354,2.42472 5.16892,5.05105 9.89336,7.90874 16.46929,17.3996 20.42226,29.47485 0.94525,2.8875 1.95857,5.25 2.25182,5.25 0.29325,0 0.23358,-2.1375 -0.13259,-4.75 z m 39.47522,-59.29611 c 1.7625,-2.22537 3.0107,-4.24002 2.7737,-4.477 -0.7305,-0.73048 -4.588,2.40228 -6.823,5.54108 -3.3758,4.74088 0.1948,3.80258 4.0493,-1.06408 z m 47.8615,-22.9019 c 2.1815,-1.11287 4.2483,-2.47984 4.5931,-3.0377 1.8118,-2.9315 -8.876,1.45034 -11.9433,4.89658 l -1.9521,2.19334 2.6681,-1.01441 c 1.4674,-0.55792 4.4528,-1.92493 6.6342,-3.03781 z m -184.48812,-5.42613 c -0.70978,-1.84966 -6.73661,-5.01696 -8.45591,-4.44386 -0.883,0.29433 0.0372,1.41947 2.56689,3.13841 4.30472,2.92513 6.71564,3.45957 5.88902,1.30545 z m -167.40992,-2.70764 c 4.77205,-1.22581 9.88723,-4.65653 7.95332,-5.33424 -0.79933,-0.28011 -4.5444,-1.6511 -8.32238,-3.04664 -8.53601,-3.15309 -10.34768,-3.16716 -12.76102,-0.0991 -1.05486,1.34103 -3.70712,3.22764 -5.89392,4.19245 -5.80713,2.5621 -5.27483,3.81586 2.25864,5.31996 4.45264,0.889 10.80916,0.49756 16.76536,-1.03243 z m 440.53214,-1.36719 c 5.2482,-2.19285 4.2864,-3.70374 -1.2821,-2.01402 -2.6125,0.79274 -5.2,1.4531 -5.75,1.46748 -1.133,0.0296 1.5743,1.95655 2.7821,1.9802 0.4301,0.008 2.3426,-0.63673 4.25,-1.43366 z m -97.2754,-6.22856 c 2.47,-1.31131 2.8289,-1.81038 1.5056,-2.09311 -1.8507,-0.3954 -9.7623,3.60003 -9.7623,4.93003 0,0.89722 3.4672,-0.29407 8.2567,-2.83692 z m -144.99572,-8.07247 c -0.29137,-3.9875 -0.91929,-7.25 -1.39539,-7.25 -0.99496,0 -1.15162,11.32956 -0.20553,14.86401 1.19335,4.45816 2.15042,-0.0937 1.60092,-7.61401 z m -14.78632,4 c 1.45663,-11.58492 2.98527,-17.26089 7.13582,-26.49591 2.43975,-5.42847 4.18302,-10.27914 3.87392,-10.77926 -0.77632,-1.25611 -5.41957,-0.3179 -15.95322,3.22351 -12.26138,4.12227 -18.38705,4.11321 -26.05243,-0.0385 -3.20867,-1.73789 -7.21654,-3.16231 -8.90637,-3.16538 -5.05219,-0.009 -10.57934,-1.96601 -15.90984,-5.63275 -4.542,-3.12435 -5.12174,-3.29258 -5.99139,-1.73861 -0.52954,0.94625 -1.17635,4.70494 -1.43734,8.35265 -0.60441,8.44738 1.67869,13.32162 8.62998,18.42433 6.84409,5.02402 12.59428,7.37544 22.08979,9.03313 8.40767,1.46779 16.91577,4.94305 25.49216,10.41265 2.72018,1.7348 5.28011,3.15418 5.68873,3.15418 0.40862,0 1.0117,-2.1375 1.34019,-4.75 z m -152.9747,0.36553 c 6.99953,-1.9049 18.5,-6.66356 18.5,-7.65492 0,-2.18279 -16.19476,-12.96061 -19.47463,-12.96061 -0.64721,0 -2.26768,1.16776 -3.60106,2.59501 -3.9055,4.18051 -7.69609,5.63094 -14.61167,5.59105 -3.49579,-0.0202 -7.69467,-0.33069 -9.33085,-0.69006 -3.46227,-0.76044 -9.5704,0.98956 -10.32592,2.95841 -1.06236,2.76847 5.81166,6.70878 16.66818,9.5545 8.60529,2.25563 15.43064,2.44233 22.17595,0.60662 z m 408.56854,-5.22305 c 8.1525,-2.41285 25.218,-12.77542 30.0211,-18.22953 4.9732,-5.64727 12.0911,-20.03202 14.7918,-29.89305 l 1.9801,-7.23009 -4.1808,-1.08673 c -2.2994,-0.59771 -5.6487,-1.59903 -7.4428,-2.22516 -2.971,-1.03683 -3.4142,-0.92127 -4.9665,1.29485 -8.317,11.87423 -14.0739,16.72617 -30.7702,25.93344 -6.2732,3.45939 -13.8801,8.37194 -16.9042,10.91679 -19.1047,16.07714 -20.6441,17.51917 -19.3959,18.16871 0.7144,0.37173 5.5739,1.22481 10.7989,1.89574 5.225,0.67093 10.175,1.35727 11,1.52521 4.0185,0.81801 10.1631,0.38161 15.0685,-1.07018 z m -325.14329,-2.75042 c 3.53388,-0.62813 6.58905,-1.64508 6.78927,-2.25988 0.83832,-2.57423 -8.68425,-10.34764 -18.8741,-15.40718 -13.12342,-6.51614 -15.93813,-8.69586 -22.05501,-17.07946 -2.73748,-3.75191 -5.87366,-7.10616 -6.96929,-7.4539 -3.78601,-1.20163 -12.07901,-0.60732 -13.66567,0.97933 -1.37739,1.37739 -1.10749,1.92591 2.65826,5.40243 3.12964,2.88927 4.19129,4.62893 4.19129,6.868 0,4.64925 -5.64079,8.53235 -14.27547,9.8272 -2.61202,0.3917 -4.95433,1.04421 -5.20514,1.45002 -0.63042,1.02005 6.71535,6.13461 14.26969,9.93541 5.47253,2.75339 19.57926,7.10831 27.21092,8.40035 4.92638,0.83404 19.61841,0.4587 25.92525,-0.66232 z m 492.49159,-9.28297 c 2.7042,-1.02296 5.089,-2.37648 5.2994,-3.00783 0.3818,-1.14546 -8.1997,-6.51893 -12.4691,-7.80776 -1.6754,-0.50577 -4.5658,0.65483 -11.2776,4.52848 -4.9637,2.86471 -9.2535,5.57841 -9.5329,6.03046 -1.9654,3.18019 19.7257,3.37916 27.9802,0.25665 z m -37.5367,-5.3026 c 11.29,-3.92954 12.1885,-5.05081 4.0699,-5.07845 -8.1349,-0.0277 -13.6047,-2.42116 -17.9824,-7.86872 -1.8163,-2.26012 -3.7407,-4.10932 -4.2764,-4.10932 -1.2675,0 -24.6899,14.31643 -24.6906,15.09167 -4e-4,0.32542 2.8119,1.39104 6.2494,2.36805 3.4375,0.977 6.7,1.91272 7.25,2.07938 0.55,0.16665 5.5,0.33251 11,0.36857 8.5703,0.0562 11.198,-0.35142 18.3801,-2.85118 z m -75.7406,-3.62231 c 11.2855,-2.11365 18.1157,-4.123 25.8506,-7.60494 7.5866,-3.41517 21.0099,-11.59723 21.0099,-12.80644 0,-0.45932 -2.3227,-1.15457 -5.1616,-1.54501 -6.0206,-0.82805 -9.8384,-3.97269 -9.8384,-8.10359 0,-3.10917 -2.5353,-6.3742 -4.9495,-6.3742 -0.9018,0 -3.3565,2.25132 -5.4549,5.00294 -4.5379,5.95048 -8.7716,9.36292 -17.7904,14.3392 -3.6821,2.03167 -7.5508,4.92333 -8.597,6.42591 -2.7456,3.94302 -5.3333,12.23195 -3.8187,12.23195 0.2142,0 4.1517,-0.70462 8.75,-1.56582 z M 354.3349,534.79582 c 0.637,-1.19024 1.21533,-5.29362 1.28518,-9.11862 0.16224,-8.88342 -0.84965,-9.74508 -9.07725,-7.72962 -3.18765,0.78086 -8.38324,1.37805 -11.54574,1.32709 -3.1625,-0.051 -5.75,0.10471 -5.75,0.34594 0,1.37109 3.21451,6.21075 5.66072,8.5226 2.81522,2.66059 14.71955,8.81438 17.0541,8.81589 0.66815,4.3e-4 1.73599,-0.97304 2.37299,-2.16328 z m 316.70203,-7.72952 c 6.756,-3.44812 9.5787,-8.40327 10.7662,-18.89939 0.8178,-7.2282 0.5245,-7.39208 -7.5402,-4.21327 -2.782,1.09657 -7.5237,2.28352 -10.537,2.63768 -3.8574,0.45336 -5.4788,1.07831 -5.4788,2.11164 0,1.45887 4.8357,18.07365 5.6775,19.50693 0.7333,1.24862 3.2033,0.85146 7.1123,-1.14359 z m 70.3632,-9.18447 c 4.6317,-2.36293 12.4042,-9.95143 13.3972,-13.08011 1.3004,-4.09745 -3.2142,-4.5154 -11.8387,-1.09597 -4.3315,1.71739 -6.4547,5.10127 -7.3642,11.73691 -0.7191,5.24641 -0.1586,5.48191 5.8057,2.43917 z m -46.5531,-3.78641 c 5.1826,-3.80648 8.7455,-7.76756 8.0292,-8.92656 -0.3192,-0.5165 -2.2789,-1.22647 -4.3548,-1.57771 -2.0759,-0.35123 -5.1723,-0.90355 -6.8809,-1.22737 -2.8686,-0.54368 -3.1558,-0.34236 -3.75,2.62867 -0.3539,1.76959 -0.6434,5.18619 -0.6434,7.59244 0,5.38813 1.8263,5.75112 7.5999,1.51053 z m -201.52425,-44.7438 c 3.64877,-3.92564 13.41264,-10.55757 22.80555,-15.49029 11.4016,-5.98753 16.2899,-10.52129 20.5711,-19.07886 4.9966,-9.9875 4.7739,-11.87405 -2.447,-20.73356 l -5.9947,-7.35498 -7.7553,-0.11702 c -6.15932,-0.0929 -8.93258,-0.66879 -13.47576,-2.79816 -4.63935,-2.17444 -7.75761,-2.8005 -16.5,-3.31278 -11.66615,-0.68359 -18.72823,-2.60735 -20.29099,-5.5274 -1.48332,-2.77161 -1.19093,-8.24479 0.57515,-10.76622 0.86006,-1.2279 3.9447,-3.75563 6.85476,-5.61718 4.44316,-2.84225 5.47524,-4.08255 6.44058,-7.73995 1.86141,-7.05235 5.13027,-9.85533 11.49339,-9.85533 5.16766,0 6.34717,-0.74808 8.63675,-5.47773 1.14461,-2.36445 3.76223,-5.46402 5.81692,-6.88793 4.36054,-3.02185 7.1939,-7.36945 7.1939,-11.03863 0,-3.38293 -2.34382,-3.40192 -11.80693,-0.0957 -3.93555,1.375 -8.0377,2.5 -9.11588,2.5 -1.21273,0 -3.69257,2.25117 -6.50249,5.90287 -4.96377,6.45079 -9.30398,9.89847 -23.31365,18.51935 -9.6712,5.9512 -13.31515,9.98134 -16.58977,18.34802 -4.0325,10.30306 -1.28524,16.24537 12.33857,26.68827 5.26593,4.03643 11.29463,9.24303 13.3971,11.57022 7.22161,7.99345 11.16683,20.57728 12.2181,38.97127 0.76951,13.46426 1.11384,14.05755 5.4506,9.39173 z m 71.47295,-36.8144 c 15.7808,-5.2452 28.0223,-11.56181 34.0746,-17.58253 6.1418,-6.10967 8.2018,-9.5698 6.6319,-11.13968 -2.1332,-2.13322 -13.3102,-1.3383 -19.9984,1.42232 -3.4338,1.41733 -8.7313,2.88782 -11.7722,3.26776 -5.3013,0.66235 -5.7519,0.95933 -10.9413,7.21131 -8.1586,9.82927 -14.3732,22.54344 -10.2446,20.95914 0.7142,-0.27408 6.2267,-2.13632 12.25,-4.13832 z m -11.5696,-22.04447 c 2.9592,-3.72982 3.0402,-4.04562 1.3534,-5.27901 -4.9356,-3.60906 -16.3324,-4.07358 -16.3324,-0.6657 0,2.37199 9.0306,11.49529 10.536,10.6442 0.7125,-0.40279 2.7118,-2.51756 4.443,-4.69949 z M 414.57925,383.20989 c 0.2476,-0.4125 -0.1838,-3.81086 -0.95867,-7.55191 -0.77486,-3.74105 -1.73839,-12.06605 -2.14117,-18.5 l -0.73232,-11.69809 -4.75103,-2.35659 c -5.66717,-2.81101 -8.20171,-2.29211 -7.47115,1.52957 1.66557,8.71287 -5.46079,12.25138 -17.96756,8.92156 -2.85436,-0.75995 -5.40073,-1.17073 -5.65861,-0.91286 -0.25787,0.25788 -0.11999,1.68531 0.3064,3.17206 3.51787,12.26607 15.35307,22.39047 31.04195,26.55477 6.48107,1.72027 7.72901,1.84631 8.33216,0.84149 z m 25.91149,-6 c 1.95203,-3.7125 6.00683,-10.65433 9.01067,-15.42629 6.24663,-9.92352 11.06248,-23.29601 10.56945,-29.34886 -0.31676,-3.88876 -0.4046,-3.97241 -4.05557,-3.8624 -5.55592,0.16741 -7.10547,1.91027 -6.38323,7.17957 1.14604,8.36129 -3.23194,11.50457 -16.38497,11.76399 l -8.5,0.16765 0.10715,7.39086 c 0.0589,4.06498 0.83977,9.86466 1.7352,12.88817 1.99411,6.73331 7.22054,15.99731 9.02514,15.99731 0.72986,0 2.92414,-3.0375 4.87616,-6.75 z m 259.50399,1.57145 c 6.4387,-2.40903 11.9471,-6.88832 10.7844,-8.76963 -0.5574,-0.90181 -2.429,-1.11151 -6.4096,-0.71814 -13.6709,1.35094 -14.7339,1.69473 -19.1485,6.19289 -2.5765,2.62524 -3.9179,4.75502 -3.4608,5.49464 1.0287,1.66449 11.1792,0.43996 18.2345,-2.19976 z m -23.281,-4.35478 c 1.9434,-1.94334 3.5269,-3.85584 3.5189,-4.25 -0.01,-0.39417 -2.1454,-1.96593 -4.75,-3.49281 -2.6045,-1.52687 -6.2646,-3.88937 -8.1334,-5.25 -3.6885,-2.68546 -9.8126,-3.29483 -14.6457,-1.45729 -2.1953,0.83465 -2.4574,1.27732 -1.4647,2.47354 0.6651,0.80133 2.7001,1.73665 4.5222,2.07849 4.0651,0.76262 7.2478,3.59095 8.1123,7.20908 1.2185,5.09987 2.2784,6.22232 5.8756,6.22232 2.5945,0 4.2933,-0.8618 6.9648,-3.53333 z m -301.46664,2.01036 c 0,-0.9082 -9.27579,-16.52945 -10.12772,-17.05596 -0.44745,-0.27654 -2.15441,0.19059 -3.79325,1.03806 -4.01672,2.07713 -8.60936,1.93879 -15.61136,-0.47025 -6.77501,-2.33095 -8.70496,-1.52617 -6.05155,2.52345 2.21589,3.38188 12.75002,10.18111 17.99741,11.6164 6.78573,1.85605 17.58647,3.29826 17.58647,2.3483 z m 93.78984,-22.37758 c 8.04452,-4.12084 17.28961,-13.54384 15.74314,-16.04609 -1.04623,-1.69284 -12.58574,-7.24709 -13.96051,-6.71954 -0.67051,0.2573 -2.48525,5.34995 -4.03274,11.317 -1.54749,5.96705 -3.02514,11.41168 -3.28366,12.09918 -0.66715,1.77415 1.23749,1.55024 5.53377,-0.65055 z"
       id="path1" />
  </g>
</svg>
