<?xml version="1.0" encoding="UTF-8" standalone="no"?>
<!-- Created with Inkscape (http://www.inkscape.org/) -->

<svg
   version="1.1"
   id="svg1"
   width="2784"
   height="1536"
   viewBox="0 0 2784 1536"
   sodipodi:docname="Tree7.svg"
   inkscape:version="1.4.2 (f4327f4, 2025-05-13)"
   xmlns:inkscape="http://www.inkscape.org/namespaces/inkscape"
   xmlns:sodipodi="http://sodipodi.sourceforge.net/DTD/sodipodi-0.dtd"
   xmlns="http://www.w3.org/2000/svg"
   xmlns:svg="http://www.w3.org/2000/svg">
  <defs
     id="defs1" />
  <sodipodi:namedview
     id="namedview1"
     pagecolor="#ffffff"
     bordercolor="#000000"
     borderopacity="0.25"
     inkscape:showpageshadow="2"
     inkscape:pageopacity="0.0"
     inkscape:pagecheckerboard="0"
     inkscape:deskcolor="#d1d1d1"
     inkscape:zoom="0.2516276"
     inkscape:cx="1369.0867"
     inkscape:cy="1408.8279"
     inkscape:window-width="1920"
     inkscape:window-height="991"
     inkscape:window-x="-9"
     inkscape:window-y="-9"
     inkscape:window-maximized="1"
     inkscape:current-layer="g1" />
  <g
     inkscape:groupmode="layer"
     inkscape:label="Image"
     id="g1">
    <path
       style="fill:#000000"
       d="m 915.7996,1414.8791 c 0,-1.393 28.2248,-18.5122 44.3105,-26.8756 l 14.3934,-7.4835 22.9709,-0.2512 c 27.9716,-0.3059 35.4449,-3.107 65.4175,-24.5198 23.0679,-16.4799 34.5953,-20.468 54.5918,-18.8866 26.8479,2.1231 44.0499,-3.8071 70.9193,-24.4488 18.7714,-14.4206 19.6307,-15.548 38.2277,-50.1516 15.8221,-29.4404 19.0653,-47.6562 12.8539,-72.1954 -3.2315,-12.7666 -3.4802,-32.769 -0.5743,-46.1897 5.234,-24.1733 -16.3054,-66.9291 -43.3207,-85.9915 -6.172,-4.3551 -16.2351,-11.4209 -22.3623,-15.7017 -6.1273,-4.2808 -15.2457,-13.0581 -20.2631,-19.505 -19.4745,-25.02305 -35.048,-32.30097 -76.276,-35.64599 -27.2078,-2.2075 -54.1633,2.18425 -78.3899,12.77179 -14.2141,6.2118 -20.4522,7.6472 -40.0762,9.2216 -23.6391,1.8965 -25.9532,3.0173 -76.4848,37.0448 -88.90933,59.8708 -109.18225,72.3809 -120.96279,74.6447 -5.8064,1.1158 -23.22376,-1.3932 -52.5816,-7.5745 -30.33331,-6.3867 -49.24985,-2.6462 -82.49871,16.3131 -23.89904,13.6278 -45.32896,23.9646 -45.32896,21.8646 0,-0.8825 5.65688,-6.146 12.57084,-11.6967 13.59979,-10.9184 16.08761,-15.2954 7.82719,-13.7711 -7.81099,1.4414 -36.00163,4.2572 -53.94146,5.3879 -40.45413,2.5499 -60.82145,7.1271 -89.33856,20.0774 -14.50187,6.5857 -26.79186,11.5687 -27.31108,11.0734 -0.51922,-0.4953 0.91527,-4.0563 3.18776,-7.9134 2.27249,-3.8571 3.80919,-7.3206 3.4149,-7.6967 -0.39429,-0.3761 -9.59,0.8425 -20.43492,2.7081 -23.68347,4.0742 -36.62447,4.281 -47.87086,0.7652 -4.62141,-1.4447 -14.31918,-4.245 -21.5506,-6.2229 -7.23142,-1.9779 -13.56017,-4.2323 -14.06389,-5.0097 -1.59199,-2.4573 30.6707,-8.6257 45.11466,-8.6257 15.76095,0 17.11576,-1.5365 8.38806,-9.5129 -8.24076,-7.5315 -7.08514,-8.2646 11.78553,-7.4773 19.64179,0.8195 19.86176,0.5838 9.97237,-10.6838 -3.98895,-4.5449 -7.25263,-8.7912 -7.25263,-9.4363 0,-0.645 8.45854,-0.6323 18.79676,0.028 26.80916,1.7131 72.61357,-0.6153 70.05085,-3.5609 -1.06493,-1.2241 -4.40866,-3.2025 -7.43051,-4.3965 l -5.49427,-2.171 7.74506,-7.528 c 8.82126,-8.5742 8.22091,-8.8242 -9.76819,-4.0689 -14.20993,3.7564 -33.42216,4.4472 -51.23522,1.8422 -5.98342,-0.875 -19.0604,-2.1081 -29.05994,-2.7403 l -18.18099,-1.1495 -9.87417,7.0775 c -13.87857,9.9477 -33.64482,10.4973 -48.0723,1.3366 -21.42068,-13.6011 -28.91248,-16.7442 -39.91122,-16.7442 -11.57273,0 -16.26694,-3.4789 -30.92328,-22.9175 l -6.1945,-8.2158 h 4.98385 c 2.74112,0 10.69499,1.154 17.67528,2.5645 23.06098,4.6596 25.28257,3.3929 13.59801,-7.7533 -7.64762,-7.2953 -9.50594,-11.6271 -4.07961,-9.5097 22.70308,8.8589 50.35915,18.2343 52.56533,17.8195 5.32323,-1.0008 6.74519,-5.7299 3.61493,-12.0226 -8.39881,-16.8837 -8.28384,-17.1195 5.26489,-10.7961 11.65082,5.4376 14.27753,4.7503 17.18146,-4.4956 2.83234,-9.018 5.95172,-8.56928 14.18431,2.0404 6.87295,8.8574 11.64026,9.0231 13.8873,0.4827 1.35163,-5.1372 5.43372,-5.4237 11.61038,-0.8149 9.44358,7.0466 13.02971,3.0261 6.14847,-6.8931 -2.67629,-3.85779 -4.36454,-7.49254 -3.75167,-8.07718 3.30831,-3.15589 43.77434,4.52273 75.4005,14.30758 16.07542,4.9736 16.24191,4.8794 11.18706,-6.3296 -5.5638,-12.33753 -4.68875,-14.34971 4.3933,-10.10234 3.98895,1.86549 14.59592,6.19469 23.57106,9.62044 36.15974,13.8019 39.26082,14.4756 32.38564,7.035 -4.329,-4.685 -8.43038,-13.39778 -6.30676,-13.39778 0.83793,0 6.92193,2.335 13.52001,5.18888 15.10227,6.5322 16.07296,6.5003 13.13599,-0.43241 -3.65826,-8.63528 -4.91589,-16.86384 -2.57742,-16.86384 1.10996,0 17.61197,5.91398 36.67113,13.14219 46.33314,17.57186 48.28434,17.72186 76.4912,5.87896 22.89082,-9.61098 60.60528,-29.25651 60.60528,-31.56944 0,-6.26589 -27.76176,-9.02516 -46.3441,-4.6062 -18.18881,4.32539 -38.48965,4.92498 -48.60544,1.43558 -6.76125,-2.33225 -12.63341,-1.62367 -31.29169,3.77595 -8.40446,2.4322 -8.66588,2.34251 -33.04471,-11.33756 l -13.32669,-7.47821 -13.87069,4.16701 c -31.81637,9.55821 -37.66314,9.51965 -35.74463,-0.23574 l 1.18694,-6.03542 -27.73283,0.0343 c -15.25306,0.0188 -33.36232,0.81049 -40.24281,1.75922 -14.97333,2.06462 -16.5927,1.12278 -8.79463,-5.11501 8.20555,-6.56374 7.81586,-7.29522 -9.43018,-17.70125 -8.42762,-5.08511 -15.36295,-9.82941 -15.41184,-10.54288 -0.0489,-0.71347 5.0106,-1.30275 11.24333,-1.30951 6.23273,-0.007 16.69563,-0.49565 23.25089,-1.08641 l 11.91865,-1.07411 -6.02387,-11.02097 c -3.31313,-6.06153 -5.54709,-11.02097 -4.96435,-11.02097 0.58273,0 6.85625,2.72416 13.94114,6.05369 16.92348,7.95315 17.82647,7.82408 31.24318,-4.46576 l 11.48398,-10.51944 9.66369,1.10211 c 9.93739,1.13333 11.63864,0.60674 28.24857,-8.74392 6.45441,-3.63354 5.21016,-3.95053 22.36541,5.69787 4.01853,2.26009 6.55777,2.33513 17.80121,0.52605 l 13.11408,-2.11007 -0.27748,-8.90448 c -0.15262,-4.89747 -0.20793,-9.48005 -0.12291,-10.18353 0.085,-0.70347 6.88593,1.13976 15.11314,4.09607 8.2272,2.95632 20.15258,7.24884 26.50084,9.53894 l 11.54228,4.16381 8.40246,-6.51501 c 4.62135,-3.58326 10.29553,-8.29236 12.60929,-10.46466 4.01184,-3.76658 4.70285,-3.85192 14.90835,-1.84112 11.81813,2.32854 14.55581,1.33857 11.06096,-3.99976 -3.74763,-5.72443 -1.30129,-5.72262 15.91342,0.0118 22.92423,7.6363 23.13843,7.49744 16.56207,-10.73647 -4.28552,-11.8822 -3.42242,-12.06215 13.05785,-2.72247 14.61472,8.28244 16.99043,7.94402 18.65704,-2.6577 0.6835,-4.34793 1.77962,-8.22185 2.43582,-8.60872 0.65619,-0.38687 12.18893,3.48848 25.62829,8.61187 30.05324,11.457 30.00057,11.45448 34.40758,1.647 4.24284,-9.44206 5.14214,-9.53113 13.09674,-1.29722 11.5348,11.9397 15.6361,14.90168 18.1271,13.09148 1.2758,-0.92711 6.1363,-3.76535 10.8011,-6.30721 l 8.4814,-4.62154 -1.0292,9.51259 c -1.2301,11.36997 -2.7721,11.08738 24.4091,4.4734 14.6589,-3.56695 20.398,-4.35927 20.398,-2.81608 0,3.39684 -9.6871,15.26062 -18.0091,22.05577 -9.8761,8.06415 -9.0419,8.39581 23.9826,9.53524 27.5397,0.9502 27.5888,0.94508 44.7949,-4.66859 9.4738,-3.09091 18.041,-6.20905 19.0382,-6.92921 0.9972,-0.72016 5.0769,-2.29991 9.0658,-3.51055 3.9889,-1.21065 11.6555,-4.04376 17.0369,-6.29579 11.6931,-4.89346 10.7515,-7.08363 -6.6347,-15.43094 -5.7212,-2.74683 -14.913,-7.83877 -20.4262,-11.3154 -13.5221,-8.52708 -23.0539,-11.30633 -43.4642,-12.67306 -22.6987,-1.51998 -33.0035,-3.43219 -58.021,-10.76659 -25.9648,-7.61212 -26.0061,-7.65464 -12.7381,-13.11573 13.1206,-5.40043 13.6841,-7.38392 2.5126,-8.8446 -35.2263,-4.60586 -116.74954,1.94257 -190.12857,15.27225 -40.66229,7.38651 -65.86955,6.24671 -116.29716,-5.25864 -23.03288,-5.25509 -30.61342,-5.25982 -44.1121,-0.0275 -20.53413,7.95936 -25.45968,7.63972 -18.18685,-1.18022 4.88247,-5.92109 5.24876,-5.5151 -8.88748,-9.85109 -14.24692,-4.36995 -21.12491,-4.26218 -55.84522,0.87504 -22.99105,3.40176 -26.75505,2.99338 -21.6834,-2.35254 8.60474,-9.07009 -8.51859,-12.82461 -29.56467,-6.48246 -18.55858,5.59256 -20.79493,5.53698 -31.33835,-0.7789 -11.9428,-7.15415 -11.57339,-8.29659 3.62631,-11.21482 8.51245,-1.63433 7.39497,-2.97487 -6.34605,-7.61273 -12.94933,-4.37066 -41.73838,-17.14437 -42.98858,-19.07405 -0.40712,-0.62837 7.92113,-3.36433 18.5072,-6.0799 l 19.24741,-4.9374 17.3489,4.30848 c 9.54189,2.36967 18.77676,4.90616 20.52192,5.63665 3.84783,1.61062 4.46696,-7.09234 1.15023,-16.16838 -2.94533,-8.05973 -2.07705,-8.07328 20.38491,-0.31818 11.25772,3.88678 21.11477,7.06687 21.90456,7.06687 2.36295,0 1.62803,-6.736 -1.33033,-12.19327 -1.52146,-2.80664 -2.18703,-5.10298 -1.47903,-5.10298 2.6374,0 16.72296,7.18234 18.82589,9.59948 3.55437,4.08544 4.88283,2.95068 6.17599,-5.27542 0.67295,-4.28082 1.58697,-7.78331 2.03114,-7.78331 0.44418,0 8.02925,2.72416 16.85571,6.05369 17.68657,6.67175 21.48418,7.19755 26.53564,3.674 3.22232,-2.24766 3.06607,-2.55013 -2.8164,-5.45193 -10.49193,-5.17562 -25.28631,-15.04521 -25.28631,-16.86893 0,-1.03176 3.4632,-1.36425 8.61251,-0.82687 10.50094,1.09588 13.14539,0.28711 13.14539,-4.02034 0,-4.7169 3.23231,-4.19883 22.02591,3.53025 9.15464,3.76495 17.32699,6.44317 18.16077,5.95161 3.70801,-2.1861 1.43362,-15.70285 -4.02343,-23.91129 l -5.5394,-8.33231 6.89927,1.15913 c 3.7946,0.63752 12.05137,2.75817 18.34838,4.71255 10.30874,3.1995 11.66321,3.28415 13.59869,0.84987 2.72843,-3.43159 15.48038,-6.20399 28.78666,-6.25852 12.79415,-0.0524 12.83916,-0.12919 8.60886,-14.6821 -1.90691,-6.56009 -3.13338,-12.24578 -2.72549,-12.63488 2.02331,-1.93008 23.40067,4.61927 37.16929,11.38751 22.16259,10.89447 23.68792,11.35621 23.68792,7.17083 0,-1.96087 -2.31301,-4.78368 -5.37551,-6.5603 -4.87924,-2.83053 -24.7541,-29.20262 -23.15654,-30.72657 0.37009,-0.35305 11.08204,2.07978 23.80433,5.40627 26.38889,6.89991 26.78536,6.84372 25.28709,-3.58373 -0.60914,-4.23943 -0.69282,-7.70806 -0.18594,-7.70806 2.82263,0 30.03948,9.28347 41.30751,14.08969 l 13.1469,5.60763 3.83543,-4.53452 c 2.10949,-2.49399 5.39745,-6.65819 7.30657,-9.25379 l 3.47113,-4.71928 3.32821,3.92081 c 1.83052,2.15645 3.32822,5.00209 3.32822,6.32364 0,3.00186 0.45245,2.99159 8.43888,-0.19162 8.24155,-3.28489 19.82776,-3.29456 35.98418,-0.03 24.83211,5.01753 26.17027,4.00413 16.87633,-12.7805 -3.18311,-5.74861 -5.21532,-10.99781 -4.51603,-11.66488 0.69929,-0.66708 9.21908,2.232 18.9329,6.4424 l 17.6614,7.65526 23.5711,0.14189 c 28.1527,0.16946 43.7421,3.33834 59.3493,12.06409 20.578,11.50479 27.0606,11.30968 61.679,-1.85637 2.6125,-0.9936 3.173,-0.2575 3.173,4.16716 0,6.53907 2.2026,6.77734 18.3455,1.98457 13.4696,-3.99908 13.2885,-4.0719 9.7823,3.93304 -4.7447,10.83249 -3.9603,12.32226 7.7989,14.81083 10.5378,2.23011 10.5485,2.22822 24.4138,-4.31643 16.4096,-7.74563 17.888,-7.22709 10.235,3.59004 -7.3148,10.33922 -5.9963,11.6497 12.7632,12.68564 8.0145,0.44258 14.5719,1.40239 14.5719,2.13291 0,4.22568 -13.2969,11.82777 -25.6165,14.64548 -7.3515,1.68143 -14.9983,4.40126 -16.9928,6.04407 -1.9944,1.64281 -6.278,4.26585 -9.519,5.82897 -3.2411,1.56313 -8.1366,3.93092 -10.879,5.26177 -4.1648,2.02114 -10.5596,2.11135 -38.8207,0.54762 l -33.8345,-1.87212 -10.3637,6.8033 c -13.7994,9.05873 -28.5712,22.87129 -27.4474,25.66503 0.4971,1.23561 4.6624,2.73801 9.2562,3.33866 4.5939,0.60065 12.1872,2.75853 16.8741,4.79529 11.2037,4.86871 22.2353,6.35502 22.2353,2.99579 0,-1.35413 -3.6716,-5.89949 -8.1592,-10.10079 -4.4875,-4.20131 -8.1592,-8.24013 -8.1592,-8.97516 0,-1.78173 15.4259,0.25699 24.3519,3.2184 9.6393,3.19808 11.5118,1.19761 8.5999,-9.18784 -1.2345,-4.40324 -1.8086,-8.42186 -1.2756,-8.93027 0.533,-0.50842 13.6728,5.11816 29.1996,12.5035 15.5269,7.38535 28.6574,13.02084 29.1789,12.52331 1.6174,-1.54284 -1.3032,-11.17995 -4.0462,-13.35159 -4.115,-3.25779 -3.3972,-7.35329 0.9039,-5.15746 8.5723,4.37638 23.6903,-0.11794 23.6903,-7.04269 0,-2.81889 3.4446,-1.15113 23.4625,11.35978 9.9534,6.22072 18.6292,11.31039 19.2796,11.31039 0.6504,0 6.0764,-3.50929 12.0578,-7.79841 5.9814,-4.28913 12.642,-8.22143 14.8015,-8.73845 3.4708,-0.831 35.7514,4.99781 39.3156,7.09909 0.7577,0.4467 9.3079,-3.1096 19.0005,-7.90289 9.6925,-4.79329 17.9464,-8.4064 18.3419,-8.02914 0.3955,0.37726 1.2238,4.7516 1.8407,9.72075 1.3027,10.49187 -0.8555,10.3911 26.8697,1.25463 21.2478,-7.00195 29.9171,-8.97087 29.9171,-6.79459 0,0.86403 -4.4876,7.08037 -9.9724,13.81409 -12.1301,14.89218 -12.1101,14.2547 -0.4533,14.46583 21.7467,0.39387 21.0261,2.13222 -6.346,15.30821 -7.5423,3.63059 -6.1949,4.77799 8.1592,6.94802 7.23,1.09302 17.3879,2.99456 22.5733,4.22565 10.4817,2.48855 11.4234,1.85643 11.4234,-7.6678 0,-6.22687 2.083,-7.47574 8.104,-4.85877 4.5074,1.9591 5.4269,1.42238 18.045,-10.53406 14.3728,-13.61918 14.4864,-13.62913 16.3403,-1.43163 1.4918,9.81481 0.6482,9.71961 19.1581,2.16203 8.1546,-3.32952 15.1233,-6.05368 15.486,-6.05368 0.3627,0 0.9023,4.86457 1.1992,10.81015 0.6047,12.11027 3.5371,14.13426 14.3106,9.87732 9.7857,-3.8666 6.0941,-30.1798 -8.1195,-57.87441 -5.3705,-10.46423 -11.6078,-22.77818 -13.8608,-27.36433 -8.1498,-16.58956 -16.874,-18.02307 -43.89,-7.21174 -18.7396,7.49923 -34.8583,10.75596 -55.3301,11.17927 -4.9739,0.10285 -1.8564,-3.38736 4.5329,-5.07489 16.876,-4.45729 12.0498,-8.06506 -17.2259,-12.87694 -24.8821,-4.08975 -33.2922,-3.11811 -64.6633,7.47073 -11.6924,3.9466 -14.1524,3.61753 -9.5131,-1.27259 6.1439,-6.47622 0.22,-12.21926 -9.1093,-8.83108 -5.4911,1.99422 -32.6814,-1.74142 -46.5252,-6.39203 -7.3858,-2.48114 -31.0524,-19.43913 -29.3696,-21.04439 0.5459,-0.52076 4.0502,-1.22389 7.7873,-1.5625 10.2667,-0.93027 41.1235,-5.96613 42.1172,-6.87358 0.4799,-0.43824 -0.5655,-3.18697 -2.3231,-6.10829 -4.2396,-7.04691 -3.4995,-7.34853 9.4965,-3.87003 13.3912,3.58429 13.5042,3.50413 10.1085,-7.17383 -1.4868,-4.6755 -2.7122,-9.02053 -2.723,-9.65562 -0.011,-0.6351 6.9794,1.11614 15.5338,3.89165 24.4906,7.94613 26.1236,7.31169 15.5377,-6.03641 -10.571,-13.3294 -10.6245,-13.51146 -3.6189,-12.32023 10.4828,1.7825 36.7983,3.881 39.026,3.11209 1.1721,-0.40456 2.7022,-3.98249 3.4001,-7.95097 0.698,-3.96847 1.9688,-8.98208 2.8239,-11.14134 l 1.5549,-3.92593 14.0832,6.8553 c 7.7457,3.77042 17.7548,9.23083 22.2424,12.13424 13.2059,8.54415 15.3125,5.59423 9.7055,-13.59145 -1.0554,-3.61125 -0.7488,-4.00465 2.2419,-2.87651 6.5204,2.45965 53.6723,11.63041 54.7098,10.64072 0.5697,-0.54346 -0.5284,-5.72993 -2.4403,-11.52547 -4.9537,-15.01635 -2.8111,-14.19645 -60.408,-23.11603 -33.2685,-5.15203 -57.4655,-5.7057 -84.4945,-1.93339 -19.7703,2.75927 -65.9157,8.77024 -106.0697,13.81682 -11.4683,1.44134 -32.6822,4.68584 -47.1422,7.21001 -24.4068,4.26054 -31.8776,4.70513 -104.2566,6.20443 -106.64384,2.20908 -107.82916,2.13512 -141.34674,-8.82015 -14.91478,-4.87492 -28.2986,-8.43123 -29.74183,-7.90293 -4.29205,1.57113 -52.28802,6.05446 -64.81566,6.05446 -12.79307,0 -13.74164,-0.92969 -7.05898,-6.9185 6.53739,-5.85861 5.99865,-6.29271 -9.34516,-7.52998 -8.66178,-0.69846 -17.35095,-2.65773 -23.11777,-5.21271 -13.42511,-5.94797 -17.31791,-6.44922 -28.34526,-3.64983 -14.54195,3.6916 -16.25104,3.42876 -16.25104,-2.49922 0,-5.44571 -3.38147,-7.192 -19.03817,-9.83186 -10.33246,-1.74214 -19.40973,-5.67035 -18.58132,-8.0411 0.38932,-1.11415 5.79541,-5.75118 12.01353,-10.30451 l 11.30568,-8.27879 h 28.90804 c 32.49247,0 32.05714,0.22451 23.47735,-12.10737 -6.68156,-9.60352 -6.8518,-9.55435 18.18874,-5.25314 34.11768,5.86039 36.51091,4.89697 31.84916,-12.82121 -1.50138,-5.70638 0.32665,-5.37876 20.24857,3.62897 15.41145,6.96831 17.34225,6.50848 15.73019,-3.74624 -1.31228,-8.34778 0.10131,-12.3486 3.43403,-9.71916 2.55155,2.01311 35.67558,14.04404 38.71448,14.06143 3.99403,0.0229 4.34026,-3.27514 1.36781,-13.02893 -1.62589,-5.33519 -2.59441,-10.04544 -2.15226,-10.46721 1.05513,-1.00653 21.46308,4.00563 29.73657,7.30326 10.08231,4.01858 11.90636,2.44534 8.69567,-7.49999 -1.47247,-4.56106 -3.16097,-10.02998 -3.75224,-12.15314 l -1.07502,-3.8603 10.61397,3.48705 c 28.40586,9.33229 49.26336,11.08437 56.35006,4.73352 4.9795,-4.46251 14.5854,-4.75335 24.6394,-0.74603 8.4066,3.35067 8.6905,2.76801 4.7301,-9.70943 -3.9049,-12.30309 -3.6839,-12.9452 3.188,-9.26243 14.1368,7.57613 38.4041,12.88706 45.263,9.9059 6.3695,-2.76843 7.1496,-2.56169 14.6915,3.89365 8.4038,7.19296 13.2486,8.72139 20.8495,6.57754 38.6,-10.88726 39.493,-10.77658 51.6097,6.39734 3.7795,5.35686 7.6877,10.31062 8.6849,11.00837 2.7477,1.92249 13.4896,-0.39 23.0575,-4.96372 4.7037,-2.24852 9.3843,-4.08822 10.4013,-4.08822 2.214,0 6.7233,9.82119 8.3822,18.25633 1.3779,7.00667 2.3095,6.94817 18.7238,-1.17574 13.2077,-6.53685 16.4944,-6.48534 16.4944,0.25847 0,6.19489 3.4014,7.84627 20.4317,9.91965 l 11.2986,1.37557 -15.3874,9.8923 c -11.3272,7.28207 -17.6664,10.18069 -24.0244,10.98525 -5.5068,0.69686 -8.6369,1.94457 -8.6369,3.44286 0,2.86655 12.7751,10.81792 22.6502,14.09775 3.9811,1.32225 8.2342,3.19249 9.4513,4.1561 4.4857,3.55125 22.8195,3.54969 39.5183,-0.003 26.9477,-5.73377 113.5644,-6.37143 137.3467,-1.01113 10.2797,2.31695 5.7432,-13.89552 -7.1032,-25.3849 -20.9261,-18.7157 -48.2235,-26.898 -114.8317,-34.4205 -39.2875,-4.43699 -43.2418,-5.59901 -62.3388,-18.31896 -32.1257,-21.39792 -35.2445,-22.50609 -74.8603,-26.5989 -10.8015,-1.11593 -26.9824,-3.59645 -35.9575,-5.51226 -36.9477,-7.88676 -68.8436,-16.08879 -72.5264,-18.65014 -7.2656,-5.05318 -31.2603,-10.36509 -34.1913,-7.56921 -4.4642,4.25858 -30.9305,9.33699 -52.8403,10.13912 -12.9641,0.47462 -27.4467,1.11778 -32.1835,1.42924 -4.7369,0.31146 -8.61254,-0.0978 -8.61254,-0.90944 0,-0.81165 1.0199,-1.49666 2.26645,-1.52225 1.24659,-0.0256 5.12219,-2.30542 8.61249,-5.06629 l 6.3461,-5.01975 -5.1043,-1.85222 c -2.8073,-1.01872 -6.2268,-1.85221 -7.5989,-1.85221 -1.3721,0 -3.01951,-0.8101 -3.66099,-1.80021 -0.70619,-1.08999 -7.40518,-1.60177 -16.98022,-1.29722 l -15.8139,0.50299 -13.95048,-10.1851 c -7.67276,-5.60181 -13.95048,-10.85555 -13.95048,-11.67497 0,-0.81943 6.93533,-1.48987 15.41185,-1.48987 16.86314,0 17.68432,-0.62989 12.70785,-9.74763 l -2.70399,-4.95418 13.60555,-0.86481 c 15.88567,-1.00975 17.48161,-2.94359 6.55751,-7.9459 -7.21098,-3.30203 -8.29147,-4.66409 -12.23621,-15.42498 -5.22278,-14.24723 -4.99318,-14.56609 7.05749,-9.80148 5.24254,2.0728 11.24654,3.76873 13.34221,3.76873 2.09568,0 9.63721,2.45512 16.75901,5.45583 15.04,6.33694 15.898,6.07749 11.8463,-3.58207 -3.9661,-9.45569 -2.9752,-9.97434 10.6616,-5.58028 13.5962,4.38096 18.1674,4.62053 21.2198,1.11209 1.2415,-1.42694 3.0587,-2.59444 4.0383,-2.59444 0.9796,0 5.9792,-2.0284 11.1102,-4.50755 11.4776,-5.54559 28.3966,-5.93346 38.9131,-0.89208 3.6736,1.76103 9.9429,4.17956 13.9319,5.37451 3.9889,1.19495 8.0277,2.85694 8.9751,3.69331 0.9474,0.83638 3.3951,1.52548 5.4395,1.53134 2.0443,0.006 5.9952,1.14426 8.7797,2.52977 2.7845,1.38551 7.8841,3.024 11.3323,3.64108 7.2575,1.2988 8.5251,-2.88026 3.6036,-11.88088 -2.8446,-5.20235 -2.3412,-5.75537 6.1501,-6.75559 19.8853,-2.34236 -17.2323,-18.30133 -47.3229,-20.34681 -20.8753,-1.41905 -25.9923,-3.35184 -45.4594,-17.1709 -9.7143,-6.89579 -10.6176,-8.83457 -4.1163,-8.83457 2.4729,0 7.5724,-1.12032 11.3322,-2.4896 3.7598,-1.36929 11.5276,-3.3703 17.2617,-4.44669 12.2304,-2.29587 12.5856,-3.22083 3.8693,-10.07458 -5.9533,-4.68113 -7.0172,-8.93351 -2.2351,-8.93351 1.0304,0 3.948,-1.55666 6.4836,-3.45925 3.3165,-2.48862 7.3555,-3.45925 14.3948,-3.45925 10.1418,0 14.3578,-3.13942 9.9117,-7.38068 -6.5308,-6.22993 2.9484,-5.80476 25.2567,1.13284 16.0527,4.99221 16.2052,4.9361 16.2052,-5.96161 0,-4.70032 0.4667,-8.54604 1.037,-8.54604 2.0052,0 16.812,8.83368 18.9759,11.3209 3.1411,3.61039 4.6352,3.14386 7.1753,-2.24037 1.2341,-2.61606 5.7202,-7.68785 9.9691,-11.27064 l 7.7252,-6.51418 5.3744,4.78455 c 4.5413,4.0429 21.9593,10.83824 27.7807,10.83824 2.83,0 1.9237,-7.23257 -1.9183,-15.30935 -6.0338,-12.68441 -4.9591,-12.75067 29.0907,-1.79343 23.7284,7.63584 29.2634,8.11968 37.5762,3.28473 6.7192,-3.90803 8.1567,-10.3967 2.3032,-10.3967 -1.9743,0 -6.6659,-1.10813 -10.4257,-2.46252 -3.7598,-1.35438 -10.6713,-2.95296 -15.3588,-3.5524 -6.4941,-0.83045 -10.9363,-2.98526 -18.662,-9.05243 -11.6117,-9.11901 -11.231,-10.71126 3.1173,-13.03581 20.4904,-3.31961 27.9883,-3.42084 33.9927,-0.45893 9.1894,4.53309 11.2501,2.63514 10.7655,-9.91485 -0.4076,-10.55318 -0.3111,-10.80067 3.951,-10.13345 13.3489,2.08972 15.2128,1.44832 15.8105,-5.44039 0.6968,-8.03106 0.9938,-8.02047 12.1294,0.4324 13.7583,10.44378 15.9642,9.80833 38.6141,-11.12354 14.5329,-13.430602 15.7887,-14.204574 19.0146,-11.718767 2.5708,1.980932 17.5119,4.104708 28.8774,4.104708 5.4259,0 11.1105,-1.675157 18.0975,-5.33301 12.7221,-6.660347 26.1834,-7.289543 35.838,-1.675109 3.4473,2.004734 14.0229,5.133129 23.5013,6.95199 l 17.2334,3.307018 16.7856,-3.700095 c 20.0413,-4.417783 23.9708,-3.745988 30.1448,5.153645 7.6508,11.02863 24.4382,11.66593 45.1752,1.71499 13.4533,-6.455732 12.1128,-7.039361 20.3779,8.87202 7.2873,14.02915 9.5952,15.91378 13.7041,11.19095 1.2598,-1.44813 7.8871,-6.51595 14.7272,-11.26183 l 12.4366,-8.62887 v 12.99145 c 0,14.68513 0.018,14.6974 16.1045,11.15954 4.3698,-0.96104 8.3592,-1.35236 8.8653,-0.8696 1.5611,1.48914 -8.5951,13.41129 -21.0875,24.75423 l -11.9056,10.81016 h 18.0878 c 19.9916,0 24.2105,-1.76984 46.8243,-19.64313 l 8.8402,-6.98695 6.5717,7.28813 c 7.4923,8.30908 11.2143,8.93607 22.4117,3.77532 11.0415,-5.08889 12.264,-4.65245 12.264,4.37835 0,10.60984 2.3391,11.00356 20.3134,3.41907 19.8584,-8.37958 19.9724,-8.37687 21.869,0.51931 1.9819,9.29625 4.3202,10.17633 15.0304,5.65696 4.687,-1.97777 10.1006,-3.59594 12.0303,-3.59594 3.641,0 21.4148,5.13316 21.4148,6.18469 0,1.07362 -26.1893,19.10295 -33.8904,23.33092 -6.5699,3.60697 -13.2517,10.97237 -13.2517,14.60743 0,4.44194 28.8471,-0.5534 43.3747,-7.51102 17.5507,-8.40548 17.4077,-8.46906 19.1978,8.53487 1.584,15.04563 1.3637,14.97058 26.927,9.17155 4.5012,-1.02109 5.0525,-0.74473 4.1657,2.0884 -4.1338,13.2077 -4.3577,12.77816 6.6615,12.77816 13.4542,0 13.6473,1.34739 1.5401,10.74308 -5.6663,4.39723 -12.2941,9.81098 -14.7286,12.03054 -8.5745,7.81771 -15.3663,11.81888 -20.0621,11.81888 -6.6727,0 -30.7195,6.08072 -48.9445,12.37661 -8.4765,2.92824 -20.7154,6.68584 -27.1974,8.35022 -6.4821,1.66438 -21.1686,5.92169 -32.6369,9.46069 -11.4682,3.539 -25.3389,7.61678 -30.8237,9.06173 -17.4295,4.59174 -18.4761,7.36147 -4.9861,13.196 16.5066,7.13927 23.842,8.65595 35.6834,7.37797 12.05,-1.30049 13.0736,-0.35765 8.2856,7.63215 -4.2664,7.11955 -3.4589,10.37775 2.572,10.37775 4.8953,0 5.5819,-0.83211 9.1679,-11.11166 4.4884,-12.86631 4.4672,-12.84594 19.9904,-19.1769 6.4821,-2.64362 16.2731,-6.73907 21.7579,-9.10099 8.2009,-3.53157 43.0729,-9.96014 44.9022,-8.27763 0.7693,0.70763 -8.7596,16.40086 -10.6272,17.50193 -0.9335,0.55036 -1.2471,1.69546 -0.6969,2.54467 1.3777,2.12646 6.0881,0.18414 26.9419,-11.1093 22.112,-11.97485 21.5244,-11.99475 20.0214,0.67813 -1.4717,12.40926 -0.4596,12.73978 10.5928,3.45925 10.1595,-8.53073 10.4027,-8.53073 10.4027,0 0,8.3998 2.2888,8.79077 15.4118,2.63271 11.5474,-5.41864 15.1184,-5.39849 23.664,0.13353 8.2946,5.36956 10.7364,3.63312 12.7307,-9.05347 0.6528,-4.15237 1.4865,-7.54977 1.8527,-7.54977 0.3662,0 7.4129,2.99997 15.6593,6.66661 30.5843,13.59887 32.6906,13.82451 55.2104,5.91463 1.3025,-0.45749 2.3674,1.43027 2.7197,4.82111 0.5128,4.93537 1.2902,5.6461 6.794,6.2118 6.9938,0.71882 9.0751,1.94449 6.3196,3.72149 -2.9165,1.88077 -8.0016,9.51415 -8.0016,12.01139 0,1.63874 2.8588,2.1475 10.4584,1.86121 8.2982,-0.31262 11.5752,0.38181 15.8651,3.36199 10.3258,7.17319 18.4652,6.82289 30.5959,-1.31676 8.0609,-5.40885 14.9504,-8.20126 28.0624,-11.37415 27.2169,-6.58607 27.8375,-6.27269 15.6485,7.90205 -14.026,16.31086 -11.1113,17.42495 15.6125,5.96767 20.7362,-8.89026 20.8392,-8.89037 16.9533,-0.0186 -1.5611,3.56413 -2.5503,7.3046 -2.1983,8.31216 0.8636,2.47144 16.7362,6.32358 26.4448,6.4179 9.8719,0.0959 9.6617,0.51343 -7.5366,14.96562 -15.1995,12.77252 -18.8953,14.1242 -39.3358,14.38613 -7.6415,0.0979 -11.6447,1.19123 -16.9475,4.62857 l -6.9427,4.50037 5.6591,3.28294 c 3.1125,1.80562 6.8632,3.28295 8.335,3.28295 6.4333,0 1.5348,3.58327 -13.1892,9.64806 -15.751,6.48776 -16.0152,6.53062 -36.7165,5.9546 -39.8379,-1.10851 -41.7138,-0.94629 -53.4882,4.62515 -5.9834,2.83127 -17.4063,7.53109 -25.3842,10.44404 -53.8308,19.65512 -53.5767,19.60283 -111.5092,22.94563 -87.6627,5.05827 -183.8065,20.43672 -264.8362,42.36122 -40.245,10.88924 -76.5807,33.23273 -93.4349,57.45479 -7.6242,10.95719 -8.1834,10.09808 12.5361,19.26237 l 15.9902,7.07251 3.743,-8.59182 c 4.2101,-9.6638 6.0387,-10.52818 9.0289,-4.26775 3.1102,6.51165 5.3353,5.53995 22.2141,-9.70122 l 15.5324,-14.02528 v 8.69495 c 0,16.29543 1.5926,16.91663 22.7,8.85419 15.6072,-5.96151 17.4855,-5.62147 13.0025,2.35399 -1.7167,3.05415 -3.5945,7.49883 -4.173,9.87706 -2.4674,10.1441 -2.0942,10.76808 8.0723,13.49749 l 9.6847,2.60008 14.5002,-7.19059 14.5002,-7.1906 -1.2623,7.35753 c -0.6943,4.04664 -1.3785,8.13586 -1.5204,9.08715 -0.142,0.9513 2.1896,1.93027 5.1813,2.1755 2.9917,0.24523 9.0131,0.89183 13.3809,1.43689 l 7.9414,0.99101 -7.0348,5.44154 c -3.8692,2.99285 -11.5962,9.54581 -17.1712,14.56214 l -10.1363,9.12061 -12.5281,0.007 c -10.9108,0.006 -13.5816,0.68016 -20.6874,5.21849 -11.2115,7.16048 -34.3364,17.53041 -36.3912,16.31896 -0.9268,-0.54643 -1.6852,-2.3793 -1.6852,-4.07305 0,-2.96851 -7.7416,-7.78068 -9.6257,-5.98334 -0.507,0.48361 -0.1944,3.29874 0.6947,6.25583 2.1481,7.14491 3.6519,6.95389 -23.7058,3.01121 -13.2841,-1.91445 -24.4256,-3.22064 -24.759,-2.90264 -1.6144,1.5401 10.691,31.40688 16.6184,40.33461 14.3293,21.58269 15.3026,21.76882 35.804,6.84655 19.807,-14.41684 30.5671,-20.64549 46.4767,-26.90385 26.455,-10.40656 86.1793,-45.07558 92.1072,-53.46679 6.1616,-8.72196 11.6889,-24.30016 11.0798,-31.22752 l -0.5442,-6.18942 -11.7855,-0.20791 c -6.482,-0.11435 -12.707,-0.30893 -13.8332,-0.43241 -2.5959,-0.28461 -37.6591,-24.06391 -38.3737,-26.02446 -0.2926,-0.80266 1.7472,-1.87941 4.5329,-2.39276 2.7856,-0.51336 10.7762,-2.3579 17.7569,-4.09898 l 12.6921,-3.16561 0.5327,-12.53978 c 0.6171,-14.5257 0.2237,-14.25975 10.0411,-6.78705 16.0735,12.2346 26.596,15.7967 26.596,9.00337 0,-1.79618 1.7695,-2.64872 5.4977,-2.64872 8.5489,0 15.496,-3.53955 38.6077,-19.6708 19.6927,-13.74488 26.6082,-16.73602 24.0625,-10.40767 -1.5117,3.75779 2.2503,11.50552 7.6459,15.74686 4.0807,3.20764 7.1534,3.83955 18.9237,3.89166 15.1452,0.067 17.1132,-1.62732 12.155,-10.465 -3.2655,-5.82046 -0.3774,-6.48984 13.211,-3.06194 20.2446,5.107 28.0947,4.00379 34.8573,-4.89864 6.5799,-8.66202 7.3453,-8.77118 15.4076,-2.19743 7.8933,6.43603 8.7616,6.3989 26.3593,-1.1273 26.3982,-11.29007 43.2533,-17.93093 43.913,-17.30163 0.5939,0.5665 -2.4648,9.58511 -5.7865,17.06142 -1.8268,4.11172 2.1226,3.9223 9.0156,-0.43241 7.7666,-4.90664 13.3898,-4.33094 20.3246,2.08085 8.8395,8.1729 37.2506,8.75133 53.4515,1.08823 4.9442,-2.33862 5.9098,1.85007 1.6835,7.30307 -2.1119,2.72492 -3.8399,5.41036 -3.8399,5.96763 0,1.44122 12.5812,-0.86938 19.0382,-3.49646 8.7229,-3.54897 35.618,-11.5409 36.3829,-10.81125 0.3844,0.36677 -3.7688,7.21964 -9.2294,15.2286 -10.5857,15.52558 -11.3247,17.23183 -7.464,17.23183 5.1928,0 19.0728,-13.69752 29.5628,-29.17417 0.2369,-0.34945 5.866,1.79097 12.5092,4.75647 15.046,6.71651 13.8432,6.7748 31.8778,-1.54472 17.2327,-7.9496 17.6431,-7.9477 20.4055,0.0948 l 2.053,5.97696 10.8511,-0.58845 c 13.9225,-0.75501 14.144,-0.98688 -22.2024,23.24796 -10.8375,7.2262 -10.7972,8.68962 0.2831,10.27466 6.6661,0.95359 9.2924,0.38051 16.358,-3.56946 4.6294,-2.58799 8.6084,-4.41629 8.8422,-4.06289 0.2338,0.3534 1.8156,3.56129 3.5151,7.12864 3.9508,8.29325 4.9764,8.18214 17.3437,-1.87903 11.1222,-9.0482 20.9781,-15.84962 22.9678,-15.84962 0.6856,0 0.9676,4.08624 0.6267,9.08053 -0.5862,8.58664 -0.3733,9.10697 3.913,9.5666 4.3244,0.46372 7.6905,-1.33462 31.0867,-16.60819 10.8287,-7.0693 10.3564,-7.37613 9.2311,5.99639 l -0.9672,11.49457 5.0317,-1.20468 c 4.3597,-1.0438 4.8522,-0.78872 3.688,1.91001 -5.2064,12.06896 -8.1706,21.97537 -6.927,23.15035 0.8063,0.76183 12.0729,-8.10452 25.037,-19.703 l 23.5711,-21.08814 0.9625,9.51293 c 1.5279,15.10044 7.5486,22.03948 17.1318,19.74504 7.3339,-1.75589 5.3486,1.74647 -5.527,9.75038 -5.5534,4.08704 -11.637,10.31043 -13.5192,13.82977 -6.8882,12.87999 -11.4618,14.90102 -36.8869,16.29992 -22.0956,1.21571 -35.764,3.93285 -35.8225,7.1211 -0.027,1.45067 5.8145,3.28422 30.1454,9.46286 13.1169,3.3309 13.1557,4.02039 0.5327,9.46551 -26.4542,11.41145 -57.9204,15.35301 -103.8827,13.01269 -37.1649,-1.89238 -34.8637,-2.17951 -60.5537,7.55556 -27.4024,10.38394 -66.5453,17.55652 -87.2933,15.99566 -23.3304,-1.75512 -50.4066,6.04649 -59.5754,17.16576 -5.0662,6.14392 -4.8476,7.18947 2.0822,9.95906 14.7038,5.87654 -49.1743,5.74861 -114.6823,-0.22967 -43.3542,-3.95652 -144.6626,-3.68476 -178.5961,0.47909 -44.0923,5.41042 -58.5271,12.24923 -89.7513,42.52187 -33.1011,32.0923 -34.7494,36.82244 -15.3002,43.90796 8.8147,3.21126 10.6724,2.84218 38.6506,-7.67881 l 9.7518,-3.66707 -1.3088,3.96894 c -0.7198,2.18291 -1.733,6.10934 -2.2516,8.7254 l -0.9429,4.75647 h 27.4903 27.4903 l -5.4877,7.60855 c -11.972,16.59914 -24.2058,21.58896 -74.1581,30.24713 -15.782,2.73547 -19.6356,4.06111 -24.4777,8.42035 -3.1607,2.84557 -7.8165,5.63484 -10.3461,6.19838 -6.2931,1.40195 -8.385,7.78547 -11.7283,35.79026 -1.5296,12.81288 -4.3971,31.19241 -6.3722,40.8434 -3.717,18.1627 -4.3845,24.82855 -2.4863,24.82855 0.6076,0 9.3788,-3.42711 19.4915,-7.6158 10.1127,-4.18869 25.0097,-10.04288 33.1044,-13.00932 16.9536,-6.21285 32.2504,-16.03886 39.7417,-25.52818 14.983,-18.97931 67.2765,-67.04028 85.4562,-78.53948 3.4402,-2.17601 11.8723,-2.98565 40.1654,-3.8566 l 35.8111,-1.10239 18.0685,-7.01465 c 25.5221,-9.90837 37.1081,-12.08133 64.4165,-12.08133 12.9022,0 23.4585,-0.33405 23.4585,-0.74233 0,-0.40829 -4.8955,-5.19675 -10.8789,-10.64104 -14.7052,-13.38019 -14.3859,-14.74809 3.173,-13.59044 7.7286,0.50954 16.2641,1.25245 18.9679,1.65091 6.4163,0.9456 7.6658,-1.32444 4.224,-7.67366 -4.5016,-8.30404 -3.6499,-8.57083 14.3999,-4.51052 l 17.1938,3.86775 10.4569,-6.04764 c 11.5885,-6.70209 51.6926,-26.46628 52.3776,-25.81283 0.2392,0.22816 -1.2976,6.02664 -3.415,12.88552 -4.6587,15.091 -4.5792,15.18854 9.543,11.69772 13.3888,-3.30956 13.9993,-2.96568 10.8575,6.11562 -2.0881,6.03537 -2.0456,7.35568 0.3088,9.60163 6.174,5.88949 15.7155,-9.97853 15.951,-26.5274 0.1008,-7.07962 -0.7053,-7.21921 17.4794,3.02684 8.4418,4.75647 15.9804,8.64813 16.7524,8.64813 0.772,0 3.3987,-5.05415 5.8371,-11.23144 2.4385,-6.1773 5.1231,-11.23645 5.966,-11.24257 0.8428,-0.006 8.8636,4.2697 17.824,9.50182 19.4578,11.36165 19.4031,11.35697 30.2968,2.59444 10.4641,-8.41699 11.0296,-8.43981 21.4294,-0.86482 8.6584,6.30661 10.7812,6.70718 36.6632,6.91842 12.3528,0.10081 12.9055,1.78945 3.8113,11.64507 -4.0153,4.35144 -7.3006,8.76519 -7.3006,9.80833 0,4.35624 19.4896,0.10966 42.0977,-9.17265 11.6322,-4.77587 12.5753,-3.28122 6.67,10.57085 -2.8729,6.73892 -1.3387,8.72106 4.2106,5.43982 2.275,-1.34512 9.0318,-4.24384 15.0152,-6.44161 13.4357,-4.93506 28.5027,-11.09496 38.0763,-15.56687 3.989,-1.86328 7.5101,-3.14502 7.8247,-2.84831 0.9135,0.86155 -10.2707,21.27951 -12.317,22.48591 -4.3467,2.56261 -1.7485,6.0776 4.4923,6.0776 8.125,0 7.9931,1.61768 -0.6736,8.26157 -3.8608,2.95969 -9.7173,8.63034 -13.0143,12.60143 l -5.9947,7.22016 9.4358,-1.23796 c 8.6843,-1.13937 13.0061,-2.16468 36.5376,-8.66818 14.5023,-4.00805 13.6603,-4.31518 12.9958,4.74051 -0.728,9.92008 -2.5604,9.73004 30.52,3.1652 16.6657,-3.30733 25.8154,-4.38123 28.6694,-3.36493 2.3055,0.82098 10.0567,1.98676 17.225,2.59063 7.1683,0.60386 14.057,1.61074 15.3083,2.23752 3.9301,1.96859 -10.0232,12.99124 -30.2762,23.91708 -25.9418,13.9948 -25.8245,15.02562 1.5726,13.8215 l 22.1077,-0.97165 -9.3715,9.45239 c -5.1543,5.19881 -9.0392,9.76925 -8.6332,10.15653 2.1981,2.09689 66.5235,-6.68883 77.2983,-10.5576 6.4706,-2.32333 12.1457,-3.86083 12.6113,-3.41667 1.2816,1.22261 -9.7928,13.98198 -17.8355,20.54904 -10.6467,8.69336 -4.4715,11.69362 7.7554,3.76799 8.4317,-5.46552 7.6319,-5.73886 11.3882,3.89166 4.8402,12.4095 5.4461,12.47237 15.588,1.61762 12.2421,-13.10249 13.7302,-13.7399 27.2345,-11.6653 14.0897,2.16455 14.0259,2.07482 7.2658,10.21682 -7.5532,9.09733 -7.3206,9.49489 4.7676,8.15045 12.8422,-1.42829 25.3339,-5.10676 38.9447,-11.46814 13.3738,-6.25062 13.9089,-4.83842 3.9843,10.51706 -9.8395,15.22408 -8.9022,16.94815 6.6769,12.28076 12.0914,-3.6225 15.544,-4.18028 23.8271,-3.84942 7.3834,0.29494 6.2369,2.37365 -6.9388,12.58108 -25.6657,19.88363 -24.0611,19.22021 -42.0341,17.37902 -19.2739,-1.97446 -20.5364,-1.11628 -13.2401,8.99993 3.1493,4.36646 5.0748,7.93451 4.279,7.929 -0.7958,-0.006 -6.1347,-0.74244 -11.8642,-1.63763 -9.3575,-1.46205 -11.4324,-1.18422 -20.398,2.73125 -12.9102,5.6382 -12.0871,9.18589 2.151,9.27053 5.145,0.0306 7.198,3.20194 2.9416,4.5441 -1.8083,0.57024 -7.3675,2.44716 -12.3537,4.17094 -22.6023,7.81387 -33.0544,8.82233 -44.6906,4.31193 l -10.6058,-4.11098 -24.9334,6.98027 c -32.573,9.11904 -55.9703,10.46012 -87.7992,5.03247 -39.2051,-6.68546 -52.0425,-4.35101 -77.162,14.03173 l -9.4803,6.93784 -14.0024,-2.97171 c -7.7013,-1.63443 -20.5694,-4.89579 -28.5959,-7.24746 -8.0265,-2.35167 -26.8325,-7.25452 -41.7911,-10.89521 -67.8665,-16.51773 -80.6657,-20.18591 -126.921,-36.37489 -13.9614,-4.88635 -33.9514,-11.8641 -44.4224,-15.50611 -10.471,-3.64201 -28.2109,-10.58307 -39.422,-15.42457 -11.2112,-4.8415 -20.77,-8.80273 -21.2419,-8.80273 -0.4719,0 -11.2892,-4.88931 -24.0385,-10.86513 -36.4877,-17.10241 -43.6696,-19.66972 -80.2951,-28.70284 -51.1274,-12.6098 -89.5409,-11.42121 -113.1579,3.50133 -12.4261,7.85154 -52.5047,52.11764 -71.1239,78.55522 -12.0981,17.17813 -19.7632,22.82575 -53.2419,39.22867 -34.7529,17.02717 -43.6411,22.6609 -59.8342,37.92541 -16.5028,15.5563 -22.2613,25.3096 -28.0742,47.5496 -2.4456,9.357 -6.2299,21.6827 -8.4094,27.3905 -7.3567,19.2655 -7.0598,46.3245 0.7816,71.2248 6.0516,19.2169 6.5123,22.4159 7.6665,53.2427 1.9441,51.9236 10.15,70.5995 45.091,102.624 20.6089,18.8887 24.642,21.2687 41.8721,24.7089 13.4535,2.6861 21.1278,6.2462 36.7563,17.051 20.6482,14.2752 40.2654,19.8206 63.874,18.0561 39.1619,-2.9271 46.276,-2.2834 62.605,5.6648 20.2998,9.8809 36.7396,19.6857 54.82,32.6952 l 15.4886,11.1445 h -7.2116 c -8.9726,0 -26.3505,-5.5753 -54.2852,-17.4163 -28.3696,-12.0253 -43.5977,-12.7983 -66.8839,-3.3951 -28.3155,11.4341 -58.4019,7.9857 -102.3762,-11.734 -9.1494,-4.103 -12.2507,-4.5283 -34.9762,-4.7969 -17.0086,-0.2011 -25.8134,-0.989 -27.6945,-2.4782 -7.7627,-6.1457 -3.6583,1.4299 5.9417,10.9667 9.7159,9.6519 16.7723,20.5321 16.7723,25.861 0,2.4926 -29.789,0.1257 -36.957,-2.9364 -11.8369,-5.0566 -24.45,-7.8587 -43.4856,-9.6606 -20.0845,-1.9012 -24.9613,-3.5846 -50.0766,-17.2857 -10.7713,-5.8761 -20.305,-3.6577 -37.499,8.7258 -21.0869,15.1873 -52.9107,27.7214 -69.8547,27.5129 l -7.8101,-0.096 5.4115,-3.7955 c 8.2026,-5.7532 17.253,-14.4584 17.253,-16.5948 0,-1.0465 -1.7266,-3.5496 -3.8369,-5.5627 -5.5391,-5.2839 -14.9129,-3.5334 -31.9725,5.9706 -25.597,14.2602 -26.577,14.4551 -77.0387,15.3252 -24.67,0.4253 -44.4622,0.3991 -43.9828,-0.058 0.4795,-0.4574 2.8099,-2.0699 5.1787,-3.5833 2.3688,-1.5134 7.4744,-4.8647 11.3459,-7.4473 3.9649,-2.645 12.3273,-5.7517 19.1476,-7.1137 11.1445,-2.2254 42.9266,-17.56 40.7325,-19.653 -0.4461,-0.4255 -5.5283,0.058 -11.2939,1.0749 -13.379,2.3594 -28.9254,2.3623 -37.0262,0.01 -3.4837,-1.0129 -13.4354,-1.9185 -22.1148,-2.0126 l -15.7808,-0.1711 -15.0429,8.7288 c -38.6232,22.4113 -59.8471,28.0201 -83.6505,22.1057 -15.9852,-3.9718 -22.92,-3.2368 -48.9575,5.1889 -20.7355,6.7099 -39.2731,9.9573 -39.2731,6.8797 z m 337.1999,-89.2274 c 13.85,-5.0452 14.9113,-5.1919 17.0813,-2.361 4.7928,6.2526 15.1055,-9.9837 20.3511,-32.041 1.4706,-6.1834 3.0986,-12.6046 3.6179,-14.2694 2.0253,-6.4925 -2.2862,-2.5324 -7.3931,6.7904 -6.9618,12.7091 -22.1822,28.2919 -37.9536,38.8575 -6.8988,4.6216 -12.077,8.4029 -11.5072,8.4029 0.5698,0 7.6814,-2.4207 15.8036,-5.3794 z m 34.0969,-174.9407 c 3.1078,-14.7621 0.7129,-49.827 -3.9407,-57.6966 -4.4438,-7.5148 -8.3508,-9.5149 -8.3508,-4.2749 0,5.6055 -3.9696,4.2982 -12.6921,-4.18 -9.3772,-9.1145 -12.9012,-10.1592 -7.293,-2.162 10.6122,15.1329 22.3125,44.4639 25.5283,63.9961 2.5927,15.7471 4.1344,16.7334 6.7483,4.3174 z m -708.06435,-31.8419 c 2.68104,-1.5807 -0.8443,-4.1643 -12.64946,-9.2704 -14.91771,-6.4524 -14.73282,-6.4668 -21.84542,1.7055 -5.42602,6.2345 -5.64915,6.9459 -2.71974,8.6714 3.03207,1.7859 33.86344,0.8692 37.21462,-1.1065 z m 60.99252,-13.79 c 3.39414,-1.3222 5.81212,-2.7464 5.37329,-3.165 -1.11595,-1.0646 -37.42494,-13.0272 -44.86114,-14.7803 -7.08865,-1.6712 -26.05574,5.762 -27.03113,10.5935 -0.53514,2.6507 15.12522,10.6182 26.65515,13.5612 5.30357,1.3538 30.53913,-2.5771 39.86383,-6.2094 z m 125.28283,-8.9822 c 16.4028,-7.9779 42.02332,-24.4567 41.28946,-26.5568 -1.16828,-3.3434 -48.61685,-1.8021 -60.94121,1.9795 -13.99666,4.2948 -35.26453,12.361 -37.39223,14.1817 -3.3352,2.8538 5.96928,8.8979 18.39666,11.9502 18.26119,4.4852 26.94758,4.1358 38.64732,-1.5546 z m 79.8328,-52.9333 c 9.2913,-6.3732 16.792,-11.9086 44.8151,-33.0727 16.8317,-12.7119 15.9419,-14.07007 -16.3395,-24.93907 -18.9264,-6.37243 -23.0311,-6.45335 -35.7821,-0.70546 -11.872,5.35167 -33.92251,12.76901 -37.94057,12.76242 -3.67168,-0.006 9.84467,-11.52118 24.79527,-21.12413 13.5566,-8.7076 13.9513,-10.78604 2.9062,-15.3024 -16.96796,-6.93822 -30.45313,-3.43342 -81.92603,21.29265 -24.26406,11.65574 -44.45637,21.69899 -44.87179,22.31829 -0.83794,1.2493 30.43966,23.9561 32.98878,23.9491 0.8826,0 7.72414,-3.8921 15.20342,-8.6437 16.87215,-10.719 16.31842,-10.7777 16.31842,1.7296 0,5.7078 0.24941,10.3778 0.55424,10.3778 0.30483,0 7.74164,-2.7647 16.52624,-6.1437 8.7846,-3.3791 16.46711,-5.6715 17.07224,-5.0942 0.60513,0.5772 -0.71244,5.8715 -2.92792,11.765 -7.23013,19.2331 -7.56235,18.884 17.33099,18.2112 l 21.35841,-0.5773 z m 558.2728,-12.6548 c 8.8562,-18.5648 28.2887,-41.52089 53.6144,-63.33609 l 7.2526,-6.24731 -9.9778,3.87463 c -22.5306,8.7492 -29.8584,15.53177 -41.5598,38.46717 -11.3384,22.224 -15.3174,31.998 -13.0262,31.998 0.7852,0 2.4488,-2.1404 3.6968,-4.7564 z m -739.64247,-5.6213 c 0,-4.7565 -0.35485,-8.6482 -0.78854,-8.6482 -8.56797,0 -12.20385,6.7297 -7.26786,13.4522 4.93912,6.7267 8.0564,4.8679 8.0564,-4.804 z m 624.62707,2.162 c 12.6151,-12.8073 19.4256,-29.18097 21.201,-50.97189 1.7546,-21.53531 4.7119,-27.99686 10.5191,-22.98358 6.3665,5.4962 12.0763,-0.15695 22.7812,-22.55539 16.45,-34.41923 20.2098,-59.18866 10.7753,-70.98803 -5.8764,-7.34941 -28.725,-23.78687 -36.4934,-26.25358 -7.3901,-2.34661 -18.2447,1.02435 -45.8967,14.25343 -22.7415,10.87984 -52.4096,20.85372 -67.5,22.69227 l -9.6647,1.17752 4.309,-4.47075 c 6.2834,-6.51935 4.2728,-8.53673 -13.6141,-13.65935 -28.8812,-8.27132 -30.9561,-8.53995 -63.8667,-8.26848 -38.2366,0.3154 -36.9874,0.36931 -35.7487,-1.54267 0.5443,-0.84011 5.291,-2.04014 10.5483,-2.66673 8.8751,-1.05779 15.9971,-3.51417 14.0078,-4.83133 -0.4697,-0.31103 -5.7496,-4.08784 -11.733,-8.39291 -32.1773,-23.15152 -36.0416,-23.62498 -36.7948,-4.50811 -0.9635,24.4568 14.1817,37.76307 55.6864,48.92498 30.2637,8.13886 49.8361,28.93459 59.7825,63.51907 8.5073,29.58089 25.9224,49.18874 61.9129,69.70853 12.8995,7.3546 27.3405,16.6966 32.0912,20.76 10.5501,9.0239 9.8889,8.9844 17.6974,1.057 z m -285.5664,-63.19725 c 37.804,-12.20275 55.2733,-15.51526 69.8066,-13.23664 13.1761,2.06585 53.0494,1.97443 54.4094,-0.12474 1.9223,-2.96696 -4.1535,-19.69487 -9.9038,-27.26716 -6.1598,-8.11166 -11.4941,-11.15807 -28.1102,-16.05382 -10.8909,-3.20886 -16.9623,-6.53025 -37.5238,-20.52726 -8.327,-5.66854 -8.5734,-5.7184 -19.0381,-3.85163 -24.091,4.29754 -80.6633,20.88701 -81.7406,23.96989 -0.3931,1.12486 2.6016,4.13868 6.6547,6.69737 10.9699,6.92507 9.4916,7.65172 -15.5672,7.65172 h -22.9367 l -14.0687,8.60892 -14.0687,8.60892 -9.6834,-3.24613 c -5.326,-1.78537 -15.7324,-5.62624 -23.1256,-8.53527 l -13.442,-5.28914 -8.7692,3.59859 c -4.823,1.97923 -8.7691,4.63168 -8.7691,5.89434 0,3.38951 32.0599,24.66829 40.653,26.9822 4.0676,1.09532 18.4106,5.31077 31.8733,9.36767 32.4726,9.7854 29.3022,9.23439 49.8619,8.6661 16.8851,-0.46673 20.5621,-1.28573 53.4882,-11.91393 z m 1188.8387,-5.52663 c 2.1121,-1.41115 15.1444,-8.13772 28.9607,-14.94792 13.8164,-6.8102 25.8958,-13.04977 26.8432,-13.8657 2.6958,-2.32182 -10.5603,-1.59088 -33.4528,1.84457 -11.4682,1.72102 -21.1483,2.88469 -21.5114,2.58593 -0.9197,-0.7568 6.8285,-12.88218 11.2351,-17.58217 4.2782,-4.56296 2.6921,-7.41127 -1.9514,-3.50442 -1.7512,1.47346 -8.8956,4.64705 -15.8762,7.05241 -6.9807,2.40536 -15.7256,5.60558 -19.4332,7.11158 -11.2809,4.58223 -15.6962,3.5481 -29.0709,-6.80876 -14.2192,-11.01088 -15.2382,-11.14651 -39.4341,-5.24878 -41.4109,10.09385 -41.9106,11.3742 -8.1592,20.90568 8.9751,2.5346 26.5174,7.60235 38.9829,11.26166 42.409,12.44942 46.2351,13.43807 52.6314,13.59986 3.5178,0.089 8.1239,-0.99279 10.2359,-2.40394 z M 674.728,956.27015 c 12.29046,-3.25963 12.12871,-4.03635 -1.89168,-9.08343 -12.427,-4.4735 -13.14564,-4.46316 -20.85431,0.30004 -9.71063,6.00021 -6.81341,9.18386 10.45603,11.48973 0.76298,0.10188 6.29346,-1.11597 12.28996,-2.70634 z m 94.96198,-5.69508 c 10.21902,-4.17858 10.4684,-6.2921 1.02855,-8.71688 -5.74895,-1.47671 -9.75478,-1.27841 -19.03776,0.94241 -15.27246,3.65373 -16.27017,3.22471 -15.62906,-6.7205 l 0.52443,-8.1351 -7.84556,1.01024 c -42.96833,5.53289 -48.93704,7.98207 -31.41662,12.89136 43.6746,12.23778 59.2114,14.1115 72.37602,8.72847 z m 1583.13022,-4.08454 c 19.511,-4.59247 20.3409,-6.23836 6.1983,-12.29278 l -11.0534,-4.73195 -14.3904,9.01234 c -23.4669,14.69667 -18.2969,16.84907 19.2455,8.01239 z m -38.0698,-10.05199 c 9.937,-6.07931 16.673,-11.2636 15.763,-12.13169 -3.352,-3.19761 -53.1634,4.58172 -63.8297,9.96865 -11.8256,5.97243 -11.9196,7.82197 -0.5288,10.41135 21.2312,4.82634 29.5256,3.4185 48.5955,-8.24831 z m -244.34,-29.06939 c 12.1834,-4.17294 23.7089,-7.01467 28.4502,-7.01467 4.3835,0 8.4443,-0.73194 9.0239,-1.62652 1.2372,-1.90967 -5.4581,-8.2695 -10.2252,-9.71282 -9.1136,-2.75926 3.2967,-5.95691 23.1191,-5.95691 12.5633,0 16.3635,-1.53748 26.1558,-10.58205 l 8.1592,-7.53623 -5.4395,-0.63704 c -2.9917,-0.35037 -12.7828,0.60288 -21.7579,2.11833 -8.9751,1.51545 -23.6617,3.96836 -32.6368,5.4509 -8.9752,1.48254 -21.622,3.81135 -28.104,5.17514 -7.1537,1.5051 -22.0596,2.49377 -37.9278,2.51565 -35.1885,0.0485 -63.6116,5.04386 -63.608,11.17907 6e-4,1.00604 7.9558,4.86426 17.6783,8.57381 9.7225,3.70956 20.125,7.78014 23.1167,9.04575 22.6345,9.57523 33.6408,9.40455 63.996,-0.99241 z m -118.3908,-35.48917 c 9.9724,-2.34085 27.2759,-5.39196 38.4523,-6.78025 13.5515,-1.68333 21.7813,-3.57518 24.7055,-5.67929 4.598,-3.30846 12.859,-14.25532 11.6373,-15.42076 -1.8997,-1.81215 -50.8867,-2.52007 -76.6082,-1.10708 -27.0532,1.48614 -29.9587,1.98583 -43.0625,7.40593 -7.7286,3.19674 -14.052,6.64579 -14.052,7.66456 0,1.73841 35.0522,18.0417 38.9829,18.13154 0.9972,0.0228 9.9724,-1.8738 19.9447,-4.21465 z m 108.5883,-5.80742 c 1.1458,-1.76846 -18.7128,-14.42492 -20.7494,-13.22422 -1.7232,1.01595 -7.1533,11.02043 -7.1533,13.17938 0,1.88368 26.6836,1.92656 27.9027,0.0448 z M 1229.2753,844.2096 c 2.4847,-2.37028 2.0307,-3.3674 -4.4074,-9.67857 l -7.1775,-7.03605 -10.8789,1.12784 c -30.0363,3.11394 -33.3224,6.01248 -13.566,11.966 8.2331,2.48101 16.2854,5.28369 17.8939,6.22818 3.8648,2.26925 14.649,0.71879 18.1359,-2.6074 z m 666.5364,-5.37901 c 7.9779,-2.67901 14.8161,-5.08172 15.1959,-5.33936 0.3799,-0.25764 -0.64,-3.14347 -2.2664,-6.41296 -1.6264,-3.26948 -2.9571,-7.57814 -2.9571,-9.57478 0,-4.84757 -2.8624,-4.58856 -17.225,1.55862 -14.5693,6.23563 -17.038,6.34645 -26.8485,1.20528 -4.1808,-2.19098 -12.0891,-5.75934 -17.5739,-7.9297 -23.7532,-9.39925 -26.2399,-10.89024 -22.4711,-13.47343 10.8936,-7.46655 11.242,-8.29731 3.7274,-8.88681 -15.8445,-1.24296 -56.5666,2.91763 -65.6765,6.71019 -10.2763,4.27808 -10.9336,3.74087 13.707,11.2017 17.1104,5.18078 39.2056,13.63131 59.8343,22.8842 36.4895,16.36723 37.4416,16.48987 62.5539,8.05705 z m -635.2175,-9.57104 c 10.2464,-6.27214 11.4062,-9.40416 2.8785,-7.77322 -3.241,0.61986 -9.0224,1.60562 -12.8475,2.19059 -7.5928,1.16117 -10.1218,4.35992 -6.6248,8.3794 3.2919,3.78378 6.8132,3.1903 16.5938,-2.79677 z m -111.8038,-3.07556 c 32.8477,-8.27287 48.0487,-14.32167 48.0487,-19.11956 0,-4.04014 -14.397,-10.68537 -22.0193,-10.16343 l -7.8978,0.5408 v 8.64812 c 0,7.62326 -0.4297,8.60254 -3.6263,8.26348 -11.746,-1.2459 -41.9293,-5.85223 -54.1311,-8.26108 -7.8329,-1.54635 -14.7088,-2.36595 -15.2797,-1.82133 -2.2867,2.18134 10.3647,11.92624 23.8298,18.35524 16.5246,7.88981 14.7032,7.68128 31.0757,3.55776 z m -113.4682,-6.08944 c 2.7443,-3.1544 5.7544,-13.2091 4.5233,-15.10935 -0.5263,-0.81237 -3.1544,-0.40443 -5.8402,0.90654 -2.6859,1.31096 -8.555,2.92163 -13.0425,3.57926 -17.2341,2.52555 -18.6358,4.51245 -6.7994,9.63769 9.1171,3.94774 18.2132,4.37156 21.1588,0.98586 z m 1003.5209,-12.53578 c 13.0863,-0.83512 17.3758,-1.79061 20.6062,-4.5901 4.6089,-3.99418 5.2773,-7.79143 1.6079,-9.13467 -3.7603,-1.37645 -35.9536,4.34733 -40.5908,7.21679 -4.8348,2.99176 -5.7842,10.35727 -1.1147,8.64797 1.6307,-0.59693 10.4018,-1.55993 19.4914,-2.13999 z M 627.50736,796.72486 c 0,-4.8292 -29.88544,-16.00175 -51.26611,-19.16564 -11.99166,-1.7745 -12.43157,-1.70471 -18.53437,2.94048 -7.9415,6.04474 -7.21526,6.58718 13.59257,10.1525 9.47375,1.62328 22.52849,3.92232 29.01053,5.10898 14.42043,2.63993 27.19738,3.09265 27.19738,0.96368 z m 52.27831,-6.2198 c 8.30972,-1.40191 15.96798,-3.0556 17.01837,-3.67487 2.29697,-1.3542 -5.44522,-7.45465 -9.53236,-7.511 -1.53431,-0.0212 -5.89823,-1.55028 -9.69759,-3.39807 -8.38828,-4.07956 -33.8587,-11.62501 -43.43448,-12.86719 -7.21668,-0.93615 -15.69804,4.68339 -15.69804,10.40114 0,5.14873 30.03588,19.57157 40.79606,19.58974 2.99171,0.005 12.23833,-1.13783 20.54804,-2.53975 z m 88.0953,-14.39993 c 13.17456,-0.7001 21.87093,-1.89574 22.27567,-3.06262 1.52379,-4.39309 -47.73583,-21.35992 -62.18842,-21.42 -2.08767,-0.009 -8.53879,-1.57244 -14.33583,-3.47502 -19.4244,-6.37509 -21.52971,-3.73256 -10.8609,13.63234 9.64396,15.69683 12.61382,17.34169 29.4702,16.32218 7.71515,-0.46663 23.75283,-1.36523 35.63928,-1.99688 z M 882.7094,762.02322 c 13.6156,-8.2534 15.3359,-17.38019 3.2637,-17.31487 -2.0443,0.0111 -14.8843,-3.61531 -28.5332,-8.0586 l -24.8161,-8.0787 -6.5405,5.47803 c -7.07755,5.92788 -6.46914,5.91234 -26.94844,0.68809 -9.06825,-2.31331 -10.8278,-2.35185 -12.21105,-0.2675 -10.75104,16.20014 22.57362,33.60867 65.41519,34.17238 l 19.0382,0.2505 z m -193.55465,2.27526 c 0,-5.16057 -9.85869,-16.19836 -15.89674,-17.798 -15.67605,-4.153 -20.47187,0.89574 -8.86969,9.33746 8.3989,6.11102 24.76643,11.70238 24.76643,8.46054 z M 879.8273,726.34774 c -0.3386,-1.8039 -2.6239,-5.80939 -5.0785,-8.9011 -5.5713,-7.01765 -19.4003,-8.20112 -25.1396,-2.15142 -4.1231,4.34608 -4.4595,4.08078 12.7981,10.09273 16.0471,5.59025 18.3126,5.71507 17.42,0.95979 z m 37.6371,-16.85039 c 3.6785,-6.55957 2.0618,-6.95552 -11.4269,-2.79854 -9.4392,2.90899 -11.9958,4.42644 -11.9958,7.11988 0,3.91865 3.2245,10.35308 6.1642,12.30043 2.1665,1.43522 12.964,-8.96391 17.2585,-16.62177 z m 952.5347,-48.98388 c 4.2123,-2.53662 12.2093,-8.22456 17.7711,-12.63987 11.0603,-8.78041 18.6812,-10.7756 50.1052,-13.11777 13.4079,-0.99935 15.4606,-1.64261 20.9242,-6.5571 3.3318,-2.99698 9.9651,-8.76735 14.7405,-12.82305 4.7755,-4.05571 8.3317,-8.33653 7.9027,-9.51294 -1.3555,-3.71688 -14.3041,-2.06247 -29.4221,3.75916 -29.5779,11.38987 -67.145,19.18147 -92.4831,19.18147 -22.1648,0 -22.7825,0.10539 -32.1454,5.48436 -12.2033,7.0108 -34.0239,22.6169 -34.0239,24.33388 0,0.72325 5.9154,1.38307 13.1454,1.46626 7.2299,0.0832 20.0807,1.16085 28.5572,2.39479 23.0471,3.35501 26.4008,3.16594 34.9282,-1.96919 z m -565.0266,-5.13236 c 9.5517,-5.33981 9.3518,-5.59731 -8.4097,-10.8303 -7.4792,-2.20359 -15.9844,-5.13307 -18.9002,-6.50996 -4.9837,-2.35332 -5.579,-2.23888 -9.9266,1.90848 -5.8668,5.59654 -3.1253,8.7528 13.415,15.44415 13.6182,5.50924 13.9448,5.50907 23.8215,-0.0124 z m 466.6379,-12.49713 c 9.4199,-4.67981 23.4381,-15.19677 24.8136,-18.61617 0.5173,-1.28609 -1.721,-7.39109 -4.9741,-13.56667 -6.6491,-12.62234 -5.7621,-12.42237 -25.279,-5.69933 -6.6555,2.29262 -15.4001,3.55653 -26.2908,3.79995 -19.534,0.43661 -20.5376,0.89488 -35.8358,16.36465 -20.1781,20.40442 -20.1586,20.50626 4.1055,21.50003 37.5938,1.5397 54.8136,0.51335 63.4606,-3.78246 z m -114.229,-1.7484 c 2.4931,-1.48439 11.0602,-8.50085 19.0381,-15.59214 7.9779,-7.09129 22.1233,-18.68698 31.4342,-25.76819 11.8523,-9.01412 16.3564,-13.42102 15.0198,-14.69597 -1.8019,-1.71888 -25.5146,-0.34495 -61.526,3.56485 l -11.4458,1.24268 -4.411,10.37775 c -2.426,5.70776 -4.4147,11.28451 -4.4193,12.39278 -0.01,2.49614 -13.777,14.19055 -27.6591,23.49584 -5.7341,3.84362 -10.4257,7.67371 -10.4257,8.51132 0,2.70322 49.2994,-0.49513 54.3948,-3.52892 z m 354.4725,-12.88723 c 4.9862,-1.43447 14.7772,-4.88392 21.7579,-7.66545 6.9806,-2.78154 17.1271,-6.46118 22.5476,-8.17698 l 9.8556,-3.11965 -4.9705,-4.07845 c -7.3522,-6.03275 -15.9722,-4.66462 -55.9017,8.8725 -12.9793,4.40032 -29.7073,15.14419 -27.9066,17.92354 1.1323,1.74774 24.1793,-0.75252 34.6177,-3.75551 z m -182.5763,-19.92069 c 5.6794,-3.65129 14.2018,-8.7844 18.9387,-11.40691 4.7369,-2.62252 8.6125,-5.47258 8.6125,-6.33348 0,-2.45071 -16.0463,-1.83315 -22.3904,0.86171 -3.1425,1.33485 -10.4051,4.40511 -16.1392,6.82281 -10.6693,4.49853 -12.1857,6.86643 -8.5487,13.34904 2.7944,4.98083 8.031,4.0977 19.5271,-3.29317 z m 65.8475,5.02736 c 9.5947,-0.81837 19.3271,-2.44881 21.6274,-3.6232 l 4.1824,-2.13525 -6.2155,-4.91814 c -9.4655,-7.48972 -21.0086,-12.27908 -24.806,-10.29232 -1.7421,0.91145 -6.1413,2.91221 -9.7761,4.44613 -8.3194,3.51099 -21.8588,14.44423 -20.4946,16.54979 1.2578,1.94145 12.5041,1.93289 35.4824,-0.027 z M 850.1631,552.95035 c 3.4189,-2.06877 -16.372,-16.58156 -32.04224,-23.49671 -8.1165,-3.58174 -9.82029,-3.4023 -7.4701,0.78677 2.59465,4.62478 -1.50544,6.21168 -9.32806,3.61033 -8.81698,-2.93201 -30.71673,-2.53958 -29.48261,0.52831 3.61027,8.97477 68.68311,24.4043 78.32301,18.5713 z m 128.5405,-6.43853 c 0.3577,-1.0252 -1.2065,-2.76283 -3.4761,-3.8614 -2.2697,-1.09857 -9.0221,-4.77726 -15.0056,-8.17487 -13.9299,-7.90996 -23.829,-12.24703 -31.4189,-13.76553 l -6.0347,-1.20737 0.5952,7.34274 c 0.5493,6.77588 0.1871,7.47493 -4.6915,9.05502 -5.3462,1.73152 -23.784,-2.04225 -41.8553,-8.56675 -3.989,-1.44018 -15.0039,-2.98178 -24.4777,-3.42578 l -17.225,-0.80728 5.4395,4.51948 c 2.9917,2.48572 9.1111,6.46069 13.5987,8.83327 4.4875,2.37258 11.4229,6.24421 15.4118,8.60363 l 7.2527,4.28986 50.6182,-0.48552 c 34.1404,-0.32746 50.83,-1.0923 51.2687,-2.3495 z m 54.9513,-7.64895 c 10.1189,-1.90259 18.7461,-3.45925 19.1714,-3.45925 5.0529,0 -2.0813,-6.34575 -12.8332,-11.4148 l -13.6065,-6.4149 -32.1758,-1.10912 c -17.6966,-0.61002 -32.8814,-0.55621 -33.7439,0.11956 -2.1349,1.67262 9.5996,8.51267 26.0458,15.18219 7.4793,3.03311 16.0465,6.59915 19.0382,7.92454 7.1445,3.16517 6.813,3.17494 28.104,-0.82822 z m 71.0772,-13.95136 c 5.2846,-1.01419 10.6935,-2.18114 12.0198,-2.59323 1.3777,-0.42806 -5.0009,-6.33364 -14.8797,-13.77626 l -17.2911,-13.02702 -10.9032,4.37769 c -6.4616,2.59434 -14.434,4.38847 -19.5704,4.40417 -13.2488,0.0405 -14.9044,2.16715 -5.6386,7.24282 27.8883,15.27673 36.1305,17.23561 56.2632,13.37183 z m 298.3921,-14.74032 c 3.2622,-1.38521 10.1255,-5.03081 15.252,-8.10134 5.1264,-3.07054 21.2077,-11.42027 35.7361,-18.55498 29.6604,-14.56582 34.0249,-18.53187 52.3862,-47.60324 19.7622,-31.28942 9.7866,-40.0056 -26.8929,-23.49775 -8.9401,4.02352 -11.8134,4.45821 -25.8375,3.9088 -17.9772,-0.70427 -18.462,-1.16525 -8.5691,-8.14711 8.1193,-5.73018 9.3356,-9.41232 3.1091,-9.41232 -2.3025,0 -5.7701,-1.14274 -7.7059,-2.53943 -1.9358,-1.39668 -5.3959,-2.56418 -7.6892,-2.59443 -2.2933,-0.0303 -6.6362,-1.27174 -9.6509,-2.75886 -6.3569,-3.13587 -10.4776,-0.88346 -25.3392,13.85083 -12.859,12.74878 -16.0309,20.11009 -16.0905,37.34246 -0.036,10.30281 -1.1643,17.78316 -3.7365,24.76437 -2.4734,6.713 -3.3262,12.09718 -2.593,16.37149 1.5408,8.98309 6.2885,27.78927 8.2716,32.76503 l 1.6699,4.18977 5.8744,-3.73236 c 3.2309,-2.0528 8.5433,-4.86572 11.8054,-6.25093 z m 132.1229,-47.36829 c 22.5031,-4.1679 60.4807,-10.08036 78.0627,-12.15304 7.1737,-0.84567 15.4963,-2.7478 18.4949,-4.22697 2.9985,-1.47916 6.666,-2.68939 8.15,-2.68939 3.983,0 30.5826,-19.62712 39.0803,-28.83635 7.8111,-8.46501 9.5861,-13.55206 4.1839,-11.99066 -17.968,5.19327 -31.75,5.62679 -46.2413,1.45455 l -10.4314,-3.00335 9.0715,-8.48431 c 11.2216,-10.49514 11.2436,-11.40637 0.2757,-11.40637 -8.4089,0 -9.3696,0.52496 -21.837,11.93279 -14.061,12.86589 -25.645,19.48609 -62.3488,35.63189 -13.6025,5.98369 -24.4295,11.84244 -25.5709,13.837 -1.0887,1.90259 -4.6409,7.48281 -7.8938,12.40049 -8.5775,12.96768 -9.6851,12.47696 17.0042,7.53372 z m -218.5786,-13.55309 c -4.1991,-7.38214 -14.6373,-13.96139 -47.114,-29.6963 -4.623,-2.23982 -15.7897,-6.22741 -39.1719,-13.98811 -11.9669,-3.97188 -25.0216,-8.58333 -29.0106,-10.24768 -13.5859,-5.66857 -46.8337,-15.74645 -50.2456,-15.23017 -3.1315,0.47385 -2.9956,1.13158 1.7157,8.29795 2.8143,4.28083 7.4062,12.98509 10.2042,19.34282 7.0722,16.06938 15.3267,23.88747 25.2676,23.93171 23.8135,0.10597 70.2928,6.71992 94.6503,13.46861 34.9983,9.69696 37.0163,9.94371 33.7043,4.12117 z m 384.9193,-8.04918 c 19.0079,-2.24932 22.4509,-3.19298 30.7548,-8.4293 5.1428,-3.24304 13.6225,-8.13531 18.8436,-10.87172 5.2211,-2.73641 9.5047,-5.55904 9.5191,-6.27251 0.039,-1.95187 -13.5264,-1.55819 -19.3473,0.56146 -2.8073,1.02228 -12.3926,2.6379 -21.3007,3.59027 -20.5343,2.19535 -46.3575,14.2083 -46.3575,21.56552 0,2.97937 1.5644,2.97131 27.888,-0.14372 z m 94.2096,-6.29853 26.9068,-2.13813 11.1695,-11.90069 c 13.3807,-14.2565 13.6048,-15.56537 2.8128,-16.42821 -8.5333,-0.68225 -22.2062,3.80726 -49.6643,16.3073 -23.8976,10.87917 -35.3079,19.36242 -23.1178,17.18749 2.7424,-0.48929 17.0943,-1.85179 31.893,-3.02776 z m 84.1492,-17.61842 c 13.2134,-4.87452 24.0243,-9.47907 24.0243,-10.23234 0,-0.75327 -7.9776,-1.36959 -17.7281,-1.36959 -19.9558,0 -22.6407,1.0747 -31.3552,12.55056 -9.1076,11.99342 -10.1278,12.03204 25.059,-0.94863 z M 1150.029,413.0021 c -4.4869,-12.0346 -13.9101,-27.88727 -21.713,-36.52791 -6.2307,-6.8997 -8.4522,-8.01414 -24.5152,-12.29805 -9.7149,-2.59094 -18.0776,-4.07178 -18.5836,-3.29077 -2.0125,3.10633 12.8554,26.27104 21.7744,33.92518 15.3023,13.13214 41.5916,29.02828 44.8401,27.11308 0.687,-0.405 -0.1243,-4.41969 -1.8027,-8.92153 z m 404.0023,1.76203 c 16.9107,-6.28363 27.5964,-11.63189 31.5238,-15.77787 3.9999,-4.22246 3.3564,-4.577 -11.2839,-6.21679 -5.3225,-0.59615 -11.3046,-2.021 -13.2936,-3.16634 -4.2554,-2.45047 -12.4662,5.29902 -21.6172,20.40269 -8.0191,13.23536 -8.0851,13.21395 14.6709,4.75831 z m -219.2303,-7.35275 c 1.6548,-5.23212 3.5361,-11.84793 4.1805,-14.70181 l 1.1718,-5.18888 -19.5288,-6.61102 c -49.3319,-16.70019 -56.0948,-21.92779 -28.3679,-21.92779 6.3853,0 5.287,-3.25534 -4.1969,-12.44051 -4.6768,-4.5294 -8.0946,-8.62506 -7.5952,-9.10147 0.4994,-0.47641 7.7935,-0.11108 16.2091,0.81183 32.5213,3.56651 33.5228,2.32263 11.5148,-14.30126 -17.6607,-13.34016 -15.9424,-13.40785 -32.9302,1.29734 -12.6077,10.9137 -13.3185,13.21991 -8.5798,27.8379 2.0494,6.32187 2.453,12.35313 1.5803,23.61237 -1.5571,20.08876 -3.9567,17.72595 33.7436,33.22639 25.2235,10.37061 28.8107,10.09574 32.7987,-2.51309 z m -254.004,-13.71146 c 0,-2.52458 -7.9057,-7.82159 -20.808,-13.94198 l -11.8682,-5.62983 -17.5673,4.27292 c -9.662,2.3501 -17.8505,5.0833 -18.1966,6.07378 -0.931,2.66443 15.1319,7.35081 25.7006,7.49815 5.0578,0.0705 12.8677,0.75142 17.3553,1.51313 11.6593,1.97904 25.3842,2.09465 25.3842,0.21383 z m 167.4323,-9.20607 c 4.1439,-15.8911 3.4112,-26.24984 -2.447,-34.5925 -6.8153,-9.70563 -6.8675,-9.71693 -13.6579,-2.95585 -2.9054,2.89292 -9.165,7.63639 -13.9101,10.54103 -9.6574,5.91161 -9.6287,7.24572 0.3608,16.77498 5.1927,4.95348 22.147,13.92588 26.5695,14.06083 1.1384,0.0347 2.5265,-1.68808 3.0847,-3.82849 z m -51.3902,-8.92198 c 0,-1.33974 -3.557,-6.59347 -7.9044,-11.67497 l -7.9045,-9.23908 -24.989,-3.93511 c -13.744,-2.16432 -25.307,-3.63182 -25.6956,-3.26111 -4.0879,3.89951 15.1867,18.24186 24.9895,18.59486 2.3838,0.0858 11.6776,2.71022 20.6527,5.83194 19.0366,6.62131 20.8513,6.94189 20.8513,3.68347 z m 280.6763,-58.77449 c 2.6929,-1.32172 11.6879,-4.14668 19.9889,-6.2777 17.8221,-4.57525 18.4507,-5.46592 18.4507,-26.14135 v -13.84148 l -11.2165,5.73836 c -17.6248,9.01689 -43.1782,33.34617 -43.1782,41.10978 0,2.61159 10.2026,2.23583 15.9551,-0.58761 z m -44.5015,-7.41668 c 11.019,-7.28436 11.2327,-8.65486 5.6833,-36.44766 -1.0288,-5.15207 -6.5739,-5.05726 -13.9744,0.23894 -3.1745,2.27182 -10.2593,6.2739 -15.7441,8.89351 -21.9891,10.50223 -28.4772,18.87883 -13.1454,16.97159 4.7368,-0.58925 9.9867,-1.74186 11.6663,-2.56135 7.7942,-3.8028 10.5449,-1.97315 10.5449,7.01402 0,7.96108 1.2177,9.98494 6.2486,10.38533 0.9436,0.0751 4.868,-1.94737 8.7208,-4.49438 z m -328.33,-15.25975 c 6.6047,-9.13323 6.3953,-10.61041 -1.6757,-11.81655 -12.1083,-1.80947 -55.5816,-1.65096 -56.2301,0.20503 -0.9565,2.73733 9.1148,8.71514 17.885,10.61559 4.3861,0.95043 12.4622,3.27218 17.947,5.15942 13.2562,4.56127 16.1605,4.01346 22.0738,-4.16349 z m 437.3523,1.6481 c 9.9689,-5.22717 28.3136,-21.88254 28.3136,-25.70631 0,-2.39214 -6.6649,-0.62423 -19.4285,5.15356 -7.5024,3.3962 -15.5394,6.86351 -17.8599,7.70513 -4.4012,1.59621 -7.6659,11.18244 -5.577,16.37537 1.3887,3.45218 1.1122,3.51921 14.5518,-3.52775 z m -68.9791,-19.46786 c 3.2547,-3.39342 3.4246,-4.22129 1.1478,-5.59479 -3.1789,-1.91767 -23.5352,-2.2363 -23.4972,-0.3678 0.022,1.09516 2.7767,9.3495 6.4534,19.33916 0.6618,1.79797 2.4387,0.85139 6.4935,-3.45925 3.0704,-3.26401 7.3015,-7.7268 9.4025,-9.91732 z m 127.8698,7.2583 c 28.2776,-6.60983 30.5336,-8.39865 15.6584,-12.41617 -19.9638,-5.39188 -23.3066,-4.86495 -31.5134,4.96754 -11.5996,13.8973 -11.644,13.87645 15.855,7.44863 z"
       id="path1" />
  </g>
</svg>
