<?xml version="1.0" encoding="UTF-8" standalone="no"?>
<!-- Created with Inkscape (http://www.inkscape.org/) -->

<svg
   version="1.1"
   id="svg1"
   width="2784"
   height="1536"
   viewBox="0 0 2784 1536"
   xmlns="http://www.w3.org/2000/svg"
   xmlns:svg="http://www.w3.org/2000/svg">
  <defs
     id="defs1" />
  <g
     id="g1">
    <path
       id="path1"
       style="fill:#000000"
       d="M 1245.1211 0.025390625 C 1241.48 0.025390625 1241.2744 0.22063462 1238.5254 6.2753906 C 1233.7835 16.719488 1229.6288 18.493425 1220.3789 14.025391 C 1213.0187 10.470149 1207.7398 12.822594 1203.2773 21.642578 C 1198.6725 30.74374 1191.2005 33.85717 1184.9902 29.265625 C 1183.5325 28.187953 1181.2237 26.990412 1179.8594 26.603516 C 1178.495 26.21662 1176.3417 25.390026 1175.0742 24.765625 C 1171.2583 22.885733 1167.9642 27.833921 1167.9102 35.525391 C 1167.887 38.825391 1167.1947 42.815256 1166.373 44.390625 C 1163.3776 50.134176 1164.5482 52.898404 1171.9551 57.574219 C 1176.7738 60.616105 1177.1169 61.250394 1176.2969 65.621094 L 1175.6152 69.248047 L 1170.707 68.597656 C 1163.8595 67.689306 1161.1497 66.330836 1155.1895 60.822266 C 1148.5678 54.702421 1146.574 54.643015 1144.3379 60.498047 C 1142.2601 65.938587 1140.2082 66.741479 1135.2207 64.068359 C 1133.1242 62.944689 1130.8221 62.025391 1130.1035 62.025391 C 1129.3849 62.025391 1127.8595 61.152363 1126.7148 60.085938 C 1124.6543 58.166286 1124.6057 58.168166 1121.8691 60.191406 C 1118.521 62.666782 1117.363 65.062294 1115.7578 72.833984 C 1114.3088 79.849594 1115.9313 83.513379 1122.4629 87.980469 C 1124.5099 89.380479 1126.5266 91.200391 1126.9453 92.025391 C 1128.9737 96.021631 1132.7589 104.79761 1133.4141 107.02539 C 1133.8186 108.40039 1134.7628 110.41317 1135.5137 111.49805 C 1139.0312 116.57994 1135.2336 119.51008 1126.0781 118.77734 C 1120.9314 118.36544 1120.5727 118.12981 1113.7109 110.68945 C 1103.6205 99.748168 1099.3585 99.845026 1090.707 111.21289 C 1086.9155 116.19477 1081.9353 118.37255 1077.1406 117.14648 C 1063.4697 113.65066 1060.2483 114.91957 1063.7656 122.41406 C 1064.8268 124.67513 1066.0074 127.65039 1066.3906 129.02539 C 1066.7737 130.40039 1067.7529 132.57806 1068.5645 133.86328 C 1070.6628 137.18566 1069.6663 137.56659 1062.6094 136.14453 C 1046.9228 132.98348 1040.8789 133.94315 1040.8789 139.59766 C 1040.8789 142.32628 1043.1742 147.44694 1045.6758 150.29883 C 1047.5164 152.39721 1046.7311 153.35073 1041.8789 154.90625 C 1029.8806 158.75265 1029.2537 162.36514 1039.3789 169.31055 C 1043.2289 171.95145 1047.9539 175.59819 1049.8789 177.41406 C 1056.1938 183.37091 1066.6297 188.28697 1075.7812 189.61719 C 1078.3106 189.98483 1081.7289 190.99996 1083.3789 191.87305 C 1085.3991 192.94203 1090.6247 193.69385 1099.3789 194.17578 C 1106.5289 194.56939 1113.8414 195.19796 1115.6289 195.57227 C 1121.6153 196.82578 1127.4244 195.22593 1132.5879 190.90234 C 1140.65 184.15158 1143.6656 183.02337 1153.5898 183.04297 C 1177.3879 183.08998 1196.3226 193.29821 1191.9941 203.74805 C 1188.613 211.9107 1181.5918 211.41919 1165.8672 201.91992 C 1155.4539 195.62918 1150.6315 194.32831 1147.4688 196.95312 C 1145.1897 198.84457 1145.4325 204.6631 1147.8789 206.75781 C 1150.9966 209.42729 1150.4128 210.65389 1142.1445 218.78906 C 1134.8147 226.00094 1134.1367 226.42322 1129.207 226.83203 C 1124.5317 227.21974 1123.7441 226.98265 1121.4414 224.49805 C 1118.7924 221.63975 1118.0798 219.02539 1119.9492 219.02539 C 1120.5374 219.02539 1120.8749 218.01289 1120.6992 216.77539 C 1120.3846 214.56039 1112.2747 211.08164 1104.1289 209.66797 C 1102.6173 209.40564 1097.5539 207.49732 1092.8789 205.42773 C 1087.5311 203.06028 1082.3221 201.50805 1078.8301 201.24023 L 1073.2793 200.81445 L 1071.4375 204.89844 C 1068.3336 211.78158 1065.82 212.72054 1058.8613 209.59766 C 1055.664 208.16278 1050.4416 206.50687 1047.2559 205.91797 C 1044.0703 205.32907 1040.6223 204.26005 1039.5957 203.54102 C 1037.9373 202.37939 1037.2801 202.72185 1033.6895 206.61719 C 1031.467 209.02838 1029.3625 210.83442 1029.0137 210.63086 C 1027.629 209.82277 1016.5996 211.96709 1015.041 213.34766 C 1014.1276 214.15665 1012.5173 214.9776 1011.4629 215.17188 C 1008.7381 215.67394 1008.5207 217.30665 1010.8262 219.96484 C 1011.9227 221.22913 1013.0616 223.02518 1013.3574 223.95703 C 1013.6531 224.88888 1016.7037 227.71805 1020.1367 230.24414 C 1023.5698 232.77024 1027.4578 235.9905 1028.7754 237.40039 L 1031.1699 239.96484 L 1027.459 244.49609 C 1023.1112 249.80199 1024.5335 249.41041 1009.3086 249.47461 C 997.81223 249.52306 997.04641 249.65639 993.25391 252.27539 C 987.73791 256.08453 985.53028 255.79041 980.11328 250.52539 C 977.56688 248.05039 974.98917 246.02539 974.38477 246.02539 C 973.78047 246.02539 970.73439 243.32253 967.61719 240.01953 C 958.83859 230.7177 953.95847 229.79072 953.82617 237.39844 C 953.74787 241.90224 950.61377 249.4534 948.66797 249.82812 C 947.75437 250.00407 944.16586 248.79401 940.69336 247.13867 C 932.47126 243.21915 929.52482 242.5453 928.10352 244.25781 C 926.86702 245.74769 928.51224 252.05914 930.71094 254.25781 C 931.35324 254.90015 931.87891 255.90681 931.87891 256.49414 C 931.87891 257.08146 932.99121 259.19818 934.34961 261.19727 C 936.48901 264.34567 936.62281 264.99413 935.34961 266.05078 C 933.04711 267.96165 933.47059 274.96031 936.05469 277.71094 C 937.97959 279.75995 939.15525 280.02539 946.31055 280.02539 C 950.75585 280.02539 955.93657 280.46895 957.82227 281.00977 C 961.41487 282.04012 967.87891 287.56676 967.87891 289.60742 C 967.87891 291.74644 963.18392 294.03601 960.07422 293.41406 C 956.63532 292.72628 952.73347 294.52929 948.13867 298.92578 C 946.35617 300.63135 944.37899 302.02539 943.74609 302.02539 C 943.11309 302.02539 941.26297 303.41925 939.63477 305.12305 C 936.14147 308.77852 936.67243 309.7022 943.67383 312.17188 C 955.11503 316.2076 957.87571 317.36093 966.12891 321.53711 C 970.94141 323.97228 974.87891 325.77267 974.87891 325.53906 C 974.87891 325.30545 976.73676 325.76971 979.00586 326.57031 C 987.49766 329.56637 997.7885 327.219 1005.7852 320.46289 C 1009.6577 317.19119 1018.6935 316.79245 1025.7891 319.58008 C 1032.8793 322.36557 1055.5788 326.93875 1065.7227 327.625 C 1075.7357 328.30239 1095.0292 326.69741 1097.3789 324.99219 C 1097.9289 324.59305 1101.0789 323.49519 1104.3789 322.55078 C 1107.6789 321.60637 1111.5039 320.2234 1112.8789 319.47852 C 1123.6275 313.65566 1146.4901 310.88378 1166.2266 313.00977 C 1179.7129 314.46248 1180.1689 315.02363 1172.1211 320.26758 C 1160.7594 327.67081 1156.7704 332.58249 1163.1289 331.3418 C 1171.9354 329.62345 1192.8789 321.06984 1192.8789 319.19141 C 1192.8789 315.81695 1234.8422 305.02539 1247.9648 305.02539 C 1257.099 305.02539 1276.756 310.02547 1282.8789 313.90625 C 1287.8219 317.03914 1290.8534 325.01391 1292.4668 339.13867 C 1293.424 347.5192 1292.3392 348.0263 1273.4062 348.0293 C 1254.9453 348.0324 1243.5191 350.75931 1214.8789 362.00391 C 1211.8539 363.19157 1207.7231 364.77642 1205.6992 365.52539 L 1202.0195 366.88672 L 1194.168 359.13086 C 1184.6838 349.76059 1182.8613 349.06903 1178.5449 353.19922 C 1175.1094 356.48661 1171.0962 358.81653 1166.6973 360.07812 C 1164.1738 360.80184 1163.2316 360.24586 1157.1387 354.43945 C 1145.2336 343.0942 1142.6273 342.90643 1111.6133 351.16016 C 1105.5154 352.783 1098.2723 354.02539 1094.9102 354.02539 C 1086.3537 354.02539 1083.7664 355.4052 1085.1074 359.25195 C 1085.8111 361.27049 1087.325 362.72494 1089.7656 363.73047 C 1094.7226 365.77271 1103.8789 372.77272 1103.8789 374.51953 C 1103.8789 378.52412 1095.8511 381.8519 1090.3105 380.14453 C 1088.6982 379.64767 1084.6789 378.68151 1081.3789 377.99805 C 1066.3762 374.89084 1054.7018 369.14466 1048.084 361.60742 C 1043.0563 355.8812 1038.3173 357.22523 1035.8105 365.08984 C 1033.6785 371.77823 1032.7005 373.02539 1029.5938 373.02539 C 1026.7472 373.02539 1019.8532 368.69627 1013.9355 363.19336 C 1009.8547 359.39852 1002.314 356.02539 997.91211 356.02539 C 993.98261 356.02539 993.87891 356.11426 993.87891 359.4668 C 993.87891 361.35934 994.32891 363.18547 994.87891 363.52539 C 996.44771 364.49496 996.05003 368.74744 994.32812 369.4082 C 992.77172 370.00546 989.11951 368.17268 985.37891 364.91602 C 981.14331 361.2284 978.36331 361.49602 977.32031 365.69141 C 976.76541 367.92373 975.50023 369.91368 974.23633 370.54102 C 973.05743 371.12615 971.37856 372.19568 970.50586 372.91992 C 969.31606 373.90745 966.9234 374.06112 960.9375 373.53125 C 952.9181 372.82136 946.88086 374.1049 946.88086 376.51953 C 946.88576 382.59449 950.8117 387.62965 959.75 393.02539 C 964.761 396.05039 968.85914 398.85091 968.86914 399.24805 C 968.87444 399.64518 966.41324 400.68801 963.39844 401.56445 C 960.38354 402.44089 957.65744 403.57787 957.33984 404.0918 C 955.88894 406.43931 947.58071 404.75599 941.87891 400.95898 C 938.94051 399.00219 934.72151 398.03498 926.12891 397.35156 L 919.87891 396.85547 L 919.87891 399.875 C 919.87891 404.27858 921.21667 407.13929 925.69727 412.31641 C 927.89097 414.85111 930.85586 419.39677 932.28516 422.41797 C 933.71436 425.43918 935.33196 428.18808 935.88086 428.52734 C 939.05316 430.488 936.06286 435.21839 931.53906 435.39453 C 928.78866 435.50163 926.96147 436.50276 923.66797 439.71289 C 921.30907 442.012 918.02891 444.21983 916.37891 444.61914 C 914.72891 445.01845 912.70391 446.08373 911.87891 446.98438 C 905.64721 453.78748 902.06217 454.23631 894.25977 449.19336 C 889.00217 445.79519 887.53957 445.33463 881.35547 445.125 C 877.51917 444.99497 871.59395 444.55555 868.18945 444.14844 C 860.37685 443.21422 856.87891 444.7072 856.87891 448.97852 C 856.87891 451.43387 857.36641 451.96777 860.12891 452.53516 C 865.72391 453.68431 874.40106 459.93285 872.72656 461.60742 C 870.77776 463.55595 860.71052 463.56006 853.41992 461.61523 C 842.58152 458.72397 836.87891 460.93686 836.87891 468.03516 C 836.87891 473.17109 838.82237 474.02539 850.50977 474.02539 C 862.24107 474.02539 862.87891 474.48542 862.87891 482.92578 L 862.87891 489.75391 L 867.51953 490.39062 C 870.07133 490.74038 873.89633 491.02539 876.01953 491.02539 C 878.14283 491.02539 879.87891 491.28064 879.87891 491.5918 C 879.87891 492.84034 877.50567 496.57531 876.23438 497.32617 C 875.48968 497.766 874.87891 499.2285 874.87891 500.57617 C 874.87891 505.12117 884.12499 503.62538 893.17969 497.61523 C 900.23099 492.93487 903.82649 492.20256 906.30859 494.94531 C 908.74919 497.64209 909.68176 497.56786 912.35156 494.46094 C 913.56356 493.0504 915.33838 491.7813 916.29688 491.64062 C 917.25527 491.49996 918.41681 490.773 918.87891 490.02539 C 919.71451 488.67338 923.79273 491.08181 928.29883 495.58789 C 930.21153 497.50062 936.60102 497.30829 939.04102 495.26562 C 939.95522 494.50025 941.30522 493.76313 942.04102 493.62695 C 942.77672 493.49078 945.12235 492.62538 947.25195 491.70312 C 951.99445 489.64943 961.01339 489.55838 970.05469 491.47461 C 982.16629 494.04157 989.78827 494.35125 998.88867 492.64453 C 1015.8526 489.46306 1033.4622 483.80639 1052.3789 475.46094 C 1065.2138 469.7986 1098.1947 466.47275 1099.6035 470.69922 C 1099.8093 471.31666 1097.3694 473.30743 1094.1797 475.12305 C 1090.99 476.93868 1085.2289 480.51905 1081.3789 483.07812 C 1076.8003 486.12147 1069.3631 489.54145 1059.8789 492.9668 C 1045.436 498.18305 1033.8789 503.57969 1033.8789 505.10742 C 1033.8789 505.5492 1034.8914 505.70437 1036.1289 505.45117 C 1037.3664 505.19796 1043.7789 504.2929 1050.3789 503.44141 C 1065.7708 501.45563 1069.0771 500.58002 1076.3789 496.54883 C 1079.6789 494.72696 1087.7789 490.42797 1094.3789 486.99609 C 1100.9789 483.56421 1108.1789 479.77569 1110.3789 478.57812 C 1112.5789 477.38056 1118.2039 474.89585 1122.8789 473.05469 C 1135.4635 468.09848 1173.8137 451.34368 1188.9316 444.19727 C 1193.6357 441.97357 1199.7107 439.6089 1202.4316 438.94336 C 1205.1524 438.27783 1208.5143 437.16609 1209.9004 436.47266 C 1213.2423 434.80076 1223.498 432.94199 1225.3848 433.66602 C 1226.2073 433.98165 1226.8867 435.42915 1226.8867 436.88281 C 1226.89 438.33646 1227.5398 440.76857 1228.332 442.28711 C 1229.6522 444.81809 1229.598 445.21058 1227.6836 446.99414 C 1222.2102 452.09337 1217.276 453.31353 1200.1289 453.8125 L 1183.8789 454.28516 L 1183.8789 458.09766 C 1183.8789 460.19377 1184.3289 462.18547 1184.8789 462.52539 C 1186.5449 463.55505 1185.9985 466.59 1184.1289 466.69141 C 1183.1664 466.74362 1179.0039 467.68713 1174.8789 468.78711 C 1165.8067 471.20631 1165.104 472.77124 1170.5645 478.38477 C 1175.5569 483.51714 1177.3271 484.07991 1191.3789 485.01172 C 1203.8779 485.84055 1204.472 485.93766 1209.3789 487.94727 C 1216.6002 490.90473 1223.0605 489.35383 1231.3008 482.68555 C 1239.5725 475.99191 1243.9191 474.63241 1250.582 476.65039 C 1253.7707 477.61615 1257.0907 478.99422 1257.959 479.71484 C 1260.1658 481.54627 1270.3005 481.3766 1274.0352 479.44531 C 1275.7161 478.57609 1279.0675 477.70459 1281.4824 477.50781 C 1286.6904 477.08343 1286.4815 476.55942 1287.3477 492.25586 C 1287.9344 502.88707 1287.9154 503.00785 1285.3457 505.24219 C 1280.5984 509.36997 1262.6292 515.01212 1250.9121 516.05469 C 1234.6506 517.50162 1220.6354 521.58864 1197.8789 531.52148 C 1174.2512 541.8346 1175.3823 541.6306 1146.3789 540.87695 C 1132.6289 540.51966 1119.6914 539.92 1117.6289 539.54492 C 1113.1656 538.73324 1112.9079 539.72091 1116.6445 543.30078 C 1120.5353 547.02842 1126.934 549.12707 1137.3789 550.10156 C 1153.9345 551.64616 1154.3194 552.38743 1142.668 560.29688 C 1131.4169 567.93458 1128.1175 569.22836 1102.543 576.01953 C 1089.6446 579.44463 1086.5572 579.26617 1082.7539 574.88086 C 1080.3005 572.0521 1080.3886 570.56502 1083.1426 568.34766 C 1087.559 564.79198 1089.8789 560.86021 1089.8789 556.92969 C 1089.8789 553.18479 1089.7684 553.07042 1084.6973 551.56445 C 1081.8475 550.71814 1079.0316 550.02539 1078.4395 550.02539 C 1077.8475 550.02539 1075.251 548.90039 1072.668 547.52539 C 1070.0851 546.15039 1067.1635 545.03016 1066.1758 545.03516 C 1058.5218 545.07095 1038.7409 537.89747 1029.7246 531.81641 C 1026.6799 529.76291 1021.8396 529.46704 1020.0801 531.22656 C 1018.3875 532.91919 1018.5809 535.14905 1020.8574 540.16602 C 1024.5958 548.40465 1022.0279 550.90036 1008.9766 551.70508 C 995.9643 552.5074 972.94057 547.63955 967.19727 542.87305 C 965.10127 541.1335 963.18137 542.60852 962.44727 546.52148 C 960.99917 554.24057 951.18531 553.84152 937.87891 545.52148 C 933.56171 542.82205 928.83351 541.33816 922.62891 540.73438 L 917.87891 540.27148 L 917.87891 543.59961 C 917.87891 545.43021 918.5654 549.53723 919.4043 552.72656 C 923.9053 569.8386 923.12563 575.02539 916.05273 575.02539 C 914.11873 575.02539 911.80752 575.68543 910.91602 576.49219 C 908.37802 578.78902 898.55043 579.6091 895.89062 577.74609 C 892.14202 575.12046 883.03201 580.05086 882.91211 584.76953 C 882.87431 586.25722 890.57706 592.02539 892.60156 592.02539 C 894.56556 592.02539 902.87891 596.99748 902.87891 598.17188 C 902.87891 599.41993 896.60471 602.02539 893.59961 602.02539 C 889.93321 602.02539 876.92938 598.38026 870.58008 595.57227 C 859.61968 590.72507 852.87891 592.34901 852.87891 599.83789 C 852.87891 603.71016 852.32871 605.18305 849.87891 607.86523 C 846.19631 611.89725 845.73911 617.68391 848.87891 620.52539 C 851.79411 623.16361 851.34478 624.93391 847.33008 626.61133 C 844.68548 627.71634 843.29788 629.21764 841.89258 632.49609 C 840.85498 634.91671 838.75933 637.71301 837.23633 638.71094 C 834.06583 640.78833 825.22626 641.20559 824.06836 639.33203 C 823.66236 638.67516 821.54197 637.7175 819.35547 637.20508 C 817.16907 636.69266 814.73557 636.1061 813.94727 635.90039 C 813.12267 635.68521 811.90071 636.79942 811.07031 638.52539 C 808.98101 642.86755 804.86471 647.06408 801.12891 648.66211 C 798.26541 649.88704 797.87891 650.51062 797.87891 653.9043 C 797.87891 662.03872 804.30081 665.51968 821.37891 666.64062 C 826.87891 667.00163 831.82891 667.64338 832.37891 668.06836 C 832.92891 668.49334 836.01066 669.52788 839.22656 670.36523 C 847.04126 672.40002 847.10741 672.5885 841.62891 677.21875 C 834.74491 683.03699 834.61852 688.02539 841.35352 688.02539 C 843.81382 688.02539 847.75132 687.15875 850.10352 686.09961 C 852.45572 685.04047 857.07891 683.16442 860.37891 681.92969 C 863.67891 680.69497 867.50391 678.92031 868.87891 677.98633 C 870.25391 677.05235 872.40395 675.97095 873.65625 675.58203 C 874.90855 675.19311 877.9731 673.10746 880.4668 670.94922 C 882.9604 668.79098 885.76231 666.99132 886.69141 666.94922 C 887.62041 666.90714 889.221 666.71355 890.25 666.51953 C 893.4301 665.91995 896.50841 667.71733 897.84961 670.95508 C 898.63871 672.86014 900.14206 674.33345 901.75586 674.78516 C 905.42686 675.81266 923.81181 675.364 933.37891 674.01367 C 937.77891 673.39265 942.50391 672.74945 943.87891 672.58398 C 946.73911 672.23979 960.28638 677.91459 963.58008 680.83594 C 964.79068 681.90966 966.09542 684.0363 966.47852 685.5625 C 967.63912 690.18667 965.15672 691.12084 952.91602 690.66992 C 947.12082 690.45644 941.92891 690.61476 941.37891 691.02148 C 940.82891 691.4282 936.69727 692.99779 932.19727 694.50977 C 925.19367 696.86291 916.87891 702.16381 916.87891 704.27539 C 916.87891 704.53918 918.21706 706.27859 919.85156 708.14062 C 929.69276 719.35228 924.29267 724.51442 902.69727 724.54102 C 895.72197 724.5496 889.68515 724.8871 889.28125 725.29102 C 888.87735 725.69493 887.24976 726.02539 885.66406 726.02539 C 882.82996 726.02539 876.87891 728.49913 876.87891 729.67773 C 876.87891 730.00852 878.52767 733.66295 880.54297 737.79688 C 884.34737 745.60056 884.02775 748.02539 879.18945 748.02539 C 877.46975 748.02539 877.53221 750.25989 879.37891 754.67969 C 881.62151 760.04699 881.36064 760.56572 875.27734 762.80664 L 869.67383 764.87109 L 863.59375 762.69922 C 859.68935 761.30404 855.65104 758.82579 852.30664 755.77539 C 846.71454 750.67481 844.52067 750.12495 839.70117 752.61719 C 836.72727 754.15504 836.64321 754.38348 837.22461 759.29297 C 837.55571 762.08839 838.40152 764.75436 839.10352 765.21875 C 843.90522 768.39504 828.77285 770.36705 822.03125 767.44336 C 820.02315 766.57247 816.91033 765.225 815.11523 764.45117 C 813.32013 763.67735 809.99747 762.74922 807.73047 762.38672 L 803.60938 761.72656 L 804.27148 765.12695 C 806.06248 774.31591 806.16266 779.02539 804.56836 779.02539 C 801.54126 779.02539 788.83366 776.0341 785.13086 774.44922 C 783.06756 773.56603 779.57891 772.72914 777.37891 772.58984 C 775.17891 772.45054 771.01641 771.98385 768.12891 771.55273 L 762.87891 770.76758 L 762.87891 777.4375 C 762.87891 787.33934 765.80561 790.63143 779.37891 795.99609 C 790.99871 800.58863 792.96711 803.10538 787.87891 806.86719 C 785.93421 808.30503 784.87891 809.96775 784.87891 811.5918 C 784.87891 812.96969 784.13727 815.22939 783.23047 816.61328 C 779.50437 822.29997 788.03266 821.00994 802.85156 813.64648 L 811.66602 809.26562 L 821.36719 812.64648 C 828.48069 815.12489 832.77456 816.02539 837.47266 816.02539 C 844.98236 816.02539 844.83881 815.75099 840.37891 821.59375 C 835.84261 827.53663 835.96044 828.50958 841.40234 830.0332 C 849.49884 832.30009 862.34763 829.40116 870.74023 823.41406 C 891.10423 808.88694 899.06991 806.19366 917.37891 807.65039 C 923.42891 808.13177 941.99141 808.3692 958.62891 808.17773 C 995.49821 807.75344 993.99455 806.66608 976.50195 821.10352 C 960.37075 834.41738 955.46851 836.41076 950.87891 831.52539 C 949.58721 830.15039 947.47023 829.02539 946.17383 829.02539 C 944.87743 829.02539 943.55879 828.35039 943.24219 827.52539 C 942.28549 825.03228 935.31687 825.56428 933.41797 828.27539 C 932.55117 829.51289 931.60636 830.36632 931.31836 830.17188 C 931.03036 829.97742 929.44006 830.37897 927.78516 831.06445 C 924.54936 832.40473 916.87891 830.94358 916.87891 828.98633 C 916.87891 826.77218 905.8431 827.95205 902.4668 830.52734 C 900.663 831.90317 897.13515 833.41228 894.62695 833.88086 C 888.58995 835.00869 883.45805 838.09006 883.06055 840.82617 C 882.88475 842.03582 883.15948 843.02539 883.67188 843.02539 C 885.39197 843.02539 893.87209 850.50844 893.87109 852.02539 C 893.87049 852.85039 892.78885 854.87539 891.46875 856.52539 C 889.10885 859.47496 888.91241 859.52463 879.72461 859.51562 C 874.58501 859.51044 868.79272 859.23649 866.85352 858.90625 C 864.91442 858.57601 858.50202 858.68222 852.60352 859.14258 C 842.91822 859.89847 840.81666 860.47012 836.03906 863.64648 L 836.03711 863.64844 L 836.03516 863.65039 L 836.0332 863.65234 L 836.03125 863.6543 C 835.9216 863.87131 837.65145 866.45721 839.93555 869.48242 C 844.00905 874.87774 844.09829 875.15013 842.27539 876.58008 C 837.05559 880.67477 834.27567 881.44377 822.70117 881.99414 C 816.27827 882.29956 810.8031 882.76919 810.5332 883.03906 C 808.9663 884.60596 808.85406 888.91048 810.34766 890.16211 C 813.14556 892.50662 813.81475 893.35958 817.81445 899.67773 C 822.78155 907.52395 824.55067 907.98709 837.63477 904.85742 C 850.72107 901.72725 875.71687 901.49484 886.07227 904.4082 C 900.43417 908.44876 910.0587 904.61595 922.25 890.00195 C 931.2784 879.17934 932.31048 878.56116 937.98828 880.56445 C 943.27668 882.43029 942.95064 882.46778 947.30664 879.51172 C 951.13174 876.91594 963.41557 873.03283 967.85938 873.01562 C 972.08937 872.99922 980.58666 868.39144 985.10156 863.66602 C 991.76676 856.6899 1015.6592 847.51078 1017.9316 851.05273 C 1022.5725 858.28622 1004.1258 879.54629 981.50586 893.03516 C 964.04226 903.44921 964.97399 905.83007 983.65039 898.51367 C 1003.4414 890.76061 1021.7443 876.47651 1027.3203 864.43164 C 1036.0383 845.59982 1036.3304 845.17105 1044.5645 839.08398 C 1057.8213 829.28393 1074.5281 810.61096 1080.4043 799.02539 C 1087.1667 785.69282 1105.3332 766.02539 1110.8867 766.02539 C 1113.824 766.02539 1119.5591 763.82593 1129.7578 758.78711 C 1138.2171 754.60772 1145.3789 754.25818 1145.3789 758.02539 C 1145.3789 760.11496 1144.8453 760.57793 1142.1289 760.83984 C 1139.5351 761.08992 1138.8789 761.60014 1138.8789 763.36719 C 1138.8789 764.58497 1138.1584 766.60925 1137.2773 767.86719 C 1136.3962 769.12514 1135.9482 770.42674 1136.2812 770.75977 C 1136.6142 771.0928 1136.1916 772.42767 1135.3418 773.72461 C 1132.7489 777.68192 1135.5739 778.90123 1139.7656 775.63477 C 1140.5277 775.04093 1141.6527 774.54902 1142.2656 774.54102 C 1144.564 774.50994 1149.4962 770.70783 1152.8789 766.36133 C 1154.8039 763.88788 1156.9132 761.17998 1157.5645 760.34375 C 1159.0002 758.50024 1159.7997 759.02902 1167.5449 766.93945 L 1172.8457 772.35352 L 1178.4277 771.01367 C 1181.4986 770.27697 1184.5509 768.90633 1185.209 767.9668 C 1190.0271 761.08799 1199.3652 760.42403 1210.7695 766.15039 C 1221.5326 771.55482 1223.4125 771.2907 1236.1289 762.58594 C 1241.4914 758.91514 1245.8789 755.54571 1245.8789 755.09961 C 1245.8789 754.6535 1243.0664 753.50376 1239.6289 752.54297 C 1231.208 750.1893 1227.3872 748.09345 1220.8789 742.25781 C 1213.5203 735.65977 1210.0709 734.02539 1203.4941 734.02539 C 1200.4776 734.02539 1196.7825 733.56025 1195.2832 732.99023 L 1192.5586 731.95312 L 1195.9688 728.41211 C 1200.8076 723.38899 1210.2848 718.459 1217.8789 717.01367 C 1226.6118 715.35159 1246.4286 719.35657 1259.0762 725.33984 C 1262.0285 726.73649 1265.5549 728.16466 1266.9121 728.51367 C 1271.0808 729.58562 1277.0765 734.29403 1280.7051 739.3457 L 1284.1621 744.1582 L 1284.957 765.8418 C 1285.3952 777.76818 1286.4242 793.82539 1287.2422 801.52539 C 1290.2745 830.06932 1289.961 869.57085 1286.6113 881.01758 C 1283.7629 890.75105 1271.8464 890.19743 1254.8945 879.54492 C 1245.9426 873.91957 1233.6412 872.57363 1226.3789 876.42383 C 1224.7289 877.2986 1222.8972 878.01653 1222.3066 878.01953 C 1221.7159 878.02292 1217.5849 879.6072 1213.127 881.53906 C 1197.791 888.18499 1191.3628 888.06685 1176.0742 880.86523 C 1171.5057 878.71327 1166.51 876.7016 1164.9746 876.39453 C 1160.6213 875.52387 1145.3458 877.73877 1141.2656 879.83203 L 1137.5879 881.71875 L 1148.209 882.91406 C 1159.1351 884.14351 1170.4519 888.39557 1173.9199 892.57422 C 1177.1209 896.43127 1165.7143 901.73712 1149.3789 903.99023 C 1112.7008 909.04917 1113.2747 908.93118 1101.8789 913.73047 C 1088.8692 919.20946 1089.1174 919.32654 1112.3789 918.69141 C 1144.3533 917.81839 1158.5617 915.64849 1191.8789 906.55078 C 1207.3167 902.33529 1211.6481 900.83263 1222.7852 895.81836 C 1227.991 893.47455 1235.3076 893.96501 1241.7793 897.0918 C 1243.9816 898.15583 1246.1659 899.02539 1246.6348 899.02539 C 1247.1037 899.02539 1249.7134 900.43828 1252.4336 902.16406 C 1255.1538 903.88983 1260.9386 906.80331 1265.2891 908.63867 C 1281.4906 915.47377 1283.3789 918.33228 1283.3789 936.02539 C 1283.3789 948.48759 1280.0106 989.18834 1278.2578 997.89844 C 1277.5778 1001.278 1271.4179 1000.4706 1257.4512 995.17188 C 1242.0945 989.34588 1241.6271 989.46136 1242.8398 998.78516 C 1243.604 1004.6605 1244.8694 1006.0405 1251.8789 1008.6387 C 1262.0112 1012.3945 1273.3065 1017.0525 1274.0117 1017.7656 C 1276.6834 1020.4674 1277.8882 1074.5374 1275.8379 1099.7207 C 1274.7021 1113.6718 1271.0335 1135.1751 1267.7676 1147.0254 C 1264.6201 1158.446 1264.5816 1159.0223 1266.2871 1169.75 C 1268.1373 1181.3872 1268.5193 1243.2618 1266.9219 1272.5254 C 1266.4116 1281.8754 1265.7139 1297.1754 1265.3711 1306.5254 C 1263.651 1353.4513 1258.9563 1390.0219 1252.8906 1403.7344 C 1247.942 1414.9215 1225.1278 1443.1617 1215.5391 1449.9688 C 1205.3355 1457.2122 1197.8234 1460.0038 1185.7324 1461.0449 C 1164.429 1462.8792 1162.3753 1463.1343 1155.959 1464.7441 C 1151.0148 1465.9846 1148.3425 1467.4106 1144.3438 1470.9414 C 1134.744 1479.4177 1129.4132 1483.6197 1123.3789 1487.4688 C 1120.0789 1489.5737 1116.2539 1492.0527 1114.8789 1492.9785 C 1113.5039 1493.9044 1107.2039 1496.3929 1100.8789 1498.5078 C 1094.5539 1500.6227 1088.4789 1502.7146 1087.3789 1503.1582 C 1086.2789 1503.6018 1081.8128 1505.3552 1077.4531 1507.0547 C 1069.6036 1510.1147 1062.1097 1515.0254 1065.2891 1515.0254 C 1066.1483 1515.0254 1076.6447 1514.3458 1088.6152 1513.5156 C 1116.2948 1511.5958 1125.0686 1509.5847 1131.8789 1503.5996 C 1137.0915 1499.0187 1152.6173 1490.1926 1158.3457 1488.5527 C 1163.3284 1487.1263 1166.5436 1486.9628 1177.8457 1487.5645 C 1188.8798 1488.1519 1199.3855 1489.704 1194.082 1489.9629 C 1193.3679 1489.9978 1190.9193 1490.9254 1188.6426 1492.0254 C 1186.3658 1493.1254 1184.0256 1494.0291 1183.4414 1494.0391 C 1181.6776 1494.0605 1164.0131 1502.8155 1159.5488 1505.8809 C 1157.2558 1507.4553 1151.4321 1511.245 1146.6074 1514.3027 L 1137.8359 1519.8613 L 1144.459 1520.5703 C 1154.4866 1521.6442 1160.1483 1520.5945 1168.4453 1516.1191 C 1177.6242 1511.168 1187.4019 1507.6244 1195.9219 1506.1621 C 1204.1499 1504.75 1219.0353 1499.7605 1222.6426 1497.2051 C 1225.0301 1495.5139 1243.7753 1489.8959 1252.3789 1488.293 C 1257.1428 1487.4055 1262.0532 1483.6952 1272.916 1472.7754 C 1274.9678 1470.7129 1276.9223 1469.0254 1277.2617 1469.0254 C 1278.9431 1469.0254 1277.1021 1471.7593 1268.4023 1482.1777 C 1261.9179 1489.9432 1258.0707 1495.5777 1256.2168 1500.0254 C 1254.7266 1503.6004 1253.0918 1507.0827 1252.582 1507.7637 C 1251.4588 1509.2643 1235.7153 1517.0212 1233.7656 1517.0352 C 1227.3702 1517.0802 1211.9088 1529.9676 1211.8828 1535.2754 C 1211.8766 1536.5231 1225.6703 1536.1552 1226.0898 1534.8965 C 1226.5807 1533.424 1238.7234 1530.158 1246.3789 1529.4395 C 1264.6407 1527.7257 1282.0048 1517.5088 1288.9004 1504.418 C 1292.623 1497.351 1305.9663 1492.5055 1316.3477 1494.4531 C 1319.8484 1495.1098 1327.8789 1501.1999 1327.8789 1503.1973 C 1327.8789 1503.7135 1328.7788 1506.1086 1329.877 1508.5195 C 1331.8643 1512.8818 1332.6284 1515.7135 1332.8457 1519.5254 C 1333.0278 1522.7192 1341.2809 1513.0662 1344.9609 1505.3555 C 1348.9671 1496.9613 1350.5064 1497.1246 1363.9941 1507.3809 C 1377.3492 1517.5365 1383.4051 1519.3472 1409.5605 1521.0078 C 1419.0099 1521.6078 1429.2452 1522.7519 1432.3047 1523.5488 C 1438.653 1525.2024 1452.8406 1532.0681 1454.8086 1534.4395 C 1456.3762 1536.3283 1459.8789 1536.5549 1459.8789 1534.7676 C 1459.8789 1532.4154 1454.6696 1523.54 1451.0176 1519.6699 C 1443.9226 1512.1513 1436.898 1508.8736 1417.4902 1504.0254 C 1406.2035 1501.206 1394.8789 1495.2752 1394.8789 1492.1836 C 1394.8789 1491.7561 1392.8539 1489.0343 1390.3789 1486.1348 C 1383.6682 1478.273 1384.8312 1477.2354 1393.1289 1483.6816 C 1402.1859 1490.7176 1405.3151 1492.1144 1421.9746 1496.5586 C 1439.0668 1501.1183 1444.7538 1501.5925 1458.6641 1499.623 C 1480.4444 1496.5392 1485.1375 1497.2365 1497.0801 1505.3203 C 1506.0676 1511.4039 1513.1571 1513.5143 1523.8789 1513.3027 C 1556.8487 1512.6519 1565.7323 1512.7405 1569.1289 1513.75 C 1573.815 1515.1428 1573.9202 1513.9219 1569.4082 1510.4805 C 1563.9597 1506.3247 1551.9336 1502.9794 1538.8789 1501.9883 C 1521.4692 1500.6664 1519.7378 1499.9722 1506.8789 1489.1582 C 1496.2826 1480.247 1491.9877 1478.7488 1474.4805 1477.8613 C 1451.6779 1476.7053 1443.6175 1474.5568 1428.6113 1465.6309 C 1415.1835 1457.6438 1389.3361 1433.4539 1386.834 1426.5332 C 1386.236 1424.8792 1384.8214 1421.2754 1383.6895 1418.5254 C 1375.8225 1399.4117 1371.5618 1377.106 1371.4648 1354.5254 C 1371.395 1338.2619 1372.5292 1307.1537 1373.4434 1300.252 C 1373.682 1298.4508 1372.3186 1287.2008 1370.4141 1275.252 C 1362.8133 1227.5635 1360.6311 1201.2316 1360.4922 1155.5254 C 1360.3585 1111.5357 1361.3706 1105.5668 1373.293 1080.0254 C 1377.8128 1070.3426 1375.7697 1067.4338 1367.3125 1071.5098 C 1364.6098 1072.8123 1362.2502 1073.7307 1362.0703 1073.5508 C 1361.8904 1073.3708 1361.312 1066.9917 1360.7852 1059.375 C 1360.2583 1051.7582 1359.4491 1041.4754 1358.9863 1036.5254 C 1357.2553 1018.0093 1359.5846 987.79533 1363.3984 979.30273 C 1365.9751 973.56483 1369.1609 971.07979 1377.3789 968.40039 C 1382.4882 966.73459 1383.6566 966.24613 1399.5117 959.12695 C 1404.5343 956.8717 1409.124 955.02539 1409.7109 955.02539 C 1411.875 955.02539 1416.1288 947.98803 1416.625 943.58789 L 1417.125 939.16211 L 1413.416 938.4668 C 1406.3444 937.14016 1386.827 941.74329 1370.3809 948.61719 C 1368.7309 949.30683 1366.1687 950.17378 1364.6875 950.54297 L 1361.9941 951.21484 L 1361.6074 937.86914 C 1360.9563 915.42303 1361.7529 889.86948 1363.3672 881.43359 C 1365.2752 871.46069 1365.2488 859.27996 1363.3027 851.52539 C 1361.7215 845.22498 1360.1573 815.03853 1361.1973 810.89453 C 1363.9447 799.94799 1371.259 795.96392 1404.9805 787.04688 C 1417.0308 783.8604 1431.4078 774.28233 1436.0449 766.35156 L 1437.709 763.50391 L 1427.9336 764.16211 C 1421.8828 764.56863 1414.7721 765.84654 1409.2695 767.51758 C 1404.3801 769.00238 1393.8539 772.22566 1385.8789 774.67969 C 1364.2739 781.32788 1359.4783 782.20597 1357.4824 779.875 C 1351.6347 773.04531 1349.4942 719.42575 1353.7363 686.02539 C 1358.4567 648.85954 1358.022 649.45791 1380.2227 649.67383 C 1412.6309 649.98901 1439.3424 658.23366 1463.8047 675.47266 C 1472.4088 681.53619 1475.3278 684.58514 1484.8789 697.4707 C 1497.7046 714.77406 1499.5852 716.21729 1513.3867 719.36719 C 1527.1088 722.49895 1538.0959 727.43476 1542.0801 732.25781 C 1565.3359 760.40981 1586.5158 779.9187 1597.6641 783.45703 C 1599.0589 783.89972 1601.3769 787.28277 1604.4238 793.32422 C 1606.9741 798.38101 1609.5602 802.82902 1610.1719 803.20703 C 1611.9168 804.28527 1612.9362 803.10882 1611.8848 801.23047 C 1611.0375 799.71677 1608.805 786.86131 1609.293 786.30664 C 1610.8877 784.49381 1640.6843 794.23296 1647.0586 798.65039 C 1652.8843 802.68756 1653.3956 801.0403 1648.3438 794.50977 C 1643.2535 787.92968 1638.5497 784.56112 1633.0059 783.52344 C 1631.0118 783.15018 1627.4909 781.98567 1625.1836 780.93555 C 1622.8762 779.88542 1620.4012 779.02067 1619.6836 779.01367 C 1617.3508 778.99061 1606.2894 775.23275 1599.5215 772.16406 C 1590.4563 768.05368 1579.7775 759.00332 1569.8789 747.04492 C 1567.4039 744.0549 1563.6914 739.65174 1561.6289 737.25781 C 1557.9162 732.94846 1557.0567 730.65217 1558.7598 729.59961 C 1560.552 728.49198 1581.1398 735.16478 1592.0801 740.39844 C 1621.7368 754.58573 1624.9706 755.10732 1647.8613 749.42188 C 1665.9016 744.94116 1687.2154 744.67621 1696.0664 748.82227 C 1700.8774 751.07585 1711.0137 754.02539 1713.9473 754.02539 C 1714.8531 754.02539 1720.9302 755.65894 1727.4531 757.6543 C 1742.1516 762.15062 1747.0492 761.95028 1767.3477 756.02539 C 1779.8072 752.3886 1782.0377 752.01813 1787.9785 752.60352 C 1796.2471 753.41828 1800.7975 752.03972 1805.1855 747.38867 C 1808.1084 744.29046 1808.7514 744.02633 1811.1582 744.94141 C 1813.6285 745.8806 1813.9039 745.73765 1814.4277 743.24609 C 1815.5766 737.78083 1815.6241 737.23155 1815.0078 736.37695 C 1813.9358 734.8903 1803.6212 731.22817 1798.5723 730.54102 C 1792.6934 729.74091 1792.0657 728.44768 1794.2305 721.58008 C 1798.4512 708.19047 1793.1742 697.73009 1785.8789 705.02539 C 1784.7789 706.12539 1783.409 707.02539 1782.834 707.02539 C 1782.259 707.02539 1780.6597 708.1547 1779.2793 709.53516 L 1776.7695 712.04492 L 1772.2344 708.92578 L 1767.6992 705.80469 L 1768.3652 699.16211 C 1769.3243 689.61201 1767.0497 687.43961 1757.7676 689.03906 C 1739.6538 692.16033 1734.7157 692.21389 1730.2656 689.33984 C 1728.3287 688.08891 1727.4095 688.50809 1719.2656 694.34766 C 1709.9009 701.06261 1706.3676 702.63598 1698.6289 703.54297 C 1692.1128 704.30666 1692.3426 702.45155 1699.6289 695.47266 C 1704.0518 691.23634 1706.6483 689.61689 1710.8789 688.45312 C 1720.3909 685.83652 1726.2385 679.78468 1725.6816 673.13086 L 1725.3789 669.52539 L 1716.1289 669.76367 C 1705.7847 670.02895 1706.0642 670.28589 1708.3906 662.61719 C 1709.2097 659.91728 1709.8789 657.32978 1709.8789 656.86719 C 1709.8789 655.66714 1698.5399 655.82471 1695.2637 657.07031 C 1693.753 657.64467 1689.1099 658.50429 1684.9473 658.98047 C 1680.7847 659.45666 1674.4539 660.39997 1670.8789 661.07617 L 1664.3789 662.30469 L 1654.3789 657.25586 C 1638.1002 649.0355 1633.317 647.61493 1628.1992 649.48047 C 1627.5498 649.71716 1626.2362 652.52434 1625.2812 655.71875 C 1622.7802 664.08498 1618.4932 667.60737 1617.3027 662.27539 C 1615.437 653.91878 1613.7174 651.0288 1610.998 651.67969 C 1607.8052 652.44389 1608.6619 651.4384 1605.0078 658.72852 C 1596.7999 675.10363 1587.4743 676.06895 1555.3789 663.86719 C 1542.0669 658.80631 1540.288 654.56352 1548.8789 648.36328 C 1559.4456 640.73707 1562.7406 637.04332 1557.6289 638.55664 C 1553.3141 639.83405 1532.3746 650.34405 1531.6191 651.61133 C 1528.7349 656.44922 1495.208 656.75828 1479.3164 652.09375 C 1459.324 646.22555 1443.4734 640.74735 1434.9961 636.77344 C 1430.3857 634.61221 1424.7693 632.1923 1422.5137 631.39648 C 1420.2581 630.60066 1417.4333 629.30778 1416.2363 628.52344 C 1413.3339 626.6217 1406.6696 625.64136 1375.3789 622.51367 C 1359.7938 620.95585 1353.4713 615.4024 1352.4785 602.39844 C 1350.8886 581.57199 1356.1044 573.79838 1377.8789 564.53906 C 1380.9039 563.25272 1386.7539 560.66279 1390.8789 558.7832 C 1398.2838 555.4091 1405.3489 553.34572 1417.709 550.94727 C 1424.1771 549.69217 1429.582 549.78154 1478.8789 551.96484 C 1491.2539 552.51292 1508.3539 553.15457 1516.8789 553.39062 C 1536.0856 553.92246 1536.586 554.07581 1569.7656 569.67578 C 1574.9275 572.10269 1579.3692 573.87101 1579.6367 573.60352 C 1581.4627 571.77754 1571.2055 559.41114 1563.4258 554.05859 C 1558.0036 550.32796 1557.9213 549.44385 1562.625 545.52539 C 1567.8787 541.14876 1578.7282 540.67439 1587.6504 544.42969 C 1591.0438 545.85794 1594.3039 547.02539 1594.8965 547.02539 C 1595.4892 547.02539 1603.7422 550.85039 1613.2363 555.52539 C 1622.7305 560.20039 1631.3327 564.02539 1632.3516 564.02539 C 1633.3705 564.02539 1636.4927 564.69553 1639.291 565.51367 C 1642.0893 566.33182 1646.907 567.47603 1649.9961 568.05664 C 1655.6721 569.12347 1659.7583 571.35232 1673.0586 580.63477 C 1685.6925 589.45212 1692.42 592.50722 1708.0605 596.5332 C 1720.1394 599.64239 1740.1732 599.92825 1738.3418 596.96484 C 1738.0638 596.51509 1738.633 596.11773 1739.6074 596.08203 C 1758.7461 595.38097 1773.4506 592.96395 1769.8789 591.10547 C 1766.6626 589.43193 1748.0986 587.71813 1743.2188 588.64453 C 1728.5702 591.42534 1705.3878 587.74071 1695.3789 581.04102 C 1693.7289 579.93655 1690.0553 577.85328 1687.2148 576.41016 C 1684.3744 574.96703 1680.3244 572.00015 1678.2148 569.81836 L 1674.3789 565.85156 L 1680.8789 566.51172 C 1695.453 567.99011 1719.0913 567.51816 1724.998 565.63086 C 1731.9795 563.40011 1738.3232 563.74482 1754.3789 567.23047 C 1760.9789 568.66331 1771.12 570.72595 1776.9141 571.81445 C 1787.3594 573.77673 1789.3536 574.67124 1797.9043 581.2207 C 1802.2011 584.5119 1809.7601 586.4017 1813.2773 585.06445 C 1816.9266 583.67701 1824.2893 578.14503 1824.9512 576.29297 C 1825.2652 575.41424 1826.1652 574.57197 1826.9512 574.41992 C 1827.7371 574.26787 1829.5039 573.83305 1830.8789 573.45508 C 1836.4491 571.92392 1842.1033 571.91569 1848.7598 573.42969 C 1861.1884 576.25652 1864.6864 574.42844 1861.5723 566.72852 C 1859.273 561.04294 1860.175 560.02539 1867.5195 560.02539 C 1871.0903 560.02539 1874.9385 559.52868 1876.0723 558.92188 C 1877.2061 558.31506 1881.6539 557.57815 1885.957 557.2832 C 1893.6131 556.75844 1893.7964 556.68487 1894.4199 553.8457 C 1895.2357 550.13158 1894.2823 549.06497 1887.4629 546.0625 C 1880.6083 543.04456 1880.5131 542.00663 1886.8281 539.04883 C 1892.4356 536.42243 1893.1647 535.24385 1892.3242 530.14258 C 1890.6671 520.08583 1887.8246 518.87778 1878.9648 524.4707 C 1874.4126 527.34442 1871.9455 525.82098 1875.2461 522.17383 C 1876.5227 520.76315 1876.7587 518.85943 1876.3906 512.96094 C 1876.1354 508.87186 1875.9173 504.5287 1875.9043 503.31055 C 1875.8255 495.98547 1867.7898 499.56543 1859.1484 510.77539 C 1856.9451 513.6337 1856.0849 514.02001 1852.0117 513.97461 L 1847.3789 513.92188 L 1844.3789 507.72461 C 1840.5715 499.85812 1835.9054 498.26791 1827.7871 502.07031 C 1825.1316 503.31407 1822.2761 504.00787 1821.3242 503.64258 C 1818.4966 502.55754 1799.7626 499.65432 1793.8789 499.38867 C 1790.8539 499.25209 1788.1838 499.11323 1787.9434 499.08203 C 1787.15 498.97897 1793.234 493.02539 1794.1328 493.02539 C 1794.6166 493.02539 1796.4883 491.90039 1798.291 490.52539 C 1800.8827 488.54863 1802.7378 488.02539 1807.1523 488.02539 C 1815.1504 488.02539 1817.1162 485.42926 1816.2422 476.02539 C 1815.6956 470.1444 1815.9388 468.57796 1818.1348 463.78125 C 1822.0375 455.25662 1823.7197 444.36087 1821.3965 442.66211 C 1819.8262 441.51384 1818.6643 441.84614 1812.6211 445.16797 L 1805.6562 448.99609 L 1802.291 445.26172 C 1800.4401 443.20739 1798.9153 441.18789 1798.9023 440.77539 C 1798.8061 437.66509 1790.651 445.56987 1787.4609 451.86523 C 1783.4835 459.71424 1779.486 463.66801 1773.582 465.59375 C 1770.7201 466.52721 1767.8682 467.69402 1767.2422 468.1875 C 1766.5537 468.73031 1765.0591 468.60909 1763.4609 467.88086 C 1760.9417 466.73308 1760.8475 466.41832 1761.4297 461.10156 C 1761.9893 455.9927 1761.7742 455.12757 1758.8652 450.77539 C 1757.1189 448.16289 1755.2523 446.02539 1754.7148 446.02539 C 1754.1774 446.02539 1753.0613 445.35039 1752.2363 444.52539 C 1748.723 441.01207 1744.7917 443.89625 1743.4922 450.94141 C 1741.4252 462.14856 1728.5695 466.49631 1720.1055 458.84961 C 1716.0033 455.14356 1709.623 452.57675 1701.8789 451.51562 C 1699.4039 451.17649 1696.4789 450.77149 1695.3789 450.61719 C 1691.0257 450.00652 1692.8364 447.40178 1700.0938 443.83398 C 1704.1008 441.86403 1708.5826 439.97791 1710.0527 439.64062 C 1711.5228 439.30333 1713.9978 437.99163 1715.5527 436.72656 C 1717.1076 435.46149 1721.6098 432.53433 1725.5586 430.22266 C 1734.1333 425.20294 1740.8789 416.63488 1740.8789 410.76172 C 1740.8789 409.3397 1731.8139 410.57813 1723.8789 413.08398 C 1716.3722 415.45456 1709.9625 415.07585 1703.1426 411.85938 C 1696.1953 408.58288 1693.2393 409.74385 1677.916 421.77539 C 1667.4981 429.95524 1666.4688 430.26549 1664.084 425.92773 C 1658.2568 415.32863 1652.3134 412.67865 1636.4844 413.625 C 1626.6136 414.21513 1624.6027 414.07387 1622.4062 412.63477 C 1619.5145 410.74007 1613.5559 411.85821 1610.1562 414.93359 C 1603.6253 420.84149 1594.9034 423.32948 1582.3359 422.86914 C 1571.2602 422.46343 1568.541 420.99995 1571.2305 416.89062 C 1572.082 415.58958 1573.0906 412.56739 1573.4727 410.17383 C 1574.3056 404.95583 1573.1067 403.81403 1567.6973 404.67383 C 1564.9725 405.10692 1563.2833 404.751 1561.1973 403.30469 C 1555.742 399.5224 1555.0997 399.62816 1546.1719 405.75195 C 1532.6717 415.01208 1531.3718 415.42646 1510.6836 417.05078 C 1501.0406 417.80789 1498.3586 417.70653 1495.4102 416.47461 C 1489.322 413.93078 1486.3481 418.17203 1485.0508 431.25 C 1484.7134 434.65078 1479.2 436.33563 1470.4297 435.7168 C 1463.0344 435.19499 1462.0906 435.34693 1458.8223 437.58984 L 1455.2637 440.03125 L 1447.8223 438.05273 C 1438.3703 435.53922 1436.8789 435.52689 1436.8789 437.9668 C 1436.8789 439.03434 1437.3289 440.18547 1437.8789 440.52539 C 1438.4289 440.86531 1438.8789 442.38211 1438.8789 443.89453 C 1438.8789 445.40695 1439.5402 447.51636 1440.3477 448.58398 C 1442.4393 451.34933 1442.3153 451.57895 1438.0156 452.86719 C 1432.6533 454.47378 1428.8789 457.66611 1428.8789 460.59766 C 1428.8789 463.01438 1428.926 463.02539 1439.4414 463.02539 C 1456.4246 463.02539 1458.927 464.25515 1471.6289 478.83789 C 1477.4809 485.5562 1482.5182 485.85398 1487.8516 479.79492 C 1492.8991 474.06066 1496.4183 472.59438 1503.4141 473.31641 C 1511.5917 474.16041 1515.0912 479.79236 1508.0879 480.83789 C 1506.0711 481.13898 1498.8789 488.17979 1498.8789 489.85352 C 1498.8789 491.34157 1503.3256 494.7502 1506.1328 495.41406 C 1510.1849 496.37232 1517.8789 504.11 1517.8789 507.22656 C 1517.8789 510.56954 1504.517 523.3957 1498.2227 526.09375 C 1491.9795 528.7699 1483.1874 528.48956 1451.3789 524.60742 C 1430.6593 522.07865 1426.7882 519.30223 1434.2246 512.30273 C 1437.8193 508.91914 1439.6416 504.38975 1438.0488 502.79688 C 1436.5832 501.33128 1431.5049 504.44928 1426.1602 510.09766 C 1423.5302 512.87715 1419.1289 516.79685 1416.3789 518.80664 C 1413.6289 520.81644 1411.1539 522.74648 1410.8789 523.0957 C 1410.111 524.07091 1398.1213 528.02539 1395.9336 528.02539 C 1394.8683 528.02539 1393.7496 528.42679 1393.4473 528.91602 C 1393.1449 529.40525 1391.4313 530.05132 1389.6387 530.35352 C 1379.7889 532.01404 1375.4462 533.25105 1366.3789 536.97266 C 1360.8789 539.2301 1355.1098 541.78336 1353.5586 542.64844 C 1345.9137 546.91195 1340.7163 541.69248 1338.498 527.52539 C 1334.3117 500.78941 1335.1997 491.84355 1342.7324 484.89844 C 1349.9166 478.27461 1353.0175 477.91969 1362.7148 482.60938 C 1373.9348 488.03544 1376.3499 488.40456 1380.9043 485.39062 C 1383.2316 483.85052 1387.1582 482.55188 1391.2344 481.97461 C 1400.8903 480.60717 1409.1094 475.35056 1414.6289 467.01172 C 1419.4142 459.78204 1419.6916 458.32859 1416.9473 454.83984 C 1413.1406 450.0004 1402.3085 448.62723 1394.4629 451.99023 L 1389.8789 453.95508 L 1389.9238 448.24023 C 1389.9479 445.09728 1390.6157 440.72539 1391.4082 438.52539 C 1393.3834 433.04275 1393.2538 431.5709 1390.5098 428.38086 C 1387.7389 425.15951 1386.9268 425.48959 1377.8965 433.50977 C 1370.0972 440.43666 1367.4379 441.54617 1366.0312 438.45898 C 1364.2511 434.55201 1360.517 433.66008 1355.8691 436.03125 C 1347.555 440.27281 1343.3419 438.00852 1343.4551 429.35742 C 1343.6826 411.95645 1351.8952 400.98838 1376.3789 385.38672 C 1399.6145 370.58039 1438.9342 365.11686 1480.8867 370.86523 C 1489.4162 372.03395 1498.8171 373.70878 1501.7773 374.58789 C 1508.1938 376.49337 1528.1375 380.01975 1532.3789 379.99805 C 1536.047 379.9793 1544.2312 376.40459 1543.4609 375.1582 C 1543.1542 374.66198 1540.7619 373.93635 1538.1426 373.54492 C 1535.5233 373.15349 1530.734 371.75985 1527.5 370.44727 C 1524.2659 369.13469 1519.485 367.7776 1516.877 367.43164 C 1510.2293 366.54978 1508.8921 365.58577 1511.1641 363.3125 C 1513.4212 361.05412 1533.6747 360.2515 1544.3789 361.99609 C 1563.3217 365.08341 1569.9691 365.89788 1576.6875 365.95898 C 1586.4895 366.04817 1596.9844 367.76062 1604.8789 370.55664 C 1608.4539 371.8228 1616.0193 374.01098 1621.6895 375.41992 C 1627.3596 376.82886 1632.3096 378.17197 1632.6895 378.40625 C 1633.0693 378.64054 1637.7264 379.35236 1643.0391 379.98633 C 1654.362 381.33752 1664.5397 379.08828 1670.2695 373.96875 C 1675.1857 369.57613 1673.7787 369.21304 1656.3789 370.39648 C 1644.3709 371.2132 1638.1838 370.52312 1625.3789 366.9375 C 1617.8512 364.82961 1617.0621 362.02539 1623.9961 362.02539 C 1626.1952 362.02539 1631.0065 361.59995 1634.6875 361.08008 C 1638.3684 360.56022 1645.6539 359.63947 1650.8789 359.0332 C 1656.1039 358.42692 1665.7789 356.5385 1672.3789 354.83789 C 1686.876 351.10247 1691.1305 351.13535 1699.5645 355.03906 C 1709.761 359.75857 1714.3021 358.94439 1719.5938 351.45117 C 1722.0774 347.93431 1728.4478 343.24101 1731.3887 342.76172 C 1732.4833 342.58335 1736.6421 341.18145 1740.6309 339.64453 C 1749.3019 336.30359 1755.0705 331.18025 1765.2891 317.74414 L 1768.166 313.96094 L 1765.8496 311.49414 C 1761.9235 307.315 1741.8207 308.77738 1737.877 313.5293 C 1736.6093 315.05676 1732.3076 315.51038 1729.4609 314.41797 C 1726.972 313.46289 1727.552 307.92187 1730.7715 301.88867 C 1737.0487 290.1255 1736.3163 285.42988 1728.0293 284.31836 C 1724.3964 283.83109 1723.1816 284.18766 1719.5293 286.81055 C 1715.3191 289.83405 1705.5385 293.02539 1700.4844 293.02539 C 1698.2929 293.02539 1697.8789 292.57849 1697.8789 290.20703 C 1697.8789 287.13814 1695.1583 284.23311 1689.6836 281.45898 C 1681.7811 277.45464 1681.3696 275.73391 1686.5293 268.24219 C 1691.4772 261.05809 1692.455 253.45891 1688.5566 252.48047 C 1687.1445 252.12604 1683.6549 252.33753 1680.8027 252.94922 C 1677.9505 253.56091 1670.8385 254.29403 1664.998 254.58008 C 1656.1962 255.01118 1640.2232 256.90499 1631.3789 258.56445 C 1630.2789 258.77085 1626.331 260.98359 1622.6055 263.48242 C 1614.6829 268.79635 1614.9107 268.75256 1611.8789 265.52539 C 1608.8336 262.28383 1606.6967 262.37073 1602.6641 265.90039 C 1599.2328 268.90368 1592.5205 270.68122 1588.9219 269.53906 C 1586.3341 268.71766 1586.3173 266.84357 1588.8789 264.52539 C 1589.9789 263.5299 1590.8787 262.22335 1590.8887 261.62109 C 1590.8937 261.01884 1593.3687 255.41301 1596.3887 249.16406 C 1600.8135 240.0082 1601.8789 236.82432 1601.8789 232.76367 L 1601.8789 227.72461 L 1591.1855 228.33008 C 1578.8306 229.02973 1574.7204 227.59915 1571.4062 221.44531 C 1568.5887 216.21353 1563.2413 216.40797 1562.3418 221.77539 C 1560.7825 231.07921 1559.0039 234.58913 1554.6738 236.90039 C 1551.3925 238.65186 1550.3574 238.84314 1549.7773 237.80664 C 1549.3728 237.08377 1547.9929 235.3238 1546.7109 233.89648 C 1545.429 232.46916 1543.9087 230.49826 1543.334 229.51562 C 1542.3322 227.80293 1542.0688 227.80147 1536.9609 229.49805 C 1532.6486 230.93037 1530.937 231.06041 1527.9844 230.17578 C 1525.9778 229.5746 1521.4205 228.6257 1517.8574 228.06836 C 1514.2943 227.51101 1509.1289 226.57789 1506.3789 225.99414 C 1497.2684 224.06023 1485.7278 228.10939 1478.0449 235.93555 C 1474.3642 239.68493 1468.6136 243.02049 1465.7617 243.05859 C 1462.9108 243.09666 1460.8543 244.56386 1458.4219 248.30078 C 1456.361 251.46694 1454.3998 251.27559 1449.3281 247.41406 C 1447.6499 246.13625 1443.5999 243.92317 1440.3281 242.49414 C 1430.7159 238.29575 1425.9246 235.9072 1425.3965 235.05273 C 1425.1245 234.61267 1423.3477 233.96003 1421.4473 233.60352 C 1418.9943 233.14334 1417.5751 232.12365 1416.5586 230.08594 L 1415.127 227.21484 L 1419.7539 226.57617 C 1422.2982 226.2245 1425.5039 225.54749 1426.8789 225.07227 C 1428.2539 224.59706 1436.5789 222.77042 1445.3789 221.01172 C 1454.1789 219.25303 1462.2789 217.44477 1463.3789 216.99414 C 1464.4789 216.54352 1468.7968 215.90353 1472.9746 215.57227 C 1477.1523 215.241 1481.4273 214.8109 1482.4746 214.61523 C 1483.5218 214.41957 1487.3039 213.94277 1490.8789 213.55664 C 1515.385 210.90978 1548.433 201.196 1560.8789 192.98047 C 1563.9039 190.98366 1570.8789 186.95315 1576.3789 184.02539 C 1592.3797 175.50787 1597.2428 171.84252 1600.3008 165.99414 C 1604.0751 158.77594 1603.2054 158.02902 1591.0078 158.01172 C 1580.0335 157.99615 1576.3769 157.3466 1577.7559 155.6543 C 1578.6858 154.51307 1581.8789 144.47848 1581.8789 142.69727 C 1581.8789 142.1034 1578.3968 141.95493 1572.8477 142.31445 C 1567.8805 142.63626 1562.5738 142.46707 1561.0547 141.9375 C 1557.9676 140.86133 1552.8789 133.75826 1552.8789 130.52539 C 1552.8789 124.16809 1546.0455 124.33007 1542.3359 130.77539 C 1537.7601 138.72587 1537.2711 139.0873 1533.332 137.44141 C 1528.0875 135.25015 1524.9891 135.60543 1523.8789 138.52539 C 1522.6781 141.68375 1522.7791 141.69963 1517.3105 137.52539 C 1514.7883 135.60009 1511.0727 133.75745 1509.0527 133.42969 C 1504.5051 132.69181 1498.5615 129.86823 1498.7266 128.52539 C 1498.7943 127.97539 1502.3651 126.40039 1506.6621 125.02539 C 1515.8519 122.08475 1520.3726 119.39949 1524.0898 114.67578 C 1525.5805 112.78146 1529.9592 109.13127 1533.8203 106.56445 C 1537.6813 103.99761 1541.1121 101.45709 1541.4453 100.91797 C 1542.4669 99.264944 1539.0141 95.091626 1536.1172 94.478516 C 1534.6116 94.159876 1531.7292 93.302709 1529.7109 92.574219 C 1526.444 91.395069 1525.6993 91.457902 1522.9355 93.138672 C 1518.0653 96.100412 1509.2203 94.89588 1502.4062 90.34375 C 1499.5539 88.43817 1497.344 88.7033 1492.2227 91.5625 C 1486.6346 94.68227 1484.621 94.13977 1482.5898 88.96875 C 1481.1522 85.30918 1480.7632 85.009444 1478.1953 85.583984 C 1472.1704 86.932014 1464.7947 91.343201 1459.0098 97.056641 L 1452.9648 103.02539 L 1445.4941 103.02539 C 1433.3328 103.02539 1431.4066 98.52591 1440.6289 91.65625 C 1446.2517 87.46783 1447.0718 85.171715 1444.3359 81.265625 C 1442.617 78.811565 1443.2601 76.801285 1446.7871 73.609375 C 1447.938 72.567785 1448.8789 71.215606 1448.8789 70.603516 C 1448.8789 69.991436 1450.0143 67.818021 1451.4023 65.775391 C 1455.5435 59.681134 1454.1764 57.025391 1446.8945 57.025391 C 1439.2737 57.025391 1438.601 56.061841 1440.9668 48.525391 C 1443.8307 39.402077 1443.5954 32.025391 1440.4395 32.025391 C 1439.097 32.025391 1437.7505 32.424459 1437.4492 32.912109 C 1437.1478 33.399759 1435.2194 34.114424 1433.1641 34.5 C 1431.0485 34.896883 1427.7887 36.681466 1425.6504 38.613281 C 1419.5405 44.133197 1416.3886 42.539169 1409.6602 30.53125 C 1405.9522 23.91357 1403.7045 22.78022 1400.5059 25.914062 C 1394.7958 31.508555 1388.495 36.039026 1385.1191 36.976562 C 1379.4707 38.545246 1374.1297 38.2946 1373.0762 36.412109 C 1370.6173 32.018308 1363.8789 40.10854 1363.8789 47.455078 C 1363.8789 50.825333 1363.3757 52.265904 1361.8145 53.359375 C 1357.2427 56.561568 1351.8789 51.631946 1351.8789 44.228516 C 1351.8789 33.818022 1341.4493 23.680834 1329.1211 22.109375 C 1324.9652 21.579636 1320.0775 20.07592 1316.3789 18.1875 C 1313.0789 16.5026 1308.5789 14.388274 1306.3789 13.490234 C 1304.1789 12.592195 1301.5976 11.445169 1300.6426 10.941406 C 1299.6875 10.437643 1296.4654 10.025391 1293.4824 10.025391 C 1288.6595 10.025391 1287.4947 9.5794871 1282.9688 6.0019531 C 1280.1693 3.7891641 1277.8789 1.5391641 1277.8789 1.0019531 C 1277.8789 0.45931513 1274.7678 0.025390625 1270.8789 0.025390625 C 1265.4435 0.025390625 1263.8789 0.34926813 1263.8789 1.4707031 C 1263.8789 2.2650331 1262.7917 4.1775331 1261.4629 5.7207031 L 1259.0469 8.5253906 L 1256.7129 6.4667969 C 1255.4292 5.3342609 1253.1414 3.8814532 1251.6289 3.2382812 C 1250.1164 2.5951083 1248.8789 1.608666 1248.8789 1.046875 C 1248.8789 0.485083 1247.1884 0.025390625 1245.1211 0.025390625 z M 1350.2754 113.02539 C 1351.4958 113.02539 1351.8867 114.04352 1351.8867 117.27539 C 1351.89 119.61289 1352.5729 122.8295 1353.4043 124.42383 C 1355.2953 128.04983 1355.8152 127.68952 1345.4121 129.96289 C 1339.9656 131.1531 1334.7516 133.05032 1331.6875 134.95508 C 1328.9699 136.64444 1326.5424 138.02539 1326.293 138.02539 C 1326.0436 138.02539 1324.057 139.15039 1321.8789 140.52539 C 1319.7008 141.90039 1317.6863 143.02539 1317.4004 143.02539 C 1316.5049 143.02539 1316.9146 136.77655 1318.2207 130.52539 L 1319.4746 124.52539 L 1324.9629 124.52539 C 1329.6343 124.52539 1331.0565 124.04674 1334.5176 121.30859 C 1339.1901 117.61203 1347.9158 113.02539 1350.2754 113.02539 z M 1248.627 164.02539 C 1250.5445 164.02539 1267.6209 169.57568 1269.6348 170.85352 C 1270.7489 171.56038 1273.1943 178.98521 1274.6309 186.02539 C 1274.9115 187.40039 1275.8275 189.31289 1276.666 190.27539 C 1278.3498 192.20841 1277.9854 192.26522 1272.8789 190.85742 C 1270.9539 190.32671 1267.6859 189.45172 1265.6152 188.91406 C 1261.5627 187.86178 1250.8789 176.30063 1250.8789 172.9668 C 1250.8789 172.04798 1249.9789 170.15233 1248.8789 168.75391 C 1246.4158 165.62258 1246.3312 164.02539 1248.627 164.02539 z M 1217.9707 166.33594 C 1224.6083 166.08829 1232.305 168.82615 1238.418 174.19336 C 1241.8525 177.20887 1244.8789 181.79276 1244.8789 183.97656 C 1244.8789 186.5037 1218.9751 185.18546 1210.1855 182.21094 C 1198.669 178.31358 1195.3699 175.033 1201.6094 173.68555 C 1203.1333 173.35645 1205.8902 171.73503 1207.7363 170.08203 C 1210.3872 167.70836 1213.9881 166.48452 1217.9707 166.33594 z M 1483.0625 184.36523 C 1487.3877 184.55347 1486.3265 189.18345 1479.9824 196.80664 C 1474.3744 203.54536 1469.5408 205.6134 1451.5059 208.98828 C 1445.9363 210.03053 1439.3539 211.18305 1436.8789 211.54883 L 1432.3789 212.21289 L 1434.8789 209.66992 C 1442.9162 201.49037 1467.0209 186.84553 1474.3789 185.67188 C 1476.5789 185.32097 1479.5039 184.8209 1480.8789 184.56055 C 1481.717 184.40185 1482.4446 184.33834 1483.0625 184.36523 z M 1513.6973 188.23438 C 1517.191 188.10744 1522.2186 190.09356 1525.6641 193.30859 L 1527.9492 195.43945 L 1517.6875 198.82617 C 1504.3899 203.21617 1492.0476 204.44861 1493.7793 201.21289 C 1494.4032 200.04722 1495.9184 198.38753 1497.1465 197.52539 C 1501.9423 194.15869 1507.0014 191.02511 1507.6738 191.00391 C 1508.0619 190.99168 1509.482 190.13378 1510.8301 189.09766 C 1511.5387 188.55308 1512.5327 188.27669 1513.6973 188.23438 z M 1381.3066 190.47461 C 1382.0199 190.41748 1383.3701 191.10255 1384.7617 192.27344 C 1391.1423 197.64232 1405.0959 197.67604 1411.0664 192.33789 C 1413.0669 190.54928 1419.302 192.07951 1420.2676 194.5957 C 1421.5191 197.85715 1413.662 209.83394 1407.8457 213.53125 C 1402.6361 216.84283 1367.8789 218.41755 1367.8789 215.3418 C 1367.8789 214.2885 1368.2762 212.99906 1368.7598 212.47656 C 1369.2434 211.95406 1370.1664 209.87077 1370.8125 207.84766 C 1371.844 204.61785 1378.6185 193.08461 1380.9219 190.63672 C 1381.0114 190.54155 1381.142 190.48779 1381.3066 190.47461 z M 1237.4355 256.91992 C 1245.7892 257.03008 1263.2556 259.7754 1269.3164 262.5 C 1272.1016 263.75207 1276.7414 265.32646 1279.6289 266 C 1282.5164 266.67354 1284.8789 267.62986 1284.8789 268.125 C 1284.8789 268.62014 1285.5426 269.02539 1286.3535 269.02539 C 1289.3095 269.02539 1290.5014 274.04967 1290.0879 284.77539 L 1289.6914 295.02539 L 1286.4531 295.02539 C 1284.6713 295.02539 1282.9715 294.78602 1282.6777 294.49219 C 1282.3839 294.19836 1279.2747 293.49448 1275.7676 292.92969 C 1263.4815 290.95106 1256.206 285.7989 1244.8379 271.02539 C 1241.6637 266.90039 1237.6743 262.40607 1235.9727 261.03711 C 1234.2711 259.66814 1232.8789 258.20564 1232.8789 257.78711 C 1232.8789 257.14022 1234.651 256.8832 1237.4355 256.91992 z M 1323.1152 259.11133 L 1328.9453 259.34961 C 1332.1511 259.48022 1335.0936 259.90814 1335.4863 260.30078 C 1336.8889 261.7034 1332.3053 268.16692 1328.2012 270.57422 C 1325.9033 271.92211 1323.5498 273.02539 1322.9707 273.02539 C 1321.1541 273.02539 1320.591 268.12734 1321.8789 263.52734 L 1323.1152 259.11133 z M 1220.2227 270.45703 C 1223.7694 270.20609 1238.8789 284.80753 1238.8789 289.07422 C 1238.8789 290.23911 1229.7943 293.73591 1223.3789 295.04102 C 1220.0789 295.71235 1213.1039 297.51902 1207.8789 299.05664 C 1189.3005 304.52392 1168.8285 302.92339 1149.3789 294.48242 C 1147.7289 293.76633 1143.4539 292.16912 1139.8789 290.93359 C 1131.9847 288.20535 1130.8789 287.42077 1130.8789 284.53516 C 1130.8789 282.46392 1131.5623 282.19954 1139.6289 281.15234 C 1144.4414 280.52758 1149.7289 279.63941 1151.3789 279.17969 C 1156.1888 277.83958 1159.2534 279.48533 1160.918 284.30078 C 1162.6385 289.27764 1164.6082 289.82578 1181.1719 289.95117 C 1189.6049 290.015 1191.2571 289.75084 1193.084 288.04883 C 1194.2507 286.96188 1196.8202 285.55658 1198.793 284.92578 C 1200.7658 284.29499 1203.2789 283.01664 1204.3789 282.08398 C 1205.4789 281.15133 1209.1737 278.61962 1212.5879 276.45898 C 1216.002 274.29834 1219.152 271.77844 1219.5879 270.85742 C 1219.7061 270.60751 1219.9221 270.4783 1220.2227 270.45703 z M 1541.5039 299.65234 C 1544.4303 299.63134 1546.4383 300.83495 1547.7852 303.35156 C 1549.8579 307.22439 1545.3154 310.43268 1530.7109 315.41211 C 1520.6147 318.85442 1506.6115 318.6365 1504.3652 315.00195 C 1502.9588 312.72643 1505.0344 310.08799 1508.6855 309.51367 C 1513.8608 308.69958 1522.9843 305.08722 1525.4434 302.87891 C 1526.5893 301.84976 1529.0363 301.01525 1530.9434 301.00195 C 1532.8329 300.98883 1536.126 300.57358 1538.2617 300.07812 C 1539.4508 299.80227 1540.5285 299.65935 1541.5039 299.65234 z M 1364.3965 299.96289 C 1370.8044 300.19312 1376.0233 301.03199 1378.3066 302.41406 L 1382.2344 304.79102 L 1379.3066 306.27344 C 1377.6964 307.08855 1373.9039 308.55115 1370.8789 309.52344 C 1367.8539 310.49573 1364.8164 311.73668 1364.1289 312.28125 C 1363.4414 312.82582 1362.8789 312.93508 1362.8789 312.52539 C 1362.8789 312.1157 1362.3164 312.23682 1361.6289 312.79492 C 1360.9414 313.35302 1356.7789 314.9473 1352.3789 316.33594 C 1347.9789 317.72458 1340.9456 320.69776 1336.748 322.94336 C 1328.0894 327.57556 1328.0326 327.59012 1327.2148 325.45898 C 1326.2354 322.90671 1327.5201 305.75694 1328.9141 302.77539 C 1330.2549 299.90768 1332.6747 299.22156 1334.6113 301.1582 C 1335.4536 302.00049 1337.6884 302.00049 1343.3516 301.1582 C 1350.3917 300.11111 1357.9886 299.73266 1364.3965 299.96289 z M 1064.7871 302.73242 C 1068.5216 302.56002 1072.812 303.42313 1076.9766 305.49805 C 1079.5044 306.7575 1084.7919 308.80507 1088.7266 310.04688 C 1096.5377 312.5121 1096.927 312.8917 1093.7168 314.89648 C 1090.9289 316.63753 1065.2611 317.34877 1058.6289 315.86914 C 1054.1067 314.86025 1053.8789 314.64756 1053.8789 311.42578 C 1053.8789 306.18649 1058.5629 303.01975 1064.7871 302.73242 z M 1449.0605 313.48242 C 1451.8551 313.58782 1457.3588 315.69329 1458.9004 317.55078 C 1460.5426 319.52946 1457.4472 324.36807 1447.6035 335.21094 C 1438.6647 345.05704 1429.2543 350.60606 1416.3789 353.62695 C 1378.8299 362.4369 1367.3435 366.39428 1352.9531 375.47852 C 1350.7341 376.87937 1348.7988 377.97396 1348.6504 377.91016 C 1348.5019 377.84636 1347.5978 377.58996 1346.6426 377.33984 C 1344.8604 376.87316 1343.5046 374.434 1339.9297 365.27539 C 1334.7237 351.93822 1333.6658 349.46362 1332.8027 348.57617 C 1329.9711 345.66481 1334.923 339.38959 1342.8789 335.80664 C 1345.3539 334.69202 1348.0539 333.21853 1348.8789 332.5332 C 1349.7039 331.84787 1353.5289 330.07936 1357.3789 328.60352 C 1361.2289 327.12768 1365.2789 325.50768 1366.3789 325.00391 C 1385.2791 316.34823 1396.1916 315.18791 1408.3789 320.5332 C 1415.7616 323.77121 1424.8771 327.02448 1426.5508 327.02148 C 1429.19 327.01609 1434.474 323.55709 1438.0293 319.50781 C 1439.7197 317.58249 1442.289 315.72485 1443.7402 315.37891 C 1445.1914 315.03297 1446.947 314.30242 1447.6406 313.75586 C 1447.9151 313.53957 1448.4156 313.4581 1449.0605 313.48242 z M 1490.2324 325.33984 C 1491.9199 325.42804 1493.6982 325.61078 1495.5898 325.88086 C 1499.8738 326.49252 1506.6802 327.46003 1510.7148 328.03125 C 1520.934 329.4781 1524.8789 331.26215 1524.8789 334.43555 C 1524.8789 339.49763 1518.5668 343.07807 1497.666 349.86914 C 1480.1254 355.56841 1470.0515 356.00649 1459.1289 351.54492 C 1453.7556 349.35009 1453.6708 349.75988 1461.4375 340.41602 C 1471.1174 328.77052 1478.4202 324.72249 1490.2324 325.33984 z M 1613.5898 332.95898 C 1615.4561 332.86529 1625.8919 338.60893 1625.8652 339.82031 C 1625.7958 343.01772 1610.2647 350.33289 1596.8789 353.47266 C 1593.3039 354.31121 1588.8039 354.94245 1586.8789 354.87695 C 1579.0202 354.60962 1566.2619 352.79417 1563.1738 351.50391 C 1559.6423 350.02835 1558.7564 348.02539 1561.6348 348.02539 C 1562.5997 348.02539 1566.5372 346.85063 1570.3848 345.41406 C 1578.8303 342.26083 1583.9098 341.12821 1589.8574 341.07031 C 1593.7107 341.03283 1609.8827 335.49442 1613.3789 333.01562 C 1613.427 332.98154 1613.4981 332.96359 1613.5898 332.95898 z M 1654.7305 338.27344 C 1657.7764 338.10154 1661.5579 338.86458 1665.5469 340.53125 C 1670.3533 342.53948 1669.0165 343.94329 1659.3789 347.01562 C 1655.5289 348.24294 1648.622 349.48822 1644.0293 349.7832 L 1635.6797 350.32031 L 1637.0293 348.14258 C 1637.772 346.94513 1640.4039 344.94648 1642.8789 343.70117 C 1645.3539 342.45585 1648.6292 340.61059 1650.1562 339.59961 C 1651.3396 338.81613 1652.9029 338.37658 1654.7305 338.27344 z M 1261.3223 360.51172 C 1263.3911 360.61418 1265.2399 360.8944 1266.6973 361.37109 C 1269.4795 362.2811 1272.6739 363.02539 1273.7969 363.02539 C 1278.9662 363.02539 1292.5507 366.44022 1294.5293 368.23633 C 1298.2681 371.6302 1302.8789 389.45805 1302.8789 400.52148 C 1302.8789 409.02748 1302.0964 409.72296 1293.6523 408.72656 C 1269.5878 405.88695 1266.4935 405.78947 1253.8789 407.46484 C 1238.3385 409.5288 1211.9292 416.42807 1205.5527 420.08984 C 1200.805 422.81627 1190.5603 421.97664 1177.3789 417.78125 C 1172.9789 416.38081 1168.0289 414.93221 1166.3789 414.5625 C 1158.6206 412.82416 1157.4135 408.96884 1163.2578 404.59375 C 1168.1867 400.90384 1178.4629 399.37019 1202.9785 398.66406 C 1211.6969 398.41294 1218.8903 395.94232 1225.7031 390.85742 C 1229.0761 388.33993 1234.8581 380.79568 1234.8691 378.89844 C 1234.8744 378.00329 1235.5539 376.71008 1236.3789 376.02539 C 1239.0118 373.84024 1238.008 373.10577 1233.1289 373.64648 C 1227.9151 374.22429 1220.7099 373.02486 1220.209 371.49609 C 1220.0342 370.96231 1223.8238 369.43956 1228.6309 368.11133 C 1233.4381 366.7831 1239.1727 364.90589 1241.375 363.93945 C 1246.9268 361.50313 1255.1157 360.20433 1261.3223 360.51172 z M 1262.8691 424.71875 C 1263.8972 424.73758 1265.4429 425.01733 1267.7559 425.5 C 1274.7947 426.96886 1275.8789 427.58018 1275.8789 430.08398 C 1275.8789 431.6775 1275.2076 432.00753 1272.1289 431.92773 C 1266.9665 431.79395 1260.8789 429.15846 1260.8789 427.05664 C 1260.8789 425.37954 1261.1556 424.68736 1262.8691 424.71875 z M 1156.957 430.25195 C 1161.6286 430.27175 1165.5098 430.9001 1168.2754 432.16016 C 1171.9258 433.8234 1171.5348 434.93099 1166.6289 436.83789 C 1161.9739 438.64725 1144.0016 447.69299 1142.3438 449.06055 C 1141.7744 449.5303 1137.946 451.26048 1133.8359 452.90625 C 1122.7982 457.32594 1120.4731 457.42336 1108.8789 453.94727 C 1092.0004 448.88685 1091.9182 446.19444 1108.4844 441.17773 C 1113.9271 439.52952 1122.9431 436.79913 1128.5195 435.10938 C 1139.1904 431.87592 1149.1712 430.21895 1156.957 430.25195 z M 1026.4922 446.2168 C 1026.9674 446.20531 1027.5349 446.29797 1028.2656 446.44141 C 1029.978 446.77756 1031.8337 447.65891 1032.3887 448.40039 C 1033.0863 449.33251 1036.7895 449.89241 1044.3887 450.21484 C 1056.0476 450.70953 1059.4741 451.79708 1063.7227 456.3457 C 1066.6291 459.45734 1066.047 459.86056 1054.3789 462.81641 C 1046.3059 464.86153 1043.4425 465.92183 1038.8789 468.55469 C 1035.5556 470.47193 1021.5158 470.44014 1017.0625 468.50586 C 1009.4166 465.18484 1005.6176 461.02539 1010.2305 461.02539 C 1013.958 461.02539 1020.3771 455.6937 1022.8828 450.51758 C 1024.4805 447.21724 1025.0666 446.25124 1026.4922 446.2168 z M 986.875 471.22852 C 989.76845 471.21337 993.25874 472.14841 997.40039 474.03516 C 999.68479 475.07583 1002.8267 476.15762 1004.3809 476.43945 C 1011.045 477.64788 1010.345 479.40898 1002.377 481.48438 C 995.63469 483.24051 982.48121 483.42143 979.12891 481.80469 C 976.06901 480.32896 976.30239 478.10258 979.93359 474.12695 C 981.68504 472.20937 983.98155 471.24366 986.875 471.22852 z M 1599.6309 475.83984 C 1602.6132 475.9546 1605.6077 476.35382 1606.1992 476.94531 C 1606.7937 477.53988 1609.6389 478.02539 1612.5215 478.02539 C 1618.2703 478.02539 1619.3822 478.8861 1618.4473 482.61133 C 1617.9181 484.71973 1617.3088 485.04945 1614.3125 484.84766 C 1612.3798 484.7175 1610.6732 484.48572 1610.5195 484.33203 C 1610.3658 484.17834 1608.442 483.82693 1606.2441 483.55078 C 1598.0056 482.51565 1590.9061 478.66625 1593.1309 476.44141 C 1593.6786 475.89374 1596.6485 475.72509 1599.6309 475.83984 z M 1568.2285 488.10352 C 1570.8618 488.00851 1573.4699 488.59316 1575.8418 489.86523 C 1581.646 492.97805 1580.9983 493.89739 1570.3789 497.625 C 1567.6289 498.5903 1565.2361 499.4816 1565.0605 499.60547 C 1564.8849 499.72934 1565.2936 501.67419 1565.9688 503.92773 L 1567.1953 508.02539 L 1574.2871 508.03711 C 1581.3499 508.04893 1590.9144 509.98493 1593.1855 511.86133 C 1593.842 512.40371 1596.1789 513.17259 1598.3789 513.57031 C 1606.8922 515.10937 1609.9854 518.70086 1606.5977 523.11328 C 1603.0926 527.67848 1599.1363 527.94906 1587.8555 524.39844 C 1579.0162 521.61625 1569.5931 521.50402 1564.7031 524.12109 C 1563.5001 524.76491 1560.2348 525.88147 1557.4473 526.60352 C 1554.6597 527.32558 1549.9194 528.6156 1546.9121 529.4707 C 1539.9103 531.46155 1523.4351 530.91355 1521.1348 528.61328 C 1520.3987 527.87715 1533.1481 511.31598 1541.3926 502.29883 C 1546.5077 496.70441 1548.9469 494.81597 1552.1895 493.94336 C 1554.4935 493.3233 1558.2184 491.73706 1560.4668 490.41992 C 1562.9363 488.97317 1565.5953 488.19852 1568.2285 488.10352 z M 1705.25 517.95117 C 1707.0278 518.02539 1707.8789 519.02965 1707.8789 520.97656 C 1707.8789 522.59923 1707.3164 524.28673 1706.6289 524.72656 C 1705.9414 525.16639 1704.7039 526.70296 1703.8789 528.14258 C 1703.0539 529.58221 1697.3688 535.54471 1691.2441 541.39258 L 1680.1074 552.02539 L 1667.7441 551.85742 C 1648.4157 551.59463 1642.7714 550.76478 1634.1406 546.91602 C 1631.8091 545.87632 1629.6202 545.02539 1629.2754 545.02539 C 1628.9306 545.02539 1626.5624 543.50773 1624.0137 541.65234 C 1621.465 539.79694 1618.3342 537.95692 1617.0566 537.5625 C 1614.8365 536.87718 1614.8097 536.76044 1616.4648 534.93164 C 1619.4869 531.59218 1625.0863 530.89274 1646.207 531.2168 L 1666.3789 531.52539 L 1674.3789 527.68555 C 1685.499 522.34853 1685.7966 522.24032 1691.168 521.52734 C 1693.8015 521.17777 1697.4985 520.24713 1699.3848 519.45898 C 1701.9235 518.39823 1703.8673 517.89345 1705.25 517.95117 z M 1279.1445 534.31836 C 1285.4873 534.62589 1287.5359 540.1865 1288.8066 556.0332 C 1290.6241 578.69927 1290.0787 581.25757 1283.1816 582.47266 C 1281.5096 582.76723 1277.2713 584.31103 1273.7617 585.90234 C 1270.252 587.49365 1266.6866 589.02192 1265.8398 589.29883 C 1261.9753 590.56249 1247.553 602.70781 1239.459 611.51562 C 1227.6725 624.3416 1226.0132 625.31755 1209.8789 628.90234 C 1189.5471 633.41977 1168.1086 643.40354 1153.5527 655.13281 C 1146.9616 660.44393 1147.035 660.41031 1144.9707 659.10352 C 1144.1956 658.61283 1142.9581 658.44165 1142.2207 658.72461 C 1138.9915 659.96377 1141.6146 653.0013 1145.875 649.02539 C 1148.1967 646.85874 1152.2038 640.02539 1151.1523 640.02539 C 1150.6621 640.02539 1147.4207 637.21289 1143.9492 633.77539 C 1140.0511 629.91548 1137.4576 628.01189 1137.168 628.79688 C 1136.5795 630.39216 1130.8789 633.41595 1130.8789 632.13281 C 1130.8789 631.61288 1128.5164 630.41922 1125.6289 629.48242 C 1122.7414 628.54561 1119.9522 627.38473 1119.4297 626.90234 C 1116.2704 623.98557 1109.0936 631.00952 1108.166 637.92578 C 1107.6843 641.51675 1107.4634 641.74171 1105.0625 641.09961 C 1101.5407 640.15776 1095.9832 630.02539 1098.9883 630.02539 C 1100.4155 630.02539 1112.6516 619.98926 1119.1055 613.52539 C 1121.8512 610.77539 1127.3821 603.57539 1131.3945 597.52539 C 1141.457 582.35279 1145.3018 578.49497 1157.3789 571.45508 C 1162.8536 568.26383 1163.293 568.04465 1176.3789 561.98047 C 1220.489 541.53925 1226.9314 539.43024 1251.2363 537.48242 C 1260.6655 536.72675 1270.919 535.557 1274.0234 534.88281 C 1275.9879 534.45619 1277.6808 534.24739 1279.1445 534.31836 z M 1736.9512 540.09766 C 1738.7388 540.1639 1738.8789 540.66444 1738.8789 541.91797 C 1738.8789 545.34689 1731.8089 551.27876 1724.7461 553.77539 C 1717.2033 556.44169 1710.0423 556.54078 1701.0469 554.10352 L 1694.7148 552.38867 L 1698.3203 549.63867 C 1700.3031 548.12631 1702.9595 545.85502 1704.2227 544.5918 C 1706.1388 542.67574 1707.9991 542.18484 1715.4492 541.62305 C 1720.3609 541.25268 1727.6414 540.69282 1731.6289 540.37891 C 1734.2127 540.1755 1735.8786 540.05791 1736.9512 540.09766 z M 1055.6992 585.89258 C 1058.2817 585.83102 1060.6043 586.02348 1062.2109 586.55273 C 1065.0529 587.48892 1067.9536 588.3439 1068.6562 588.45312 C 1069.3589 588.56234 1069.9213 588.95986 1069.9062 589.33789 C 1069.8912 589.71592 1069.8789 590.63815 1069.8789 591.38672 C 1069.8789 592.80476 1065.2411 595.35194 1055.8789 599.07617 C 1048.173 602.14153 1032.2895 602.69271 1029.4805 599.99219 C 1028.1083 598.67288 1031.3051 594.50656 1034.8008 593.05859 C 1036.4934 592.35749 1037.8789 591.43722 1037.8789 591.01367 C 1037.8789 588.5422 1047.9519 586.07726 1055.6992 585.89258 z M 1119.1875 588.2832 C 1124.1382 588.58589 1116.738 600.12984 1100.5762 617.02539 L 1090.9727 627.06445 L 1086.6758 626.48828 C 1081.3155 625.76963 1074.2215 624.1481 1070.6895 622.83398 C 1068.3193 621.95212 1067.6165 622.22605 1064.7617 625.14648 C 1061.8696 628.10505 1059.6188 629.36615 1058.6973 628.54492 C 1058.5223 628.38896 1055.0926 628.01882 1051.0742 627.7207 C 1047.0559 627.42258 1043.1184 626.63762 1042.3242 625.97852 C 1040.3592 624.34767 1040.5053 622.10172 1042.6289 621.31836 C 1043.5914 620.96331 1045.9539 619.69673 1047.8789 618.50586 C 1049.8039 617.315 1055.4289 614.63003 1060.3789 612.53711 C 1065.3289 610.44419 1070.0539 608.17657 1070.8789 607.5 C 1072.7921 605.93103 1084.1565 600.73143 1089.3789 599.03516 C 1091.5789 598.32059 1093.6039 597.43958 1093.8789 597.07812 C 1095.0935 595.48172 1111.4328 589.59275 1118.0312 588.37305 C 1118.4721 588.29155 1118.8575 588.26302 1119.1875 588.2832 z M 1282.7168 604.35547 C 1286.7388 604.30436 1288.4167 607.75773 1289.2305 615.02539 C 1289.5076 617.50039 1290.2562 623.50693 1290.8945 628.37305 C 1292.548 640.97736 1290.5957 682.48019 1287.959 690.77539 C 1287.7997 691.27646 1281.288 690.77606 1277.8789 690 C 1275.9539 689.56178 1270.425 688.42681 1265.5918 687.47852 C 1255.189 685.43744 1253.5759 683.85457 1257.3848 679.42188 C 1261.5574 674.56596 1262.6552 666.34854 1259.5469 663.24023 C 1256.5047 660.1981 1245.4297 659.83681 1234.6523 662.42969 C 1225.4073 664.65392 1220.8789 664.81906 1220.8789 662.93164 C 1220.8789 661.9854 1226.1148 654.62213 1231.1641 648.4668 C 1232.0399 647.39926 1234.3595 644.57117 1236.3184 642.18164 C 1238.2772 639.7921 1239.8789 637.52626 1239.8789 637.14648 C 1239.8789 635.25957 1262.2432 614.49998 1268.3789 610.69141 C 1275.0418 606.55562 1279.5886 604.39522 1282.7168 604.35547 z M 999.63281 625.0332 C 1006.2178 625.03987 1006.4381 625.12404 1008.7598 628.5332 C 1010.0682 630.45444 1011.6432 632.06915 1012.2598 632.12305 C 1012.8764 632.17692 1016.0536 632.22742 1019.3203 632.23242 C 1027.6872 632.24619 1029.6124 633.38511 1031.3906 639.37305 C 1033.25 645.63513 1033.2461 646.90271 1031.3652 651.4043 L 1031.3672 651.4043 C 1029.5977 655.63932 1028.7542 655.73325 1016.3809 653.08398 C 1011.9809 652.14188 1004.4139 650.82594 999.56641 650.16016 C 984.89081 648.14453 975.11787 643.575 979.95117 640.98828 C 981.21687 640.3107 981.71119 639.53779 981.11719 639.16797 C 980.08559 638.52576 979.54863 636.00942 979.76562 632.84766 C 979.98052 629.71826 991.91221 625.0252 999.63281 625.0332 z M 1213.4648 640.05859 C 1215.9685 639.99419 1217.8789 640.22539 1217.8789 640.7832 C 1217.8789 641.1992 1213.1096 645.8117 1207.2793 651.0332 C 1191.7079 664.97881 1188.2274 666.29684 1184.9629 659.48438 C 1183.4161 656.25647 1180.843 653.93074 1179.6406 654.67383 C 1179.2221 654.93252 1178.8789 654.6784 1178.8789 654.10938 C 1178.8789 652.70265 1193.5295 644.19512 1197.8789 643.07617 C 1199.8039 642.58094 1203.2323 641.69276 1205.4961 641.10156 C 1207.8654 640.48281 1210.9612 640.12299 1213.4648 640.05859 z M 961 648.07617 C 961.73124 648.05443 962.8131 648.61947 965.06836 649.81836 C 967.43946 651.07884 970.18929 653.21726 971.17969 654.57227 C 972.95779 657.00491 972.94823 657.04921 970.36523 658.03125 C 963.20313 660.75426 955.42276 654.72218 959.31836 649.4668 C 959.98253 648.57081 960.35479 648.09535 961 648.07617 z M 1489.9746 667.52539 L 1506.6777 667.70117 C 1527.9151 667.92467 1533.799 668.5176 1539.1016 670.96289 C 1541.4544 672.04791 1545.6088 673.79504 1548.334 674.8457 C 1554.2836 677.13948 1554.7182 677.98431 1551.123 680.27344 C 1549.6143 681.23408 1545.9039 683.62721 1542.8789 685.5918 C 1539.8539 687.55639 1534.7773 690.32277 1531.5957 691.74023 C 1524.7097 694.80802 1524.7493 695.18813 1532.623 701.17969 C 1535.9864 703.7391 1538.4707 706.1016 1538.1426 706.42969 C 1537.2117 707.36057 1532.5423 707.10039 1530.8789 706.02539 C 1530.0539 705.49223 1528.4048 705.04902 1527.2129 705.04102 C 1520.0808 704.99063 1511.0395 697.6748 1502.7598 685.25391 C 1499.9266 681.00368 1496.6021 676.40039 1495.373 675.02539 C 1494.1439 673.65039 1492.4264 671.40039 1491.5566 670.02539 L 1489.9746 667.52539 z M 1048.4492 703.73438 C 1049.385 703.74581 1050.3044 703.85959 1051.1875 704.08789 C 1052.9435 704.54186 1056.1789 705.38989 1058.3789 705.97266 C 1061.2353 706.7293 1064.8565 706.70779 1071.043 705.89844 C 1082.5166 704.39742 1084.8789 705.00988 1084.8789 709.48047 C 1084.8789 713.04679 1084.4504 713.46873 1073.5859 720.55273 C 1069.0727 723.49545 1068.582 723.51631 1063.2559 721.01758 C 1056.8222 717.99918 1045.9953 716.65253 1039.3164 718.03906 C 1032.6884 719.41501 1032.5452 719.32619 1033.4609 714.44531 C 1034.5587 708.5937 1041.8987 703.65433 1048.4492 703.73438 z M 1649.7578 716.28711 C 1650.6696 716.23811 1650.8709 718.07384 1650.8438 724.66797 L 1650.8066 733.52539 L 1646.5723 736.20508 C 1638.1787 741.51574 1623.7536 740.89269 1609.6309 734.60938 C 1600.8301 730.6938 1602.0735 728.03113 1612.7109 728.01953 C 1615.8284 728.01614 1619.6687 727.34114 1621.2441 726.51953 C 1622.8195 725.69792 1624.5285 725.02539 1625.041 725.02539 C 1625.5536 725.02539 1629.2138 723.51572 1633.1758 721.66992 C 1637.1379 719.82413 1642.0997 717.99778 1644.2012 717.61133 C 1646.3028 717.22487 1648.6653 716.66097 1649.4512 716.35938 C 1649.5612 716.31714 1649.6635 716.29218 1649.7578 716.28711 z M 1713.3789 738.375 C 1714.4154 738.4134 1715.4413 738.55764 1716.3789 738.82031 C 1720.2873 739.91523 1720.9184 743.23189 1717.5137 744.7832 C 1712.0381 747.27804 1703.9974 747.07736 1701.7676 744.39062 C 1700.4894 742.85053 1702.2946 740.54537 1703.9688 741.58008 C 1704.3452 741.81274 1705.1996 741.34541 1705.8672 740.54102 C 1707.0664 739.09609 1710.2695 738.2598 1713.3789 738.375 z M 1072.8984 768.81641 C 1076.8695 769.00948 1076.4307 771.53742 1071.8965 780.02539 C 1069.6928 784.15039 1065.868 791.60979 1063.3965 796.60156 C 1053.8672 815.84805 1037.8863 828.58787 1010.3789 838.86914 C 1005.9789 840.5137 999.91183 842.79763 996.89453 843.94336 C 990.35433 846.42687 989.50181 846.48082 987.87891 844.52539 C 987.19421 843.70039 985.58704 843.02539 984.30664 843.02539 C 983.02634 843.02539 981.53805 842.23789 980.99805 841.27539 C 980.22985 839.9062 978.79853 839.55395 974.42383 839.65625 C 967.62153 839.81531 967.97271 839.12108 978.34961 831.89453 C 988.40651 824.89088 992.20319 821.89787 1000.252 814.62305 C 1009.2237 806.51403 1019.7217 798.85055 1026.6914 795.32422 C 1029.6545 793.82501 1033.9288 790.80326 1036.1895 788.60938 C 1049.2589 775.92594 1060.2434 769.68142 1070.9258 768.86523 C 1071.674 768.80807 1072.3311 768.78882 1072.8984 768.81641 z M 1301.9062 770.52539 L 1304.2852 781.02539 C 1305.5936 786.80039 1308.9747 800.50222 1311.7988 811.47266 C 1318.7741 838.56848 1319.8668 850.12808 1317.4375 871.11328 C 1313.4676 905.40608 1311.4409 910.10391 1310.3789 887.46875 C 1308.4987 847.39288 1307.664 835.47891 1305.4824 817.52539 C 1304.1458 806.52539 1302.7935 791.45039 1302.4785 784.02539 L 1301.9062 770.52539 z M 985.38867 781.08203 C 989.74247 780.99108 994.935 781.33193 1000.5527 782.11328 C 1011.6848 783.66161 1012.1474 784.09288 1007.4434 788.5293 C 1002.7292 792.97542 1000.183 794.0232 994.06445 794.0332 C 991.48775 794.03736 986.67891 794.44794 983.37891 794.94531 C 971.18111 796.78378 952.87891 797.2746 952.87891 795.76367 C 952.87891 794.42695 967.35535 785.93773 975.25195 782.64258 C 977.5192 781.6965 981.03488 781.17298 985.38867 781.08203 z M 1339.8906 988.43359 C 1340.3776 988.41786 1340.6774 991.53539 1340.7715 997.77539 C 1340.8524 1003.1379 1341.8581 1017.4254 1343.0059 1029.5254 C 1344.5312 1045.6068 1344.9484 1055.4263 1344.5547 1066.0254 C 1344.1977 1075.6353 1343.3544 1083.0548 1342.0566 1088.0254 L 1340.0996 1095.5254 L 1339.9473 1085.0254 C 1339.863 1079.2504 1339.1495 1069.3504 1338.3633 1063.0254 C 1334.1194 1028.8814 1334.1034 1024.493 1338.1094 996.27539 C 1338.8499 991.05951 1339.4473 988.44792 1339.8906 988.43359 z M 1295.5293 1122.6367 L 1296.8477 1147.7832 C 1298.19 1173.4171 1297.7882 1195.8428 1295.6973 1212.0254 C 1294.0757 1224.5764 1293.4912 1223.7416 1290.9766 1205.2852 C 1286.9116 1175.4499 1287.0289 1163.8786 1291.625 1141.582 L 1295.5293 1122.6367 z M 1344.2754 1241.1191 C 1344.6624 1241.0815 1344.8401 1242.9002 1345.1914 1247.6465 C 1345.5122 1251.9801 1346.0015 1257.1004 1346.2793 1259.0254 C 1346.557 1260.9504 1347.288 1267.2504 1347.9043 1273.0254 C 1348.5206 1278.8004 1349.728 1288.4754 1350.5859 1294.5254 C 1351.8639 1303.5386 1352.0224 1310.9748 1351.4648 1335.6953 C 1351.0025 1356.1862 1351.1469 1368.5884 1351.9141 1374.3535 L 1351.9102 1374.3535 C 1353.691 1387.7356 1352.7446 1388.9266 1349.1152 1377.8711 C 1346.0523 1368.541 1344.6237 1361.5871 1343.3906 1350.0254 C 1342.1383 1338.2632 1342.1448 1245.6393 1343.4004 1242.6465 C 1343.7949 1241.7062 1344.0656 1241.1396 1344.2754 1241.1191 z M 1286.9277 1333.5254 C 1288.1636 1330.5001 1288.0505 1384.7113 1286.8066 1391.5918 C 1284.0379 1406.907 1278.1611 1420.266 1270.6465 1428.3223 C 1268.8501 1430.2483 1265.8909 1433.6703 1264.0723 1435.9258 C 1258.2494 1443.1476 1256.8093 1440.6473 1262.3496 1432.9355 C 1272.5703 1418.7091 1277.7178 1399.9361 1283.4395 1356.0254 C 1284.9086 1344.7504 1286.4783 1334.6254 1286.9277 1333.5254 z " />
  </g>
</svg>
