<?xml version="1.0" encoding="UTF-8" standalone="no"?>
<!-- Created with Inkscape (http://www.inkscape.org/) -->

<svg
   version="1.1"
   id="svg1"
   width="2815"
   height="1536"
   viewBox="0 0 2815 1536"
   xmlns="http://www.w3.org/2000/svg"
   xmlns:svg="http://www.w3.org/2000/svg">
  <defs
     id="defs1" />
  <g
     id="g1">
    <path
       id="path1"
       style="fill:#000000;fill-opacity:1;stroke-width:2.028"
       d="m 1407.684,1448.9253 c -5.4108,-1.0355 -21.3812,-6.6372 -35.4896,-12.4483 -32.0818,-13.2138 -44.4017,-13.9002 -70.268,-3.915 -8.9232,3.4444 -19.8744,7.1928 -24.336,8.3296 -13.1522,3.3509 -38.6146,5.0085 -42.6076,2.7741 -3.0787,-1.723 -1.5487,-3.2343 10.3718,-10.2438 31.1266,-18.3028 28.6904,-19.6258 -15.9049,-8.6385 -31.7202,7.8155 -38.5304,8.7898 -72.5253,10.3754 -51.36,2.3955 -75.5585,2.3646 -74.039,-0.094 0.6802,-1.1007 7.807,-3.9598 15.8369,-6.354 8.0299,-2.3945 22.2976,-8.3386 31.7056,-13.2093 14.6672,-7.5933 18.8589,-8.8574 29.406,-8.8673 20.8659,-0.02 26.7798,-2.7598 44.7485,-20.7385 14.0858,-14.0935 19.164,-17.6307 38.532,-26.8407 35.045,-16.6642 41.8273,-24.5327 45.8064,-53.1411 2.8932,-20.8016 7.0588,-28.2553 28.183,-50.4295 10.9848,-11.5306 18.7587,-21.5802 20.2954,-26.2362 1.5868,-4.8085 2.1769,-15.0172 1.6266,-28.1357 -0.74,-17.633 -1.759,-22.5237 -7.0979,-34.0668 -9.4343,-20.3975 -31.0063,-41.712 -67.1207,-66.3192 -34.3117,-23.379 -37.9959,-26.5884 -48.8212,-42.5293 -14.6561,-21.5819 -48.8369,-48.7529 -79.3416,-63.07036 -10.4796,-4.9186 -12.9933,-5.22908 -41.574,-5.13532 -16.731,0.055 -39.0898,0.41636 -49.686,0.80329 -17.8863,0.65315 -20.8636,0.16062 -41.574,-6.8783 -28.60925,-9.72343 -49.99025,-11.41089 -70.98005,-5.60196 -49.71503,13.75863 -60.67699,17.00479 -77.06401,22.82105 -20.47484,7.2672 -39.61074,8.5714 -76.49756,5.2136 l -19.71358,-1.7944 -12.26839,11.3583 c -16.22644,15.0229 -23.94521,17.3633 -41.54885,12.5982 -15.01349,-4.0639 -18.69756,-3.7727 -46.40267,3.6682 -30.69175,8.2431 -50.19381,6.1703 -53.16057,-5.6501 -2.21661,-8.8319 0.80552,-15.0195 13.38541,-27.40554 12.28562,-12.09639 13.07491,-13.48964 10.88123,-19.20626 -1.79985,-4.69035 -5.22291,-4.0056 -18.3966,3.6801 -20.00176,11.66926 -31.60618,11.36216 -44.61119,-1.18058 -6.92208,-6.67602 -5.76007,-6.61242 -30.06322,-1.64562 -18.78236,3.83854 -48.8921,1.58346 -62.59007,-4.68767 -6.0986,-2.79201 -12.65122,-7.46167 -14.5614,-10.37699 -4.9307,-7.52518 -2.9783,-21.67465 4.42714,-32.08454 5.017,-7.0524 10.4311,-10.97911 35.20633,-25.53421 2.30574,-1.35461 3.042,-5.75502 3.042,-18.18161 0,-15.85178 0.22505,-16.62678 6.79893,-23.4117 3.94806,-4.07482 11.7856,-8.83546 18.69141,-11.35343 6.54087,-2.38493 12.33325,-5.04941 12.87199,-5.92111 0.53874,-0.87169 1.91004,-7.36289 3.04734,-14.42486 5.11077,-31.73494 29.25394,-43.79427 65.24894,-32.59137 l 12.71799,3.95831 8.00553,-7.23251 c 7.81672,-7.06179 8.29066,-7.20025 20.08328,-5.86607 9.3426,1.05699 13.18667,0.63976 16.97518,-1.84254 2.69359,-1.76494 4.89741,-3.99786 4.89741,-4.96202 0,-0.9642 -5.99415,-4.30064 -13.32031,-7.41431 -7.32635,-3.1137 -15.08345,-7.90244 -17.238,-10.64169 -4.58611,-5.8301 -5.05032,-16.04874 -1.15332,-25.3759 4.0771,-9.75774 19.80342,-22.6871 31.18415,-25.63807 18.18224,-4.71449 19.79774,-5.46707 22.25162,-10.36609 1.35186,-2.69907 2.98968,-8.32605 3.63925,-12.5044 1.97182,-12.68056 8.40302,-18.12168 24.52582,-20.74998 l 24.73876,0.40541 -9.69424,-15.76445 c -3.78,-6.14687 2.16976,-15.06054 3.53622,-17.4837 3.67514,-6.51715 12.15218,-12.54187 20.99933,-14.92415 6.25943,-1.68548 9.42209,-4.46513 15.8499,-13.93059 19.09112,-28.11297 37.97633,-32.99907 71.19372,-18.41978 17.14097,7.52322 23.92463,7.93432 36.42709,2.20752 16.42352,-7.52286 27.15554,-5.40069 40.41457,7.9917 8.1918,8.27396 8.58984,8.42618 17.95044,6.86525 20.30112,-3.38522 28.1682,-0.005 34.93044,15.01077 9.14916,20.31456 8.47968,19.60501 18.492,19.60501 7.48661,0 10.60031,1.22778 16.71521,6.591 4.1328,3.62505 7.9532,6.591 8.4894,6.591 0.5361,0 8.0335,-3.5959 16.6604,-7.99086 32.7584,-16.68856 49.441,-14.81202 64.6511,7.2723 4.0844,5.93045 9.081,11.30772 11.103,11.94951 2.0221,0.6418 11.8009,-1.6226 21.7307,-5.032 9.9298,-3.40943 20.5458,-6.19895 23.5911,-6.19895 14.6125,0 29.6089,14.00489 34.7452,32.448 1.7084,6.1347 4.0872,13.70667 5.2861,16.82665 2.49,6.48047 10.9378,11.56009 19.2526,11.57666 17.6176,0.035 29.3104,8.71211 33.1158,24.57468 2.9866,12.45036 7.8181,15.424 20.6708,12.7227 10.3752,-2.18056 11.3212,-5.25865 7.7658,-25.26633 -4.0694,-22.90101 -18.7238,-43.12911 -55.4341,-76.51807 -16.537,-15.04059 -24.8153,-20.85233 -41.0005,-28.78376 -24.2001,-11.85891 -49.1484,-19.3691 -78.011,-23.48349 -39.5811,-5.64237 -52.7499,-10.54404 -78.1017,-29.07057 -8.6165,-6.29688 -16.2619,-10.34247 -19.5453,-10.34247 -2.9658,0 -11.35365,2.78949 -18.63933,6.19886 -18.77232,8.78465 -29.09892,8.51704 -47.71812,-1.23668 l -14.48964,-7.59033 -20.9391,3.43618 c -15.45539,2.53628 -23.21186,2.92554 -29.61738,1.48628 -10.32143,-2.31903 -18.43249,-9.28488 -18.43249,-15.82981 0,-7.96016 -6.82157,-12.8285 -17.9751,-12.8285 -25.61754,0 -47.07986,-8.39272 -53.60207,-20.96091 -3.53075,-6.80342 -3.71451,-8.72014 -1.53473,-15.99602 3.40954,-11.38031 20.13867,-28.51462 35.17769,-36.02968 6.72001,-3.35797 13.48651,-6.10539 15.03684,-6.10539 7.50828,0 14.67773,-6.27471 16.81493,-14.71655 6.27089,-24.76946 13.6319,-32.03905 34.24465,-33.81958 l 13.31179,-1.14987 1.51024,-8.88214 c 2.10959,-12.40765 6.1503,-17.63815 18.39925,-23.81613 12.40032,-6.25432 12.3486,-6.18983 17.72616,-22.21406 9.10848,-27.14336 33.78972,-37.75674 62.85041,-27.02698 16.941,6.25488 19.6132,6.58635 24.651,3.05769 2.908,-2.03693 8.8536,-3.25238 15.909,-3.25238 10.8348,0 20.28,-3.82228 20.28,-8.20681 0,-1.04105 -6.097,-4.65734 -13.5491,-8.03622 -7.4518,-3.37887 -16.579,-8.45442 -20.2821,-11.27902 -12.289,-9.37333 -16.0623,-23.17982 -9.698,-35.48666 2.8934,-5.59566 17.716,-18.11129 21.4494,-18.11129 0.9061,0 6.6732,-1.88029 12.8154,-4.17846 10.5076,-3.93136 11.7736,-5.18101 21.4081,-21.13145 8.5753,-14.19695 11.7562,-17.68693 19.5659,-21.46754 9.6467,-4.66989 12.1913,-4.58202 35.5739,1.22865 4.8114,1.19566 5.8913,0.44439 9.4848,-6.59964 5.499,-10.77918 7.8938,-12.38481 19.5753,-13.12484 l 10.0509,-0.63672 2.3353,-10.56018 c 3.8092,-17.224 8.4658,-23.23641 22.4506,-28.98582 9.8559,-4.05199 15.4114,-8.36088 27.6692,-21.45953 15.5522,-16.61932 30.0857,-26.253805 47.2393,-31.315909 15.1779,-4.479024 28.9096,4.018284 39.2506,24.288589 3.6107,7.0772 5.1872,8.14406 15.0666,10.19504 12.8622,2.67015 14.2409,4.00341 19.1754,18.5441 4.805,14.1597 8.7737,15.69001 30.0732,11.59677 20.1583,-3.87395 25.5245,-2.36969 37.3214,10.46205 5.1257,5.57529 10.146,10.12701 11.1564,10.11494 1.0107,-0.0125 6.1942,-1.34393 11.5191,-2.95966 11.3196,-3.43468 14.0758,-2.71282 24.293,6.36177 4.1861,3.71792 8.5,6.75984 9.5868,6.75984 1.0868,0 7.7004,-2.14084 14.697,-4.75745 25.6097,-9.57726 40.3468,-8.66419 51.6046,3.19727 9.0634,9.5493 12.7072,17.94179 14.7079,33.87467 0.9697,7.72444 2.379,15.04046 3.1314,16.25781 0.7524,1.21737 10.7399,6.70009 22.1945,12.18383 34.3341,16.43713 41.8646,30.30174 26.3212,48.46078 -9.3254,10.8947 -19.0692,15.80401 -41.016,20.66582 -31.2514,6.92303 -46.2454,13.24225 -44.4391,18.72894 1.3977,4.24537 9.565,4.01257 26.0181,-0.74159 19.836,-5.73169 26.4651,-4.11583 42.417,10.33929 6.1346,5.55909 12.2712,10.10905 13.6369,10.11104 1.3656,10e-4 3.8093,-2.56153 5.4305,-5.6967 4.7871,-9.25706 15.5838,-18.48482 23.3277,-19.93759 4.6806,-0.87808 10.503,-0.17705 16.6432,2.00366 13.5561,4.81477 17.2272,4.29035 32.0995,-4.58567 31.5805,-18.84736 52.2497,-19.11973 69.9614,-0.92191 8.537,8.77131 13.1256,16.98441 18.2633,32.68971 3.8051,11.63234 9.1845,16.73209 17.6489,16.73209 7.1353,0 17.3101,8.66453 18.9517,16.13869 2.3085,10.51072 5.2791,11.37251 25.2358,7.32116 17.1174,-3.4749 18.1631,-3.4755 25.4552,-0.014 8.2221,3.9016 14.1339,11.88921 17.2679,23.33134 1.0891,3.97655 4.3456,9.45215 7.2365,12.168 4.7784,4.48908 7.0536,4.96093 25.0321,5.19119 30.2276,0.38715 37.9488,5.99064 43.6295,31.66308 1.3449,6.07767 8.8224,10.68751 26.9587,16.62 27.6323,9.03869 30.718,29.19517 6.9403,45.33482 -10.953,7.43455 -20.1372,10.87197 -47.7699,17.87935 -22.3689,5.67252 -29.549,8.82824 -39.1877,17.22336 -9.8926,8.61629 -20.166,10.55306 -47.3227,8.92139 -26.48,-1.59103 -27.2661,-1.36707 -49.5408,14.1138 -14.7806,10.27239 -24.0328,14.29401 -42.5058,18.47565 -7.7625,1.75717 -14.8191,3.6308 -15.6812,4.16364 -0.8622,0.53282 0.7438,4.46145 3.5688,8.73027 6.2123,9.38722 5.2187,16.09919 -3.4642,23.40541 -11.4414,9.62722 -20.0334,10.61034 -103.4716,11.83942 l -29.7338,0.43802 -20.9662,20.32922 c -15.0358,14.57814 -24.6948,22.14129 -34.148,26.73796 -7.2502,3.52529 -26.6976,12.82784 -43.2167,20.67227 -47.1184,22.37531 -83.7323,45.65443 -115.944,73.71712 l -8.0745,7.03457 6.1965,5.21412 c 3.4111,2.8702 7.3071,8.92059 8.6669,13.45935 2.2603,7.54416 3.7461,8.85067 17.476,15.36607 16.0332,7.60845 23.3558,14.71449 23.3558,22.66575 0,11.80068 -8.8448,17.85789 -36.7914,25.19661 -13.3205,3.49798 -22.5011,4.43482 -42.869,4.37462 -29.5501,-0.0874 -26.6625,-1.84754 -35.0922,21.39236 -10.713,29.53566 -10.6495,66.22566 0.1467,84.64769 5.5519,9.47337 13.2705,15.02587 38.7551,27.87857 9.929,5.0076 21.5284,11.4831 25.776,14.39 13.9276,9.5316 23.3317,13.3593 32.8212,13.3593 19.3633,0 33.0711,-10.7103 55.7626,-43.5687 24.7494,-35.83849 37.1537,-42.09284 98.0826,-49.4529 16.2105,-1.95817 20.9777,-3.66712 49.0972,-17.59949 36.565,-18.11687 46.5328,-26.33821 48.5935,-40.07923 2.392,-15.9515 -8.183,-50.29013 -16.4664,-53.46877 -1.8653,-0.71579 -10.6868,-0.11652 -19.6033,1.33131 -33.6424,5.46344 -52.5179,1.97325 -69.9911,-12.94172 -8.1978,-6.99746 -13.7904,-9.7444 -27.1901,-13.35504 -28.5204,-7.68504 -46.297,-19.64004 -46.262,-31.11204 0.047,-15.57416 25.6014,-31.69532 56.7706,-35.81423 26.0007,-3.43597 25.9387,-3.41114 30.4018,-12.1598 4.6358,-9.08634 8.7501,-11.82829 20.8484,-13.89363 6.2016,-1.05868 9.1244,-2.79318 10.9012,-6.46912 1.3353,-2.76245 5.2919,-11.17814 8.7926,-18.70155 3.9278,-8.4428 8.9996,-15.68898 13.2486,-18.92996 19.566,-14.92359 55.8223,-14.37831 83.5614,1.25675 l 10.5838,5.96558 7.6682,-5.22198 c 5.7871,-3.94098 9.3134,-4.95808 14.376,-4.14623 9.24,1.48179 12.5566,-0.24162 12.5654,-6.5292 0.02,-10.25817 6.9222,-18.08499 19.0802,-21.61945 11.7629,-3.41956 12.1461,-3.9305 14.421,-19.23058 4.534,-30.49462 29.5748,-42.81104 66.4638,-32.69065 8.6178,2.36428 16.619,4.29865 17.78,4.29865 1.1612,0 8.9109,-6.43596 17.2218,-14.3021 8.3107,-7.86617 18.2724,-15.62327 22.137,-17.238 12.3166,-5.14622 25.4858,-3.79218 40.4794,4.1621 7.3589,3.9039 14.9637,7.0912 16.8995,7.08292 1.936,-0.008 10.4793,-3.99064 18.9853,-8.84969 44.3384,-25.32803 69.0351,-20.31872 80.8646,16.40212 5.4506,16.91953 10.309,21.58832 25.6059,24.60645 23.8931,4.71422 33.3931,16.15613 29.5504,35.59062 -2.4874,12.5794 -0.4631,18.344 7.4048,21.08674 9.172,3.19738 14.5029,9.56904 14.5029,17.33453 0,11.04983 4.8393,13.64929 29.013,15.58412 30.161,2.41408 40.4294,7.31809 48.5211,23.17279 3.2532,6.37467 3.8803,10.54044 3.0517,20.28 -0.5733,6.74158 -0.6117,13.39816 -0.086,14.7924 0.6761,1.78998 6.7876,2.535 20.795,2.535 24.6708,0 29.0934,2.60375 32.5286,19.15091 2.6804,12.91197 4.1636,14.41773 17.0447,17.30446 12.1776,2.72903 20.6388,7.01807 22.2794,11.29349 0.6929,1.80559 1.2597,8.05311 1.2597,13.88341 0,12.94284 2.2017,16.06382 15.21,21.56035 14.0484,5.93594 19.266,11.29164 19.266,19.77523 0,8.37585 -7.7864,16.56024 -19.55,20.54914 -4.3054,1.45994 -19.6094,3.12521 -34.0084,3.70059 -24.4556,0.97725 -26.787,1.43062 -35.3802,6.88029 -11.349,7.19742 -17.7263,7.30801 -38.7338,0.67178 -12.2854,-3.88101 -19.7362,-5.0136 -30.0176,-4.563 -16.7507,0.73409 -17.3372,2.9547 -3.536,13.38571 8.6791,6.55967 10.14,8.65781 10.14,14.56307 0,14.75856 -16.4385,17.60422 -80.0189,13.85195 l -31.3468,-1.84998 -18.3392,6.6883 c -16.8291,6.13766 -20.1757,6.67015 -40.6471,6.46774 -43.1319,-0.42643 -123.8508,-4.4756 -136.89,-6.8669 -23.0831,-4.23335 -47.7276,-3.5781 -64.896,1.72546 -20.4911,6.32998 -50.1364,22.04605 -71.7952,38.06116 -9.801,7.24733 -20.2435,14.10932 -23.2055,15.24887 -12.2393,4.70875 -28.038,5.63245 -59.615,3.48525 -51.5188,-3.50318 -85.3708,1.283 -116.1223,16.418 -22.2641,10.9578 -39.2345,27.0387 -50.3859,47.7447 -4.8056,8.9232 -11.8238,21.102 -15.5959,27.0641 -5.5304,8.7409 -7.0214,13.3968 -7.6991,24.0422 -0.8208,12.8884 -0.5337,13.8064 12.0843,38.631 l 12.9246,25.429 v 18.4668 c 0,20.5653 -2.4076,29.5376 -15.8391,59.0268 -12.7789,28.0566 -12.5215,51.1206 0.8695,77.9184 7.2382,14.485 13.1242,18.5817 35.2934,24.5646 20.616,5.5633 28.0424,9.9019 40.1893,23.4788 12.5054,13.9776 21.0074,18.8276 51.0269,29.1096 13.7256,4.7011 29.1991,11.6178 35.49,15.864 l 11.154,7.5286 -36.3339,0.5553 c -32.0073,0.4889 -38.2865,0.03 -52.728,-3.8475 -9.0167,-2.4215 -21.8697,-5.6182 -28.5621,-7.104 -13.759,-3.0545 -41.574,-3.7175 -41.574,-0.9911 0,0.9873 2.5096,3.3895 5.577,5.3385 17.181,10.9167 17.0403,15.1119 -0.507,15.1138 -13.4446,0 -29.5774,-3.9452 -70.565,-17.2634 -18.7335,-6.0872 -34.9323,-11.0676 -35.997,-11.0676 -3.5919,0 -1.9726,4.2248 6.2747,16.3694 11.0565,16.2814 9.9004,17.7325 -10.9508,13.7426 z m 54.635,-79.6423 c -8.6814,-12.6809 -15.3906,-29.4407 -15.3906,-38.4474 0,-2.6115 -0.704,-3.3896 -1.9444,-2.149 -2.8276,2.8274 1.1364,27.8648 5.8852,37.1732 4.3771,8.5798 18.7827,22.301 19.8985,18.9533 0.3932,-1.1799 -3.4086,-8.1684 -8.4487,-15.5301 z m -157.1453,-23.7972 c 3.504,-5.4609 6.6763,-13.5543 7.2132,-18.4032 l 0.9585,-8.6553 -6.4131,11.4745 c -3.5274,6.3108 -10.8877,16.7662 -16.3566,23.2342 -5.4688,6.4679 -9.9433,12.5405 -9.9433,13.4946 0,4.0092 18.7869,-12.1778 24.5413,-21.1448 z m 173.2697,-146.6562 c 1.4623,-11.7047 -1.4968,-28.6988 -6.5423,-37.5723 -2.6845,-4.7214 -2.802,-4.3033 -1.71,6.084 0.6452,6.1348 1.7403,18.6544 2.4338,27.8214 1.4153,18.7099 3.7547,20.1841 5.8185,3.6669 z m -105.4127,-20.8413 c -0.7427,-5.298 -3.2757,-15.5648 -5.629,-22.815 -3.4969,-10.7726 -6.5354,-15.4249 -16.625,-25.4546 -11.5477,-11.4789 -30.2581,-24.0264 -33.9427,-22.7628 -0.8974,0.3078 3.8197,4.9173 10.4824,10.2435 20.0639,16.039 33.3998,35.2864 41.4165,59.7749 1.9169,5.856 3.9721,10.647 4.5667,10.647 0.5948,0 0.4738,-4.3347 -0.2689,-9.633 z m 80.0557,-120.2523 c 3.5743,-4.5131 6.1057,-8.5989 5.6251,-9.0795 -1.4815,-1.4814 -9.3044,4.8719 -13.8371,11.2374 -6.8462,9.6144 0.3951,7.7116 8.212,-2.1579 z m 97.0631,-46.4451 c 4.4241,-2.2569 8.6155,-5.0292 9.3147,-6.1605 3.6744,-5.94506 -18.0004,2.9413 -24.221,9.9303 l -3.9588,4.4481 5.4109,-2.0573 c 2.976,-1.1314 9.0304,-3.9037 13.4542,-6.1606 z m -374.1418,-11.0042 c -1.4396,-3.75113 -13.6619,-10.17442 -17.1487,-9.01217 -1.7906,0.5969 0.074,2.87868 5.2057,6.36469 8.73,5.93218 13.6193,7.01598 11.943,2.64748 z m -339.50736,-5.49113 c 9.67762,-2.48593 20.0513,-9.44343 16.12931,-10.81783 -1.621,-0.56806 -9.21601,-3.34844 -16.8778,-6.17859 -17.31101,-6.39447 -20.98496,-6.423 -25.87931,-0.20097 -2.13922,2.7196 -7.5181,6.54565 -11.95287,8.5023 -11.77675,5.19594 -10.69723,7.73854 4.58047,10.78886 9.03006,1.80289 21.92096,1.00906 34.0002,-2.09377 z m 893.39906,-2.77265 c 10.6434,-4.4471 8.6929,-7.51118 -2.6,-4.08444 -5.2982,1.60768 -10.5456,2.94689 -11.661,2.97606 -2.2978,0.0601 3.1927,3.96787 5.642,4.01585 0.8724,0.0162 4.7508,-1.2913 8.619,-2.90747 z M 1532.6249,979.3914 c 5.0092,-2.65934 5.7371,-3.67145 3.0534,-4.24482 -3.7532,-0.80188 -19.7979,7.30086 -19.7979,9.9981 0,1.81954 7.0315,-0.59639 16.7445,-5.75328 z m -294.0512,-16.37097 c -0.591,-8.08665 -1.8645,-14.703 -2.8299,-14.703 -2.0176,0 -2.3355,22.97635 -0.4168,30.14421 2.42,9.04114 4.3611,-0.19002 3.2467,-15.44121 z m -29.9867,8.112 c 2.954,-23.49422 6.0542,-35.00509 14.4715,-53.73371 4.9479,-11.00894 8.4832,-20.8461 7.8562,-21.86034 -1.5744,-2.54739 -10.9907,-0.6447 -32.353,6.53728 -24.8663,8.35996 -37.2889,8.34158 -52.8344,-0.078 -6.5073,-3.52445 -14.6351,-6.41316 -18.0622,-6.41939 -10.2457,-0.0182 -21.4548,-3.98707 -32.265,-11.42322 -9.2112,-6.33618 -10.3871,-6.67735 -12.1505,-3.5259 -1.0741,1.91899 -2.3859,9.54162 -2.9151,16.93917 -1.2258,17.13129 3.4045,27.01626 17.5016,37.36454 13.8799,10.18872 25.5412,14.95739 44.7982,18.31919 17.0508,2.97668 34.3051,10.02451 51.698,21.11687 5.5167,3.51817 10.7082,6.39667 11.5369,6.39667 0.8285,0 2.0517,-4.33486 2.7178,-9.633 z m -310.23266,0.74129 c 14.19506,-3.86314 37.51801,-13.51369 37.51801,-15.52418 0,-4.4267 -32.843,-26.28411 -39.49453,-26.28411 -1.31243,0 -4.59888,2.36821 -7.30298,5.26267 -7.92044,8.47808 -15.60765,11.41955 -29.63252,11.33866 -7.08957,-0.041 -15.60468,-0.67064 -18.92295,-1.39944 -7.02141,-1.54217 -19.40874,2.00683 -20.94082,5.99965 -2.15451,5.61445 11.78596,13.60541 33.80286,19.37652 17.45157,4.57443 31.29345,4.95305 44.97293,1.23023 z m 828.57696,-10.59235 c 16.5333,-4.89325 51.1421,-25.90854 60.8827,-36.96948 10.0857,-11.45267 24.5208,-40.62493 29.9978,-60.6231 l 4.0158,-14.66263 -8.4788,-2.20389 c -4.6632,-1.21215 -11.4555,-3.24283 -15.0939,-4.51263 -6.0252,-2.10268 -6.9241,-1.86833 -10.0722,2.62597 -16.8669,24.08094 -28.5418,33.92066 -62.4018,52.59301 -12.7222,7.01564 -28.149,16.97828 -34.2819,22.13926 -38.7442,32.60443 -41.8662,35.52886 -39.3349,36.84613 1.4489,0.75387 11.3039,2.48391 21.9003,3.84456 10.5962,1.36064 20.6348,2.75255 22.308,3.09314 8.1495,1.65892 20.6107,0.77389 30.5589,-2.17034 z m -659.3906,-5.57784 c 7.1666,-1.27385 13.3627,-3.33623 13.7688,-4.58304 1.6999,-5.22054 -17.6117,-20.98501 -38.2769,-31.24576 -26.6142,-13.21473 -32.3224,-17.63521 -44.72749,-34.63715 -5.55156,-7.60887 -11.91192,-14.4113 -14.13372,-15.1165 -7.67808,-2.43692 -24.49632,-1.23166 -27.71412,1.98608 -2.79312,2.79335 -2.24568,3.90574 5.39112,10.95612 6.3468,5.85944 8.49996,9.38748 8.49996,13.9283 0,9.42868 -11.43948,17.30361 -28.9506,19.92957 -5.29716,0.79436 -10.04736,2.11765 -10.55616,2.94063 -1.27836,2.06867 13.61868,12.441 28.93896,20.14902 11.09832,5.58387 39.70668,14.41565 55.18385,17.0359 9.9907,1.69144 39.7861,0.93025 52.5763,-1.34317 z m 998.7728,-18.82587 c 5.4843,-2.07456 10.3205,-4.81951 10.7473,-6.09987 0.7743,-2.323 -16.629,-13.22039 -25.2874,-15.83415 -3.3977,-1.0257 -9.2594,1.32801 -22.8708,9.18376 -10.0666,5.80964 -18.7662,11.31302 -19.3328,12.22978 -3.9858,6.44942 40.0037,6.85293 56.7437,0.52048 z M 1990.1891,926.124 c 22.8961,-7.96912 24.7183,-10.24306 8.2539,-10.29911 -16.4976,-0.0562 -27.5903,-4.91011 -36.4683,-15.95777 -3.6835,-4.58351 -7.5861,-8.33369 -8.6725,-8.33369 -2.5706,0 -50.0712,29.03373 -50.0726,30.60591 -8e-4,0.65995 5.7026,2.82102 12.6738,4.8024 6.9712,1.98135 13.5876,3.879 14.703,4.21699 1.1154,0.33795 11.154,0.67431 22.308,0.74745 17.3805,0.114 22.7095,-0.71269 37.2747,-5.78218 z m -153.6018,-7.34606 c 22.8869,-4.28648 36.7386,-8.36144 52.4249,-15.42282 15.3857,-6.92596 42.6082,-23.51918 42.6082,-25.97145 0,-0.93151 -4.7105,-2.34147 -10.4678,-3.13327 -12.2098,-1.6793 -19.9522,-8.05662 -19.9522,-16.43409 0,-6.3054 -5.1417,-12.92688 -10.0376,-12.92688 -1.8289,0 -6.8071,4.56567 -11.0625,10.14595 -9.2029,12.06758 -17.7889,18.98801 -36.079,29.0799 -7.4673,4.12023 -15.3131,9.98452 -17.4347,13.03175 -5.5681,7.99644 -10.8159,24.8064 -7.7443,24.8064 0.4343,0 8.4197,-1.42898 17.745,-3.17549 z m -774.801,-13.38124 c 1.2918,-2.4138 2.4647,-10.73547 2.6065,-18.49257 0.329,-18.01556 -1.7232,-19.76301 -18.4088,-15.67566 -6.4645,1.58357 -17.001,2.79468 -23.4146,2.69133 -6.4136,-0.10344 -11.661,0.21236 -11.661,0.70156 0,2.78057 6.5191,12.59541 11.4799,17.28383 5.7092,5.39568 29.8513,17.87557 34.5855,17.87863 1.3553,8.8e-4 3.5207,-1.97332 4.8125,-4.38712 z m 642.2717,-15.67547 c 13.7011,-6.99279 19.4257,-17.04184 21.8339,-38.32798 1.6585,-14.65878 1.0638,-14.99113 -15.2916,-8.5445 -5.6418,2.22384 -15.258,4.63098 -21.369,5.34923 -7.8228,0.91941 -11.1109,2.1868 -11.1109,4.28239 0,2.95859 9.8067,36.65336 11.514,39.56006 1.487,2.53219 6.4962,1.72677 14.4236,-2.3192 z m 142.6967,-18.62611 c 9.393,-4.79202 25.1557,-20.1815 27.1695,-26.52646 2.6372,-8.30964 -6.5185,-9.15722 -24.0088,-2.22263 -8.7844,3.48286 -13.0904,10.34538 -14.9348,23.80246 -1.4582,10.63971 -0.3216,11.1173 11.7741,4.94663 z m -94.4097,-7.67884 c 10.5104,-7.71954 17.7358,-15.7526 16.2831,-18.10306 -0.6472,-1.04746 -4.6215,-2.48728 -8.8314,-3.19959 -4.21,-0.7123 -10.4895,-1.83241 -13.9546,-2.4891 -5.8176,-1.1026 -6.3998,-0.69432 -7.605,5.33094 -0.7176,3.58871 -1.3047,10.51758 -1.3047,15.39746 0,10.92713 3.7036,11.66326 15.4126,3.06335 z m -408.6912,-90.74042 c 7.4,-7.9612 27.2008,-21.41075 46.2497,-31.41431 23.1223,-12.14272 33.0358,-21.33719 41.7181,-38.69194 10.1332,-20.25464 9.6815,-24.08057 -4.9624,-42.04766 l -12.1574,-14.91589 -15.7276,-0.23733 c -12.4912,-0.1884 -18.1152,-1.35629 -27.3288,-5.67465 -9.4086,-4.40978 -15.7324,-5.67941 -33.462,-6.71832 -23.6591,-1.38632 -37.981,-5.28771 -41.1502,-11.20958 -3.008,-5.62082 -2.4151,-16.72041 1.1663,-21.83388 1.7443,-2.49018 7.9999,-7.61642 13.9016,-11.39164 9.0107,-5.76408 11.1036,-8.27942 13.0614,-15.69662 3.7751,-14.30217 10.4041,-19.98661 23.3088,-19.98661 10.4797,0 12.8718,-1.51712 17.5152,-11.10884 2.3212,-4.79511 7.6296,-11.08104 11.7966,-13.96872 8.8433,-6.12831 14.5893,-14.94523 14.5893,-22.38635 0,-6.86058 -4.7532,-6.89908 -23.9445,-0.19408 -7.9811,2.7885 -16.3004,5.07 -18.4869,5.07 -2.4593,0 -7.4885,4.56538 -13.1872,11.97102 -10.0663,13.08221 -18.8683,20.0741 -47.28,37.55726 -19.613,12.06903 -27.0031,20.24215 -33.644,37.20976 -8.178,20.89462 -2.6064,32.94562 25.0227,54.12382 10.6791,8.18588 22.9055,18.74486 27.1692,23.46442 14.6454,16.21071 22.6463,41.7307 24.7783,79.03372 1.5606,27.30552 2.2589,28.50873 11.0538,19.04644 z m 144.9471,-74.6596 c 32.0034,-10.63727 56.8292,-23.44736 69.1033,-35.65738 12.4555,-12.3904 16.6332,-19.40755 13.4495,-22.59128 -4.3261,-4.32616 -26.9931,-2.71406 -40.5568,2.88448 -6.9637,2.87434 -17.7071,5.8565 -23.8739,6.62702 -10.7511,1.34323 -11.6649,1.94551 -22.189,14.62453 -16.5456,19.93375 -29.1489,45.71809 -20.7761,42.50513 1.4484,-0.55583 12.6278,-4.33244 24.843,-8.3925 z m -23.4631,-44.70619 c 6.0013,-7.56408 6.1656,-8.20452 2.7446,-10.70584 -10.0094,-7.31916 -33.122,-8.26122 -33.122,-1.35005 0,4.81041 18.314,23.31246 21.3669,21.58644 1.4451,-0.81684 5.4995,-5.10559 9.0105,-9.53055 z m -281.1756,-55.32964 c 0.5019,-0.83655 -0.3729,-7.72843 -1.9443,-15.31527 -1.5716,-7.58686 -3.5256,-24.46996 -4.3424,-37.518 l -1.4851,-23.72373 -9.6351,-4.77917 c -11.4931,-5.70073 -16.6331,-4.6484 -15.1517,3.10197 3.3779,17.6697 -11.0744,24.84581 -36.438,18.09293 -5.7886,-1.54118 -10.9527,-2.37425 -11.4758,-1.85129 -0.5228,0.52299 -0.2432,3.41781 0.6214,6.43295 7.1343,24.87558 31.136,45.40786 62.9532,53.85307 13.1436,3.4887 15.6744,3.74431 16.8978,1.70654 z m 52.5482,-12.168 c 3.9588,-7.52895 12.182,-21.60698 18.2737,-31.28453 12.6681,-20.12488 22.4346,-47.2443 21.4349,-59.51948 -0.6425,-7.8864 -0.8204,-8.05604 -8.2247,-7.83295 -11.2674,0.33951 -14.4101,3.87403 -12.9452,14.56016 2.3241,16.95671 -6.5544,23.33129 -33.2287,23.85738 l -17.238,0.34001 0.217,14.98865 c 0.1202,8.24378 1.7033,20.00553 3.5192,26.13722 4.0442,13.65515 14.6433,32.44254 18.3031,32.44254 1.4799,0 5.93,-6.16005 9.8887,-13.689 z m 526.2742,3.18689 c 13.0575,-4.88551 24.2286,-13.9695 21.8707,-17.7848 -1.1304,-1.82888 -4.926,-2.25414 -12.9988,-1.4564 -27.7244,2.73971 -29.8802,3.43692 -38.8331,12.55919 -5.2251,5.32398 -7.9455,9.64319 -7.0185,11.14313 2.0862,3.37559 22.6715,0.89224 36.9797,-4.46112 z m -47.2139,-8.83148 c 3.9411,-3.94109 7.1526,-7.81965 7.1363,-8.619 -0.02,-0.79938 -4.351,-3.98691 -9.633,-7.08342 -5.282,-3.0965 -12.7047,-7.88764 -16.4946,-10.647 -7.4802,-5.44612 -19.8999,-6.68192 -29.7015,-2.95539 -4.4521,1.69266 -4.9836,2.59042 -2.9705,5.01634 1.3488,1.6251 5.4759,3.52193 9.1712,4.21518 8.244,1.54658 14.6984,7.28244 16.4517,14.62001 2.4711,10.34253 4.6206,12.61887 11.9157,12.61887 5.2616,0 8.7068,-1.74773 14.1247,-7.16559 z m -611.3743,4.07701 c 0,-1.84183 -18.8114,-33.52174 -20.539,-34.5895 -0.9077,-0.56082 -4.3691,0.38653 -7.6928,2.1052 -8.1459,4.21242 -17.4597,3.93185 -31.6598,-0.95368 -13.7397,-4.72716 -17.6538,-3.09507 -12.2726,5.11757 4.4939,6.85844 25.857,20.64728 36.4988,23.55805 13.7615,3.76407 35.6654,6.68887 35.6654,4.76236 z M 1294.402,538.8631 c 16.3145,-8.35706 35.0633,-27.4669 31.9273,-32.54145 -2.1219,-3.43309 -25.524,-14.69711 -28.3118,-13.62724 -1.3599,0.5218 -5.0403,10.84971 -8.1786,22.95088 -3.1383,12.10118 -6.1349,23.14289 -6.6592,24.53714 -1.353,3.59796 2.5097,3.14388 11.2223,-1.31933 z" />
  </g>
</svg>
