<?xml version="1.0" encoding="UTF-8" standalone="no"?>
<!-- Created with Inkscape (http://www.inkscape.org/) -->

<svg
   version="1.1"
   id="svg1"
   width="2784"
   height="1536"
   viewBox="0 0 2784 1536"
   xmlns="http://www.w3.org/2000/svg"
   xmlns:svg="http://www.w3.org/2000/svg">
  <defs
     id="defs1" />
  <g
     id="g1">
    <path
       id="path1"
       style="fill:#000000;stroke-width:2.08929"
       d="M 1155.4824 40.892578 C 1146.4667 40.98941 1137.8637 42.521164 1128.2969 45.361328 C 1097.4333 54.524015 1079.5839 69.171422 1065.6094 96.800781 C 1055.5181 116.75259 1056.1188 116.12422 1043.9258 119.45312 C 1024.695 124.70346 1016.8237 140.45817 1027.0371 153.25391 L 1031.8262 159.25586 L 1027.6426 163.16016 C 1024.5118 166.08213 1023.72 168.03155 1024.498 170.90039 C 1025.3537 174.05573 1025.0408 174.52489 1022.7324 173.55469 C 1017.6112 171.40224 1005.4259 160.1753 1004.498 156.75391 C 999.48585 138.27225 984.49378 160.83199 984.42578 186.95898 C 984.39468 198.84595 984.10523 200.06831 981.30273 200.07031 C 973.15713 200.0789 951.51539 212.29414 945.96094 220.01953 C 934.42459 236.06481 948.78197 252.59788 975.79297 254.37305 C 979.47167 254.61483 969.48954 259.74023 965.33984 259.74023 C 954.11307 259.74023 944.34087 268.91813 939.54102 283.9707 C 938.17105 288.26698 936.41991 289.64817 929.8457 291.61719 C 914.13103 296.32383 901.23547 307.01339 899.375 316.875 C 897.69358 325.78755 897.49375 326.09809 892.72266 327.21484 C 879.45333 330.3207 873.03038 345.90643 881.55859 354.30469 C 895.83337 368.3619 976.17917 369.25616 983.66797 355.44141 C 984.11947 354.60843 987.94392 355.89742 992.16602 358.30469 C 1027.7768 378.60829 1064.1103 376.03439 1084.4453 351.76758 C 1093.7591 340.65303 1097.5608 338.43256 1111.8574 335.75391 C 1120.0275 334.22312 1126.0202 331.75902 1132.1758 327.40039 C 1144.8669 318.41409 1163.7781 318.13607 1170.7207 326.83398 C 1176.1 333.57337 1176.4185 337.16282 1171.7266 338.16602 C 1169.8147 338.57486 1164.1748 339.78855 1159.1934 340.86133 C 1154.2119 341.93411 1146.9117 345.05645 1142.9707 347.80078 C 1134.4281 353.74939 1128.2261 356.45835 1119.3516 358.11914 C 1108.9583 360.06417 1098.0846 369.44616 1095.7461 378.48633 C 1094.2288 384.35193 1099.7465 389.24297 1112.0723 392.95898 C 1123.8659 396.51454 1124.5175 397.59716 1118.502 403.64648 C 1110.9962 411.19455 1099.602 411.41796 1089.8633 404.20703 C 1085.3899 400.89472 1081.3819 397.70645 1080.957 397.12109 C 1075.9182 390.17926 1039.9007 384.15884 1034.3691 389.33398 C 1030.3291 393.11368 1018.6337 393.81285 1011.3691 390.70898 C 991.89674 382.38915 964.35159 387.48126 942.96484 403.35352 C 941.10708 404.73227 933.2114 408.39129 925.41992 411.48633 C 905.44121 419.42249 895.64812 426.23224 880.58203 442.66211 C 876.17163 447.47175 871.55206 451.4082 870.31641 451.4082 C 866.52282 451.4082 858.47266 461.54235 858.47266 466.31836 C 858.47266 473.8561 864.168 477.51948 885.89648 483.95703 C 893.88515 486.32387 894.02909 487.89459 886.96875 495.6875 C 881.64582 501.56271 881.3416 501.6623 877.24414 498.91016 C 869.82239 493.92518 862.69357 496.895 859.95117 506.11328 C 857.66943 513.78307 857.66081 513.78936 850.58594 513.2168 C 839.10297 512.28749 833.06817 519.35156 834.35938 532.20898 L 835.32422 541.81641 L 826.66016 541.81641 C 808.91299 541.81641 796.50836 556.23663 805.79492 566.07227 C 820.80927 581.97437 899.01928 579.6149 910.80664 562.9043 C 913.48104 559.11286 922.63991 558.97213 930.07812 562.60938 C 937.06471 566.02566 954.39685 566.11747 964.41211 562.79102 C 968.60271 561.39915 977.38674 559.74171 983.93164 559.10742 C 1008.9621 556.68171 1033.0352 541.21125 1033.0742 527.52539 C 1033.0906 521.76905 1042.3511 509.83051 1049.5176 506.32617 C 1052.4824 504.8764 1060.2327 503.82789 1068.1602 503.80469 C 1084.5874 503.75661 1090.7202 500.93608 1106.1875 486.31055 C 1117.6963 475.42814 1126.4124 473.1307 1135.2344 478.65625 C 1139.379 481.25214 1157.5561 479.65148 1164.9395 476.04102 C 1167.6857 474.69813 1172.9046 469.64793 1176.5371 464.81836 C 1186.1757 452.00333 1191.3776 449.89822 1197.4766 456.33789 C 1200.0891 459.09613 1202.4092 461.42678 1202.6328 461.51758 C 1202.8564 461.60855 1203.4054 467.01488 1203.8535 473.53125 L 1204.668 485.37891 L 1198.0469 488.05078 C 1194.4053 489.51981 1187.6172 493.67424 1182.9629 497.2832 C 1173.7356 504.43809 1171.8236 505.01002 1168.7461 501.54492 C 1161.2344 493.08711 1157.6038 491.1875 1148.959 491.1875 C 1135.9558 491.1875 1131.6775 493.70892 1121.1406 507.58398 C 1115.5098 514.9988 1109.9367 520.57452 1107.4922 521.23633 C 1097.4 523.96876 1084.3958 534.40465 1081.0723 542.43945 C 1078.4394 548.8044 1076.6489 550.71178 1071.666 552.45898 C 1058.8351 556.95799 1054.7113 570.48301 1064.6836 575.35938 C 1072.9927 579.42246 1106.4734 578.81258 1130.2227 574.16602 C 1146.2909 571.02226 1151.0177 570.7065 1157.166 572.35938 C 1167.2651 575.07435 1193.1967 574.7564 1200.1934 571.83203 C 1207.4926 568.78118 1216.9683 559.9752 1221.6992 551.8457 C 1223.7437 548.33249 1226.1155 545.45231 1226.9688 545.44531 C 1229.2994 545.42673 1243.0816 558.74893 1242.6465 560.59961 C 1242.4386 561.48337 1235.0003 566.6607 1226.1172 572.10352 C 1192.4497 592.73171 1189.3038 595.26401 1170.2969 617.04492 L 1156.8945 632.4043 L 1133.1074 631.86328 C 1117.7085 631.51261 1107.9953 632.04223 1105.5664 633.36523 C 1103.5027 634.48928 1098.838 636.86152 1095.2012 638.63672 C 1091.5644 640.4119 1086.3902 643.76409 1083.7012 646.08594 C 1077.5203 651.42271 1075.1391 651.37802 1066.8223 645.7793 C 1056.3541 638.73233 1049.3423 637.14773 1026.8809 636.75391 C 1009.0307 636.44091 1004.6854 635.77127 996.75195 632.09961 C 976.05365 622.52021 947.90296 627.62764 939.15234 642.55078 C 929.92813 658.28158 928.32436 659.36488 913.25781 660.04297 C 897.09735 660.77028 890.6669 663.80576 886.10156 672.86133 C 883.69583 677.6332 881.48041 679.35788 875.65234 680.99414 C 856.54551 686.35848 846.05163 705.18985 856.09766 716.08594 C 862.36359 722.88207 871.42853 725.04951 894.78125 725.33984 C 906.67796 725.48772 921.2782 725.78586 927.22656 726.00195 L 938.04102 726.39453 L 933.40625 729.28906 C 925.45382 734.25388 918.8827 743.47387 917.83594 751.13477 C 916.73055 759.2249 911.84063 762.41406 900.54102 762.41406 C 894.31456 762.41406 881.8627 765.63072 873.74023 769.33789 C 868.13314 771.89702 863.24755 779.73223 862.12109 787.97656 C 861.23775 794.44141 860.89706 794.82457 857.11914 793.58203 C 842.37473 788.73269 818.21479 795.76004 810.58008 807.11914 C 803.91236 817.03949 805.48044 828.88225 814.15625 834.13281 L 818.84375 836.9707 L 813.83594 839.43555 C 811.08101 840.7912 807.09651 843.49135 804.98242 845.4375 C 802.61134 847.62027 798.85889 848.94006 795.1875 848.88086 C 785.59485 848.72592 776.99476 855.50889 773.91406 865.66016 C 771.61217 873.24514 770.48327 874.56801 763.34766 878.0293 C 746.89322 886.01085 741.05078 891.67171 741.05078 899.63477 C 741.05078 914.79588 755.18179 921.07686 784.14062 918.78906 C 820.46146 915.91965 825.49502 916.33181 838.38672 923.23242 C 855.70254 932.50115 866.17563 932.89772 878.88086 924.76367 C 887.38935 919.31643 889.27359 918.75267 894.00781 920.22852 C 901.19663 922.46958 931.39857 920.75831 941.23633 917.55273 C 945.54291 916.14948 952.256 912.48135 956.1543 909.40234 C 962.24334 904.59294 965.16675 903.62805 976.90625 902.55273 C 994.58025 900.93381 1004.0799 895.95246 1016.8359 881.61719 L 1026.707 870.52539 L 1035.8477 871.76758 C 1046.6918 873.24054 1061.1742 869.53331 1075.4473 861.63086 C 1082.6521 857.64184 1087.1403 856.41714 1094.8613 856.33594 C 1120.8533 856.06247 1155.809 837.20028 1152.6973 825.12695 C 1151.3762 820.00107 1145.2517 812.38934 1139.9746 809.31836 C 1137.6817 807.98399 1133.7192 804.66021 1131.1699 801.93164 C 1127.1802 797.66141 1125.0738 796.9163 1116.0449 796.58203 C 1103.0757 796.10192 1102.2821 794.81563 1110.7539 787.99414 C 1118.9709 781.37778 1127.1845 770.88888 1134.7207 757.38867 C 1137.8658 751.75464 1140.8173 746.53201 1141.2793 745.7832 C 1141.7413 745.03436 1147.8692 746.02789 1154.8965 747.99219 C 1180.674 755.19761 1200.5061 749.49496 1215.9375 730.43945 C 1219.0117 726.64316 1221.529 722.22344 1221.541 720.61719 C 1221.59 709.93491 1202.9611 699.83352 1182.1465 699.25586 C 1178.107 699.14373 1177.0364 697.93776 1173.918 689.98242 L 1170.332 680.83594 L 1176.3125 671.44727 C 1179.6019 666.28394 1185.8807 656.36382 1190.2637 649.40234 C 1207.1018 622.65852 1218.7153 615.02443 1248.0898 611.39648 C 1260.0189 609.92314 1271.3559 608.71875 1273.2812 608.71875 C 1275.2066 608.71875 1283.996 614.90486 1292.8145 622.46484 C 1301.6329 630.02482 1312.8553 638.58437 1317.7539 641.48828 C 1343.0022 656.4556 1349.791 664.23968 1349.791 678.22266 C 1349.791 689.94751 1344.4041 700.56813 1332.6875 711.93945 C 1310.3829 733.58688 1286.9443 766.83936 1275.8965 792.50977 C 1266.5948 814.12321 1268.1974 835.58748 1281.6602 869.69336 C 1288.7554 887.66805 1309.394 917.91602 1314.5625 917.91602 C 1315.32 917.91602 1322.3399 925.06598 1330.1621 933.80469 C 1346.9618 952.57284 1352.0883 957.15779 1364.4688 964.48047 C 1374.5805 970.46136 1393.8007 986.35189 1392.6094 987.74609 C 1392.2014 988.22369 1387.3523 987.69541 1381.832 986.57031 C 1371.9055 984.54728 1346.7012 989.71338 1346.7012 993.77148 C 1346.7012 994.49968 1343.7462 996.1078 1340.1348 997.3457 C 1336.5233 998.5835 1332.0534 1000.7284 1330.2012 1002.1113 C 1322.7131 1007.7022 1290.4057 1005.1713 1283.3555 998.44141 C 1282.0809 997.22471 1277.1136 993.65175 1272.3184 990.50195 C 1258.1476 981.19335 1255.1378 971.46652 1262.498 958.77344 C 1267.8855 949.48238 1267.6467 948.6275 1255.9316 935.24805 C 1240.4872 917.60989 1231.5273 914.4118 1209.2207 918.57422 C 1196.6182 920.92585 1191.0874 921.1921 1184.6426 919.76172 C 1180.0687 918.74654 1176.0242 917.91602 1175.6562 917.91602 C 1172.4528 917.91602 1177.1321 926.74677 1182.1562 930.18359 C 1187.856 934.08261 1189.6044 934.34277 1204.6641 933.53906 C 1218.0731 932.82343 1222.0806 933.23916 1227.0684 935.85938 C 1233.0925 939.02387 1244.7285 952.31017 1244.7285 956.02344 C 1244.7285 960.5857 1236.4391 973.95917 1232.2734 976.11719 C 1226.2884 979.21759 1226.4281 979.85469 1235.459 990.5918 C 1239.7078 995.6433 1243.1836 1000.3501 1243.1836 1001.0527 C 1243.1836 1003.9429 1218.5557 1015.413 1208.623 1017.1484 C 1196.4347 1019.2779 1194.9332 1020.3094 1198.9766 1023.7695 C 1207.3773 1030.9585 1230.7279 1029.0979 1248.5918 1019.8164 C 1265.5209 1011.0205 1266.7754 1010.8355 1274.4277 1016.0059 C 1285.6524 1023.5899 1313.5956 1035.4492 1320.2402 1035.4492 C 1323.6596 1035.4492 1332.2287 1033.3929 1339.2832 1030.8809 C 1346.3376 1028.3689 1355.4911 1025.1144 1359.625 1023.6484 C 1369.3666 1020.1938 1372.8324 1020.2839 1390.1992 1024.4375 C 1415.1742 1030.4108 1425.7933 1037.9047 1430.3965 1052.8027 C 1431.442 1056.1867 1432.8541 1058.9551 1433.5332 1058.9551 C 1434.2122 1058.9551 1434.7676 1060.1164 1434.7676 1061.5371 C 1434.7676 1062.9579 1435.6371 1065.1956 1436.6992 1066.5098 C 1437.7615 1067.8239 1439.4154 1070.9336 1440.375 1073.4199 C 1459.1494 1122.0689 1480.7552 1160.2129 1489.5371 1160.2129 C 1490.1681 1160.2129 1492.581 1161.7915 1494.8984 1163.7227 C 1497.2157 1165.6539 1503.7818 1169.2919 1509.4902 1171.8066 C 1522.6014 1177.5821 1542.7722 1189.5958 1553.5039 1198.0215 C 1558.0507 1201.5912 1563.3269 1205.7329 1565.2285 1207.2246 C 1588.2829 1225.3105 1615.4594 1257.9487 1629.9707 1284.9766 C 1633.9753 1292.4353 1637.9113 1299.7583 1638.7168 1301.25 C 1656.7748 1334.6974 1654.2456 1382.6562 1632.8379 1412.7383 C 1620.2027 1430.4931 1612.0409 1434.9057 1591.5879 1435.041 C 1576.5719 1435.1404 1565.4595 1436.9813 1559.1426 1440.416 C 1557.4431 1441.3401 1551.1847 1444.6664 1545.2363 1447.8086 C 1539.2881 1450.9507 1532.9222 1455.1327 1531.0898 1457.1016 C 1527.0192 1461.4755 1499.9441 1479.2716 1490.3887 1483.8535 C 1486.5647 1485.687 1478.221 1490.0123 1471.8477 1493.4668 C 1457.0104 1501.5089 1460.0737 1502.9016 1489.4082 1501.4492 C 1510.943 1500.3829 1520.4517 1497.5254 1546.8633 1484.1777 C 1561.4991 1476.7813 1570.0655 1475.7162 1586.9531 1479.1934 C 1603.2591 1482.5507 1621.3265 1482.9177 1627.4375 1480.0156 C 1659.0707 1464.9938 1672.1281 1447.096 1681.4355 1406.0039 C 1684.2717 1393.4823 1685.3392 1344.9577 1683.1641 1327.4688 C 1682.4658 1321.8548 1682.571 1319.4775 1683.4395 1321.1973 C 1685.3723 1325.0242 1689.9392 1348.5829 1688.9688 1349.7188 C 1688.5345 1350.2269 1688.9791 1351.7694 1689.957 1353.1484 C 1691.1352 1354.8099 1691.7045 1364.9303 1691.6445 1383.1504 C 1691.5398 1414.9447 1688.681 1431.1493 1679.6797 1450.9883 C 1671.5731 1468.8551 1671.474 1468.7148 1690.2969 1465.9707 C 1707.4998 1463.4626 1725.8925 1469.253 1732.6484 1479.3047 C 1734.3381 1481.8186 1736.3883 1483.875 1737.2051 1483.875 C 1741.2521 1483.875 1750.7434 1465.4492 1756.2969 1446.8086 L 1758.4512 1439.5762 L 1758.9668 1448.6172 C 1760.1176 1468.8013 1751.1735 1489.2182 1737.5762 1497.4473 C 1731.5105 1501.1182 1720.5521 1513.8633 1717.2363 1521.1035 C 1713.7373 1528.7438 1713.2145 1528.7018 1737.5781 1522.6816 C 1759.5207 1517.2596 1765.4231 1514.3051 1780.8535 1501.0176 C 1807.7728 1477.8367 1811.725 1475.8776 1829.1934 1477.0449 C 1839.2776 1477.7187 1845.213 1479.4186 1858.1055 1485.3242 C 1877.7231 1494.3105 1893.97 1498.3418 1910.5703 1498.3418 C 1926.4913 1498.3418 1926.4997 1496.6975 1910.6367 1483.1953 C 1899.2427 1473.4971 1894.4447 1467.1243 1900.9785 1470.3652 C 1913.8151 1476.7321 1917.2743 1477.3397 1947.7168 1478.5918 C 1981.9365 1479.9991 1981.8005 1479.9743 2007.6367 1490.2246 C 2028.9782 1498.6918 2031.0932 1497.7158 2022.4297 1483.4043 C 2009.2049 1461.5578 1989.7607 1448.5948 1959.3047 1441.3262 C 1932.2202 1434.8622 1920.0717 1427.7667 1906.2441 1410.334 C 1893.4516 1394.2063 1893.7788 1394.7043 1887.7285 1382.293 C 1881.4023 1369.3158 1868.5605 1356.2622 1852.6973 1346.6855 C 1836.973 1337.1924 1826.2709 1325.1912 1819.2949 1309.2285 C 1807.2204 1281.5988 1788.9632 1245.031 1783.2637 1237.0605 C 1781.1303 1234.077 1779.3667 1230.5412 1779.3457 1229.2031 C 1779.3249 1227.8648 1778.0501 1224.6084 1776.5117 1221.9688 C 1773.5795 1216.9376 1762.327 1188.5109 1762.293 1186.0488 C 1762.229 1181.385 1752.2633 1162.7875 1746.5957 1156.7559 C 1737.8936 1147.495 1717.8345 1132.1864 1705.1465 1125.1211 C 1695.333 1119.6566 1694.6377 1119.5365 1674.623 1119.9102 C 1649.8723 1120.3724 1645.817 1118.7339 1630.9863 1102.2676 C 1616.636 1086.3345 1602.838 1076.2828 1590.3125 1072.6367 C 1584.5121 1070.9482 1574.9216 1066.7211 1569.002 1063.2441 L 1558.2402 1056.9238 L 1545.627 1026.748 C 1532.6515 995.70694 1529.573 983.30886 1532.4434 973.62891 C 1533.287 970.78379 1534.7148 969.1376 1535.8828 969.66211 C 1536.9806 970.15515 1538.3068 969.08764 1538.8301 967.29102 C 1539.3533 965.49439 1541.5534 960.77096 1543.7207 956.79297 C 1545.8879 952.81499 1548.6368 947.11826 1549.8281 944.13477 C 1551.0194 941.15129 1555.2377 934.6424 1559.2012 929.66992 C 1567.1267 919.72695 1569.1855 915.00974 1569.1855 906.79883 C 1569.1855 903.24369 1569.8571 901.60006 1571.1152 902.08203 C 1572.9999 902.80406 1575.1645 906.93228 1586.1172 930.7207 C 1592.7357 945.09558 1613.6265 969.9505 1634.4727 988.24805 C 1642.7639 995.52565 1649.9354 1002.2122 1650.4082 1003.1074 C 1651.3652 1004.9196 1651.0218 1005.0926 1637.9531 1009.4004 C 1620.6258 1015.1119 1614.8693 1026.9749 1621.7578 1042.7773 C 1632.0713 1066.4367 1664.7229 1072.7629 1696.6504 1057.2871 C 1710.0276 1050.8029 1706.7385 1050.2052 1725.7559 1062.5742 C 1734.2648 1068.1085 1735.4512 1068.3912 1746.6152 1067.543 C 1753.1253 1067.0484 1759.5263 1066.109 1760.8418 1065.457 C 1762.3325 1064.7182 1765.826 1066.6193 1770.1133 1070.5039 C 1796.1291 1094.0759 1848.4776 1105.3764 1886.6875 1095.668 C 1910.3522 1089.6553 1910.6756 1089.6248 1920.9668 1092.418 C 1951.208 1100.6259 2010.8002 1083.8868 2016.3594 1065.623 C 2020.3383 1052.5509 2006.9577 1041.2813 1981.707 1036.4375 C 1978.4342 1035.8097 1973.5966 1032.5459 1969.4531 1028.1719 C 1959.2576 1017.4094 1952.7916 1015.9287 1924.6211 1017.8984 C 1919.7497 1018.239 1919.2053 1017.7621 1918.2383 1012.3203 C 1917.6568 1009.0475 1915.9768 1004.8124 1914.5059 1002.9102 C 1908.0234 994.52695 1876.9031 993.11893 1864.623 1000.6523 C 1860.022 1003.475 1855.3209 1004.7087 1849.1738 1004.7207 C 1844.3138 1004.7267 1838.5803 1005.804 1836.4336 1007.1152 C 1831.32 1010.2385 1829.1694 1009.2092 1826.3379 1002.2832 C 1819.287 985.03699 1815.7189 981.76201 1802.0137 979.94727 C 1793.9556 978.88027 1782.3984 973.37685 1782.3984 970.60742 C 1782.3984 967.73865 1790.281 964.98029 1804.1016 963.01367 C 1817.9869 961.03782 1818.0871 961.05328 1821.0352 965.43945 C 1826.3606 973.36288 1838.6599 978.14742 1851.0332 977.11133 C 1858.138 976.51642 1863.9191 977.06356 1867.8945 978.70508 C 1882.9954 984.94039 1910.7685 980.18218 1927.7773 968.44531 C 1932.0205 965.51736 1936.0605 963.12109 1936.7559 963.12109 C 1940.0039 963.12109 1961.1566 951.71497 1964.2832 948.27734 C 1977.8716 933.33746 1948.6772 914.59678 1926.4785 924.00977 L 1919.9199 926.79102 L 1918.9336 919.58008 C 1917.1326 906.39971 1909.5263 899.54472 1894.0273 897.13867 C 1887.7936 896.17092 1885.916 895.15836 1885.916 892.76172 C 1885.916 884.26507 1880.8385 870.52043 1875.6602 865 C 1862.9948 851.49772 1848.7594 849.7699 1821.3125 858.40039 C 1801.7741 864.54405 1803.1631 864.64599 1780.8535 855.40625 C 1765.3885 849.0013 1755.0938 849.88653 1739.5664 858.95898 C 1733.4293 862.54491 1727.8557 865.48047 1727.1797 865.48047 C 1726.5035 865.48047 1723.3533 867.54448 1720.1797 870.06836 C 1715.1166 874.09478 1713.6993 874.43893 1708.6191 872.86914 C 1705.4347 871.88518 1695.8766 869.79771 1687.3789 868.23047 C 1663.7444 863.87152 1662.3694 862.89482 1672.4961 857.66602 C 1677.3906 855.13871 1681.2314 854.78302 1693.7402 855.69531 C 1710.1823 856.89444 1717.4349 854.96435 1742.1543 842.81641 C 1752.1204 837.91878 1752.1285 837.91741 1768.4199 840.22852 C 1803.6245 845.22277 1822.8949 839.50919 1825.127 823.41211 C 1826.5219 813.35209 1816.7051 803.6122 1802.2617 800.72656 C 1796.9981 799.67493 1794.8686 798.12204 1792.4453 793.57227 C 1786.9129 783.18531 1775.4567 778.07016 1761.0703 779.56055 C 1748.9551 780.81567 1748.9409 780.81113 1746.1367 775.68359 C 1736.1703 757.45932 1718.4754 749.00434 1700.666 753.95703 C 1692.8029 756.14372 1691.6154 755.98542 1680.082 751.20898 C 1654.5898 740.65155 1633.1252 749.91421 1623.0371 775.82617 C 1621.9209 778.69316 1620.5863 779.91011 1619.543 779.00977 C 1612.3065 772.76451 1588.6693 782.58271 1582.7695 794.28516 L 1579.668 800.43945 L 1574.6074 796.7793 C 1566.1013 790.62689 1542.5964 777.43806 1534.4219 774.23047 C 1530.173 772.56327 1521.7767 768.02253 1515.7637 764.14062 C 1488.3076 746.41561 1470.1696 748.41113 1448.6719 771.52148 C 1444.848 775.63225 1440.1837 779.7066 1438.3066 780.57617 C 1434.4791 782.3492 1377.6016 780.60895 1377.6016 778.71875 C 1377.6016 778.05372 1379.4166 775.53598 1381.6348 773.125 C 1385.3823 769.0516 1396.9551 751.60587 1405.4082 737.28711 C 1407.4022 733.90968 1413.1383 725.77262 1418.1543 719.20508 C 1433.9191 698.56348 1436.5965 688.13265 1431.7812 666.13281 C 1430.0947 658.42763 1427.9935 651.10468 1427.1113 649.85938 C 1426.2293 648.61409 1422.2528 642.40818 1418.2754 636.07031 C 1402.7639 611.35334 1391.0067 601.59588 1366.7871 593.3418 C 1363.5326 592.23263 1357.4527 587.66306 1350.5645 581.14844 C 1349.7147 580.34479 1344.1159 575.43744 1338.123 570.24414 C 1328.3661 561.78896 1315.8008 547.52443 1315.8008 544.90234 C 1315.8008 542.58232 1328.0049 539.47471 1337.3652 539.41211 C 1354.6232 539.29657 1373.8858 546.95323 1385.8301 558.67773 L 1390.1953 562.96289 L 1385.4434 568.52344 C 1375.7466 579.87191 1383.0801 587.91565 1404.7891 589.74219 C 1412.2091 590.36652 1418.5365 591.96204 1421.1348 593.86328 C 1450.4296 615.29985 1454.1643 616.99702 1477.6875 619.55469 C 1494.6592 621.40002 1512.4422 627.15253 1522.373 634.00977 C 1559.3442 659.53859 1610.0828 661.6867 1645.6562 639.23047 C 1657.4486 631.78645 1657.4571 631.78396 1663.1465 634.7207 C 1670.7772 638.65949 1697.4866 644.88281 1706.7637 644.88281 C 1716.4555 644.88281 1736.8608 639.13479 1747.6035 633.37891 C 1752.2656 630.88103 1764.7198 626.37894 1775.2793 623.37305 C 1814.9992 612.06632 1824.2614 605.30063 1814.457 594.76367 C 1809.9732 589.94507 1797.4003 582.45062 1788.7441 579.4375 C 1783.6703 577.67137 1781.4351 575.70565 1779.8867 571.65039 C 1773.8972 555.96418 1769.3632 553.74438 1746.4473 555.27344 L 1727.5508 556.53516 L 1731.8125 551.79883 C 1739.5611 543.19116 1741.2816 538.83351 1739.2246 533.02148 C 1735.7506 523.20636 1722.8153 515.61659 1706.1562 513.61914 C 1696.1476 512.41907 1696.1436 512.41569 1693.7109 504.9668 C 1690.0339 493.70772 1684.963 488.29513 1676.877 486.99805 C 1668.1081 485.59141 1655.3087 478.57636 1646.8555 470.54492 C 1630.5643 455.06645 1601.0449 459.03196 1581.9043 479.26953 L 1575.7617 485.76367 L 1568.9961 482.28125 C 1559.0189 477.1423 1539.7147 474.55588 1526.209 476.55078 C 1511.078 478.78573 1500.28 485.30036 1488.248 499.45117 C 1482.8113 505.84532 1477.0713 511.08932 1475.4922 511.10742 C 1459.8465 511.27628 1440.9818 523.36337 1440.9238 533.25586 C 1440.8852 539.84956 1438.5581 542.32997 1430.002 544.89258 C 1420.8582 547.63118 1420.9514 547.6808 1399.2324 528.4375 C 1377.3774 509.07372 1360.2393 502.9327 1328.1602 502.9668 C 1303.4216 502.99318 1289.6085 506.04549 1285.6328 512.36719 C 1282.2121 517.80655 1255.8327 477.93958 1251.5137 460.80273 C 1248.3245 448.14894 1248.8475 447.17253 1260.8535 443.36914 C 1277.7908 438.00359 1294.7406 439.94183 1311.166 449.12305 C 1327.1238 458.04287 1343.7007 464.21593 1365.2422 469.25977 C 1401.865 477.83483 1417.8256 475.90932 1446.5645 459.45117 C 1457.2168 453.35083 1465.7845 449.59961 1469.0645 449.59961 C 1479.5884 449.59961 1508.5441 444.17371 1526.668 438.80664 C 1540.2789 434.77598 1548.7506 433.32617 1558.668 433.32617 C 1576.7315 433.32617 1596.772 427.80287 1605.582 420.39844 C 1617.8963 410.04871 1617.6208 398.28148 1604.959 393.8418 C 1598.2753 391.49826 1592.3594 384.41146 1592.3594 378.74609 C 1592.3594 363.97206 1577.7818 355.68148 1559.5293 360.07617 C 1554.4695 361.29442 1553.731 361.0403 1553.709 358.07031 C 1553.6641 352.05988 1546.9431 340.68143 1541.3984 337.22852 C 1534.237 332.76879 1521.2113 332.8806 1510.8438 337.49219 C 1506.3735 339.4807 1499.0537 341.10938 1494.5781 341.10938 C 1490.1026 341.10938 1485.0528 342.2474 1483.3555 343.63867 C 1478.256 347.81888 1474.3888 347.59245 1470.1875 342.86914 C 1467.9992 340.409 1464.6958 336.98063 1462.8477 335.25 C 1457.2765 330.03312 1458.1388 320.00562 1464.1758 319.80469 C 1466.7543 319.71887 1472.9954 317.97478 1478.0449 315.92969 C 1483.0944 313.8846 1490.5453 311.34983 1494.6016 310.29688 C 1521.91 303.20808 1533.8761 289.47375 1524.959 275.45117 C 1520.7803 268.8801 1514.9756 265.346 1504.7656 263.15625 C 1493.6943 260.78176 1491.1151 258.19692 1485.6387 244 C 1473.7028 213.05718 1448.433 201.15478 1417.7715 212.03125 C 1409.8074 214.85635 1399.8219 215.30757 1398.5508 212.90039 C 1398.0757 212.0008 1393.9956 208.82728 1389.4844 205.84766 C 1379.8325 199.47271 1374.4994 199.9316 1360.6055 208.33008 C 1347.0392 216.53055 1324.5211 217.14166 1317.2207 209.50781 L 1312.0273 204.07812 L 1325.8887 202.88672 C 1380.2453 198.21083 1396.7428 193.0165 1401.7441 179.00781 C 1406.9587 164.40216 1397.9017 154.88282 1370.3555 146.01953 C 1366.5238 144.78664 1363.5185 142.59428 1362.9902 140.64648 C 1360.4851 131.40901 1348.8552 125.44149 1327.2324 122.29688 C 1309.7969 119.76122 1309.5498 119.48532 1317.252 111.16211 C 1320.8283 107.29751 1323.4742 103.1409 1323.1328 101.92578 C 1321.9614 97.755519 1310.9081 92.060148 1299.8398 89.923828 C 1290.8311 88.185018 1287.8086 86.704889 1283.6582 81.998047 C 1278.683 76.355743 1278.1549 76.196262 1262.6113 75.601562 C 1247.4796 75.022629 1246.4157 74.720091 1241.7168 69.697266 C 1234.812 62.316632 1230.9889 60.277307 1210.3613 52.958984 C 1186.6792 44.556973 1170.5086 40.731192 1155.4824 40.892578 z M 1270.1035 286.86328 C 1280.32 286.86328 1291.198 290.63821 1298.8398 296.83594 C 1306.5259 303.06962 1307.2015 305.63922 1302.7441 311.70117 C 1299.079 316.6852 1299.0177 316.69778 1278.4648 316.76758 L 1257.8613 316.83789 L 1243.1836 325.26367 C 1226.8474 334.64143 1224.4289 336.58339 1221.752 342.46484 C 1218.7191 349.12817 1214.1272 347.69796 1213.041 339.75195 C 1212.5311 336.0226 1211.4577 331.55891 1210.6543 329.83203 C 1207.3544 322.73851 1208.6905 321.69323 1222.7129 320.39453 C 1246.9602 318.14884 1257.0898 310.86781 1257.0898 295.68555 C 1257.0898 287.9002 1258.6196 286.86328 1270.1035 286.86328 z M 1402.6973 306.33203 C 1403.8603 306.31753 1405.9006 307.55537 1409.7891 310.35547 C 1413.9435 313.34705 1418.1334 315.79492 1419.1016 315.79492 C 1422.4171 315.79492 1420.8636 319.11494 1415.8418 322.75977 C 1413.0801 324.76427 1408.4244 329.30523 1405.4961 332.85156 C 1400.3437 339.09109 1399.8038 339.30078 1388.8359 339.30078 C 1382.2561 339.30078 1375.1749 340.4372 1371.9551 342.01172 C 1365.6096 345.1146 1362.1504 345.47687 1362.1504 343.03711 C 1362.1504 342.10886 1358.8968 337.64702 1354.918 333.12109 C 1346.3264 323.34826 1346.5839 322.78686 1360.1602 321.79492 C 1373.7969 320.79859 1384.8867 317.86545 1390.7051 313.71289 C 1393.2706 311.8819 1396.5121 310.38195 1397.9082 310.37695 C 1399.3045 310.37321 1400.848 309.14242 1401.3398 307.64258 C 1401.616 306.80028 1401.9994 306.34073 1402.6973 306.33203 z M 1365.2129 410.12695 C 1365.9567 410.11237 1366.6774 410.76978 1367.7793 411.92578 C 1369.448 413.67643 1375.1457 415.56965 1381.3926 416.44727 L 1392.1367 417.95508 L 1379.7676 426.36133 C 1372.9643 430.98412 1364.6537 435.658 1361.2988 436.74805 C 1353.2987 439.34743 1349.2216 438.98695 1338.9766 434.77539 C 1326.4151 429.6116 1326.05 427.90217 1337.5078 427.88867 C 1348.6084 427.87538 1353.2027 425.31318 1360.5312 415.04688 C 1362.9872 411.60633 1364.1257 410.14827 1365.2129 410.12695 z M 1409.9492 425.49414 L 1419.6543 431.14453 C 1424.9922 434.25262 1432.0194 437.33805 1435.2695 438 C 1442.5223 439.4772 1441.3868 440.99157 1428.5215 447.00195 C 1415.3748 453.14369 1390.9147 454.75658 1386.457 449.77539 C 1385.8047 449.04636 1388.5872 445.73384 1392.6387 442.41406 C 1396.6901 439.09426 1402.2417 433.92872 1404.9766 430.93555 L 1409.9492 425.49414 z M 1013.8262 470.82617 C 1014.4244 470.81367 1014.7796 471.28688 1015.0801 472.20312 C 1015.5445 473.61948 1020.1281 477.26178 1025.2656 480.29688 C 1036.7615 487.08839 1036.767 487.46565 1025.4902 493.52344 C 1020.4767 496.21663 1015.783 498.32619 1015.0605 498.21094 C 1005.6959 496.71552 991.09326 490.89381 988.19336 487.5 C 984.58536 483.27746 983.82995 476.79221 987.34375 480.20508 C 988.59125 481.41674 989.89794 481.61374 990.39844 480.66602 C 990.87944 479.75514 994.48997 478.58507 998.42188 478.06641 C 1002.3538 477.54776 1007.5199 475.43642 1009.9023 473.375 C 1011.8839 471.66048 1013.0571 470.84225 1013.8262 470.82617 z M 1469.0742 584.38672 C 1473.361 584.43741 1478.9136 585.43158 1484.8789 587.50977 C 1490.4446 589.4487 1490.6385 589.71789 1487.1953 590.7207 C 1481.5572 592.36279 1463.3962 592.80046 1462.1348 591.32422 C 1458.2999 586.83621 1461.9296 584.30223 1469.0742 584.38672 z M 1553.3691 593.36719 C 1563.8863 593.24947 1573.1194 593.96898 1571.9434 595.62695 C 1571.0544 596.87958 1570.6995 601.15067 1571.1543 605.11914 C 1571.7934 610.69495 1571.4661 612.33398 1569.7148 612.33398 C 1566.5489 612.33398 1551.7283 617.95323 1549.9492 619.82812 C 1548.0636 621.81563 1543.3403 621.82909 1542.2949 619.84961 C 1541.8514 619.0098 1536.9437 615.70245 1531.3887 612.50195 C 1519.0315 605.38243 1517.6532 600.14413 1527.082 596.12891 C 1531.0488 594.43969 1542.852 593.48491 1553.3691 593.36719 z M 1603.4902 614.40039 C 1605.4684 614.3793 1607.6058 614.78069 1610.0723 615.55273 C 1613.5411 616.63849 1620.0134 618.08972 1624.4551 618.7793 C 1628.8969 619.46886 1632.5312 620.68768 1632.5312 621.48633 C 1632.5313 624.51342 1623.5563 630.22815 1614.4805 632.98047 C 1604.4525 636.02155 1576.1344 636.95091 1574.7266 634.28516 C 1574.2748 633.42948 1576.5487 631.33485 1579.7812 629.62891 C 1583.0139 627.92294 1588.0363 624.12595 1590.9414 621.19336 C 1595.5582 616.53291 1599.1384 614.4468 1603.4902 614.40039 z M 1107.9941 651.95898 L 1129.1133 652.48828 C 1140.7292 652.78004 1150.6713 653.53266 1151.2051 654.16016 C 1151.7388 654.78766 1150.5355 660.07539 1148.5312 665.91016 C 1144.5579 677.47769 1142.7971 678.60984 1135.8047 674.0957 C 1132.3908 671.89183 1125.6747 670.86393 1110.3125 670.19727 L 1089.4531 669.29297 L 1098.7246 660.625 L 1107.9941 651.95898 z M 1028.4648 702.75 C 1029.7972 702.77899 1031.0815 702.87197 1032.2949 703.0332 C 1037.4596 703.71946 1038.3515 703.08087 1014.2266 715.98047 C 1009.3911 718.56603 1003.8709 723.15436 1001.9609 726.17773 C 998.07604 732.32734 998.22362 732.28342 992.89062 728.875 C 990.76622 727.51725 987.1161 725.94988 984.7793 725.39062 C 979.0737 724.02515 979.44784 722.36193 986.33984 718.45508 C 989.51784 716.65357 995.78453 712.8496 1000.2656 710.00391 C 1007.3994 705.47361 1019.1382 702.54705 1028.4648 702.75 z M 1112.9785 744.57617 C 1113.1019 744.57496 1113.2026 744.58938 1113.2793 744.62109 C 1115.4903 745.53581 1101.4464 764.62505 1092.3223 773.10742 C 1087.9518 777.17052 1083.7808 780.41226 1083.0527 780.31055 C 1082.3246 780.20876 1079.2965 779.43332 1076.3223 778.58789 C 1073.3481 777.74248 1067.4168 777.50913 1063.1426 778.07031 L 1055.3711 779.0918 L 1051.168 769.37109 C 1046.6042 758.81448 1045.8718 753.5545 1048.8965 753.05273 C 1049.9587 752.8765 1061.604 752.63777 1074.7754 752.52344 C 1096.6433 752.33341 1099.2908 751.95434 1105.2578 748.16016 C 1108.5148 746.08913 1111.7854 744.58787 1112.9785 744.57617 z M 1341.0918 790.22266 C 1341.4425 790.22173 1341.1852 791.95217 1340.3926 794.61328 C 1335.9629 809.48457 1347.5112 833.6612 1364.0938 844.23438 C 1372.2301 849.42228 1375.2632 848.40411 1380.3164 838.79297 C 1385.6444 828.65913 1396.926 824.24633 1411.9902 826.40234 C 1448.0671 831.56562 1459.0792 827.6885 1470.6094 805.76367 C 1471.9305 803.25172 1475.414 799.6815 1478.3516 797.83008 C 1487.6974 791.93979 1513.9302 801.09111 1530.7617 816.11328 L 1538.0547 822.62109 L 1522.7188 831.36328 C 1514.2844 836.17151 1507.3848 841.15847 1507.3848 842.44531 C 1507.3848 850.85504 1520.8216 858.215 1541.168 860.94727 L 1551.0059 862.26758 L 1550.2363 868.97266 C 1549.2152 877.882 1543.4693 896.04095 1539.9512 901.47461 L 1537.1328 905.82812 L 1527.0293 899.21484 C 1512.4505 889.67334 1507.4103 890.08717 1486.457 902.54688 C 1466.075 914.66705 1460.9316 915.21794 1448.4863 906.61523 C 1443.8104 903.38312 1435.8569 898.29794 1430.8105 895.31445 C 1425.764 892.33096 1421.2862 889.3942 1420.8613 888.78711 C 1420.4364 888.17998 1417.6558 886.23672 1414.6816 884.4707 C 1411.7075 882.70466 1406.6848 878.54458 1403.5195 875.22461 C 1400.3543 871.90463 1395.8348 868.70728 1393.4766 868.11914 C 1367.2222 861.57132 1345.7078 846.57632 1339.1543 830.25977 C 1334.4185 818.46877 1335.2697 797.5489 1340.7734 790.48242 C 1340.9094 790.30781 1341.015 790.22286 1341.0918 790.22266 z M 1591.2305 858.24609 L 1600.4199 858.24609 C 1614.7371 858.24609 1639.134 869.02272 1643.957 877.47656 C 1651.3385 890.41465 1653.1901 895.0561 1650.4863 893.8418 C 1647.0137 892.2823 1634.9185 895.67156 1627.8965 900.17188 C 1624.9224 902.078 1621.0426 906.03255 1619.2754 908.96094 L 1616.0625 914.28516 L 1612.959 910.22461 C 1606.4504 901.70778 1598.8144 884.63371 1593.959 867.74023 L 1591.2305 858.24609 z M 966.3418 861.04883 C 970.79708 860.89567 976.76063 860.99167 984.14453 861.3418 L 1006.5977 862.40625 L 1002.75 868.31055 C 1000.6338 871.55763 995.85064 875.89447 992.11914 877.94727 C 985.25704 881.7222 974.86755 884.13226 972.03125 882.60742 C 971.18145 882.15057 965.2717 880.63168 958.89844 879.23242 C 936.75026 874.36972 923.36228 869.3334 923.36328 865.86719 C 923.36354 865.15631 930.14277 864.4988 938.42773 864.4043 C 946.71268 864.30994 955.33692 863.34158 957.5918 862.25391 C 958.94003 861.60359 961.88651 861.20199 966.3418 861.04883 z M 933.02734 892.80078 C 934.09072 892.78828 935.28964 892.89038 936.71289 893.07812 C 948.19497 894.59274 947.51032 896.81178 933.40625 903.80273 C 925.92591 907.51048 911.96974 908.19448 912.93359 904.80664 C 913.28725 903.56351 914.90995 902.26011 916.53906 901.91016 C 918.16818 901.56021 921.82352 899.2268 924.66211 896.72266 C 927.86078 893.90087 929.83721 892.83829 933.02734 892.80078 z M 1506.2559 918.98633 C 1510.3776 918.90985 1513.7189 920.41715 1518.0176 923.47656 C 1525.0517 928.48286 1524.2792 937.74421 1514.8672 961.3125 C 1509.7113 974.22319 1509.4769 988.76285 1514.1816 1003.6934 C 1519.0415 1019.1165 1518.7535 1019.6238 1511.5527 1008.3359 C 1505.4201 998.72253 1503.8027 992.43235 1501.3184 968.54492 C 1499.5834 951.86197 1498.5662 950.11725 1481.9512 935.28516 L 1476.0898 930.05273 L 1489.8047 924 C 1497.2304 920.72305 1502.1341 919.06281 1506.2559 918.98633 z M 1736.5742 935.95117 C 1748.1699 936.28445 1768.494 943.07026 1768.4941 948.57812 C 1768.494 950.90457 1746.5112 950.83722 1739.9102 948.49023 C 1733.5878 946.2424 1727.6373 940.5684 1728.9648 938.05469 C 1729.8149 936.44505 1732.709 935.84008 1736.5742 935.95117 z M 1705.2188 947.30859 L 1711.9395 953.31445 C 1721.9038 962.21868 1721.8436 963.93181 1711.4355 967.31836 C 1706.5407 968.911 1701.6477 971.46576 1700.5625 972.99609 C 1699.276 974.81023 1695.9458 975.7793 1690.9922 975.7793 C 1686.4977 975.7793 1680.9711 977.22376 1677.4629 979.31836 L 1671.5332 982.85938 L 1662.4609 976.52734 C 1653.7188 970.42479 1636.0673 951.14703 1637.5898 949.36523 C 1637.9977 948.88785 1653.3814 948.22937 1671.7754 947.90234 L 1705.2188 947.30859 z M 1459.8496 1043.2305 C 1461.1626 1043.1236 1465.6545 1048.8253 1466.6055 1052.332 C 1467.5431 1055.7893 1471.8521 1063.7983 1485.0859 1086.6895 C 1498.5356 1109.9544 1516.9135 1126.4903 1545.623 1141.1562 C 1556.8824 1146.9079 1566.0957 1151.9215 1566.0957 1152.2969 C 1566.0957 1156.0478 1523.091 1137.6981 1509.5059 1128.1504 C 1494.7487 1117.779 1481.2468 1102.7842 1475.6895 1090.5977 C 1471.366 1081.1161 1459.4883 1046.8512 1459.4883 1043.8594 C 1459.4883 1043.4454 1459.6207 1043.2491 1459.8496 1043.2305 z M 1800.5371 1045.3086 C 1803.1198 1045.3682 1803.5768 1047.4483 1801.6992 1051.4453 C 1800.46 1054.0833 1797.8661 1058.4464 1795.9355 1061.1406 L 1792.4258 1066.0391 L 1786.373 1062.0449 C 1776.7097 1055.6671 1776.8539 1055.3791 1793.6387 1047.4062 C 1796.6738 1045.9644 1798.9875 1045.2728 1800.5371 1045.3086 z M 1684.1836 1151.334 C 1685.9486 1151.2356 1688.4246 1151.3256 1691.6289 1151.5781 C 1713.6537 1153.3139 1729.0618 1169.0042 1743.998 1204.9062 C 1754.4248 1229.9688 1754.7989 1232.9292 1745.9551 1220.3438 C 1742.6321 1215.6149 1736.2984 1207.2706 1731.8789 1201.8008 C 1727.4593 1196.331 1722.5902 1190.1765 1721.0605 1188.125 C 1719.5308 1186.0735 1714.8035 1181.636 1710.5547 1178.2637 C 1706.3058 1174.8915 1700.7446 1169.8655 1698.1953 1167.0938 C 1695.646 1164.3219 1690.6056 1160.2178 1686.9941 1157.9727 C 1679.9891 1153.6181 1678.8885 1151.6292 1684.1836 1151.334 z M 1657.0527 1265.1875 C 1657.4277 1265.1504 1658.9758 1266.6297 1661.6719 1269.6074 C 1667.9854 1276.5802 1676.292 1294.0869 1680.3906 1309.0566 C 1683.2117 1319.3606 1681.7398 1318.31 1676.9141 1306.5762 C 1672.8649 1296.7309 1663.2077 1276.8403 1657.6484 1266.8945 C 1657.0243 1265.7779 1656.8278 1265.2097 1657.0527 1265.1875 z M 1779.625 1296.7109 C 1780.0418 1296.7102 1780.8001 1297.5738 1781.9219 1299.4922 C 1783.3597 1301.9511 1785.0118 1304.3699 1785.5918 1304.8672 C 1786.1719 1305.3644 1787.9741 1308.6188 1789.5957 1312.0996 C 1794.4565 1322.5336 1801.3127 1334.6617 1802.7148 1335.3047 C 1803.4377 1335.6363 1804.0293 1336.6378 1804.0293 1337.5312 C 1804.0293 1338.4248 1806.2891 1341.9226 1809.0508 1345.3047 C 1811.8126 1348.6868 1815.1141 1353.233 1816.3887 1355.4062 C 1817.6634 1357.5797 1824.0929 1363.1175 1830.6758 1367.7129 C 1850.108 1381.2781 1865.6252 1399.2455 1865.8027 1408.3848 C 1865.8636 1411.5224 1862.9222 1409.1633 1854.9629 1399.6953 C 1849.8746 1393.6427 1842.6262 1387.4673 1836.7266 1384.1582 C 1814.893 1371.9121 1801.1006 1357.1391 1792.5137 1336.8008 C 1789.4994 1329.6613 1787.0332 1323.2407 1787.0332 1322.5332 C 1787.0332 1321.8255 1785.2963 1316.8007 1783.1719 1311.3652 C 1779.8274 1302.8086 1778.5174 1296.7129 1779.625 1296.7109 z " />
  </g>
</svg>
