<?xml version="1.0" encoding="UTF-8" standalone="no"?>
<!-- Created with Inkscape (http://www.inkscape.org/) -->

<svg
   version="1.1"
   id="svg1"
   width="2784"
   height="1536"
   viewBox="0 0 2784 1536"
   xmlns="http://www.w3.org/2000/svg"
   xmlns:svg="http://www.w3.org/2000/svg">
  <defs
     id="defs1" />
  <g
     id="g1">
    <path
       style="fill:#000000"
       d="m 1134.6908,1479.459 c 0,-1.4858 0.838,-1.5607 20.2,-1.8052 l 20.2,-0.255 7.2,-3.0815 c 3.96,-1.6947 8.64,-3.722 10.4,-4.505 1.76,-0.7829 5.18,-2.2625 7.6,-3.2878 2.42,-1.0254 5.8922,-2.8659 7.716,-4.0899 1.8239,-1.2241 3.5868,-2.2256 3.9177,-2.2256 1.9813,0 14.3432,-11.8065 15.2051,-14.522 0.258,-0.8129 0.7229,-1.478 1.0332,-1.478 0.3103,0 1.2427,-1.26 2.0721,-2.8 0.8293,-1.54 1.775,-2.8 2.1016,-2.8 0.3265,0 1.2409,-1.8 2.032,-4 0.7911,-2.2 1.6831,-4 1.9821,-4 0.2991,0 1.1973,-2.52 1.9962,-5.6 0.7988,-3.08 1.6815,-5.6 1.9615,-5.6 0.28,0 1.1871,-3.51 2.0158,-7.8 0.8287,-4.29 1.7696,-7.9885 2.091,-8.2189 0.6279,-0.4503 3.8642,-21.3332 3.8714,-24.9811 0,-1.21 0.305,-2.2 0.6724,-2.2 0.3675,0 1.2999,-5.1287 2.072,-11.3972 0.7721,-6.2685 1.6598,-11.5785 1.9725,-11.8 0.3128,-0.2215 1.2436,-5.3528 2.0684,-11.4028 0.8248,-6.05 1.7965,-11 2.1594,-11 0.3628,0 0.6596,-0.7453 0.6596,-1.6563 0,-2.4677 2.6103,-15.4814 3.198,-15.9437 0.2797,-0.22 1.1605,-3.55 1.9573,-7.4 0.7968,-3.85 1.7628,-7 2.1467,-7 0.3839,0 0.6934,-0.63 0.6878,-1.4 -0.014,-1.9178 2.6334,-13.3045 3.2085,-13.8 0.2554,-0.22 1.3231,-4.36 2.3726,-9.2 1.0495,-4.84 2.1337,-8.98 2.4093,-9.2 0.2756,-0.22 1.1937,-3.28 2.0402,-6.8 0.8464,-3.52 1.7488,-6.58 2.0053,-6.8 0.2565,-0.22 1.1449,-3.46 1.9743,-7.2 0.8294,-3.74 1.7634,-6.98 2.0756,-7.2 0.3122,-0.22 1.2241,-4.36 2.0264,-9.2 0.8023,-4.84 1.7288,-8.9958 2.0588,-9.2351 2.4761,-1.7954 2.3356,-42.1994 -0.1496,-43.0278 -0.4461,-0.1487 -0.8112,-0.9913 -0.8112,-1.8724 0,-1.9928 -2.6023,-12.1203 -3.2543,-12.6647 -0.2635,-0.22 -1.1585,-3.1 -1.9889,-6.4 -0.8304,-3.3 -1.7329,-6.18 -2.0056,-6.4 -0.2726,-0.22 -1.161,-2.92 -1.9742,-6 -0.8132,-3.08 -1.7146,-5.78 -2.003,-6 -0.2885,-0.22 -1.3567,-3.82 -2.374,-8 -1.0172,-4.18 -2.0959,-7.78 -2.397,-8 -0.3011,-0.22 -1.1984,-2.83 -1.994,-5.8 -0.7955,-2.97 -1.714,-5.4 -2.041,-5.4 -0.327,0 -0.8204,-0.9 -1.0965,-2 -0.4352,-1.734 -0.9521,-2.003 -3.8867,-2.0225 -7.9245,-0.053 -17.636,-5.8335 -18.6949,-11.128 -0.2694,-1.3472 -0.7886,-2.4495 -1.1536,-2.4495 -0.3651,0 -0.8915,-1.35 -1.1699,-3 -1.0149,-6.0161 -0.9544,-5.9479 -8.3167,-9.3668 -6.6222,-3.0752 -13.8035,-8.7946 -19.1517,-15.2532 -2.7394,-3.3082 -2.955,-13.197 -0.3199,-14.6717 1.091,-0.6105 1.059,-0.8838 -0.2702,-2.3064 -0.8293,-0.8875 -3.3979,-3.635 -5.7079,-6.1055 -2.31,-2.4705 -4.2,-4.785 -4.2,-5.1433 0,-0.3582 -0.63,-1.3493 -1.4,-2.2022 -1.6436,-1.8208 -4.2,-7.123 -4.2,-8.7113 0,-0.6085 -0.3291,-1.2262 -0.7313,-1.3729 -0.622,-0.2268 -1.1989,-4.7959 -0.9462,-7.4942 0.1853,-1.9778 4.7002,-3.6204 7.9466,-2.891 4.3952,0.9876 5.4816,0.1792 4.1333,-3.0757 -0.5791,-1.3981 -1.46,-2.9614 -1.9576,-3.4739 -0.4976,-0.5125 -1.7516,-2.3159 -2.7867,-4.0075 -1.0351,-1.6916 -2.7568,-4.0316 -3.8259,-5.2 -1.0691,-1.1684 -2.4259,-2.6644 -3.0152,-3.3244 -0.5893,-0.66 -1.55,-2.28 -2.1349,-3.6 -0.5849,-1.32 -1.4764,-2.8345 -1.9812,-3.3656 -0.5048,-0.5311 -1.3167,-3.2303 -1.8043,-5.9983 -0.4876,-2.768 -1.2488,-5.1535 -1.6915,-5.3011 -0.4428,-0.1476 -0.8051,-1.334 -0.8051,-2.6366 0,-3.4462 3.1503,-6.5065 6.9396,-6.7416 1.6832,-0.1044 3.2804,-0.2274 3.5493,-0.2733 0.715,-0.1221 -1.1042,-6.4835 -1.8541,-6.4835 -1.0868,0 -0.7636,-15.0237 0.331,-15.3886 0.5619,-0.1873 -0.5255,-1.8331 -2.6,-3.9354 -1.9612,-1.9874 -4.6458,-4.9573 -5.9658,-6.5997 -1.32,-1.6424 -3.21,-3.88 -4.2,-4.9725 -0.99,-1.0924 -1.8,-2.2598 -1.8,-2.5941 0,-0.3344 -0.7709,-1.4354 -1.7131,-2.4468 -2.9449,-3.1609 -3.1283,-12.01795 -0.3031,-14.63761 2.1753,-2.01707 1.8909,-5.42527 -0.4527,-5.42527 -0.447,0 -1.3716,-1.33753 -2.0546,-2.97229 -0.6831,-1.63477 -1.705,-3.34477 -2.2709,-3.8 -0.566,-0.45524 -1.4854,-2.26771 -2.0433,-4.02771 -0.5578,-1.76 -1.5787,-3.61455 -2.2687,-4.12123 -0.8902,-0.65369 -1.3426,-2.66537 -1.5578,-6.92669 -0.3129,-6.19709 -0.028,-6.77085 4.4425,-8.95493 0.4709,-0.23002 -1.5351,-5.99715 -2.0859,-5.99715 -0.3479,0 -1.3194,-2.07 -2.159,-4.6 -0.8396,-2.53 -1.7633,-4.78 -2.0526,-5 -0.2894,-0.22 -0.9456,-3.91413 -1.4583,-8.20919 -1.7984,-15.0672 0.4122,-18.70367 11.2367,-18.48415 7.4731,0.15155 16.14,5.7552 17.9713,11.61954 0.3219,1.03059 0.9306,2.09603 1.3528,2.36764 0.4222,0.2716 1.2857,2.9716 1.919,6 0.6332,3.02839 1.4993,5.62616 1.9245,5.77283 0.4253,0.14667 0.7787,1.04667 0.7854,2 0.028,3.94794 2.2742,8.89184 5.8222,12.81248 2.0511,2.26647 4.1966,4.77011 4.768,5.56366 0.6767,0.93988 2.3594,1.55041 4.8273,1.75152 4.1338,0.33684 9.3703,1.97263 9.3703,2.92707 0,0.32998 3.69,3.57336 8.2,7.2075 4.51,3.63414 8.658,7.23414 9.2178,7.99999 0.5598,0.76586 1.4858,1.86039 2.0577,2.43229 1.275,1.275 3.4571,7.21718 4.0913,11.14125 0.4643,2.87279 0.5143,2.90617 4.8961,3.26954 8.2818,0.6868 11.5371,6.42507 11.5371,20.33721 0,4.4741 0.2654,5.8908 1.1036,5.8908 1.276,0 7.6964,6.0055 7.6964,7.1991 0,0.4405 0.4103,0.8009 0.9118,0.8009 0.5015,0 1.3115,0.4968 1.8,1.1041 1.2366,1.537 5.5971,2.5226 5.0032,1.1308 -0.2429,-0.5692 -0.8928,-2.5649 -1.4442,-4.4349 -0.5515,-1.87 -1.2582,-3.4 -1.5705,-3.4 -0.3124,0 -1.2092,-1.71 -1.993,-3.8 -0.7838,-2.09 -1.6374,-3.98 -1.8969,-4.2 -0.2595,-0.22 -1.1619,-2.56 -2.0052,-5.2 -0.8434,-2.64 -1.9399,-5.16 -2.4366,-5.6 -0.4967,-0.44 -1.5704,-2.96 -2.3859,-5.59998 -0.8155,-2.64 -1.7222,-4.98 -2.0148,-5.2 -0.2926,-0.22 -1.154,-2.29 -1.9142,-4.6 -0.7602,-2.31 -1.6388,-4.2 -1.9523,-4.2 -0.3135,0 -1.2665,-2.07 -2.1176,-4.6 -0.8512,-2.53 -2.1858,-5.29788 -2.9657,-6.15085 -0.7799,-0.85296 -1.4181,-1.83989 -1.4181,-2.19316 0,-0.35327 -2.0301,-1.78801 -4.5113,-3.18832 -2.4812,-1.40031 -4.6728,-3.16373 -4.8702,-3.9187 -0.1975,-0.75498 -1.6185,-2.04235 -3.1578,-2.86083 -1.5393,-0.81847 -3.2177,-2.26933 -3.7297,-3.22412 -2.1807,-4.06649 -6.7422,-6.611 -10.9565,-6.11186 -7.0978,0.84062 -18.7354,-7.04583 -22.46,-15.22033 -0.5342,-1.1725 -1.2735,-2.13183 -1.6429,-2.13183 -0.3694,0 -0.6716,-0.54 -0.6716,-1.2 0,-0.66 -0.2877,-1.2 -0.6393,-1.2 -0.3516,0 -1.127,-1.35 -1.7231,-3 -0.5961,-1.65 -1.5287,-3.36 -2.0724,-3.8 -0.5438,-0.44 -1.4163,-2.15 -1.9389,-3.8 -0.5227,-1.65 -1.2255,-3 -1.5617,-3 -0.3362,0 -1.0184,-1.35861 -1.5159,-3.01913 -0.8416,-2.80902 -3.9336,-7.29585 -6.4178,-9.31283 -3.8006,-3.0859 -11.315,-11.16275 -11.7843,-12.66641 -0.3092,-0.9909 -0.8596,-1.99413 -1.223,-2.22942 -0.3634,-0.23528 -1.2691,-3.47528 -2.0126,-7.2 -0.7436,-3.72471 -1.5875,-6.95221 -1.8755,-7.17221 -0.7129,-0.54472 -3.2355,-11.34103 -3.2355,-13.8478 0,-1.11037 -0.4077,-2.15477 -0.906,-2.32087 -0.5937,-0.19792 -0.9384,-3.34097 -1,-9.11939 -0.1105,-10.36438 0.2465,-10.99778 6.6233,-11.75302 5.1694,-0.61223 5.1369,-0.58615 4.1051,-3.30005 -0.4523,-1.18966 -0.8224,-3.18959 -0.8224,-4.44428 0,-1.25469 -0.45,-2.4321 -1,-2.61647 -1.277,-0.4281 -1.0861,-46.43607 0.1945,-46.86294 0.443,-0.14768 0.8055,-1.12157 0.8055,-2.1642 0,-4.06188 4.341,-8.37098 8.4329,-8.37098 0.8323,0 1.1808,-0.97548 1.2148,-3.4 0.1321,-9.42006 1.508,-12.25984 7.0939,-14.64202 l 1.9744,-0.84202 -1.7154,-1.71543 c -0.9435,-0.94349 -2.3129,-2.87072 -3.0431,-4.28273 -0.7302,-1.41201 -2.0093,-3.29903 -2.8425,-4.19339 -0.8332,-0.89436 -1.515,-2.04314 -1.515,-2.55285 0,-0.50971 -0.7027,-1.73704 -1.5617,-2.72739 -0.8589,-0.99036 -2.172,-3.65544 -2.9179,-5.92241 -0.746,-2.26697 -1.6009,-4.30176 -1.8998,-4.52176 -0.6825,-0.50227 -3.2206,-8.29134 -3.2206,-9.88365 0,-0.65066 -0.3419,-1.30302 -0.7598,-1.44968 -0.8049,-0.28248 -3.2402,-19.17936 -3.2402,-25.14277 0,-1.93814 -0.36,-3.5239 -0.8,-3.5239 -0.4825,0 -0.8,-3.33333 -0.8,-8.4 0,-4.62 0.2811,-8.4 0.6246,-8.4 0.3436,0 1.0177,-1.04135 1.4981,-2.31411 0.9449,-2.50327 5.8337,-5.38081 7.8362,-4.61237 0.9726,0.37324 1.0199,0.11624 0.2781,-1.51193 -0.4916,-1.07887 -1.1671,-1.96159 -1.5011,-1.96159 -0.334,0 -1.2293,-1.89 -1.9895,-4.2 -0.7603,-2.31 -1.617,-4.38 -1.9039,-4.6 -0.7355,-0.5641 -3.2425,-8.67591 -3.2425,-10.49187 0,-0.82947 -0.36,-1.50813 -0.8,-1.50813 -0.44,0 -0.8,-1.62312 -0.8,-3.60693 0,-3.991 2.7935,-8.09797 5.8153,-8.5497 1.5545,-0.23238 1.6316,-0.81397 1.7064,-12.87269 0.052,-8.42174 0.3788,-12.81944 0.9804,-13.2 0.4961,-0.31387 1.1668,-2.19068 1.4906,-4.17068 1.7637,-10.78766 8.6261,-12.32714 17.2608,-3.87223 2.1469,2.1022 4.1224,4.82343 4.39,6.0472 1.3632,6.23364 2.5346,7.64505 4.1709,5.02503 2.9444,-4.71479 13.7856,5.39225 13.7856,12.85208 0,1.29135 0.314,2.34792 0.6978,2.34792 0.3837,0 0.9261,1.42828 1.2053,3.17397 1.2561,7.85536 2.7829,8.65401 7.6969,4.02603 1.8688,-1.76 3.6267,-3.2 3.9065,-3.2 0.2797,0 0.9583,-0.72 1.5079,-1.6 0.5495,-0.88 1.5638,-1.6 2.2538,-1.6 0.821,0 0.383,-0.73341 -1.2672,-2.12194 -4.303,-3.62077 -6.9861,-6.53961 -8.8875,-9.66835 -1.006,-1.65534 -2.038,-3.18971 -2.2933,-3.40971 -0.2554,-0.22 -1.1391,-1.93 -1.9638,-3.8 -0.8246,-1.87 -1.7749,-3.4 -2.1117,-3.4 -0.3368,0 -1.2536,-1.71 -2.0374,-3.8 -0.7838,-2.09 -1.703,-3.9947 -2.0426,-4.23266 -2.115,-1.48184 -3.9518,-12.60211 -2.4524,-14.84758 0.7287,-1.0914 3.8522,-2.76841 6.4505,-3.4633 1.729,-0.46239 1.8184,-0.66101 0.7697,-1.70966 -0.6525,-0.65257 -1.6409,-3.08097 -2.1964,-5.39645 -0.5555,-2.31547 -1.4565,-4.65649 -2.0023,-5.20226 -0.5457,-0.54577 -1.4356,-2.33565 -1.9775,-3.97751 -0.5418,-1.64186 -1.4126,-3.43192 -1.9349,-3.9779 -0.5223,-0.54597 -1.628,-2.52268 -2.457,-4.39268 -0.8291,-1.87 -1.7829,-3.4 -2.1197,-3.4 -0.3368,0 -1.2585,-1.71 -2.0482,-3.8 -0.7897,-2.09 -1.8242,-4.20038 -2.2987,-4.68972 -0.4746,-0.48935 -1.5667,-3.00935 -2.4269,-5.6 -0.8602,-2.59066 -1.7631,-4.89028 -2.0064,-5.11028 -1.212,-1.09597 -2.5333,-8.29175 -2.9408,-16.01589 -0.543,-10.29324 0.8,-12.78411 6.8928,-12.78411 1.754,0 3.3549,-0.27 3.5575,-0.6 0.4135,-0.67349 -1.7664,-7.57874 -2.5887,-8.2 -0.2912,-0.22 -1.228,-1.98275 -2.0817,-3.91722 -0.8538,-1.93446 -2.023,-3.98791 -2.5983,-4.56322 -1.4015,-1.40153 -2.8518,-9.55442 -2.2604,-12.70694 1.1841,-6.31216 6.5803,-9.20642 11.9466,-6.4077 4.3495,2.26842 6.0622,1.67031 5.1686,-1.80493 -0.4243,-1.65 -0.9683,-3.81 -1.209,-4.8 -0.2407,-0.99 -0.7197,-1.8 -1.0645,-1.8 -0.6132,0 -1.785,-4.49036 -2.7962,-10.71496 -0.2783,-1.71322 -0.9941,-3.60301 -1.5906,-4.19951 -2.2925,-2.29255 -2.1119,-20.90241 0.2199,-22.65047 0.3192,-0.23928 1.2045,-1.78506 1.9674,-3.43506 l 1.387,-3 h 5.115 c 3.5707,0 5.4157,0.3623 6.1109,1.2 1.5423,1.85833 2.4,1.42947 2.4,-1.2 0,-1.32 -0.3141,-2.4 -0.698,-2.4 -0.3839,0 -1.3499,-3.15 -2.1467,-7 -0.7968,-3.85 -1.7443,-7.20223 -2.1056,-7.44941 -0.6841,-0.46811 -1.7675,-8.44526 -2.6822,-19.75059 -0.2937,-3.63 -0.8565,-6.6 -1.2507,-6.6 -0.3942,0 -0.7168,-4.14 -0.7168,-9.2 0,-5.06 0.3132,-9.2 0.6961,-9.2 0.3828,0 1.1634,-1.66956 1.7348,-3.71015 0.6713,-2.39766 1.569,-3.84881 2.5376,-4.10212 1.5776,-0.41253 1.3352,-7.43124 -0.2781,-8.05439 -0.9724,-0.37559 -0.867,-9.73334 0.1096,-9.73334 0.44,0 0.8115,-0.63 0.8255,-1.4 0.06,-3.31642 2.1882,-4.59546 7.8102,-4.69447 9.3556,-0.16478 8.9643,-0.0467 8.9643,-2.70553 0,-1.32 -0.2869,-2.4 -0.6375,-2.4 -0.5642,0 -1.913,-5.78451 -3.1238,-13.39783 -0.6563,-4.12596 0.3118,-6.49577 3.122,-7.64243 l 2.5279,-1.03151 0.056,-11.79309 c 0.035,-7.32895 0.3758,-12.00924 0.9011,-12.36411 0.465,-0.31407 1.3391,-1.79028 1.9424,-3.28048 0.8503,-2.10002 2.0996,-3.16784 5.5546,-4.74743 5.3199,-2.4322 6.2511,-3.27765 7.4007,-6.71928 2.6979,-8.07623 10.179,-7.30846 12.7225,1.30567 0.596,2.01877 1.314,3.67049 1.5955,3.67049 0.2814,0 0.955,3.24388 1.4968,7.20861 1.1106,8.1271 2.2564,12.85393 2.3734,9.79139 0.038,-0.99 0.3722,-1.8 0.7431,-1.8 0.3709,0 0.9,-8.91 1.1758,-19.8 0.5106,-20.15698 1.7252,-33.98617 3.0272,-34.46667 0.3975,-0.14666 0.7226,-1.11313 0.7226,-2.1477 0,-3.00243 2.3779,-13.47753 3.1707,-13.9675 0.3971,-0.24544 1.3286,-2.23993 2.0698,-4.4322 0.7413,-2.19226 1.6116,-4.16593 1.9339,-4.38593 0.3224,-0.22 0.9785,-1.14613 1.458,-2.05806 3.6537,-6.947729 13.5614,-7.727359 17.0536,-1.34194 1.3136,2.40202 2.744,2.26995 4.3324,-0.4 0.7198,-1.21 2.5816,-3.1 4.1373,-4.199999 6.7185,-4.75038 15.6251,-14.5741 17.225,-18.99851 0.5174,-1.43082 1.1893,-2.60149 1.4932,-2.60149 0.3038,0 1.1477,-1.48791 1.8754,-3.30646 3.9377,-9.8413 17.4447,-15.90209 21.1044,-9.46988 1.6781,2.9493 2.2612,2.9485 6.6259,-0.009 1.9362,-1.312 3.9404,-2.392 4.4538,-2.4 0.5133,-0.008 1.0533,-0.28456 1.2,-0.61456 1.2877,-2.89734 16.2198,-9.8 21.1997,-9.8 6.6018,0 7.7241,1.68226 7.318,10.96884 -0.1841,4.2087 -0.7147,7.7795 -1.2013,8.08464 -0.7345,0.4605 -2.6309,5.80732 -2.6453,7.45807 0,0.28135 2.4981,0.46135 5.5567,0.4 6.3039,-0.12645 7.9671,1.03517 8.0134,5.59658 0.029,2.80857 -2.3122,10.69187 -3.1746,10.69187 -0.3063,0 -1.2317,1.53 -2.0564,3.4 -0.8247,1.869999 -1.7263,3.579999 -2.0035,3.799999 -0.2773,0.22 -1.1533,2.37182 -1.9468,4.78183 -0.7935,2.41001 -1.9124,4.85158 -2.4865,5.42572 -1.0409,1.0409 -2.3923,6.37363 -1.7722,6.99365 0.1796,0.17962 2.8328,-1.67355 5.896,-4.11817 3.0632,-2.44462 6.8466,-5.09853 8.4076,-5.89758 1.5609,-0.79905 3.5409,-2.4542 4.4,-3.67811 2.4804,-3.53404 6.5117,-7.335849 9.3477,-8.815669 5.7283,-2.98895 14.1958,-0.94545 14.8698,3.588589 0.1406,0.94586 0.5906,1.71974 1,1.71974 0.4094,0 0.7443,1.8 0.7443,4 0,2.2 -0.36,4 -0.8,4 -0.44,0 -0.8,0.75459 -0.8,1.67687 0,2.1681 -2.4319,10.60207 -3.2073,11.12313 -0.3274,0.22 -1.3838,3.45369 -2.3477,7.18598 -0.9638,3.73228 -2.0292,6.97228 -2.3676,7.2 -0.3384,0.22771 -0.9974,1.49402 -1.4645,2.81402 -0.4671,1.32 -1.1205,3.07154 -1.4521,3.89232 -0.7675,1.89998 2.336,1.14848 4.8908,-1.18427 2.2617,-2.06518 7.3478,-1.95589 9.9484,0.21377 1.9449,1.62259 1.9933,1.91404 1.7549,10.57338 -0.1348,4.89764 -0.5848,9.0248 -1,9.17147 -0.4152,0.14666 -0.7549,0.81516 -0.7549,1.48553 0,1.95959 -2.6597,12.6096 -3.2586,13.0478 -0.573,0.41933 -3.24,16.16802 -2.8107,16.59734 0.3185,0.31848 3.406,-1.02877 6.4693,-2.82288 9.0939,-5.32615 17.6029,-2.89953 19.6423,5.60164 1.4763,6.15419 -0.1498,21.9414 -2.454,23.8239 -0.2693,0.22 -1.3495,2.74 -2.4006,5.6 -1.051,2.86 -2.3326,5.63011 -2.848,6.15579 -0.5153,0.52568 -1.4212,2.59568 -2.013,4.6 -0.5918,2.00432 -1.3215,3.64421 -1.6215,3.64421 -0.3001,0 -0.9806,1.81341 -1.5123,4.0298 -0.5317,2.21639 -1.4673,4.5303 -2.079,5.14202 -2.3757,2.37573 -1.7209,4.49629 1.8231,5.9043 6.0386,2.39908 7.463,4.24308 7.463,9.66145 0,2.9504 -0.4144,5.16253 -1.0944,5.8426 -0.602,0.60195 -1.3203,1.79767 -1.5962,2.65714 -0.2759,0.85948 -1.5851,2.82269 -2.9094,4.36269 -1.3242,1.54 -2.6102,3.43 -2.8577,4.2 -0.2476,0.77 -0.7827,1.4 -1.1892,1.4 -0.4066,0 -1.7323,1.05886 -2.9461,2.35302 -7.7177,8.22847 -7.7441,8.30552 -3.1358,9.17003 3.6828,0.6909 6.9288,4.47154 6.9288,8.07003 0,1.54381 -0.303,2.80692 -0.6733,2.80692 -0.3704,0 -1.0885,1.38536 -1.5958,3.07858 -0.5073,1.69322 -1.8243,4.05177 -2.9266,5.24122 -1.1024,1.18945 -2.0043,2.65838 -2.0043,3.26428 0,0.6059 -0.4933,1.59496 -1.0962,2.1979 -0.603,0.60294 -1.7332,2.33866 -2.5117,3.85714 -0.7784,1.51849 -1.6749,2.94088 -1.9921,3.16088 -0.3172,0.22 -1.1358,1.48 -1.8191,2.8 -0.6833,1.32 -2.3535,3.63484 -3.7116,5.14409 -1.3581,1.50925 -2.4693,3.03925 -2.4693,3.4 0,0.36075 -0.3436,0.65591 -0.7636,0.65591 -0.42,0 -1.6108,0.81 -2.6463,1.8 -1.0355,0.99 -3.2316,2.95677 -4.8803,4.37059 -3.0517,2.61699 -3.1398,5.82941 -0.1599,5.82941 1.1331,0 2.8501,3.92756 2.8501,6.51938 0,0.81434 0.36,1.48062 0.8,1.48062 0.44,0 0.8,0.54 0.8,1.2 0,0.66 -0.36,1.2 -0.8,1.2 -0.44,0 -0.8,0.52742 -0.8,1.17205 0,1.78796 -2.492,8.76698 -3.3169,9.28923 -0.9279,0.58749 -2.7352,10.1533 -2.048,10.84045 0.2832,0.28326 1.5162,-0.15627 2.74,-0.97672 5.7652,-3.86529 9.7818,-5.28243 11.1354,-3.92882 2.5728,2.57283 3.0762,0.96718 3.6515,-11.64821 0.3367,-7.38104 0.8981,-12.43467 1.4,-12.60198 0.4609,-0.15363 0.8402,-1.23933 0.8429,-2.41266 0.01,-3.09834 1.7306,-6.17907 6.1588,-11.0095 2.0585,-2.24552 5.8325,-2.54185 9.3052,-0.73062 3.1721,1.65448 4.1595,0.40751 5.2518,-6.63258 1.3697,-8.82754 2.5463,-13.76064 3.282,-13.76064 0.3686,0 0.9073,-1.07955 1.1971,-2.399 1.5029,-6.84285 11.8688,-5.98439 13.6546,1.13082 0.2855,1.1375 0.8145,2.06818 1.1756,2.06818 0.9887,0 3.0196,7.69719 3.6411,13.8 0.3024,2.97 0.8602,5.4 1.2394,5.4 0.3792,0 0.6895,0.54328 0.6895,1.20729 0,0.664 1.0722,2.3292 2.3826,3.70043 1.3104,1.37123 2.625,3.78516 2.9212,5.36428 0.631,3.36315 -1.0268,17.0624 -2.1486,17.75572 -0.879,0.54323 -1.3192,10.07493 -0.503,10.89111 0.2959,0.29592 1.1986,-0.0598 2.0059,-0.7904 2.0785,-1.88102 7.262,-1.67437 9.7419,0.38837 1.9285,1.6041 2,2.00459 2,11.20257 0,5.75469 -0.3326,9.76545 -0.8385,10.10981 -0.4611,0.31396 -1.5081,2.82083 -2.3266,5.57083 -0.8185,2.75 -1.7534,5 -2.0775,5 -0.7195,0 -3.16,10.54856 -2.6365,11.39563 0.2055,0.3324 1.3423,0.61581 2.5263,0.62981 3.12,0.0369 5.129,1.90883 5.6788,5.29147 0.6126,3.76894 -0.3682,18.74518 -1.2702,19.39376 -0.3742,0.26913 -1.3367,3.00773 -2.1388,6.08578 -0.802,3.07804 -1.7265,5.77804 -2.0543,6 -0.3278,0.22195 -1.2755,3.10355 -2.1059,6.40355 -0.8304,3.3 -1.785,6.19789 -2.1213,6.43976 -0.3363,0.24188 -0.8342,1.55391 -1.1066,2.91564 -0.473,2.36535 -0.3575,2.49967 2.588,3.00893 6.2728,1.08452 7.8916,3.61655 7.8251,12.23952 -0.032,4.18378 -0.4217,7.7638 -0.8768,8.06118 -0.4504,0.29423 -1.4636,2.60497 -2.2515,5.13497 -0.788,2.53 -1.6997,4.6 -2.0261,4.6 -0.3264,0 -1.0597,1.17 -1.6295,2.6 -0.5698,1.43 -1.6935,3.24402 -2.4971,4.03116 -1.9311,1.89167 -1.8429,2.8584 0.339,3.7156 3.0069,1.18132 4.7064,3.93202 4.8586,7.86379 0.1269,3.27984 0.427,3.81484 2.92,5.206 4.6122,2.57367 5.8289,4.49019 5.3848,8.48239 -0.214,1.92442 -0.7557,3.72547 -1.2037,4.00234 -0.4479,0.27687 -1.4262,2.03234 -2.1739,3.90105 -0.7477,1.86872 -1.5986,3.39767 -1.8907,3.39767 -0.2922,0 -1.1706,1.17 -1.9519,2.6 -0.7814,1.43 -2.6771,3.5 -4.2126,4.6 -4.9901,3.57483 -5.7871,6.19135 -2.6907,8.83403 l 2.5945,2.21441 -0.5595,6.1753 c -0.3078,3.39642 -1.0256,6.64125 -1.5951,7.21075 -0.5695,0.56949 -1.4972,2.6847 -2.0616,4.70047 -0.5644,2.01577 -1.3207,3.66504 -1.6808,3.66504 -0.36,0 -1.2396,2.08476 -1.9545,4.63281 -0.958,3.41444 -1.9151,5.04496 -3.6391,6.2 -6.9277,4.64136 5.0382,2.34095 13.4425,-2.58428 3.7436,-2.1939 7.9284,-2.12023 9.8317,0.17308 2.2477,2.70833 1.4681,15.53391 -1.1049,18.17785 -0.5355,0.5503 -1.6198,2.71054 -2.4096,4.80054 -0.7897,2.09 -1.727,3.8 -2.0829,3.8 -0.3559,0 -0.8522,0.81716 -1.1029,1.81592 -0.2507,0.99875 -1.1514,2.56262 -2.0017,3.47526 -0.8502,0.91263 -2.1104,2.75092 -2.8003,4.08508 l -1.2544,2.42574 3.9406,0.52274 c 6.2067,0.82335 8.0501,5.69474 5.175,13.67526 -1.8768,5.20959 -1.6257,6 1.9063,6 4.7843,0 7.3168,2.79282 7.3168,8.06898 0,4.31169 -1.4216,10.33102 -2.4399,10.33102 -0.3226,0 -0.8334,0.99 -1.135,2.2 -0.6415,2.57319 -2.9047,7.62245 -3.6756,8.2 -0.2936,0.22 -0.7665,1.14654 -1.0508,2.05897 -0.2843,0.91244 -1.1598,2.35244 -1.9454,3.2 -1.706,1.84041 -4.1533,7.72424 -4.1533,9.98537 0,1.39093 0.231,1.48836 1.6843,0.71058 2.3394,-1.25205 6.2662,-0.3007 9.1157,2.20851 2.2512,1.98227 2.3932,2.45009 2.2896,7.54252 -0.077,3.81151 -0.4947,5.81342 -1.4,6.71876 -0.7093,0.70927 -1.2896,2.14262 -1.2896,3.18522 0,1.0426 -0.36,2.11814 -0.8,2.39007 -0.44,0.27194 -0.8,1.34747 -0.8,2.39007 0,1.04261 -0.5828,2.4785 -1.2952,3.19088 -1.5815,1.58144 -1.5656,1.59512 2.8952,2.49379 2.5525,0.51423 3.8298,1.24902 4.3897,2.52526 0.4344,0.99 1.0644,1.8 1.4,1.8 0.3357,0 0.6103,2.16 0.6103,4.8 0,2.64 -0.3191,4.8 -0.7091,4.8 -0.3901,0 -0.9592,1.66691 -1.2647,3.70425 -0.5456,3.63835 -1.8991,7.50702 -2.9024,8.29575 -0.2799,0.22 -1.2922,1.94503 -2.2496,3.83339 -0.9574,1.88837 -3.0758,4.81867 -4.7075,6.51179 -4.007,4.15785 -6.1825,6.72485 -7.8289,9.23746 -0.7587,1.15797 -2.9359,3.75316 -4.8383,5.76709 -1.9023,2.01392 -3.6722,4.33411 -3.933,5.15598 -0.2609,0.82186 -0.7531,1.49429 -1.0938,1.49429 -0.8856,0 -2.2518,5.1852 -2.8748,10.91115 -0.5877,5.40161 -4.1842,11.23206 -7.6979,12.47933 -0.605,0.21476 -0.9012,0.60852 -0.6583,0.87503 0.4333,0.47534 9.0988,-2.73936 10.1101,-3.7506 1.5221,-1.52217 11.4482,0.76566 11.4482,2.63868 0,0.40267 0.6,1.33213 1.3334,2.06546 1.6,1.60009 1.9261,10.89447 0.4,11.40317 -0.5134,0.17112 -0.9334,0.93699 -0.9334,1.70194 0,2.02581 -2.4438,8.87584 -3.1665,8.87584 -0.3389,0 -1.262,1.71 -2.0514,3.8 -0.7895,2.09 -1.7329,3.9979 -2.0967,4.23977 -0.3637,0.24187 -0.8781,1.52389 -1.1431,2.84892 -0.455,2.27477 -0.2883,2.46952 2.9879,3.49126 4.6685,1.45594 8.6698,5.68135 8.6698,9.15538 0,3.96327 -1.5217,11.22745 -2.4156,11.53134 -0.4314,0.14667 -0.7844,0.74749 -0.7844,1.33517 0,1.28381 -2.553,6.2884 -3.4,6.66483 -0.33,0.14667 -0.6,1.06467 -0.6,2.04 0,0.97533 -0.3826,2.15595 -0.8502,2.6236 -0.6004,0.60036 0.2814,1.00818 3,1.38754 6.262,0.87382 7.8511,2.77886 7.8458,9.40599 0,3.04704 -0.38,5.7957 -0.839,6.10814 -0.459,0.31243 -1.2878,2.11945 -1.8419,4.01558 -0.554,1.89613 -1.7065,4.04614 -2.561,4.77779 -0.8545,0.73165 -1.5537,1.72239 -1.5537,2.20164 0,0.47924 -0.6329,1.56924 -1.4064,2.4222 -4.2043,4.63623 -5.2734,8.01923 -1.9936,6.30833 3.3598,-1.7526 6.2612,-1.4236 8.6677,0.9829 2.0653,2.0653 2.1255,2.3775 1.7185,8.902 -0.232,3.7189 -0.7539,6.9857 -1.1596,7.2596 -0.4058,0.2739 -1.346,2.9987 -2.0893,6.0552 -0.7432,3.0564 -1.6508,5.7564 -2.0168,6 -0.6183,0.4115 -3.3205,7.6408 -3.3205,8.8835 0,0.3057 1.7881,0.7276 3.9735,0.9376 5.3153,0.5107 6.4265,1.5783 6.4265,6.1745 0,4.0931 -2.0615,12.0472 -3.1223,12.0472 -0.3632,0 -1.279,1.62 -2.0352,3.6 -0.7561,1.98 -1.6808,3.6 -2.0547,3.6 -0.374,0 -0.9143,0.7384 -1.2007,1.6408 -0.2865,0.9025 -1.4807,2.6507 -2.6539,3.885 -1.1733,1.2342 -3.0332,3.3923 -4.1332,4.7957 -1.1,1.4034 -2.7848,3.4607 -3.7441,4.5717 -0.9593,1.1109 -2.3993,3.6131 -3.2,5.5604 -0.8007,1.9472 -1.7259,3.5418 -2.0559,3.5434 -0.33,0 -0.6,0.405 -0.6,0.8963 0,0.5201 0.7183,0.7055 1.719,0.4438 5.0955,-1.3325 10.281,2.3861 10.281,7.3726 0,3.1448 -1.1592,7.2642 -2.2721,8.074 -0.3146,0.229 -1.2782,2.0161 -2.1414,3.9714 -1.5337,3.4744 -4.2802,6.8418 -6.8877,8.4449 -0.7157,0.44 -3.4287,2.2619 -6.0288,4.0487 -2.6002,1.7868 -5.2546,3.4993 -5.8988,3.8055 -0.6441,0.3062 -2.6112,1.4491 -4.3712,2.5397 -1.76,1.0907 -4.6813,2.6665 -6.4918,3.5018 -2.129,0.9822 -3.6817,2.3993 -4.3953,4.0115 -0.6069,1.3711 -1.3756,2.4928 -1.7082,2.4928 -0.3326,0 -0.6047,0.4752 -0.6047,1.0559 0,2.196 -12.4146,14.9211 -17.0758,17.5029 -2.9184,1.6165 -4.4261,1.8412 -12.3522,1.8412 h -9.028 l -0.8986,3 c -0.4943,1.65 -1.1737,3 -1.51,3 -0.3362,0 -1.0282,1.2633 -1.5378,2.8073 -0.5096,1.5441 -1.3539,3.2541 -1.8762,3.8 -0.5223,0.546 -1.628,2.5227 -2.457,4.3927 -0.8291,1.87 -1.758,3.4 -2.0644,3.4 -0.3063,0 -1.2063,1.44 -2,3.2 -0.7936,1.76 -1.6936,3.2 -2,3.2 -0.3063,0 -1.2063,1.44 -2,3.2 -0.7936,1.76 -1.741,3.2 -2.1052,3.2 -0.3643,0 -1.4227,1.4907 -2.3522,3.3125 -0.9294,1.8219 -2.3768,4.0498 -3.2162,4.9509 -0.8395,0.9011 -1.5264,2.0544 -1.5264,2.563 0,0.5086 -0.9021,1.9708 -2.0048,3.2492 -1.1026,1.2784 -2.2069,2.9544 -2.4539,3.7244 -0.247,0.77 -0.7302,1.4 -1.0737,1.4 -0.3435,0 -1.2739,1.44 -2.0676,3.2 -0.7936,1.76 -1.6994,3.2 -2.0128,3.2 -0.3134,0 -1.2157,1.71 -2.0051,3.8 -0.7895,2.09 -1.6696,3.98 -1.9559,4.2 -0.668,0.5134 -4.0262,14.3358 -4.0262,16.572 0,0.9321 -0.3413,1.8147 -0.7584,1.9614 -0.4171,0.1466 -1.3903,4.9466 -2.1627,10.6666 -0.7724,5.72 -1.6264,10.58 -1.8978,10.8 -0.2714,0.22 -1.1348,5.44 -1.9189,11.6 -0.784,6.16 -1.7487,11.32 -2.1438,11.4667 -0.3951,0.1467 -0.714,1.0467 -0.7086,2 0.018,3.1518 -2.654,20.9256 -3.2069,21.3333 -0.2983,0.22 -1.2005,4.99 -2.0049,10.6 -0.8044,5.61 -1.7631,10.2 -2.1303,10.2 -0.3672,0 -0.6677,0.7943 -0.6677,1.7651 0,2.8027 -2.5964,17.793 -3.1583,18.2349 -0.2798,0.22 -1.3508,5.98 -2.38,12.8 -1.0292,6.82 -2.1415,12.58 -2.4716,12.8 -0.3302,0.22 -1.2363,5.26 -2.0136,11.2 -0.7774,5.94 -1.6789,10.98 -2.0034,11.2 -0.3245,0.22 -1.2297,6.34 -2.0116,13.6 -0.7819,7.26 -1.6884,13.38 -2.0146,13.6 -2.4537,1.6551 -2.3831,63.0264 0.074,63.8667 0.4287,0.1467 0.7795,1.0925 0.7795,2.1019 0,2.5342 2.5113,13.5407 3.2015,14.0314 0.3094,0.22 1.1846,2.29 1.9449,4.6 0.7602,2.31 1.6781,4.2 2.0397,4.2 0.3616,0 1.0098,1.0109 1.4405,2.2465 0.4307,1.2355 1.906,3.4758 3.2783,4.9783 1.3723,1.5025 2.4951,3.0116 2.4951,3.3535 0,0.342 0.4792,0.6217 1.0648,0.6217 0.5857,0 1.5359,0.8803 2.1117,1.9561 0.5758,1.0759 2.9891,3.3259 5.3629,5 2.3739,1.6742 5.2936,3.8034 6.4884,4.7316 6.2667,4.8688 19.0373,10.435 32.9722,14.3715 l 6.8,1.921 61,0.01 c 60.4634,0.01 61,0.024 61,1.6099 0,1.5956 -0.5333,1.6 -192.4,1.6 -189.8011,0 -192.4,-0.021 -192.4,-1.55 z m 176.8,-3.25 c 0,-0.44 -0.3125,-0.8 -0.6946,-0.8 -0.382,0 -1.3006,-2.16 -2.0413,-4.8 -0.7408,-2.64 -1.6161,-4.8 -1.9453,-4.8 -0.3291,0 -1.2707,-2.7 -2.0925,-6 -0.8217,-3.3 -1.7674,-6 -2.1015,-6 -0.3341,0 -0.7999,-0.63 -1.035,-1.4 -0.2352,-0.77 -0.2285,0.039 0.015,1.7982 0.2432,1.759 0.7275,3.379 1.0762,3.6 0.3486,0.221 1.2795,2.7418 2.0685,5.6018 0.7891,2.86 1.6738,5.38 1.9661,5.6 0.2922,0.22 1.1772,2.11 1.9667,4.2 1.2958,3.4306 2.8179,5.0511 2.8179,3 z m -46.4179,-10.4 c 0.3022,-0.22 1.221,-2.29 2.0417,-4.6 0.8208,-2.31 1.7417,-4.2 2.0466,-4.2 0.3049,0 1.354,-2.97 2.3314,-6.6 0.9773,-3.63 2.0572,-6.78 2.3997,-7 0.3425,-0.22 1.2806,-5.08 2.0846,-10.8 0.8041,-5.72 1.7236,-10.5888 2.0434,-10.8197 0.6555,-0.4731 3.0639,-23.1709 3.0679,-28.9136 0,-2.0533 0.3252,-3.8533 0.7195,-4 0.3944,-0.1467 0.8822,-4.4067 1.0842,-9.4667 0.2019,-5.06 0.2189,-7.2286 0.038,-4.8192 -0.1812,2.4095 -0.6193,4.5695 -0.9736,4.8 -0.7466,0.4859 -3.2791,17.3797 -3.2708,21.8192 0,1.65 -0.3129,3 -0.7022,3 -0.3893,0 -0.9382,2.07 -1.2199,4.6 -1.3456,12.0885 -2.3747,19.0357 -2.8736,19.4 -0.3014,0.22 -1.3041,5.4063 -2.2283,11.525 -0.9242,6.1187 -1.9879,11.3387 -2.3638,11.6 -0.3759,0.2613 -1.3532,2.725 -2.1717,5.475 -0.8185,2.75 -1.7485,5 -2.0666,5 -0.3181,0 -1.0015,1.53 -1.5187,3.4 -0.5171,1.87 -1.1167,3.94 -1.3322,4.6 -0.2156,0.66 0.2171,0.12 0.9616,-1.2 0.7445,-1.32 1.6009,-2.58 1.9031,-2.8 z m 76.6309,1.6534 c -3.6898,-2.34 -15.813,-13.9359 -15.813,-15.1252 0,-0.3446 -0.6817,-1.3582 -1.5149,-2.2526 -0.8332,-0.8943 -2.1435,-2.8522 -2.9117,-4.3508 -0.7681,-1.4986 -1.6498,-2.9048 -1.9592,-3.1248 -0.7711,-0.5482 -4.0142,-10.3686 -4.0142,-12.1553 0,-0.7946 -0.3133,-1.4447 -0.6963,-1.4447 -0.6143,0 -1.1051,-3.6981 -2.9997,-22.6 -0.8202,-8.1832 -1.904,-4.8819 -1.904,5.8 0,6.4 0.3077,10.4 0.8,10.4 0.44,0 0.8,1.099 0.8,2.4421 0,3.2932 2.3754,13.5579 3.1375,13.5579 0.3351,0 1.0469,1.4607 1.5817,3.2459 0.5349,1.7852 1.5819,3.8611 2.3267,4.6132 0.7448,0.752 2.0105,2.379 2.8128,3.6155 1.9844,3.0585 4.4855,5.9682 7.2638,8.4504 1.2774,1.1413 3.1511,2.885 4.1637,3.875 1.0126,0.99 2.1617,1.8 2.5535,1.8 0.3918,0 1.3951,0.7545 2.2296,1.6766 1.4135,1.5618 5.3577,3.709 7.0873,3.8582 0.4162,0.036 -0.9085,-0.9908 -2.9436,-2.2814 z m -108.9574,-3.7373 c 4.9018,-3.7416 11.7652,-10.7899 13.9514,-14.3274 0.9479,-1.5338 2.0244,-2.7887 2.3921,-2.7887 0.3677,0 1.2873,-1.62 2.0434,-3.6 0.7562,-1.98 1.6114,-3.6 1.9005,-3.6 0.2891,0 1.1987,-1.98 2.0213,-4.4 0.8226,-2.42 1.7153,-4.4 1.9838,-4.4 0.5224,0 2.0677,-6.2224 2.9305,-11.8 0.2892,-1.87 0.7777,-3.4 1.0854,-3.4 0.6437,0 2.101,-7.6087 2.9112,-15.2 0.3053,-2.86 0.8156,-5.38 1.134,-5.6 0.3185,-0.22 0.9911,-5.44 1.4948,-11.6 0.5036,-6.16 1.0987,-12.1 1.3223,-13.2 0.3525,-1.7339 0.3067,-1.7871 -0.3443,-0.4 -0.4129,0.88 -1.0068,3.67 -1.3197,6.2 -0.3129,2.53 -0.807,4.6 -1.0979,4.6 -0.2909,0 -0.9801,3.15 -1.5316,7 -0.5515,3.85 -1.1987,8.35 -1.4381,10 -0.2394,1.65 -0.7637,3 -1.165,3 -0.4013,0 -0.7273,1.17 -0.7244,2.6 0.01,3.2698 -2.5275,16.8628 -3.244,17.4 -0.2934,0.22 -1.1493,3.19 -1.9019,6.6 -0.7527,3.41 -1.6328,6.2 -1.9559,6.2 -0.3231,0 -1.2347,1.8 -2.0258,4 -0.7911,2.2 -1.7231,4 -2.0712,4 -0.348,0 -1.1768,1.35 -1.8417,3 -0.665,1.65 -2.1436,4.08 -3.2859,5.4 -1.1423,1.32 -2.0774,2.6304 -2.0779,2.912 0,0.7033 -8.5468,9.3885 -11.8935,12.088 -4.0494,3.2663 -1.6421,2.6672 2.7481,-0.6839 z m 65.0451,-67.3161 c 0.055,-3.63 0.4016,-6.6 0.7711,-6.6 0.3695,0 1.314,-6.93 2.0989,-15.4 0.7849,-8.47 1.7106,-15.5815 2.0571,-15.8033 0.3466,-0.2218 1.2428,-6.7018 1.9917,-14.4 0.7489,-7.6982 1.6256,-14.1767 1.9482,-14.3967 0.3226,-0.22 1.2284,-7.06 2.0129,-15.2 0.7845,-8.14 1.7398,-14.92 2.1229,-15.0666 0.922,-0.353 0.9034,-8.1334 -0.019,-8.1334 -0.3938,0 -0.8818,1.35 -1.0844,3 -0.7078,5.7651 -2.5448,15.0033 -3.0621,15.4 -0.6559,0.503 -2.0878,8.9896 -2.8009,16.6 -0.2989,3.19 -0.8096,5.8 -1.1348,5.8 -0.3253,0 -0.7843,2.61 -1.02,5.8 -1.2614,17.0713 -2.5167,29.846 -2.9675,30.2 -0.7907,0.6209 -2.44,27.3711 -2.2937,37.2 0.1276,8.5682 0.1462,8.6525 0.7058,3.2 0.3161,-3.08 0.6195,-8.57 0.6742,-12.2 z m 17.7154,-46.8 c 0.026,-5.576 3.147,-24.7312 4.1447,-25.4413 0.3411,-0.2427 1.2229,-4.3827 1.9597,-9.2 0.7369,-4.8173 1.5766,-8.9387 1.8661,-9.1587 0.2895,-0.22 1.168,-5.08 1.9521,-10.8 0.7842,-5.72 1.6888,-10.58 2.0102,-10.8 0.3215,-0.22 1.2552,-5.26 2.0749,-11.2 0.8197,-5.94 1.7131,-10.98 1.9853,-11.2 0.2722,-0.22 1.1483,-5.62 1.9469,-12 0.7986,-6.38 1.7292,-11.78 2.0681,-12 0.686,-0.4455 3.0895,-17.2097 3.7562,-26.2 0.2366,-3.19 0.7428,-5.8 1.1249,-5.8 0.3822,0 0.6948,-1.8 0.6948,-4 0,-2.2 -0.36,-4 -0.8,-4 -0.44,0 -0.7979,0.99 -0.7953,2.2 0.01,3.3613 -3.4083,24.5456 -4.0306,25 -0.3014,0.22 -1.2012,4.9 -1.9997,10.4 -0.7984,5.5 -1.6921,10.18 -1.9858,10.4 -0.2938,0.22 -1.1886,5.26 -1.9886,11.2 -0.7999,5.94 -1.6865,10.98 -1.9701,11.2 -0.2837,0.22 -1.1864,5.26 -2.0061,11.2 -0.8197,5.94 -1.7332,10.98 -2.0299,11.2 -0.2967,0.22 -1.1939,5.26 -1.9939,11.2 -0.7999,5.94 -1.6947,10.98 -1.9884,11.2 -0.5442,0.4077 -3.2182,17.3071 -3.8292,24.2 -0.1852,2.09 -0.6621,3.8 -1.0596,3.8 -0.3975,0 -0.7228,2.7 -0.7228,6 0,3.4667 0.3378,6 0.8,6 0.44,0 0.8073,-1.53 0.8161,-3.4 z m -42.8423,-14 c 0.317,-2.31 0.8591,-4.2 1.2047,-4.2 0.3455,0 1.0615,-2.61 1.591,-5.8 1.5536,-9.3601 1.8213,-10.5786 2.4167,-11 0.3108,-0.22 1.2058,-3.73 1.9887,-7.8 0.783,-4.07 1.6605,-7.4 1.9499,-7.4 0.2895,0 1.1979,-3.78 2.0187,-8.4 0.8208,-4.62 1.75,-8.4 2.065,-8.4 0.3149,0 1.1977,-3.15 1.9618,-7 0.7641,-3.85 1.6479,-7.18 1.9641,-7.4 0.3162,-0.22 1.4257,-4.54 2.4656,-9.6 1.0399,-5.06 2.1356,-9.38 2.4349,-9.6 0.9665,-0.7105 1.3392,-5.6001 0.4266,-5.5975 -0.4738,0 -1.7019,3.8689 -2.729,8.5945 -1.0272,4.7257 -2.1397,8.7745 -2.4723,8.9976 -0.3326,0.223 -1.27,2.9254 -2.0832,6.0054 -0.8132,3.08 -1.7228,5.78 -2.0212,6 -0.2984,0.22 -1.1964,3.19 -1.9955,6.6 -0.799,3.41 -1.6855,6.2 -1.9698,6.2 -0.2843,0 -1.1894,3.42 -2.0113,7.6 -0.8219,4.18 -1.7403,7.6 -2.041,7.6 -0.3007,0 -1.2,4.23 -1.9984,9.4 -0.7984,5.17 -1.7169,9.5861 -2.0411,9.8135 -0.55,0.3858 -1.6638,8.1557 -2.6355,18.3865 -0.5148,5.4206 0.6811,3.0456 1.5106,-3 z m 22.058,-26.6 c 0.338,-0.22 1.2236,-4.54 1.9682,-9.6 0.7446,-5.06 1.623,-9.38 1.9521,-9.6 0.329,-0.22 1.221,-4.1751 1.9821,-8.7892 0.7612,-4.6141 1.659,-8.5741 1.9952,-8.8 0.3362,-0.2259 1.2746,-4.3708 2.0852,-9.2108 0.8107,-4.84 1.7091,-8.98 1.9964,-9.2 0.2874,-0.22 1.195,-4.54 2.017,-9.6 0.8219,-5.06 1.7413,-9.38 2.043,-9.6 0.3018,-0.22 1.1819,-4.27 1.956,-9 0.7741,-4.73 1.6559,-8.6 1.9598,-8.6 0.3038,0 1.3956,-5.31 2.4263,-11.8 1.0306,-6.49 2.1288,-11.98 2.4404,-12.2 0.3115,-0.22 0.984,-3.82 1.4945,-8 0.5104,-4.18 1.1066,-8.68 1.3248,-10 0.2741,-1.6578 0.1717,-2.0289 -0.3311,-1.2 -0.4004,0.66 -0.9681,3.3463 -1.2617,5.9694 -0.2936,2.6232 -0.8243,4.9632 -1.1793,5.2 -0.3551,0.2369 -1.4804,4.9306 -2.5007,10.4306 -1.0203,5.5 -2.092,10.18 -2.3816,10.4 -0.2896,0.22 -1.16,3.9959 -1.9341,8.3909 -0.7741,4.3949 -1.6724,8.1749 -1.9962,8.4 -0.3238,0.225 -1.2563,4.0991 -2.0723,8.6091 -0.816,4.51 -1.7471,8.2 -2.0691,8.2 -0.3221,0 -0.745,1.53 -0.9399,3.4 -0.5802,5.5679 -2.4358,15.3699 -2.991,15.8 -0.284,0.22 -1.1911,4.18 -2.0158,8.8 -0.8246,4.62 -1.7485,8.58 -2.053,8.8 -0.3045,0.22 -1.1695,5.2588 -1.9223,11.1973 -0.7527,5.9385 -1.6409,10.9785 -1.9739,11.2 -0.3329,0.2215 -1.0258,4.0027 -1.5396,8.4027 -1.6136,13.8165 -1.6792,15.3874 -0.3678,8.8 0.7007,-3.52 1.5505,-6.58 1.8884,-6.8 z m 31.0842,-90.8566 c 0.647,-3.4889 1.4086,-6.5234 1.6925,-6.7434 0.284,-0.22 1.2035,-4.81 2.0435,-10.2 0.8399,-5.39 1.8019,-9.8 2.1376,-9.8 0.3357,0 0.6079,-0.99 0.6048,-2.2 -0.01,-3.3994 2.5614,-20.5498 3.1469,-21 1.0527,-0.8093 3.2698,-24.0103 3.593,-37.6 l 0.333,-14 -1.4663,10.4 c -0.8064,5.72 -1.4965,12.47 -1.5336,15 -0.037,2.53 -0.3779,4.6 -0.7574,4.6 -0.3795,0 -0.9259,3.15 -1.2142,7 -0.7666,10.2346 -2.305,22.1394 -2.9206,22.6 -0.294,0.22 -0.752,2.38 -1.0178,4.8 -1.2659,11.5252 -2.3779,18.8362 -2.9205,19.2 -0.5814,0.3899 -2.1483,10.3577 -3.0182,19.2 -0.2381,2.42 -0.8347,4.6974 -1.3258,5.0609 -0.5872,0.4347 -0.4924,0.5522 0.277,0.3434 0.7624,-0.2069 1.5796,-2.5269 2.3461,-6.6609 z m -24.1297,-24.1434 c -0.3979,-11.3741 -1.6855,-20.7355 -2.9985,-21.8 -0.2713,-0.22 -1.0907,-2.5332 -1.8208,-5.1405 -0.73,-2.6073 -1.618,-4.9473 -1.9732,-5.2 -0.3552,-0.2527 -1.5075,-3.2495 -2.5607,-6.6595 -1.0531,-3.41 -2.158,-6.2 -2.4552,-6.2 -0.2972,0 -1.1738,-2.34 -1.948,-5.2 -0.7741,-2.86 -1.6706,-5.2 -1.9921,-5.2 -0.3214,0 -1.2541,-2.25 -2.0726,-5 -0.8185,-2.75 -1.7278,-5.18 -2.0207,-5.4 -0.2928,-0.22 -1.1559,-2.56 -1.918,-5.2 -0.7621,-2.64 -1.6419,-4.98 -1.9552,-5.2 -0.3133,-0.22 -1.2175,-2.83 -2.0093,-5.8 -1.3093,-4.911 -2.862,-7.1896 -2.862,-4.2 0,0.66 0.2879,1.2 0.6398,1.2 0.3519,0 1.3122,2.7 2.1339,6 0.8218,3.3 1.7693,6 2.1057,6 0.3363,0 1.2122,2.7 1.9464,6 0.7341,3.3 1.5929,6 1.9083,6 0.3153,0 1.2099,2.7 1.9879,6 0.778,3.3 1.6848,6 2.0151,6 0.3303,0 1.2245,2.2442 1.9871,4.987 0.7626,2.7429 1.6378,5.1729 1.945,5.4 0.6483,0.4794 4.1308,12.2229 4.1308,13.9295 0,0.6326 0.3504,1.2702 0.7786,1.4169 0.4282,0.1466 1.3708,3.1466 2.0946,6.6666 0.7239,3.52 1.6021,6.5819 1.9516,6.8041 0.8613,0.5475 2.3752,11.8 2.3752,17.6538 0,2.6082 0.2311,4.7421 0.5135,4.7421 0.2824,0 0.3152,-5.67 0.073,-12.6 z m 12.9616,-36.9974 c 0.3319,-0.2214 1.4392,-4.9926 2.4607,-10.6026 1.0214,-5.61 2.1574,-10.2 2.5243,-10.2 0.3669,0 0.6671,-0.8998 0.6671,-1.9996 0,-3.1115 2.4851,-16.7529 3.1334,-17.2004 0.3187,-0.22 1.2468,-6.25 2.0623,-13.4 0.8156,-7.15 1.7268,-13 2.025,-13 0.2981,0 0.7862,-5.49 1.0846,-12.2 0.2984,-6.71 0.6961,-14.54 0.8837,-17.4 0.3085,-4.702 0.2735,-4.8552 -0.3646,-1.6 -0.3882,1.98 -0.7325,5.49 -0.7651,7.8 -0.033,2.31 -0.4193,4.2 -0.8593,4.2 -0.44,0 -0.7948,0.99 -0.7885,2.2 0.02,3.8276 -2.6652,24.5823 -3.2343,25 -0.2998,0.22 -1.1994,5.62 -1.9992,12 -0.7998,6.38 -1.695,11.78 -1.9893,12 -0.2943,0.22 -0.9718,3.82 -1.5055,8 -1.8941,14.8348 -2.7874,20.4051 -3.3356,20.8 -0.3053,0.22 -0.7279,2.56 -0.939,5.2 -0.2111,2.64 -0.2219,3.9012 -0.024,2.8026 0.1979,-1.0985 0.6314,-2.1785 0.9633,-2.4 z m 35.625,-6.0279 c 0.8178,-2.4061 1.7174,-4.3747 1.999,-4.3747 0.2816,0 1.1593,-1.8 1.9504,-4 0.7911,-2.2 1.7186,-4 2.061,-4 0.3424,0 1.0827,-1.1106 1.6449,-2.4681 0.5623,-1.3575 1.4295,-2.8875 1.927,-3.4 0.4976,-0.5125 1.7781,-2.3587 2.8456,-4.1027 1.0675,-1.7439 2.494,-3.7497 3.17,-4.4572 0.6761,-0.7075 2.3092,-2.6354 3.6292,-4.2841 1.32,-1.6488 3.12,-3.8227 4,-4.8309 0.88,-1.0082 2.5,-2.9823 3.6,-4.3869 1.1,-1.4046 2.9,-3.5833 4,-4.8415 4.4697,-5.1124 5.7232,-6.7463 6.8554,-8.9356 0.6521,-1.2611 1.4876,-2.293 1.8565,-2.293 0.3689,0 1.2894,-1.62 2.0456,-3.6 0.7562,-1.98 1.6666,-3.6 2.0231,-3.6 0.3565,0 0.8555,-0.54 1.1087,-1.2 0.2703,-0.7042 0.011,-1.2 -0.6277,-1.2 -0.5985,0 -1.3163,0.9092 -1.5952,2.0204 -0.2789,1.1112 -1.1682,2.6814 -1.9762,3.4895 -0.808,0.808 -2.1365,2.5988 -2.9522,3.9796 -0.8156,1.3808 -1.7561,2.5105 -2.0899,2.5105 -0.3339,0 -1.12,0.99 -1.747,2.2 -0.627,1.21 -1.9863,3.1551 -3.0205,4.3224 -1.0343,1.1673 -3.6806,4.1827 -5.8806,6.7009 -2.2,2.5181 -4.9,5.5656 -6,6.7722 -4.3262,4.7454 -6.6481,7.6824 -7.4347,9.4045 -0.4521,0.99 -1.1301,1.8 -1.5066,1.8 -0.3765,0 -1.2854,1.26 -2.0198,2.8 -0.7344,1.54 -1.5988,2.8 -1.9209,2.8 -0.3221,0 -1.2043,1.62 -1.9605,3.6 -0.7562,1.98 -1.6289,3.6 -1.9395,3.6 -0.3106,0 -1.2343,2.25 -2.0528,5 -0.8185,2.75 -1.7219,5.18 -2.0075,5.4 -0.2856,0.22 -0.6967,1.3572 -0.9136,2.527 -0.6965,3.7572 1.3491,1.6951 2.9288,-2.9523 z m -48.7729,-7.5747 c 0.3093,-3.08 0.8238,-5.6 1.1433,-5.6 0.3195,0 1.2482,-5.13 2.0638,-11.4 0.8156,-6.27 1.7278,-11.58 2.0271,-11.8 0.2992,-0.22 1.1994,-7.06 2.0002,-15.2 0.8009,-8.14 1.6862,-14.98 1.9674,-15.2 2.9521,-2.3097 3.0081,-66.0065 0.06,-67.9959 -0.3293,-0.2222 -1.2231,-2.9184 -1.9861,-5.9915 -0.7631,-3.0731 -1.6471,-5.7731 -1.9644,-6 -0.3173,-0.2269 -1.2228,-3.2026 -2.0122,-6.6126 -0.7894,-3.41 -1.7061,-6.2 -2.0371,-6.2 -0.331,0 -1.2748,-1.98 -2.0974,-4.4 -0.8226,-2.42 -1.7241,-4.4 -2.0033,-4.4 -0.2792,0 -0.9343,-1.4239 -1.4558,-3.1642 -0.5214,-1.7404 -1.3884,-3.6304 -1.9266,-4.2 -0.5382,-0.5697 -1.7839,-2.7458 -2.7682,-4.8358 -0.9843,-2.09 -2.1106,-3.8 -2.5029,-3.8 -0.3924,0 -1.1677,-1.097 -1.7231,-2.4377 -1.0596,-2.558 -4.3665,-4.7623 -7.1446,-4.7623 -2.0895,0 -2.0731,0.8332 0.061,3.1243 2.3512,2.5238 3.0408,6.3189 2.595,14.2812 l -0.381,6.8033 2.6424,2.5915 c 4.8054,4.7129 5.0424,5.2354 5.0424,11.1134 0,3.7313 -0.328,5.6623 -1,5.8863 -0.55,0.1834 -1,0.8311 -1,1.4395 0,1.5733 -2.569,6.7605 -3.3481,6.7605 -1.8283,0 -0.2844,2.2456 2.2192,3.2279 7.9119,3.1044 6.7636,14.7853 -2.2711,23.103 -2.5943,2.3885 -2.7537,3.5905 -0.6698,5.0502 0.8416,0.5894 2.1916,2.4998 3,4.2453 0.8084,1.7455 1.7356,3.3723 2.0605,3.6151 2.1837,1.632 2.3616,15.6919 0.2256,17.828 -0.53,0.5299 -1.3785,1.7388 -1.8855,2.6863 -1.3223,2.4706 -5.4239,4.3147 -10.7308,4.8245 -4.5999,0.4419 -4.6,0.442 -4.6,3.1308 0,1.4789 0.2767,2.6889 0.6148,2.6889 0.3381,0 1.2683,3.6 2.0671,8 0.7988,4.4 1.707,8 2.0182,8 0.3112,0 1.2562,2.52 2.0999,5.6 0.8437,3.08 1.783,5.6 2.0873,5.6 0.3042,0 0.9882,1.8134 1.5199,4.0298 0.5317,2.2164 1.3912,4.4664 1.9101,5 0.5188,0.5336 1.6167,2.7702 2.4397,4.9702 0.8229,2.2 1.7458,4.18 2.0507,4.4 0.305,0.22 1.3549,2.5554 2.3332,5.1897 0.9782,2.6344 2.0217,4.9744 2.3189,5.2 0.8506,0.6461 3.3402,6.3385 3.3402,7.6375 0,0.645 0.36,1.1728 0.8,1.1728 0.44,0 0.8,0.54 0.8,1.2 0,3.6975 1.5234,0.346 2,-4.4 z m 66,-36.8011 c 0,-0.2994 1.53,-2.2022 3.4,-4.2285 5.1308,-5.5595 6.8343,-7.643 8.3574,-10.2214 0.7632,-1.2919 1.6406,-2.349 1.9499,-2.349 0.3092,0 1.3881,-1.35 2.3975,-3 1.0095,-1.65 2.2988,-3.4757 2.8653,-4.0571 0.5664,-0.5814 1.0299,-1.3236 1.0299,-1.6492 0,-0.3256 0.6598,-1.3002 1.4662,-2.1658 0.8065,-0.8656 2.1154,-3.2734 2.9087,-5.3508 0.7934,-2.0774 1.6946,-3.7771 2.0026,-3.7771 0.6555,0 3.2225,-8.8591 3.2225,-11.1212 0,-0.85 0.3425,-1.6654 0.7612,-1.8121 0.4186,-0.1467 1.0073,-2.6867 1.3082,-5.6446 0.5276,-5.1871 0.4651,-5.4605 -1.7612,-7.7027 -4.6666,-4.6999 -5.3862,-6.1565 -6.2838,-12.7194 -0.316,-2.31 -0.9007,-4.2 -1.2994,-4.2 -0.3988,0 -0.725,-1.26 -0.725,-2.8 0,-1.54 0.3311,-2.8 0.7357,-2.8 0.4047,0 1.3336,-1.8 2.0643,-4 0.7307,-2.2 1.6504,-4 2.0438,-4 0.3933,0 1.2835,-1.0991 1.9782,-2.4425 0.6947,-1.3434 1.9548,-3.1343 2.8002,-3.9797 0.8454,-0.8454 1.7653,-2.4462 2.0442,-3.5574 0.2789,-1.1112 0.8025,-2.0204 1.1636,-2.0204 0.9815,0 2.5848,-8.6353 2.0207,-10.883 -0.6536,-2.6039 -3.008,-1.4241 -4.4955,2.2524 -0.5854,1.4469 -1.3045,2.8106 -1.5981,3.0306 -0.2936,0.22 -1.1333,1.57 -1.866,3 -0.7327,1.43 -1.5929,2.6014 -1.9116,2.603 -0.3187,0 -1.2451,1.6217 -2.0587,3.6 -0.8136,1.9784 -1.7646,3.597 -2.1133,3.597 -0.3487,0 -0.8398,0.81 -1.0913,1.8 -0.2516,0.99 -1.5253,2.9646 -2.8306,4.3879 -1.3053,1.4233 -2.8308,3.8533 -3.3901,5.4 -0.5593,1.5467 -1.2655,2.8121 -1.5693,2.8121 -0.3039,0 -1.1438,1.478 -1.8666,3.2845 -0.7228,1.8064 -1.7686,3.7388 -2.3239,4.2942 -0.5554,0.5553 -1.518,2.5873 -2.1392,4.5155 -0.6211,1.9282 -1.3493,3.6858 -1.618,3.9058 -0.9279,0.7596 -3.1785,7.2382 -3.1785,9.1495 0,1.0545 -0.3199,2.0372 -0.711,2.1839 -0.8392,0.3147 -3.292,22.083 -3.2902,29.2 7e-4,2.7133 -0.3117,5.0533 -0.6941,5.2 -0.3825,0.1466 -0.8658,5.7231 -1.0741,12.3921 l -0.3787,12.1255 1.874,-0.8539 c 1.0308,-0.4696 1.8741,-1.0988 1.8741,-1.3982 z m -14.1463,-17.3989 c 0.2519,-1.65 0.9097,-6.78 1.4617,-11.4 0.552,-4.62 1.2376,-8.58 1.5236,-8.8 0.4451,-0.3424 1.416,-10.2186 2.9492,-30 0.2046,-2.64 0.6925,-4.9991 1.0843,-5.2424 0.3917,-0.2434 0.8527,-7.2634 1.0245,-15.6 0.1718,-8.3367 0.1536,-13.3654 -0.04,-11.175 -0.1941,2.1904 -0.6324,4.1704 -0.9741,4.4 -0.3417,0.2296 -1.1922,7.939 -1.89,17.132 -0.9019,11.8819 -1.5757,16.9091 -2.3306,17.3877 -0.8482,0.5377 -0.8204,0.6782 0.1381,0.6977 0.7983,0.016 0.8984,0.2213 0.299,0.6123 -0.5614,0.3661 -1.4155,7.9768 -2.2657,20.1877 -0.7505,10.78 -1.6951,19.72 -2.0989,19.8667 -0.9358,0.3398 -0.9699,4.9333 -0.037,4.9333 0.3837,0 0.9039,-1.35 1.1559,-3 z m -6.2076,-31.4 c 0.3087,-3.74 0.8708,-6.9989 1.2492,-7.242 0.3783,-0.2431 1.3029,-8.1631 2.0545,-17.6 0.7517,-9.4369 1.6142,-17.338 1.9168,-17.558 0.4482,-0.3259 1.4462,-20.0136 2.5651,-50.6014 0.2356,-6.4404 -0.7538,-5.7483 -1.4317,1.0014 -0.3093,3.08 -0.8155,5.6 -1.125,5.6 -0.3094,0 -1.2323,11.88 -2.0508,26.4 -0.8186,14.52 -1.7889,26.4 -2.1562,26.4 -0.3674,0 -0.668,2.7281 -0.668,6.0624 0,3.3342 -0.3421,10.2642 -0.7602,15.4 -1.1463,14.0806 -1.5466,25.0216 -0.7955,21.7376 0.3523,-1.54 0.8931,-5.86 1.2018,-9.6 z m -17.5372,-32.3002 c -0.6264,-4.7852 -1.4955,-8.9252 -1.9312,-9.2 -0.4358,-0.2749 -1.3861,-2.826 -2.1118,-5.6691 -0.7258,-2.8432 -1.6317,-5.3632 -2.0132,-5.6 -0.3815,-0.2369 -1.2949,-2.5007 -2.0299,-5.0307 -0.735,-2.53 -1.5808,-4.6023 -1.8795,-4.6051 -0.2988,0 -1.4235,-2.3429 -2.4994,-5.2 -1.0759,-2.8572 -2.2068,-5.1949 -2.5132,-5.1949 -0.3063,0 -1.1312,-1.4351 -1.833,-3.1892 -0.7018,-1.754 -1.9918,-3.9049 -2.8665,-4.7796 -0.8748,-0.8748 -1.8187,-2.4996 -2.0976,-3.6108 -0.2788,-1.1112 -0.7791,-2.0204 -1.1116,-2.0204 -0.3325,0 -1.2233,-1.62 -1.9795,-3.6 -0.7561,-1.98 -1.6753,-3.6 -2.0425,-3.6 -0.3672,0 -1.2863,-1.62 -2.0425,-3.6 -0.7562,-1.98 -1.6859,-3.6 -2.0662,-3.6 -0.3802,0 -0.6913,-0.6674 -0.6913,-1.4832 0,-0.8157 -0.818,-2.3659 -1.8179,-3.4447 -0.9999,-1.0789 -2.7037,-4.1915 -3.7862,-6.9169 -1.0825,-2.7253 -2.1897,-4.9552 -2.4605,-4.9552 -0.2708,0 -1.1417,-1.44 -1.9354,-3.2 -0.7936,-1.76 -1.724,-3.2 -2.0676,-3.2 -0.3435,0 -0.8617,-0.7471 -1.1515,-1.6603 -0.2898,-0.9131 -0.6624,-1.5248 -0.8279,-1.3593 -0.5215,0.5215 1.4828,6.2196 2.1877,6.2196 0.3698,0 1.2485,1.44 1.9527,3.2 0.7042,1.76 1.5545,3.2 1.8895,3.2 0.3351,0 1.0619,1.6168 1.6151,3.5929 0.5533,1.9761 1.7913,4.4061 2.7512,5.4 0.9598,0.9939 2.1884,3.3371 2.7301,5.2071 0.5417,1.87 1.2405,3.4034 1.5528,3.4076 0.3124,0 1.2786,1.6242 2.1472,3.6 0.8686,1.9758 1.804,3.5924 2.0785,3.5924 0.2746,0 1.174,1.53 1.9986,3.4 0.8247,1.87 1.7467,3.5811 2.0489,3.8024 0.3022,0.2212 1.1613,1.9312 1.909,3.8 0.7477,1.8687 1.6219,3.3976 1.9427,3.3976 0.3207,0 1.2562,1.98 2.0788,4.4 0.8225,2.42 1.7517,4.4 2.0647,4.4 0.313,0 1.3719,2.43 2.3531,5.4 0.9812,2.97 2.0576,5.5809 2.392,5.802 0.3344,0.2211 1.2139,2.7402 1.9544,5.598 0.7406,2.8579 1.6525,5.3852 2.0265,5.6164 0.374,0.2311 1.3062,3.652 2.0715,7.6019 0.7653,3.95 1.6578,7.3653 1.9833,7.5897 0.3255,0.2244 0.8339,1.4844 1.1297,2.8 0.2957,1.3156 0.761,3.112 1.034,3.992 l 0.4962,1.6 0.2534,-1.6 c 0.1393,-0.88 -0.2592,-5.5151 -0.8857,-10.3002 z m 43.9012,-12.2492 c 0.8745,-1.1821 2.3603,-2.992 3.3019,-4.0218 0.9416,-1.0299 2.1553,-2.9427 2.6971,-4.2506 0.5418,-1.308 1.2398,-2.3782 1.5512,-2.3782 0.3114,0 1.4365,-1.89 2.5002,-4.2 1.0637,-2.31 2.3516,-4.642 2.8619,-5.1822 0.5103,-0.5402 1.4094,-2.0702 1.998,-3.4 0.5886,-1.3298 1.3125,-2.4178 1.6087,-2.4178 0.2962,0 1.1573,-1.62 1.9134,-3.6 0.7562,-1.98 1.5981,-3.6 1.8709,-3.6 1.2351,0 2.7792,-5.1024 1.6573,-5.4764 -3.0687,-1.0229 -8.7707,-9.1823 -8.7707,-12.5507 0,-0.6451 -0.3186,-1.1729 -0.7079,-1.1729 -2.0661,0 -4.1355,-33.1494 -2.4961,-39.9832 1.2081,-5.03591 4.757,-9.03224 11.0261,-12.41612 2.3221,-1.25343 3.8661,-2.49896 3.431,-2.76784 -1.0649,-0.65817 -3.2531,-5.99922 -3.2531,-7.94046 0,-0.85746 -0.45,-1.70901 -1,-1.89232 -1.2703,-0.42339 -1.4169,-15.57358 -0.1589,-16.42847 0.4626,-0.31436 1.4824,-2.28157 2.2662,-4.37157 0.7838,-2.09 1.6777,-3.8 1.9864,-3.8 0.3087,0 1.246,-1.15904 2.0828,-2.57566 0.8368,-1.41661 2.7273,-3.78148 4.2011,-5.25525 1.4738,-1.47377 3.2656,-4.18473 3.9818,-6.02434 0.7162,-1.83961 1.9934,-4.01673 2.8381,-4.83805 2.1365,-2.0772 0.9822,-2.85674 -5.0665,-3.42157 -4.9627,-0.46343 -5.1976,-0.40296 -6.2784,1.61672 -0.6176,1.15398 -1.3942,2.09815 -1.7257,2.09815 -0.3315,0 -1.0064,1.22305 -1.4998,2.71788 -0.4933,1.49483 -1.6012,3.52991 -2.462,4.52241 -0.8608,0.99249 -1.5651,2.22156 -1.5651,2.73127 0,0.50971 -0.6598,1.63495 -1.4662,2.50054 -0.8064,0.8656 -2.1153,3.27348 -2.9087,5.35085 -0.7933,2.07738 -1.6902,3.77705 -1.9929,3.77705 -0.3028,0 -1.3972,2.7 -2.4322,6 -1.0349,3.3 -2.1363,6 -2.4476,6 -0.3112,0 -0.763,0.81 -1.0039,1.8 -1.719,7.06273 -2.3132,9.01165 -2.8601,9.38032 -0.6802,0.45857 -3.29,12.9586 -3.289,15.75302 3e-4,0.95333 -0.3543,1.85333 -0.7882,2 -0.4991,0.16872 -0.9474,16.86884 -1.2206,45.46664 -0.2375,24.86 -0.597,47.27 -0.7989,49.8 -0.4087,5.1211 0.078,5.6145 2.4184,2.4506 z m -34.0101,-38.6978 c 0,-3.934 0.3091,-7.1528 0.6868,-7.1528 0.3777,0 1.0077,-7.11 1.4,-15.8 1.3917,-30.8298 0.253,-105.78631 -1.6076,-105.81223 -0.4835,-0.007 -0.3392,-0.36122 0.3208,-0.78775 0.7396,-0.47792 0.8303,-0.7802 0.2366,-0.78775 -0.6312,-0.008 -1.0451,-1.87461 -1.2,-5.41225 -0.1301,-2.97 -0.2417,27.18 -0.2479,67 -0.01,39.81998 -0.2907,73.42018 -0.6321,74.66708 -0.4127,1.5073 -0.3419,2.0946 0.2114,1.7527 0.4757,-0.294 0.832,-3.5777 0.832,-7.667 z m -16.0245,-12.7376 c 2.2318,-1.3794 4.1767,-105.466 2.4891,-133.21518 -1.7151,-28.20126 -1.8881,-30.39904 -2.4241,-30.8 -0.2941,-0.22 -1.1673,-6.7 -1.9405,-14.4 -0.7731,-7.7 -1.7419,-14.12 -2.1528,-14.26667 -0.4109,-0.14666 -0.7491,-1.22666 -0.7514,-2.4 -0.01,-3.97912 -3.236,-21.33175 -4.0182,-21.6 -0.4277,-0.14666 -0.7776,-1.03844 -0.7776,-1.98172 0,-2.641 -2.6047,-14.15161 -3.2023,-14.15161 -0.2914,0 -1.2022,-2.7 -2.024,-6 -0.8217,-3.3 -1.742,-6 -2.045,-6 -0.3031,0 -1.1988,-2.43 -1.9906,-5.4 -0.7918,-2.97 -1.696,-5.58 -2.0093,-5.8 -0.3133,-0.22 -1.1932,-2.56 -1.9553,-5.2 -0.762,-2.64 -1.6447,-4.98 -1.9615,-5.2 -0.3168,-0.22 -1.2222,-2.38 -2.012,-4.8 -0.7897,-2.42 -1.6894,-4.58 -1.9992,-4.8 -0.3098,-0.22 -1.3901,-2.92 -2.4008,-6 -1.0106,-3.08 -2.091,-5.78 -2.4008,-6 -0.3098,-0.22 -1.1853,-2.29 -1.9455,-4.6 -0.7602,-2.31 -1.7133,-4.2 -2.118,-4.2 -0.4046,0 -0.7357,-0.52779 -0.7357,-1.17286 0,-1.52946 -2.5307,-6.82714 -3.2613,-6.82714 -0.3107,0 -1.1411,-1.44 -1.8453,-3.2 -0.7042,-1.76 -1.5866,-3.2 -1.9609,-3.2 -0.3743,0 -1.3591,-1.26 -2.1884,-2.8 -0.8294,-1.54 -1.7198,-2.8 -1.9787,-2.8 -0.2589,0 -1.3202,-1.53 -2.3584,-3.4 -1.0382,-1.87 -2.1343,-3.58 -2.4357,-3.8 -0.3014,-0.22 -1.1437,-1.56269 -1.8718,-2.98376 -1.3201,-2.57657 -7.7385,-9.27653 -10.1929,-10.63995 -0.9741,-0.54111 -2.163,0.0962 -4.8151,2.58104 l -3.5216,3.29956 4.858,4.88202 c 3.62,3.63782 5.1285,5.84779 5.9191,8.67155 0.5835,2.08425 1.3742,3.78954 1.757,3.78954 0.3828,0 0.6992,1.35 0.703,3 0,1.65 0.2339,4.89 0.5114,7.2 l 0.5045,4.2 4.0886,0.0266 c 4.5246,0.0295 6.4223,1.17529 8.8994,5.37339 0.8437,1.43 1.758,2.6 2.0317,2.6 0.2736,0 1.1706,1.98 1.9932,4.4 0.8225,2.42 1.7485,4.4 2.0576,4.4 1.5767,0 2.4973,12.20109 1.9316,25.6 -0.962,22.78877 -0.975,22.03572 0.375,21.7144 6.4221,-1.52846 11.6872,0.97232 13.2336,6.2856 0.3201,1.1 0.9126,2.21304 1.3167,2.47342 1.3387,0.86277 2.3695,11.38308 2.1077,21.51196 l -0.258,9.98539 3.415,1.6219 c 5.4368,2.58217 6.0051,4.42544 5.5521,18.00733 -0.3398,10.18979 -1.3092,15.94027 -2.9671,17.60061 -0.6416,0.6426 -3.2,5.67457 -3.2,6.29398 0,0.31071 0.8095,0.6259 1.7989,0.70043 0.9894,0.0745 3.0115,1.49824 4.4937,3.16381 2.6207,2.94516 2.6839,3.17925 2.3014,8.52553 -0.2163,3.02347 -0.7463,5.72636 -1.1777,6.00643 -0.4314,0.28007 -1.2328,1.88442 -1.7809,3.56522 -0.548,1.68081 -1.475,3.23967 -2.06,3.46414 -2.1236,0.81489 -3.0157,5.33601 -1.3247,6.71298 4.721,3.84412 5.0933,15.06472 0.6815,20.53556 -3.5388,4.38816 -9.9531,9.83131 -11.5855,9.83131 -1.2574,0 -1.3467,1.81925 -1.3467,27.4283 0,17.0876 0.2705,24.80339 0.8833,25.19999 0.4857,0.3144 1.34,3.0203 1.8983,6.0129 0.5583,2.9927 1.4439,5.8727 1.9679,6.4 0.524,0.5274 1.6309,2.8488 2.4597,5.1588 0.8288,2.31 1.7469,4.2 2.0402,4.2 0.2933,0 1.1519,1.62 1.9081,3.6 0.7562,1.98 1.6232,3.6 1.9268,3.6 0.3035,0 1.2304,1.26 2.0598,2.8 0.8293,1.54 1.7565,2.8 2.0604,2.8 0.3039,0 1.2019,1.44 1.9955,3.2 0.7937,1.76 1.741,3.2 2.1053,3.2 0.3642,0 1.4038,1.4537 2.3103,3.2305 0.9064,1.7768 2.4438,4.1477 3.4163,5.2686 l 1.7681,2.038 0.2337,-7.0422 c 0.1285,-3.8731 0.5523,-7.239 0.9418,-7.4797 z m -42.3755,-57.54851 c 0,-0.84333 0.4205,-1.6735 0.9345,-1.84482 0.6212,-0.20707 1.2006,-4.90709 1.7283,-14.02035 l 0.7939,-13.70885 -4.0025,-3.91914 c -2.7703,-2.71267 -4.3412,-5.06651 -5.103,-7.64632 -0.6053,-2.04995 -1.3819,-3.72719 -1.7258,-3.72719 -0.344,0 -0.6254,-1.3599 -0.6254,-3.02199 0,-2.94228 -1.77,-6.57801 -3.2025,-6.57801 -0.3915,0 -2.801,-1.21497 -5.3546,-2.69995 -4.1782,-2.42969 -9.9413,-4.76952 -7.7647,-3.15245 0.4829,0.35882 1.5117,3.2624 2.2861,6.4524 0.7745,3.19 1.68,5.8 2.0124,5.8 0.3324,0 1.249,2.07 2.037,4.6 0.7879,2.53 1.657,4.78 1.9313,5 0.6582,0.52806 3.255,8.98734 3.255,10.60365 0,0.69466 0.2866,1.38302 0.6369,1.52969 0.3503,0.14666 1.4546,3.86049 2.4542,8.25294 0.9995,4.39246 2.1157,8.17246 2.4803,8.4 0.3647,0.22755 1.0792,1.96226 1.5878,3.85492 0.5086,1.89266 1.4321,3.63592 2.0523,3.87391 0.6202,0.23798 1.3456,1.11945 1.612,1.9588 0.6279,1.97833 1.9765,1.97339 1.9765,-0.007 z m -30.5112,-33.58215 c -0.5549,-2.68649 -1.2969,-4.88452 -1.6488,-4.88452 -0.352,0 -0.64,-0.648 -0.64,-1.44 0,-1.95411 -1.5121,-3.32683 -3.0975,-2.81183 -3.8271,1.24329 -6.5682,2.89262 -6.3496,3.82063 0.2619,1.11162 11.9767,10.96833 12.4607,10.4843 0.1562,-0.15624 -0.1699,-2.4821 -0.7248,-5.16858 z m 126.1223,-6.70926 c 0.6811,-0.78361 1.8339,-2.67361 2.5618,-4.2 0.7279,-1.52639 1.5552,-2.77526 1.8385,-2.77526 0.2833,0 1.3582,-1.8 2.3886,-4 1.0304,-2.2 2.1778,-4 2.5497,-4 0.3719,0 1.2771,-1.26 2.0114,-2.8 0.7344,-1.54 1.5739,-2.8 1.8656,-2.8 0.2917,0 1.2086,-1.53 2.0377,-3.4 0.829,-1.87 1.9382,-3.85024 2.4648,-4.40053 0.5267,-0.5503 1.3851,-3.0703 1.9076,-5.6 0.5224,-2.52971 1.2094,-4.77947 1.5264,-4.99947 0.7438,-0.51602 2.4024,-9.00845 1.9138,-9.79898 -0.2043,-0.33056 -1.22,-0.60102 -2.2571,-0.60102 -1.0789,0 -3.2836,-1.3035 -5.1528,-3.0465 -3.1859,-2.97078 -3.2671,-3.17794 -3.2671,-8.33334 0,-2.99927 0.3654,-5.40863 0.8445,-5.56833 0.4923,-0.16407 1.1604,-5.11456 1.6016,-11.86667 0.8079,-12.36502 1.3499,-15.98516 2.3933,-15.98516 0.359,0 0.8612,-0.65654 1.1159,-1.45897 0.2546,-0.80244 1.2464,-2.29986 2.2039,-3.32761 1.4294,-1.53424 1.84,-3.24162 2.2947,-9.54103 0.6474,-8.96853 1.4638,-13.67239 2.3731,-13.67239 0.3569,0 1.0533,-1.22514 1.5475,-2.72254 1.6087,-4.87467 9.5468,-11.60454 14.466,-12.26435 2.8512,-0.38242 3.1724,-0.67366 3.658,-3.31618 0.2928,-1.59331 0.7738,-3.07693 1.069,-3.29693 0.2952,-0.22 0.9398,-3.28 1.4326,-6.8 0.4927,-3.52 1.1504,-7.24499 1.4615,-8.27775 0.5367,-1.78154 0.4681,-1.82253 -1.3382,-0.8 -1.0471,0.59276 -2.3787,1.70775 -2.959,2.47775 -0.5803,0.77 -1.4847,1.40103 -2.0097,1.4023 -2.0851,0.005 -19.4885,18.38133 -20.2648,21.3977 -0.2548,0.99 -0.7545,1.8 -1.1104,1.8 -0.3559,0 -1.2884,1.71 -2.0722,3.8 -0.7838,2.09 -1.6513,3.98 -1.9277,4.2 -0.2764,0.22 -1.1411,2.38 -1.9215,4.8 -0.7804,2.42 -1.6701,4.58 -1.977,4.8 -0.3069,0.22 -1.2277,2.65 -2.0462,5.4 -0.8185,2.75 -1.7278,5 -2.0207,5 -0.2929,0 -1.3941,2.79 -2.4473,6.2 -1.0531,3.41 -2.1526,6.38 -2.4433,6.6 -0.2907,0.22 -1.1782,2.47 -1.9722,5 -0.794,2.53 -1.7043,4.6 -2.023,4.6 -0.3187,0 -1.2022,1.98 -1.9634,4.4 -0.7612,2.42 -1.6413,4.4 -1.9558,4.4 -0.3144,0 -1.2226,2.43 -2.0182,5.4 -0.7955,2.97 -1.6977,5.58 -2.0048,5.8 -0.3071,0.22 -1.1981,3.28 -1.9799,6.8 -1.9844,8.93396 -0.43,45.85877 1.9641,46.6568 0.4563,0.1521 0.8296,1.45373 0.8296,2.89252 0,1.43879 0.2275,4.7926 0.5056,7.45292 l 0.5055,4.83695 2.2808,-2.51959 c 1.2545,-1.38578 2.8381,-3.16073 3.5192,-3.94434 z m -23.0554,-13.97526 c -0.084,-12.60333 1.647,-36.2 2.6555,-36.2 0.3324,0 0.8535,-2.07 1.1578,-4.6 0.6578,-5.46731 2.0814,-11.64028 2.8137,-12.2 0.2878,-0.22 1.3595,-3.37 2.3815,-7 1.022,-3.63 2.1111,-6.6 2.4203,-6.6 0.3092,0 1.2319,-2.25 2.0504,-5 0.8185,-2.75 1.704,-5.18 1.9677,-5.4 0.2638,-0.22 1.1481,-2.2 1.9651,-4.4 0.8171,-2.2 1.7124,-4.18 1.9897,-4.4 0.2772,-0.22 1.1948,-2.47 2.039,-5 0.8442,-2.53 1.7493,-4.6 2.0113,-4.6 0.2619,0 1.1478,-1.89 1.9685,-4.2 0.8207,-2.31 1.7384,-4.38 2.0393,-4.6 0.3008,-0.22 1.3739,-2.92 2.3845,-6 1.0107,-3.08 2.0964,-5.78 2.4128,-6 0.7501,-0.52165 3.1872,-8.97592 3.1872,-11.05646 0,-0.88561 0.3748,-1.73515 0.833,-1.88785 0.4581,-0.15271 1.3467,-3.87271 1.9746,-8.26667 1.492,-10.44013 1.3684,-14.06729 -0.1632,-4.7917 -0.6537,3.95853 -1.4482,7.37853 -1.7656,7.6 -0.3175,0.22148 -1.225,2.83268 -2.0168,5.80268 -0.7918,2.97 -1.7097,5.4 -2.0397,5.4 -0.33,0 -1.42,2.88 -2.4223,6.4 -1.0023,3.52 -2.0753,6.4 -2.3845,6.4 -0.3092,0 -1.2162,2.16 -2.0155,4.8 -0.7993,2.64 -1.7163,4.8 -2.0378,4.8 -0.3215,0 -1.2179,2.34 -1.9921,5.2 -0.7741,2.86 -1.6652,5.2 -1.9801,5.2 -0.3149,0 -1.2185,1.71 -2.0079,3.8 -0.7895,2.09 -1.6582,3.98 -1.9305,4.2 -0.2723,0.22 -1.1592,2.56 -1.9709,5.2 -0.8116,2.64 -1.7135,4.98 -2.0042,5.2 -0.2907,0.22 -1.3902,3.19 -2.4434,6.6 -1.0531,3.41 -2.1755,6.2 -2.4941,6.2 -0.3187,0 -1.0118,1.80255 -1.5403,4.00566 -0.5286,2.20312 -1.4193,4.27312 -1.9795,4.6 -0.5601,0.32689 -1.1929,1.85434 -1.406,3.39434 -1.1115,8.0293 -2.5701,14.85907 -3.2732,15.32512 -2.1973,1.4567 -0.7326,33.93506 1.5452,34.26263 0.047,0.007 0.079,-0.97775 0.071,-2.18775 z m -8.5557,-85.4 c 0,-3.62013 -0.3038,-5.20372 -1,-5.21225 -0.6666,-0.008 -0.6,-0.27075 0.2,-0.78775 0.66,-0.42652 0.8033,-0.78101 0.3184,-0.78775 -0.5366,-0.007 -1.0703,-2.7511 -1.3639,-7.01225 -1.6523,-23.98211 -2.4258,-32.64676 -2.9456,-33 -0.6162,-0.41872 -1.2432,-8.63923 -2.1223,-27.82601 -0.2879,-6.2843 -0.8302,-11.61555 -1.2051,-11.84721 -0.9347,-0.57771 -0.8378,4.72096 0.5206,28.47322 1.99,34.79421 2.2215,37.98821 2.7829,38.4 0.2999,0.22 0.9863,4.9 1.5253,10.4 0.5391,5.5 1.1817,10.99 1.4282,12.2 0.8118,3.98584 1.8615,2.29409 1.8615,-3 z m 18.0564,-2.2 c 0.8247,-1.87 1.6993,-3.58 1.9436,-3.8 0.2443,-0.22 1.1479,-2.02 2.0079,-4 0.8601,-1.98 1.9912,-4.04671 2.5135,-4.59269 0.5223,-0.54598 1.3666,-2.25598 1.8762,-3.8 0.5096,-1.54402 1.2001,-2.80731 1.5345,-2.80731 0.3344,0 1.295,-2.07 2.1346,-4.6 0.8396,-2.53 1.7588,-4.78 2.0428,-5 0.7583,-0.58759 3.0905,-8.7967 3.0905,-10.87853 0,-0.98348 0.3754,-1.91325 0.8341,-2.06617 2.3219,-0.77394 2.2666,-30.36234 -0.059,-31.85595 -0.9839,-0.63173 -2.3747,-19.73127 -2.3747,-32.60986 v -11.72335 l -5.5067,-5.23307 c -3.6403,-3.45936 -5.8758,-6.31769 -6.5957,-8.43307 -0.599,-1.76 -1.4244,-3.44045 -1.8343,-3.73433 -1.2968,-0.92981 -1.011,-13.01682 0.3429,-14.50121 3.3722,-3.69728 3.3928,-3.75264 2.3455,-6.28119 -0.5512,-1.33075 -1.5759,-2.99447 -2.277,-3.69715 -1.546,-1.54956 -1.681,-20.31734 -0.1498,-20.82775 0.4813,-0.16044 0.8751,-1.54064 0.8751,-3.06711 0,-3.47088 2.328,-13.89126 3.1034,-13.89126 0.3164,0 1.0095,-1.20099 1.5403,-2.66886 1.1053,-3.0567 8.4299,-8.91268 12.1774,-9.73576 1.9763,-0.43407 2.3789,-0.91797 2.3789,-2.85895 0,-1.28504 0.3275,-2.33643 0.7277,-2.33643 0.4003,0 1.1392,-2.43938 1.6421,-5.42085 0.5029,-2.98146 1.1654,-5.78686 1.4723,-6.23422 0.8341,-1.216 9.8112,-8.34493 10.5083,-8.34493 0.3321,0 0.8397,-4.38918 1.1282,-9.75372 0.2884,-5.36455 0.8366,-9.95455 1.2181,-10.2 0.3815,-0.24546 0.9312,-3.32628 1.2214,-6.84628 0.2902,-3.52 0.706,-8.56 0.9239,-11.2 0.7091,-8.58886 1.2966,-12.4 1.9116,-12.4 0.3319,0 1.2528,-1.44 2.0464,-3.2 1.0084,-2.23609 1.9486,-3.20767 3.1215,-3.22545 2.8109,-0.0426 4.3756,-1.90121 5.6189,-6.67461 1.3975,-5.36561 1.1042,-6.51873 -1.9273,-7.57549 -3.5962,-1.25365 -5.1493,0.87406 -6.6655,9.13142 -0.7082,3.85697 -1.5933,7.22225 -1.9668,7.4784 -0.3736,0.25615 -1.3445,2.98573 -2.1577,6.06573 -0.8132,3.08 -1.7334,5.78 -2.0448,6 -0.3114,0.22 -1.1897,2.56 -1.9518,5.2 -0.7621,2.64 -1.6213,4.98 -1.9094,5.2 -0.2882,0.22 -1.2108,2.47 -2.0504,5 -0.8396,2.53 -1.7558,4.6 -2.0359,4.6 -0.2801,0 -0.9636,1.25622 -1.5188,2.7916 -0.5552,1.53538 -1.4375,3.25087 -1.9607,3.8122 -0.5232,0.56133 -1.6678,2.45511 -2.5436,4.2084 -0.8758,1.75329 -1.7796,3.3678 -2.0084,3.5878 -0.2289,0.22 -1.2838,2.29 -2.3444,4.6 -1.0606,2.31 -2.1699,4.2 -2.465,4.2 -0.2951,0 -0.9632,1.42392 -1.4847,3.16426 -0.5214,1.74035 -1.4086,3.63035 -1.9715,4.2 -0.5629,0.56966 -1.7109,2.20574 -2.5511,3.63574 -0.8401,1.43 -1.7553,2.6 -2.0336,2.6 -0.2783,0 -1.1553,1.44 -1.949,3.2 -0.7936,1.76 -1.6916,3.2 -1.9955,3.2 -0.3039,0 -1.2311,1.26 -2.0604,2.8 -0.8294,1.54 -1.7198,2.8 -1.9788,2.8 -0.259,0 -1.2915,1.98 -2.2946,4.4 -1.003,2.42 -2.1195,4.4 -2.481,4.4 -0.3615,0 -1.276,1.62 -2.0322,3.6 -0.7562,1.98 -1.657,3.6 -2.0019,3.6 -0.3448,0 -1.249,1.89 -2.0092,4.2 -0.7603,2.31 -1.6489,4.38 -1.9747,4.6 -0.3258,0.22 -1.2131,3.46 -1.9717,7.2 -0.7586,3.74 -1.6936,6.99792 -2.0777,7.23981 -1.7547,1.10506 -2.6507,23.73786 -1.6682,42.13917 0.5351,10.02156 0.9668,20.83102 0.9594,24.02102 -0.01,3.3423 0.3255,5.8 0.7865,5.8 0.4493,0 0.7948,2.19206 0.7881,5 -0.018,7.39981 2.5423,39.33575 3.1902,39.8 0.3071,0.22 1.2201,7.87 2.0289,17 0.8088,9.13 1.7309,16.6 2.0491,16.6 0.538,0 1.6078,6.87544 2.7696,17.8 0.5926,5.57173 1.9273,5.96912 4.0305,1.2 z m -33.2741,-20.39162 c -0.52,-2.97461 -1.1281,-6.57838 -1.3514,-8.00838 -0.2233,-1.43 -0.7079,-2.6 -1.077,-2.6 -0.3691,0 -1.2772,-2.16 -2.0179,-4.8 -0.7408,-2.64 -1.6024,-4.8 -1.9147,-4.8 -0.3124,0 -1.2219,-2.16 -2.0213,-4.8 -0.7993,-2.64 -1.6897,-4.8 -1.9787,-4.8 -0.289,0 -1.3515,-2.34 -2.3611,-5.2 -1.0097,-2.86 -2.0817,-5.2 -2.3823,-5.2 -0.3006,0 -1.2196,-1.98 -2.0421,-4.4 -0.8226,-2.42 -1.7788,-4.4 -2.1248,-4.4 -0.3461,0 -1.2534,-1.98 -2.0162,-4.4 -0.7628,-2.42 -1.6523,-4.4 -1.9766,-4.4 -0.3243,0 -1.2116,-1.89 -1.9718,-4.2 -0.7603,-2.31 -1.6361,-4.38 -1.9464,-4.6 -0.3102,-0.22 -1.2102,-2.38 -2,-4.8 -0.7897,-2.42 -1.7516,-4.6067 -2.1376,-4.85934 -0.3859,-0.25263 -1.3079,-3.04263 -2.0489,-6.2 -1.3426,-5.72102 -2.6135,-7.53998 -2.6135,-3.74066 0,1.1 0.3011,2 0.6692,2 0.368,0 1.3269,2.88 2.1308,6.4 0.804,3.52 1.7442,6.4 2.0895,6.4 0.3453,0 1.2338,2.16 1.9746,4.8 0.7407,2.64 1.5807,4.8 1.8667,4.8 0.286,0 1.0041,1.6399 1.5959,3.64421 0.5918,2.00432 1.5034,4.07432 2.0258,4.6 0.5224,0.52569 1.6279,2.84579 2.4567,5.15579 0.8288,2.31 1.7355,4.2 2.015,4.2 0.2794,0 1.1983,2.16 2.0418,4.8 0.8435,2.64 1.783,4.8 2.0877,4.8 0.3047,0 1.3657,2.52 2.3577,5.6 0.9919,3.08 2.0672,5.6 2.3893,5.6 0.3222,0 1.1871,2.07 1.9221,4.6 0.735,2.53 1.5803,4.78 1.8786,5 0.7812,0.57629 3.2986,9.02478 3.2986,11.07031 0,0.95133 0.36,1.72969 0.8,1.72969 0.44,0 0.802,0.45 0.8045,1 0,0.55 0.4132,2.44 0.9127,4.2 1.336,4.70674 1.7569,2.05392 0.6651,-4.19162 z m 78.2439,-37.60838 c 0.5985,-0.55 1.5224,-1 2.0532,-1 0.5308,0 1.5501,-0.63 2.2651,-1.4 0.715,-0.77 2.505,-2.21797 3.9778,-3.21772 10.9714,-7.44767 12.025,-8.44597 11.5294,-10.92407 -0.2617,-1.30827 -0.846,-2.60751 -1.2986,-2.88719 -2.5897,-1.60053 -2.5952,-26.15697 -0.01,-27.02002 0.4413,-0.1471 1.0419,-1.59125 1.3346,-3.20922 0.627,-3.46555 2.2923,-6.95126 4.4035,-9.21737 0.8332,-0.89436 1.5149,-2.02119 1.5149,-2.50406 0,-1.58052 6.6668,-6.0441 9.7681,-6.54002 2.973,-0.4754 3.0319,-0.5528 3.0319,-3.98258 0,-1.92376 0.36,-3.49775 0.8,-3.49775 0.44,0 0.8,-0.83587 0.8,-1.85749 0,-1.02162 0.5648,-3.51506 1.2551,-5.54097 1.6948,-4.97401 1.3365,-9.50067 -0.5979,-7.55335 -0.7386,0.74349 -1.5638,1.35181 -1.8338,1.35181 -0.6013,0 -2.2361,1.30356 -5.2672,4.2 -1.2662,1.21 -2.4489,2.2 -2.6281,2.2 -0.1792,0 -1.8523,1.39527 -3.7179,3.10061 -3.1421,2.87216 -7.5707,4.89939 -10.703,4.89939 -0.7189,0 -1.3072,0.54 -1.3072,1.2 0,0.66 -0.2942,1.2 -0.6539,1.2 -0.7191,0 -3.3461,7.74897 -3.3461,9.87031 0,0.73133 -0.3011,1.32969 -0.6691,1.32969 -0.368,0 -1.3269,2.88 -2.1309,6.4 -0.8039,3.52 -1.7197,6.4 -2.0351,6.4 -0.3154,0 -1.2267,4.23 -2.0251,9.4 -0.7984,5.17 -1.6573,9.58 -1.9087,9.8 -0.2513,0.22 -1.2935,5.43877 -2.316,11.59726 -1.0224,6.15849 -2.1309,11.37849 -2.4633,11.6 -0.3324,0.22151 -0.8094,1.66274 -1.06,3.20274 -0.2506,1.54 -0.7185,3.46565 -1.0397,4.27922 -0.6289,1.59282 1.7165,0.67135 4.2741,-1.67922 z m -14.5421,-17.61225 c 1.2096,-0.80417 2.5186,-5.26852 3.1631,-10.78775 0.2955,-2.53 0.8068,-4.6 1.1363,-4.6 0.3295,0 0.8257,-1.53 1.1026,-3.4 0.277,-1.87 0.8467,-5.70682 1.2659,-8.52626 0.4192,-2.81945 1.065,-5.33945 1.4351,-5.6 0.3701,-0.26056 1.3509,-3.98374 2.1797,-8.27374 0.8287,-4.29 1.7691,-7.8 2.0897,-7.8 0.787,0 3.3195,-11.57094 2.9988,-13.7014 -0.2255,-1.49727 -0.746,-1.21134 -4.4553,2.44733 -2.31,2.27846 -4.2,4.4025 -4.2,4.72008 0,0.31757 -1.0659,1.74444 -2.3687,3.17081 -1.3028,1.42637 -2.6528,3.05527 -3,3.61978 -0.3472,0.56451 -2.0713,2.16502 -3.8313,3.55669 l -3.2,2.53031 0.5258,18.13514 c 0.2892,9.97433 0.8673,18.35702 1.2846,18.6282 0.4174,0.27118 1.0071,1.84306 1.3105,3.49306 0.5603,3.04693 0.9815,3.43931 2.5632,2.38775 z m -79.0338,-110.4045 c 0.6054,-0.2018 0.9522,-2.2503 0.9566,-5.64992 0,-2.93333 0.3475,-9.29333 0.7639,-14.13333 0.4163,-4.84 1.1497,-15.98893 1.6297,-24.77541 0.48,-8.78647 1.1586,-16.16647 1.508,-16.4 0.6831,-0.45659 3.6957,-49.0431 3.1933,-51.50162 -0.2761,-1.35142 -5.1083,-3.67969 -7.7018,-3.71093 -0.7405,-0.009 -1,2.28576 -1,8.84244 0,9.32587 -2.1038,26.55882 -3.2977,27.01218 -0.8529,0.32387 -0.9493,5.73181 -0.1023,5.73704 0.33,0.002 1.8204,1.14739 3.312,2.54522 l 2.712,2.54152 -0.4869,7.99205 c -0.2678,4.39563 -0.7829,8.20028 -1.1448,8.45478 -0.3619,0.2545 -1.3331,3.88273 -2.1583,8.06273 -0.8252,4.18 -1.7104,7.78 -1.9672,8 -0.2567,0.22 -1.1027,2.89023 -1.8799,5.93384 -0.8288,3.24603 -2.0291,5.96533 -2.9031,6.57755 -1.1946,0.83672 -1.6035,2.55534 -2.0616,8.66616 -0.3143,4.19234 -0.8979,7.62245 -1.2968,7.62245 -0.399,0 -0.7254,1.02628 -0.7254,2.28062 0,5.3578 -2.6249,8.84341 -8.4258,11.1885 -2.3549,0.95202 -2.4317,1.14935 -2.6306,6.75577 -0.3071,8.65805 2.5402,38.11583 3.766,38.96268 0.3283,0.22684 1.261,3.65243 2.0725,7.61243 0.8116,3.96 1.6982,7.38 1.9702,7.6 0.2721,0.22 1.1741,3.1 2.0045,6.4 0.8304,3.3 1.7297,6.18 1.9983,6.4 0.2687,0.22 1.1271,2.47 1.9076,5 0.7805,2.53 1.6861,4.6 2.0125,4.6 0.3264,0 1.2882,2.07 2.1374,4.6 0.8491,2.53 2.0036,5.07571 2.5656,5.65714 0.562,0.58143 1.0864,1.48143 1.1652,2 0.079,0.51857 0.3715,-21.89468 0.6503,-49.80723 0.3802,-38.07368 0.7441,-50.82916 1.4566,-51.06666 z m 13.7885,95.21675 c 0.021,-1.65 0.013,-17.4 -0.019,-35 -0.06,-33.45059 1.7699,-78.98346 3.1942,-79.46667 0.9249,-0.31377 1.0802,-12.13333 0.1595,-12.13333 -0.6324,0 -2.1249,11.00475 -3.0921,22.8 -0.2886,3.52 -0.92,6.65666 -1.4031,6.97035 -1.9468,1.26421 -1.5482,99.82965 0.4037,99.82965 0.3949,0 0.7355,-1.35 0.7568,-3 z m -48.9293,-43.90938 c -0.5367,-3.89984 -1.2209,-7.27062 -1.5204,-7.49062 -0.2995,-0.22 -0.773,-2.2 -1.0522,-4.4 -0.2793,-2.2 -0.867,-6.34 -1.3062,-9.2 -0.4392,-2.86 -0.8057,-6.73 -0.8146,-8.6 -0.01,-1.87 -0.3761,-3.4 -0.8161,-3.4 -0.44,0 -0.796,-0.63 -0.7912,-1.4 0.017,-2.62761 -3.5686,-19.79921 -4.1896,-20.06667 -0.3406,-0.14667 -0.6241,-1.22667 -0.6301,-2.4 -0.025,-4.92097 -0.4715,-5.32641 -5.9679,-5.42108 -2.8018,-0.0483 -6.522,-0.65903 -8.2671,-1.35727 -1.7451,-0.69824 -3.3553,-1.08713 -3.5782,-0.8642 -0.4316,0.4316 1.723,5.23643 2.6498,5.90922 0.3031,0.22 1.1796,1.62613 1.9478,3.12474 0.7681,1.49861 2.0441,3.41976 2.8355,4.26922 0.7914,0.84947 1.6862,2.86251 1.9884,4.47343 0.3022,1.61092 0.86,3.12085 1.2395,3.3554 1.7219,1.06421 2.6542,12.17525 1.6779,19.99795 -1.0556,8.45803 -0.6188,10.88991 2.5182,14.02014 2.6961,2.69032 4.8706,5.32573 6.4462,7.81261 0.7853,1.23942 2.0337,2.91293 2.7743,3.71892 0.7406,0.80598 2.2052,2.41323 3.2547,3.57166 2.6057,2.87618 2.7199,2.47324 1.6013,-5.65345 z m 59.2905,-42.96821 c 0,-0.59268 0.7043,-1.88964 1.5651,-2.88213 0.8608,-0.99249 1.9687,-3.02757 2.462,-4.52241 0.4934,-1.49483 1.1744,-2.71787 1.5135,-2.71787 0.339,0 1.2658,-1.44 2.0594,-3.2 0.7937,-1.76 1.6605,-3.2 1.9262,-3.2 0.2658,0 0.9648,-1.088 1.5535,-2.41778 0.5886,-1.32979 1.4873,-2.85979 1.9972,-3.4 0.5098,-0.54022 1.638,-2.33222 2.507,-3.98222 0.869,-1.65 1.8489,-3 2.1775,-3 0.3286,0 1.1778,-1.17 1.887,-2.6 l 1.2896,-2.6 -2.669,2.89733 c -3.766,4.08825 -5.0005,5.66265 -6.713,8.56181 -0.8255,1.39747 -1.7287,2.54086 -2.007,2.54086 -0.2783,0 -1.1553,1.44 -1.949,3.2 -0.7936,1.76 -1.6691,3.2 -1.9454,3.2 -0.2763,0 -1.2009,1.8 -2.0546,4 -0.8537,2.2 -1.7991,4 -2.1009,4 -0.3018,0 -1.1007,1.62 -1.7753,3.6 -0.6747,1.98 -0.8885,3.6 -0.4752,3.6 0.4133,0 0.7514,-0.48492 0.7514,-1.07759 z m 10.8049,-35.73765 c 0.2128,-0.67056 1.3788,-2.32574 2.591,-3.67816 1.2123,-1.35243 3.2841,-3.79942 4.6041,-5.43775 1.32,-1.63834 3.12,-3.85886 4,-4.93449 0.88,-1.07564 2.5,-3.07052 3.6,-4.43308 1.1,-1.36256 2.952,-3.53134 4.1155,-4.8195 1.1635,-1.28816 2.5571,-3.40854 3.097,-4.71195 0.5399,-1.30341 1.2555,-2.36983 1.5903,-2.36983 0.3348,0 1.2811,-2.15693 2.103,-4.79316 0.8218,-2.63624 1.7642,-4.79624 2.0942,-4.8 0.9179,-0.0105 0.7137,-3.03562 -0.226,-3.34884 -0.5285,-0.17618 -1.0058,-8.94206 -1.3255,-24.34273 l -0.4995,-24.06741 -2.2745,1.13466 c -1.251,0.62407 -2.2745,1.38304 -2.2745,1.68661 0,2.48302 -12.6872,9.73087 -17.0337,9.73087 h -2.6851 l -0.9477,13.8 c -0.5212,7.59 -0.9444,17.13 -0.9406,21.2 0,4.07 -0.2965,7.4 -0.6675,7.4 -0.3711,0 -0.9033,5.67 -1.1827,12.6 -0.2793,6.93 -0.7523,15.96842 -1.0511,20.08537 l -0.5433,7.48538 1.7348,-1.0834 c 0.9541,-0.59586 1.9089,-1.63203 2.1218,-2.30259 z m 38.6118,-59.03476 c 0.6142,-1.8425 1.4177,-3.35 1.7857,-3.35 0.368,0 1.2669,-1.8 1.9976,-4 0.7307,-2.2 1.6008,-4 1.9335,-4 0.3326,0 1.2626,-2.88 2.0665,-6.4 0.804,-3.52 1.6968,-6.4 1.9841,-6.4 0.2873,0 0.9908,-2.35668 1.5633,-5.23705 0.5726,-2.88038 1.5386,-5.73467 2.1468,-6.34286 1.2386,-1.23863 1.5064,-4.42009 0.372,-4.42009 -0.4036,0 -1.3751,-1.71 -2.1589,-3.8 -0.7838,-2.09 -1.7815,-4.04318 -2.217,-4.3404 -0.4355,-0.29722 -0.9494,-3.83594 -1.142,-7.86383 -0.3848,-8.04854 -0.9318,-8.85947 -4.8744,-7.22638 -2.8036,1.16129 -3.8644,6.70604 -4.6356,24.23061 -0.2663,6.05 -0.7888,11 -1.1612,11 -1.1557,0 -0.839,23.80095 0.3229,24.27243 0.753,0.30552 0.7036,0.61842 -0.2,1.26666 -1.0666,0.76525 -1.0666,0.94843 0,1.64866 0.8025,0.52677 0.8687,0.7918 0.2,0.8 -0.55,0.007 -1,0.94225 -1,2.07891 0,3.06791 1.7193,1.97556 3.0167,-1.91666 z m -55.5357,-87.15 c 0.2821,-2.97 0.8615,-9.00001 1.2875,-13.40001 1.494,-15.43261 0.6392,-25.86697 -2.3267,-28.4 -0.5193,-0.44357 -2.4502,-7.16903 -3.0431,-10.6 -0.2092,-1.21 -0.6678,-2.2 -1.0192,-2.2 -0.3513,0 -0.8886,-1.47847 -1.1939,-3.28548 l -0.5551,-3.28549 -2.2155,2.42561 c -1.2185,1.33409 -4.0708,3.39575 -6.3384,4.58148 -7.5772,3.96202 -7.9779,9.26708 -0.9032,11.95875 6.0253,2.29242 6.6885,4.55639 6.1564,21.01555 -0.2882,8.91546 -0.1342,12.47745 0.5705,13.2 2.1427,2.19688 3.6997,5.04498 3.6997,6.76759 0,1.0021 0.3314,1.822 0.7365,1.822 0.405,0 0.9736,1.08 1.2635,2.4 1.0547,4.8017 3.3051,3.06212 3.881,-3 z m 7.3723,-84.01226 c 1.5575,-1.07278 3.7244,-13.967 3.2696,-19.45503 -1.3537,-16.33351 -2.6536,-20.36036 -5.2967,-16.40859 -0.6744,1.00835 -1.8961,2.49358 -2.7149,3.3005 -1.5383,1.516 -1.4046,8.10171 0.1854,9.13197 0.3763,0.24387 1.1634,5.7534 1.7489,12.2434 0.5856,6.49 1.2648,11.79449 1.5095,11.78775 0.2447,-0.007 0.8289,-0.27673 1.2982,-0.6 z"
       id="path1" />
  </g>
</svg>
