<?xml version="1.0" encoding="UTF-8" standalone="no"?>
<!-- Created with Inkscape (http://www.inkscape.org/) -->

<svg
   version="1.1"
   id="svg1"
   width="2784"
   height="1536"
   viewBox="0 0 2784 1536"
   sodipodi:docname="Tree1.svg"
   inkscape:version="1.4.2 (f4327f4, 2025-05-13)"
   xmlns:inkscape="http://www.inkscape.org/namespaces/inkscape"
   xmlns:sodipodi="http://sodipodi.sourceforge.net/DTD/sodipodi-0.dtd"
   xmlns="http://www.w3.org/2000/svg"
   xmlns:svg="http://www.w3.org/2000/svg">
  <defs
     id="defs1" />
  <sodipodi:namedview
     id="namedview1"
     pagecolor="#ffffff"
     bordercolor="#000000"
     borderopacity="0.25"
     inkscape:showpageshadow="2"
     inkscape:pageopacity="0.0"
     inkscape:pagecheckerboard="0"
     inkscape:deskcolor="#d1d1d1"
     inkscape:zoom="0.18586559"
     inkscape:cx="1622.1399"
     inkscape:cy="1030.3144"
     inkscape:window-width="1920"
     inkscape:window-height="991"
     inkscape:window-x="-9"
     inkscape:window-y="-9"
     inkscape:window-maximized="1"
     inkscape:current-layer="g1" />
  <g
     inkscape:groupmode="layer"
     inkscape:label="Image"
     id="g1">
    <path
       id="path1"
       style="fill:#000000"
       d="m 1360.1022,61.012346 c -2.83,-0.107632 -5.6377,2.631155 -8.2031,8.289062 -1.5615,3.44378 -3.4369,5.9399 -6.1914,8.24609 -4.3601,3.65046 -4.3762,3.70674 -5.3906,17.11133 -0.5993,7.918342 -1.1418,8.523042 -3.084,3.4375 -1.6926,-4.4321 -6.0723,-8.4375 -9.2246,-8.4375 -6.5863,0 -10.5241,8.32184 -10.9805,23.201172 -0.1687,5.5 -0.4898,11.16961 -0.7148,12.59961 l -0.4102,2.59961 h -5.4394 c -6.087,0 -7.0233,0.59871 -9.4336,6.0293 -1.6041,3.6141 -1.8826,19.5477 -0.4844,27.74805 0.7378,4.32722 0.674,4.6777 -1.1856,6.40039 -2.8703,2.65902 -2.2162,14.36691 1.4434,25.82226 1.4056,4.4 2.4816,9.08039 2.3906,10.40039 -0.091,1.32 -0.224,8.60902 -0.293,16.19922 -0.069,7.5902 -0.3407,13.80098 -0.6035,13.80078 -2.9329,-0.002 -7.8133,-17.65637 -9.1113,-32.95507 -1.6397,-19.32649 -6.2706,-33.4767 -11.375,-34.75782 -5.5197,-1.38537 -9.7743,10.55926 -9.8203,27.57617 l -0.016,5.86329 -2.2676,-0.49805 c -4.4623,-0.9801 -7.6228,4.27543 -6.8516,11.39453 1.7244,15.9174 2.8924,24.52594 3.5664,26.29883 0.6682,1.75734 0.4626,2.61257 -1.2109,5.02734 -5.1589,7.44432 -5.5364,14.89658 -1.7852,35.25 1.0947,5.94 2.2191,13.00203 2.4981,15.69336 l 0.5058,4.89453 -3.2011,0.51172 c -8.3076,1.32845 -9.9611,10.54291 -4.1114,22.90821 3.1632,6.68636 3.148,6.78943 -1.3418,9.63671 -6.4452,4.08752 -6.5898,7.66984 -0.9921,24.37891 3.7256,11.12108 4.0201,12.58092 4.1992,20.76953 l 0.1933,8.80664 4.4942,9.20117 c 3.6622,7.49404 4.6639,10.44797 5.4004,15.92774 2.1878,16.27787 -0.097,18.79189 -3.4688,3.8164 -1.5086,-6.70078 -2.203,-8.09286 -6.0547,-12.14453 -2.2579,-2.37509 -3.4966,-4.74592 -4.8007,-9.19922 -0.9663,-3.3 -2.9981,-8.63084 -4.5157,-11.8457 -2.7442,-5.81318 -2.7752,-5.84347 -5.6816,-5.59961 -3.2391,0.27177 -5.7715,3.17048 -7.4707,8.55078 -1.2851,4.06919 -1.8164,21.22672 -0.8203,26.49414 0.7758,4.10205 0.714,4.48087 -0.9082,5.59961 -5.0113,3.45606 -5.8356,7.62357 -3.375,17.07032 1.4943,5.73702 1.5462,5.33007 -0.6758,5.33007 -6.6408,0 -7.1032,13.96801 -0.8848,26.72071 l 2.8985,5.9414 -1.6485,1.64844 c -3.6895,3.68947 -3.2412,10.78392 1.4004,22.16797 3.5557,8.72059 5.9673,15.58123 5.5684,15.83984 -0.1416,0.0918 -1.7769,0.82787 -3.6328,1.63477 -6.5741,2.85838 -6.5503,8.5203 0.1054,25.22265 2.3724,5.95346 4.5367,12.80461 4.8086,15.22461 0.5136,4.57002 1.5549,9.73172 3.2578,16.14258 0.9932,3.73875 0.9917,3.74798 -1.7812,6.40039 l -2.7774,2.65625 0.3614,7.19922 c 0.4071,8.13114 1.6914,11.38411 6.7949,17.20117 2.6156,2.98128 3.2367,4.3562 3.6133,8 0.5159,4.99182 2.5072,11.43869 4.4492,14.40039 3.4278,5.22759 7.8783,21.59961 5.8711,21.59961 -0.799,0 -5.2485,-8.93075 -6.959,-13.96875 -6.0515,-17.82428 -13.7469,-25.42965 -19.5156,-19.28906 -1.0036,1.06821 -2.3272,1.74934 -2.9414,1.51367 -2.059,-0.79012 -4.8276,0.48558 -5.9141,2.72461 -2.7773,5.72334 -1.1783,42.9628 2.0606,47.99024 1.4516,2.25325 1.4187,4.99575 -0.084,6.98242 -2.2376,2.95839 -1.5753,14.45641 1.2246,21.24609 2.9126,7.06333 2.9673,8 0.459,8 -5.5521,0 -6.5799,7.21284 -2.8633,20.09766 2.8935,10.03311 2.8982,8.89385 -0.051,10.19922 -2.9479,1.30487 -3.5754,2.78101 -4.3027,10.10351 -0.6054,6.09558 0.9666,18.22222 3.2246,24.87305 1.1814,3.48122 1.1738,4.09141 -0.092,8.11523 -2.2548,7.16859 -1.1808,13.83173 4.0761,25.29102 2.3918,5.21364 4.3477,9.61916 4.3477,9.78906 0,0.001 10e-5,0.003 0,0.004 -6e-4,0.002 -8e-4,0.008 0,0.01 v 0.002 c -8e-4,7.9e-4 0,0.005 -0.01,0.006 -0.1337,0.0737 -1.2492,-0.48143 -2.5898,-1.29883 -3.5524,-2.16593 -5.7631,-1.99359 -7.8359,0.60937 -2.6797,3.36505 -1.0963,21.6941 2.8867,33.42578 1.2705,3.74223 1.2637,3.97445 -0.1113,4.75391 -4.3764,2.4809 -5.1415,4.06738 -5.1055,10.58399 0.031,5.65118 2.5004,15.83635 4.2676,17.60351 0.2747,0.27478 0.498,0.97266 0.498,1.55078 0,0.57812 1.2849,3.05769 2.8535,5.50977 1.5686,2.45209 3.692,6.68999 4.7188,9.41797 1.9839,5.27062 4.1344,10.40125 5.3808,12.83203 0.7153,1.39523 0.3717,2.47274 -0.8183,2.56054 -10.2846,0.75834 -5.5369,22.96757 8.9707,41.96094 3.2776,4.29101 6.0957,8.46281 6.0957,9.02344 0,0.15335 -1.287,0.78343 -2.8594,1.40039 l -2.8594,1.12109 0.2598,5.39258 c 0.2358,4.91178 0.109,5.43058 -1.4121,5.81058 -10.1345,2.5316 -7.614,14.7881 6.1269,29.79098 1.8223,1.9896 1.6718,2.0887 -4.6425,3.0703 -6.3132,0.9815 -8.7662,6.2871 -6.5684,14.2012 0.7948,2.862 11.2171,16.7636 15.1367,20.1895 2.294,2.005 8.0176,9.661 8.0176,10.7246 0,0.4361 -0.9,1.7642 -2,2.9511 -6.0831,6.5638 -0.9146,18.361 10.6172,24.2344 3.3737,1.7183 8.1836,6.0781 8.1836,7.418 0,4.7906 7.2202,11.8975 13.2324,13.0254 1.5322,0.2874 5.4679,1.9709 8.748,3.7402 4.1008,2.2119 6.7291,3.1361 8.4122,2.961 2.8904,-0.301 4.6822,3.4806 12.3847,26.1367 11.3164,33.2927 12.0586,41.0886 11.3164,119.209 -0.3011,31.68 -0.7153,60.8407 -0.9218,64.8007 -0.2065,3.96 -0.7338,17.46 -1.1719,30 -0.4382,12.54 -1.0058,28.74 -1.2598,36 -0.7484,21.3965 -2.5671,45.6198 -3.9394,52.4453 -4.7245,23.5003 -14.9353,38.7501 -31.0567,46.3868 -16.3729,7.7559 -9.3594,7.0583 -73.9453,7.3554 -56.0711,0.258 -57,0.289 -57,1.8379 v 0 c 0,1.5616 1.5611,1.5742 190.8007,1.5742 190.2666,0 190.7989,0 190.7989,-1.5996 0,-1.583 -0.5336,-1.6015 -49.916,-1.6015 -55.983,0 -53.435,0.2362 -66.5665,-6.1699 -16.3952,-7.9987 -28.0014,-26.3682 -32.3007,-51.127 -2.143,-12.3411 -6.3044,-62.2331 -8,-95.9023 -0.4654,-9.24 -1.3849,-26.7008 -2.043,-38.8008 -2.9932,-55.0305 -3.7843,-123.9909 -1.5313,-133.5996 2.7752,-11.8361 19.6486,-58.6807 22.0293,-61.1602 0.4013,-0.418 0.7286,-1.3863 0.7286,-2.1523 0,-1.9396 0.7261,-2.1972 4.4003,-1.5606 4.4315,0.7679 12.9069,-1.4976 17.5489,-4.6914 4.4642,-3.0714 7.2123,-6.698 10.8554,-14.3262 2.5094,-5.2546 3.0337,-5.8223 7.1524,-7.7539 11.7687,-5.5195 22.4876,-14.2695 23.7773,-19.4082 0.2843,-1.1329 0.1553,-3.8266 -0.2871,-5.9863 l -0.8047,-3.9258 3.2715,-2.3691 c 8.6764,-6.2851 8.5861,-14.2229 -0.1894,-16.6543 -5.1028,-1.4139 -5.2849,-1.7094 -3.8086,-6.1543 0.9124,-2.747 2.6462,-5.2467 5.7578,-8.2949 9.7061,-9.50848 11.3264,-21.50018 3.5449,-26.23248 l -2.293,-1.3965 3.625,-5.5664 c 5.9278,-9.10194 13.233,-24.60588 13.6348,-28.93944 0.4483,-4.83443 -1.5829,-7.42774 -5.8164,-7.42774 -3.3845,0 -3.4302,0.73307 0.5254,-8.52539 8.3667,-19.58278 7.7266,-36.01887 -1.3379,-34.31836 -2.7272,0.51163 -4.0401,-1.06803 -1.957,-2.35547 0.44,-0.27193 0.8007,-1.06348 0.8007,-1.75976 0,-0.69627 1.4777,-4.36654 3.2833,-8.1543 4.7435,-9.95128 5.3892,-12.09039 6.7207,-22.24805 1.2423,-9.47686 1.0352,-12.45529 -1.0352,-14.83789 -4.1227,-4.74449 -12.1414,1.94167 -17.2871,14.41602 -1.3738,3.3305 -2.9444,6.20478 -3.4902,6.38672 -2.2767,0.75891 -0.7,-4.58328 4.5136,-15.29297 3.0282,-6.22053 6.4973,-14.36938 7.709,-18.10938 1.2117,-3.74 2.5087,-7.52039 2.8809,-8.40039 1.4421,-3.40961 2.2676,-9.07819 2.2676,-15.59961 0,-8.02378 -1.2386,-10.45388 -5.4024,-10.57226 -2.8986,-0.0824 -2.9578,-0.31457 -1.4434,-5.82813 1.3512,-4.91949 2.289,-7.08876 4.8418,-11.20117 7.5656,-12.18784 12.3022,-25.18394 12.9942,-35.65625 l 0.4531,-6.85742 -3.041,-2.50586 c -1.6719,-1.37807 -3.3122,-2.33552 -3.6465,-2.12891 -1.5793,0.97608 -1.3941,-1.79065 0.5527,-8.2207 9.0981,-30.05057 9.3679,-41.0293 1.0079,-41.0293 -1.4295,0 -2.7206,0.74588 -3.8047,2.19922 -3.1445,4.2158 -5.2465,5.97599 -5.5313,4.62891 -0.1418,-0.67055 0.4587,-2.22691 1.336,-3.45898 4.1991,-5.89704 8.8249,-18.73427 9.4296,-26.16993 0.7487,-9.20531 -4.8236,-14.75313 -9.9863,-9.94336 -1.0311,0.96061 -2.1514,1.42211 -2.5215,1.03711 -0.617,-0.64177 -0.2901,-2.90963 2.8184,-19.49414 2.4053,-12.83231 1.521,-18.73733 -3.1992,-21.3789 -1.2421,-0.6951 -1.2829,-1.64912 -0.4824,-11.01563 1.0173,-11.90453 0.1303,-15.33218 -4.3379,-16.76953 -1.32,-0.42462 -2.4687,-0.79617 -2.5547,-0.82617 -0.2713,-0.095 2.3024,-9.81892 7.3105,-27.60938 4.8262,-17.14452 4.7955,-23.62783 -0.1367,-28.41797 l -2.9102,-2.82617 1.2657,-3.77734 c 0.6965,-2.07778 2.5675,-7.34153 4.1562,-11.69531 3.6999,-10.1397 5.4604,-17.76883 4.8106,-20.84961 -0.7388,-3.50261 -3.455,-7.63957 -5.5332,-8.42969 -2.1211,-0.80646 -2.0244,-1.76074 1.9707,-19.47656 5.2191,-23.14342 4.0375,-35.16255 -3.6582,-37.22071 l -2.25,-0.60351 0.2304,-10.82031 c 0.2504,-11.72367 -0.5961,-16.75211 -3.3125,-19.6836 -4.6013,-4.96562 -10.5053,0.49396 -14.9257,13.80078 -1.0232,3.08 -3.3231,8.48 -5.1114,12 -1.7883,3.52 -3.9948,7.92918 -4.9023,9.79883 -1.4598,3.00767 -3.6262,4.97998 -2.6367,2.40039 1.1354,-2.9601 5.424,-26.61073 5.6777,-31.31055 0.2328,-4.31302 0.426,-4.66091 5.2539,-9.48242 5.9427,-5.93482 6.6523,-7.19307 8.3828,-14.87109 1.4309,-6.34903 1.2107,-9.27669 -1.2012,-15.96484 -2.161,-5.99238 -2.0904,-6.37328 3.6289,-19.73243 9.295,-21.71087 10.0038,-33.19911 2.4356,-39.4375 l -2.7949,-2.30468 2.0293,-5.94727 c 5.8409,-17.11364 6.5437,-24.4287 2.6914,-28.02734 -1.3666,-1.27653 -3.1195,-2.32032 -3.8946,-2.32032 -1.2527,0 -1.4498,-1.13462 -1.7773,-10.20507 -0.3971,-10.99587 -1.2051,-13.7873 -4.748,-16.40821 -4.2599,-3.15137 -8.2963,1.29966 -12.0059,13.24024 -2.4281,7.81548 -2.49,7.91452 -5.9199,9.38476 -4.4725,1.91714 -5.3309,3.37365 -8.2598,14.0293 -3.0443,11.0756 -3.835,13.1582 -5.0019,13.1582 -0.6657,0 -0.7721,-1.31302 -0.3731,-4.59961 0.3072,-2.53 0.8637,-7.48 1.2383,-11 0.7423,-6.97534 1.1986,-8.44162 5.2324,-16.80078 6.9777,-14.45959 7.7914,-19.6694 3.7246,-23.86523 -3.4716,-3.58178 -3.2192,-5.99055 1.6016,-15.33399 6.2961,-12.20294 6.4017,-23.9594 0.2461,-27.40429 -1.2762,-0.71419 -1.3206,-1.34146 -0.4903,-6.92383 1.807,-12.14967 1.3158,-17.82675 -1.8086,-20.95117 -3.0188,-3.01874 -5.5703,-3.43838 -9.2734,-1.52344 -3.1391,1.62331 -3.1584,1.54196 -3.0312,-12.4707 0.1292,-14.23756 -0.6923,-18.20395 -4.5704,-22.08203 -4.959,-4.95903 -8.4417,-0.98359 -11.205,12.79296 l -0.4493,2.23828 -2.082,-1.63671 c -5.4374,-4.27702 -8.6896,-0.98482 -10.9648,11.10351 -1.2505,6.64454 -2.2865,8.94099 -3.4903,7.73828 -0.3373,-0.33703 -0.8163,-9.31362 -1.0644,-19.94726 -0.5238,-22.45131 -1.1505,-24.61068 -8.1543,-28.08203 -1.3411,-0.66468 -1.8458,-1.69264 -2,-4.07032 -0.4673,-7.208702 -1.963,-16.834532 -3,-19.316402 -3.5242,-8.43478 -11.6204,-8.99188 -15.2031,-1.04688 -1.471,3.26213 -2.7911,4.16828 -2.7911,1.91602 0,-0.69609 -0.9528,-4.02648 -2.1171,-7.40039 -3.2433,-9.398736 -6.9181,-14.242478 -10.5567,-14.380862 z m -9.1894,308.814454 c 0.6299,-0.0653 1.0522,6.51226 0.957,17.23242 -0.1051,11.8436 -0.371,15.40039 -1.1523,15.40039 -2.0748,0 -2.4035,-16.07059 -0.6036,-29.48046 0.285,-2.12323 0.5571,-3.12729 0.7989,-3.15235 z m -14.5391,26.63281 4.9277,11.59961 c 2.7098,6.38 5.6923,13.76039 6.627,16.40039 1.5308,4.3243 1.6754,6.1863 1.4531,18.79883 -0.1357,7.7 -0.3287,13.01529 -0.4277,11.81055 -0.099,-1.20474 -1.2269,-5.52435 -2.5078,-9.59961 -1.2809,-4.07526 -2.8935,-9.39055 -3.584,-11.81055 -0.6904,-2.42 -2.1629,-6.17136 -3.2715,-8.33594 -1.1621,-2.26885 -2.0156,-5.28866 -2.0156,-7.13281 0,-1.75939 -0.383,-5.39241 -0.8496,-8.07226 -0.4667,-2.67986 -0.7363,-6.84945 -0.5996,-9.26563 z m 34.5469,18.13477 c 0.176,-0.002 1.0216,0.70524 1.9863,1.66992 1.0464,1.04643 3.7746,2.57571 6.0625,3.39844 3.4493,1.24032 4.103,1.77833 3.8223,3.14648 -0.1863,0.90751 -0.9067,4.61226 -1.5996,8.23243 -0.6928,3.62017 -2.4943,10.10057 -4.0039,14.40039 -1.5096,4.29983 -3.4566,9.79679 -4.3262,12.21679 l -1.5801,4.40039 -0.2539,-23.59961 c -0.1382,-12.98 -0.2017,-23.71295 -0.1387,-23.84961 6e-4,-9.6e-4 0,-0.005 0,-0.006 v -0.002 c 0,-10e-4 0.01,-0.003 0.01,-0.004 0,-9.9e-4 0.011,-0.004 0.016,-0.004 z m 12.7617,43.6582 c 0.542,0.007 1.1254,1.08717 2,3.00781 2.253,4.94766 2.4051,14.37453 0.3496,21.59961 -2.7767,9.76063 -2.9949,11.36444 -2.625,19.19922 0.4086,8.65454 1.5284,12.21242 5.0332,15.99414 l 2.2031,2.37696 -1.3711,9.9414 c -1.8747,13.60571 -5.6977,30.80425 -9.0898,40.88672 -1.5543,4.62 -3.9933,11.05357 -5.4199,14.29688 l -2.5938,5.89843 -0.5957,-45.29296 c -0.4213,-32.01683 -0.3408,-45.9375 0.2735,-47.4961 0.4779,-1.21266 2.339,-7.78547 4.1367,-14.60547 1.7977,-6.82 3.9586,-15.01994 4.8027,-18.22265 1.3995,-5.30992 2.1044,-7.59397 2.8965,-7.58399 z m -34.8027,7.40625 c 0.3825,0 0.6953,1.59871 0.6953,3.55274 0,3.57498 -1.0534,5.42508 -1.8731,3.28906 -0.598,-1.55834 0.3115,-6.8418 1.1778,-6.8418 z m 11.8886,17.59961 c 1.3754,0 0.6662,74.03735 -1.2656,132 -0.2859,8.58 -0.6571,15.75027 -0.8242,15.9336 -0.6284,0.68955 -0.4183,-85.45721 0.2148,-88.08594 0.2447,-1.01607 0.632,-14.89766 0.8614,-30.84766 0.2294,-15.95 0.6854,-29 1.0136,-29 z m 41.7442,28.00977 c 1.2936,-0.0196 6.2617,6.85141 6.2617,8.66015 0,1.08991 -1.6805,6.87654 -3.7363,12.85743 -4.1024,11.93487 -5.2727,22.30713 -3.6446,32.32812 0.6007,3.69698 0.525,4.88725 -0.3672,5.7793 -2.1829,2.18301 -4.4281,10.23784 -4.5917,16.47265 -0.1388,5.29018 -0.4396,6.43936 -2.254,8.59571 -2.2544,2.67914 -2.2306,2.61943 -4.1875,10.73632 -1.4873,6.16868 -1.7806,19.61552 -0.4804,22.04493 1.2988,2.42689 1.0709,3.93085 -1.3379,8.83593 -3.1414,6.39603 -3.1213,17.67845 0.047,26.41993 1.9019,5.24754 2.1548,7.11149 2.1718,16 0.025,13.39211 3.6904,21.36822 11.1231,24.20703 0.3656,0.13964 -0.022,7.63429 -0.8613,16.65429 -1.0126,10.88292 -1.6239,25.27997 -1.8164,42.79883 -0.1859,16.92754 -0.6252,27.54778 -1.2247,29.59961 -1.8558,6.35245 -4.2522,13.64833 -5.2558,16 -3.2338,7.57725 -8.6422,21.81137 -10.7774,28.36328 -1.3555,4.15967 -2.5736,7.67134 -2.705,7.80274 -0.1314,0.13141 -0.4898,-23.6126 -0.7969,-52.76367 -0.3071,-29.15108 -0.722,-57.50196 -0.9219,-63.00196 -0.1999,-5.5 -0.7568,-28.9 -1.2383,-52 -1.0295,-49.39383 -1.0256,-49.45717 5.0625,-71.59961 11.1871,-40.68711 13.6307,-52.03704 16.959,-78.80078 1.0414,-8.37418 3.2132,-15.96963 4.5723,-15.99023 z m -53.9453,32.24609 c 0.7876,-0.33404 0.8958,11.78609 0.5215,58.66211 -0.2596,32.49555 -0.7229,61.06242 -1.0293,63.48242 l -0.5567,4.40039 -0.9277,-2.80078 c -4.6519,-14.04768 -9.0886,-34.41462 -13.3535,-61.30273 -2.7141,-17.11129 -2.7718,-16.39611 1.4472,-18.13086 6.1309,-2.52084 10.6805,-14.91225 9.7227,-26.48633 -1.4025,-16.94826 -1.7917,-15.29356 4.1758,-17.82422 z m -35.4629,35.97461 c 0.5338,-0.0239 1.6626,1.40331 2.8867,3.80274 0.8764,1.71791 2.6277,4.30386 3.8906,5.74609 2.0716,2.36567 2.4287,3.66737 3.6524,13.30664 0.7461,5.87658 1.5478,11.18541 1.7832,11.79883 1.5571,4.05779 -4.446,-3.22034 -7.7149,-9.35352 -2.1742,-4.07919 -4.7763,-17.3482 -4.8203,-24.57812 0,-0.48224 0.1134,-0.71331 0.3223,-0.72266 z m 64.0449,20.57031 c 0,-2.1e-4 0,0 0.01,0 0.385,0 -5.098,15.60872 -7.0957,20.19922 -0.718,1.65 -1.5062,3 -1.75,3 -0.6304,0 0.2924,-2.78719 2.955,-8.93359 1.2708,-2.93375 2.3106,-5.74375 2.3106,-6.24414 0,-1.08532 3.0696,-7.96773 3.5742,-8.02149 z m -67.1719,11.1836 c 1.3928,-0.0291 3.509,1.56805 6.1387,5.22461 1.462,2.03304 4.4269,6.10391 6.5879,9.04492 l 3.9297,5.34765 4.2285,19.59961 c 2.3266,10.78 5.7114,25.18 7.5215,32 5.3229,20.0556 7.196,29.86027 7.7343,40.48243 v 0 c 0.5266,10.38954 0.2222,11.90423 -1.3906,6.91796 -2.6135,-8.0805 -5.4929,-11.25459 -11.0235,-12.15039 l -2.9316,-0.47461 -0.6113,-13.58789 c -0.9862,-21.89626 -3.9559,-33.74943 -9.0645,-36.18554 l -2.7226,-1.29883 -0.025,-7.65235 c -0.048,-14.91891 -0.9661,-19.16759 -6.9766,-32.31054 -4.0773,-8.91565 -4.0555,-14.90141 -1.3965,-14.95703 z m 27.961,44.02929 v 0 0 0 0.002 c 9e-4,4.7e-4 0,0.001 0.01,0.002 0.033,0.0264 0.083,0.14603 0.1465,0.36328 1.2323,4.21232 11.4955,34.13471 12.9746,37.82813 1.9436,4.85348 6.2911,20.672 7.6934,27.99218 1.8206,9.5031 -0.8018,3.96694 -3.9082,-8.25 -1.1118,-4.37261 -3.1395,-11.19039 -4.5059,-15.15039 -1.3664,-3.96 -2.9566,-8.82078 -3.5332,-10.80078 -0.5767,-1.98 -2.6812,-8.81922 -4.6758,-15.19922 -1.9947,-6.38 -3.8245,-13.04078 -4.0664,-14.80078 -0.159,-1.155 -0.2084,-1.86594 -0.1523,-1.97265 7e-4,-10e-4 0,-0.005 0,-0.006 v -0.002 -0.002 -0.002 0 0 z m 82.291,38.58008 c 0.3962,-0.0107 0.6149,0.43587 0.832,1.20703 1.2946,4.5979 1.2624,7.05288 -0.1797,13.51172 -0.8704,3.89825 -2.5452,11.58789 -3.7207,17.08789 -1.1755,5.5 -2.9576,12.51961 -3.9609,15.59961 -1.0034,3.08 -2.6308,8.84078 -3.6153,12.80078 -0.9845,3.96 -1.8861,7.30701 -2.0039,7.4375 -1.409,1.56021 -1.1769,-17.80574 0.4532,-37.86328 1.3187,-16.226 1.4969,-16.85113 6.7656,-23.77344 3.2703,-4.29682 4.6732,-5.9873 5.4297,-6.00781 z m -53.1172,5.12891 c 0.3541,3.0651 0.9367,18.35562 1.6562,45.07812 0.8631,32.05192 0.7754,80.2109 -0.1679,92.20117 -0.9776,12.42809 -1.4217,2.20135 -1.4317,-32.66796 0,-21.08333 -0.158,-55.43399 -0.3418,-76.33399 -0.1952,-22.18291 -0.069,-31.34245 0.2852,-28.27734 z m 61.3359,33.82422 c 0.7174,0.007 1.311,1.99282 1.8477,5.94726 0.3362,2.47754 0.8464,4.74098 1.1347,5.0293 0.2883,0.28833 -1.5418,2.01862 -4.0664,3.8457 -7.5006,5.42817 -7.6066,5.44874 -4.916,0.88867 0.9199,-1.55915 2.3631,-5.60503 3.209,-8.99023 1.1225,-4.49183 2.0274,-6.72797 2.791,-6.7207 z m 4.8399,20.47265 c 0.4455,-0.003 0.6694,0.41248 0.7695,1.18164 0.086,0.66 0.4106,2.83648 0.7227,4.83789 0.5234,3.3568 0.3123,4.03466 -2.7266,8.73633 -6.691,10.35242 -8.858,16.90269 -8.877,26.82617 -0.01,4.41648 -0.9722,6.3159 -6.6406,13.08985 -6.9834,8.3454 -8.0527,11.58855 -8.416,25.54492 l -0.3184,12.23633 -4.3261,4.54101 c -6.6394,6.96527 -7.8243,10.02255 -8.1719,21.10157 -0.3031,9.65745 0.8673,16.30928 3.6269,20.60156 1.1334,1.76283 1.1133,1.9814 -0.2617,2.74609 -5.8486,3.25255 -7.4941,8.28796 -7.4941,22.9336 0,27.4062 2.953,41.23427 10.3945,48.67578 1.3231,1.32311 2.4063,2.8105 2.4063,3.3066 0,1.7939 -5.2089,14.0979 -7.291,17.2227 -1.1727,1.76 -2.9671,4.6384 -3.9883,6.3984 -1.0212,1.7601 -3.9287,7.16009 -6.461,12.00009 l -4.6035,8.8008 -0.086,-26.80089 c -0.047,-14.74 -0.1505,-36.03743 -0.2285,-47.32809 -0.2931,-42.36711 1.4106,-53.52807 14.2148,-93.07032 0.5699,-1.76 1.8591,-5.90117 2.8652,-9.20117 1.0061,-3.3 3.2494,-10.13922 4.9844,-15.19922 2.8936,-8.43914 4.4626,-13.60845 13.1074,-43.20117 3.6492,-12.49211 3.7512,-12.69036 10.4024,-20.13867 3.6386,-4.07467 5.4842,-5.83571 6.3965,-5.8418 z m -89.8594,47.86719 c 0.2255,-0.0118 0.4594,0.0618 0.707,0.21484 0.7765,0.47993 0.8246,46.8472 0.1074,103.76758 -0.2919,23.17239 -0.786,42.13086 -1.0996,42.13086 -0.699,0 -8.1653,-21.17435 -12.8339,-36.39844 -4.3886,-14.31101 -5.6683,-36.56838 -2.3223,-40.40625 6.2769,-7.19972 7.7154,-21.21353 3.584,-34.9414 -1.0393,-3.45319 -1.0348,-3.47441 2.1015,-7.25781 3.513,-4.23782 5.0022,-8.44006 6.709,-18.9375 0.9081,-5.58476 1.8294,-8.10833 3.0469,-8.17188 z m 14,17.31445 c 0.2741,4.28553 0.032,70.68594 -0.2852,78.40039 -0.154,3.74 -0.3448,13.99883 -0.4238,22.79883 -0.079,8.8 -0.4285,17.8 -0.7773,20 -0.7564,4.77164 -0.1446,-89.91055 0.7109,-110 0.3279,-7.7 0.6774,-12.73922 0.7754,-11.19922 z m 38.0469,1.38282 c 0.2922,-0.10999 -1.6255,6.07897 -5.6035,17.85742 -6.4873,19.20789 -12.1575,40.05455 -16.7989,61.75976 -1.5957,7.4624 -2.5936,8.11745 -1.8261,1.19922 1.0045,-9.05417 10.2701,-44.39178 14.7363,-56.19922 0.9986,-2.64 3.5314,-9.39573 5.6269,-15.01172 2.3906,-6.40668 3.6621,-9.52898 3.8653,-9.60546 z m -77.2403,51.80859 c 0.1514,-0.004 0.3302,0.039 0.5391,0.11914 0.8404,0.3225 1.2012,1.63352 1.2012,4.375 0,4.62362 -1.1792,5.19472 -1.8867,0.91406 -0.6634,-4.01366 -0.6707,-5.38583 0.1464,-5.4082 z m -15.4023,6.19727 c 0.4379,-0.0227 0.9884,0.32019 1.6426,1.13086 3.8393,4.75801 8.1928,19.54823 12.6914,43.11523 1.1344,5.94303 2.4202,11.74641 2.8574,12.89648 0.9632,2.53334 0.7825,2.79837 -1.1641,1.70899 -2.998,-1.67773 -4.6563,-3.51552 -6.6015,-7.3125 -1.091,-2.12969 -3.4289,-5.43921 -5.1953,-7.35547 l -3.211,-3.48438 1.3418,-6.58398 c 1.6803,-8.23835 1.0496,-16.74639 -1.7031,-22.9707 -2.3553,-5.32565 -2.3763,-11.05559 -0.6582,-11.14453 z m 22.0996,40.5371 c 0.2181,-0.65448 2.1697,4.498 8.3594,22.07422 0.6198,1.76 1.4184,3.91883 1.7754,4.79883 1.0484,2.58451 4.9287,13.62951 8.6504,24.61917 2.1626,6.386 4.2265,14.7452 5.5019,22.291 1.1223,6.6403 1.9083,12.20509 1.7461,12.36719 -0.7284,0.7285 -3.004,-6.22479 -3.8203,-11.67579 -1.6285,-10.874 -4.0804,-19.6805 -10.8066,-38.80079 -5.7624,-16.38082 -11.6744,-34.86969 -11.4063,-35.67383 z m 43.8418,15.27344 c 0.5201,0 0.8008,11.33372 0.8008,32.40039 0,17.81999 -0.1324,32.40039 -0.2949,32.40039 -0.9503,0 -1.2869,-9.2243 -1.2969,-35.40039 -0.01,-19.07254 0.272,-29.40039 0.791,-29.40039 z m -55.0645,12.74805 c 0.6927,0.008 1.8481,0.70866 3.67,1.85742 8.6804,5.47313 14.465,18.91436 20.5683,47.79501 l 2.1133,9.99999 -0.4629,32.4003 c -0.2545,17.82 -0.6264,44.0623 -0.8262,58.3164 -0.1999,14.2542 -0.4607,26.009 -0.58,26.1231 -0.1193,0.1142 -2.3552,-4.5265 -4.9688,-10.3125 -11.7621,-26.0392 -12.4243,-28.4117 -9.1543,-32.8125 2.7296,-3.6736 3.2065,-16.9937 0.7754,-21.6523 l -1.6367,-3.1368 3.1562,-2.7031 c 6.9373,-5.9381 6.6428,-21.5232 -0.5996,-31.7598 -3.1066,-4.391 -3.1273,-5.0288 -0.6172,-18.4628 3.2255,-17.26309 -0.1951,-33.92409 -8.3027,-40.43953 -3.0082,-2.41747 -3.1736,-2.79426 -3.6973,-8.38281 -0.4628,-4.93991 -0.5919,-6.84404 0.5625,-6.83008 z m 79.8711,58.70512 c 0.1893,-0.047 -0.2407,1.1542 -1.4668,3.8691 -0.8638,1.9129 -2.7086,5.9982 -4.1015,9.0782 -4.4171,9.7669 -6.6489,15.7455 -9.4063,25.1992 -1.4759,5.06 -3.3923,11.6273 -4.2578,14.5918 -1.4264,4.8854 -1.5742,7.8984 -1.5742,32.1992 0,17.3401 -0.2814,26.8105 -0.7988,26.8105 -1.323,0 -0.997,-46.8435 0.3925,-56.4004 1.9615,-13.4912 7.0873,-28.3585 15.6426,-45.3593 3.0809,-6.1222 5.2441,-9.9077 5.5703,-9.9883 z m 11.8008,1.2558 c 0.2413,0 0.4613,0.094 0.6621,0.295 0.6733,0.6734 -0.6368,4.1718 -4.1484,11.08 -6.1555,12.1095 -5.8779,22.7376 0.7422,28.459 1.9893,1.7192 1.999,1.7915 0.8105,5.5996 -1.3274,4.2527 -1.0966,12.3953 0.6309,22.3594 1.2879,7.4288 -0.8106,12.9532 -11.6641,30.6992 -0.9418,1.54 -2.7321,5.14 -3.9765,8 -3.2666,7.5073 -3.3628,7.4279 -3.9336,-3.1875 -2.0907,-38.8833 -1.6369,-57.151 1.5703,-63.2129 1.0513,-1.9869 6.9688,-15.531 13.4316,-30.746 2.6655,-6.2752 4.5722,-9.3195 5.875,-9.3458 z m -54.7715,11.6915 0.6328,6 c 0.3486,3.3 0.4749,21.7237 0.2793,40.9414 -0.2062,20.2672 -0.6856,35.7225 -1.1425,36.8007 -0.6643,1.5678 -0.6077,-51.5393 0.084,-78.1425 z m 7.7852,52 c 0.9068,16.5112 1.8633,108.7941 1.2168,117.4003 -1.4811,19.7155 -1.9969,3.4312 -1.8965,-60 0.06,-37.6866 0.3622,-63.1811 0.6797,-57.4003 z m -34.1816,39.3007 c 0.1646,-0.019 1.298,2.179 3.4082,6.6328 7.3094,15.4279 15.8038,40.3134 16.8769,49.4434 0.2727,2.3233 0.2669,4.2227 -0.014,4.2227 -0.2806,0 -0.5097,-0.863 -0.5097,-1.918 0,-4.7488 -7.555,-27.7762 -15.3184,-46.6934 -3.1744,-7.7349 -4.6619,-11.6628 -4.4433,-11.6875 z m 69.1484,7.7598 c 0,-5e-4 0.01,-10e-5 0.01,0 0,2e-4 0,0 0.01,0 9e-4,4e-4 0.01,0 0.01,0 8e-4,8e-4 0,0 0,0.01 0.1097,0.1915 -0.9076,2.713 -4.209,10.9297 -3.5803,8.9111 -6.3992,17.4528 -9.1679,27.7832 -1.555,5.8023 -2.5794,7.3875 -1.8848,2.916 1.5023,-9.6717 10.7053,-35.5397 14.4785,-40.6992 0.3848,-0.5262 0.6661,-0.9226 0.7598,-0.9395 z m -16.711,70.2363 c 0.327,1.3704 0.9034,10.4415 1.6993,27.1035 0.7811,16.3547 0.9201,76.4979 0.1738,75.1993 -0.3468,-0.6033 -1.6774,-53.703 -2.084,-83.1993 -0.195,-14.1435 -0.116,-20.4738 0.2109,-19.1035 z m -29.25,22.1836 c 0.2465,-0.029 0.5424,0.4824 0.8887,1.3848 0.267,0.696 0.4436,18.9656 0.3946,40.5996 -0.1228,53.9552 -0.9579,63.7738 -1.7129,20.1348 -0.8272,-47.8127 -0.826,-61.9728 0.4296,-62.1192 z m 21.2618,31.3926 c 0.061,-0.011 0.128,0.098 0.1992,0.3262 0.4301,1.3771 0.7402,22.0066 0.7402,48.4004 0,25.3 -0.291,52.6607 -0.6386,60.8007 l -0.6329,14.7989 -0.6836,-31.1992 c -0.3765,-17.16 -0.4635,-37.6797 -0.1933,-45.5997 0.2703,-7.92 0.5282,-22.32 0.5742,-32 0.05,-10.5589 0.2468,-15.4581 0.6348,-15.5273 z m -10.9258,49.5273 c 1.2488,6.2132 0.1909,111.588 -1.2891,128.4004 -0.7746,8.8 -1.892,19.2393 -2.4843,23.1993 l -1.0762,7.1992 0.3984,-7.1992 c 0.2192,-3.96 0.5578,-9.1797 0.752,-11.5997 0.8382,-10.4452 1.9132,-55.298 2.0293,-84.6152 0.1456,-36.7681 0.8325,-59.5506 1.6699,-55.3848 z m 20.8613,36.5508 c 0.5927,-0.076 1.1879,10.6385 2.2266,38.6485 0.9045,24.3915 1.4329,30.6066 4.3965,51.5996 3.723,26.373 6.7359,38.0549 12.33,47.8008 3.5501,6.185 3.2222,7.2742 -0.4824,1.5996 -8.6978,-13.3231 -12.3904,-27.988 -16.666,-66.1993 -2.3751,-21.2269 -3.6094,-63.2407 -2.127,-72.4003 0.109,-0.6731 0.2158,-1.0352 0.3223,-1.0489 z m -32.166,34.5371 c 0.448,-0.048 0.6843,6.1532 0.4277,18.5118 -0.9197,44.3039 -6.6006,73.1503 -17.4492,88.5957 -1.9298,2.7475 -5.1121,6.1266 -7.0722,7.5097 l -3.5645,2.5156 3.1289,-3.082 c 13.8484,-13.6416 20.1964,-40.3235 22.8906,-96.2129 0.5723,-11.8727 1.2045,-17.791 1.6387,-17.8379 z m 24.7695,41.8535 c 0.3525,-0.064 1.045,6.8806 1.9453,20.2579 1.388,20.6237 2.9701,34.8805 4.9122,44.2832 v 0 c 0.6687,3.2361 1.0129,6.0848 0.7656,6.332 -0.2473,0.2472 -0.4512,0.2657 -0.4512,0.041 0,-0.2247 -1.0787,-5.7385 -2.3984,-12.2539 -2.9277,-14.4555 -4.6501,-31.0487 -4.9649,-47.8243 -0.136,-7.2484 -0.058,-10.7929 0.1914,-10.8379 z" />
  </g>
</svg>
