<?xml version="1.0" encoding="UTF-8" standalone="no"?>
<!-- Created with Inkscape (http://www.inkscape.org/) -->

<svg
   version="1.1"
   id="svg1"
   width="2816"
   height="1536"
   viewBox="0 0 2816 1536"
   xmlns="http://www.w3.org/2000/svg"
   xmlns:svg="http://www.w3.org/2000/svg">
  <defs
     id="defs1" />
  <g
     id="g1">
    <path
       style="fill:#000000"
       d="m 1207.0129,1543.3567 c 0,-2.6875 13.8126,-22.0782 25.7994,-36.2182 2.4515,-2.8919 7.887,-7.8039 12.0789,-10.9154 18.7978,-13.9532 22.5518,-17.0686 30.4882,-25.3013 15.5977,-16.1801 21.0171,-25.2786 28.6059,-48.0253 6.7089,-20.1096 10.8437,-47.8396 9.5665,-64.1585 -0.273,-3.4878 -0.7724,-9.8625 -1.1099,-14.1659 -0.3375,-4.3034 -0.815,-7.6229 -1.0612,-7.3767 -0.2462,0.2462 -2.0525,7.3672 -4.0139,15.8244 -9.2755,39.9939 -18.0828,60.7862 -34.9873,82.5986 -27.3719,35.319 -67.5412,61.9589 -106.8666,70.873 -10.8887,2.4681 -34.6475,2.9295 -51.5966,1.002 -39.7549,-4.5212 -48.8798,-4.1602 -96.8338,3.8317 -58.16479,9.6935 -87.85049,11.127 -115.26189,5.5659 -12.8249,-2.6018 -13.2506,-3.0291 -5.5459,-5.567 9.6565,-3.1808 37.0859,-17.0605 53.2382,-26.9393 30.3455,-18.5594 38.2823,-21.7711 69.18059,-27.994 44.3252,-8.9271 64.2566,-18.3337 95.1675,-44.914 14.8067,-12.7324 26.8819,-31.2462 33.9679,-52.0802 5.3646,-15.7728 18.5666,-51.4077 23.5253,-63.5 18.4055,-44.8832 17.4498,-60.3028 -6.1048,-98.5 -22.188,-35.9811 -35.4431,-43.7729 -83.2365,-48.9286 -43.0773,-4.6471 -43.45,-4.771 -59.894,-19.914 -12.9134,-11.8918 -18.4736,-14.8363 -35.97219,-19.0496 -40.2804,-9.6987 -65.7182,-7.5891 -107.1338,8.8847 -26.7824,10.6531 -28.8335,10.8687 -55.5,5.8332 -45.6435,-8.6189 -71.5301,-0.7246 -123.043,37.5228 -24.3715,18.0955 -30.0586,19.5405 -73.4685,18.6682 l -32.5114,-0.6534 -2.1248,2.3184 c -1.1686,1.275 -5.0548,8.3933 -8.6359,15.8183 -25.7181,53.3235 -52.7173,65.1552 -124.9617,54.7611 -34.0006,-4.8918 -33.0953,-4.2614 -35.7,-24.8612 -2.4204,-19.1424 -4.0103,-18.8824 -52.55467,8.5968 -47.5315,26.9058 -72.25199,28.7103 -108.6269,7.9294 l -10.3731,-5.9261 -12.5,0.08 c -7.01265,0.045 -18.86533,1.0054 -27,2.1881 -29.05579,4.2246 -38.81912,3.8618 -48.75265,-1.8115 -7.19891,-4.1114 -9.64758,-7.8697 -14.11024,-21.6567 -5.64998,-17.4552 -9.15842,-21.1321 -22.16163,-23.2262 -10.95245,-1.7639 -14.83859,-7.5374 -12.03519,-17.8802 3.24067,-11.956 16.7189,-19.9104 63.9409,-37.7357 17.2617,-6.5159 22.79824,-10.5445 31.76938,-23.1164 13.33461,-18.6868 29.91587,-23.4994 52.84943,-15.3391 22.21116,7.9032 25.59832,6.7745 34.55236,-11.514 18.05527,-36.8775 46.36776,-52.4208 78.44764,-43.0668 18.32233,5.3424 22.45832,6.0193 36.70787,6.0076 15.2736,-0.013 15.5805,-0.1113 13.7888,-4.437 -3.5409,-8.5485 -13.9538,-12.9201 -33.49667,-14.0628 -19.8218,-1.1591 -27.42467,-4.1406 -42.97835,-16.8546 -21.827,-17.8419 -35.71012,-13.1868 -83.28236,27.9255 -26.20762,22.6488 -39.77313,25.8995 -68.23929,16.3523 -10.68053,-3.5821 -15.0152,-2.0082 -28.27211,10.2653 -16.46359,15.2423 -25.39949,16.9344 -45.03141,8.5271 -20.3217,-8.7027 -29.97615,-9.074 -56.12895,-2.1589 -24.92592,6.5907 -35.954,5.743 -44.39325,-3.4125 -9.89516,-10.735 -7.56926,-25.1257 6.3031,-38.998 8.03524,-8.0353 8.14807,-13.5816 0.31652,-15.5585 -37.4114097,-9.4438 -44.77402,-34.6861 -17.9869,-61.667 8.28673,-8.3467 14.12902,-12.1688 35.50376,-23.2267 29.37383,-15.1961 42.15804,-24.8117 46.54449,-35.0082 2.56454,-5.9615 2.74053,-8.4539 1.7734,-25.1149 -1.52663,-26.29966 3.13378,-37.23555 21.15043,-49.63053 20.75837,-14.28123 24.17123,-20.45301 20.70571,-37.44405 -6.67076,-32.70596 12.29971,-52.36866 53.45764,-55.40831 20.23249,-1.49423 31.77682,-6.25406 57.67278,-23.77902 48.81242,-33.03353 78.6641,-36.83859 117.38479,-14.96253 25.16165,14.21561 33.21852,15.60145 56.81367,9.77239 5.6726,-1.40157 13.0893,-2.54814 16.4816,-2.54814 h 6.1678 l 6.0043,6.75 c 20.4695,23.01163 30.8009,28.61703 48.2071,26.15519 9.7602,-1.38043 12.2858,-2.15316 37.3637,-11.43206 20.978,-7.76193 45.2719,-15.52199 57.7927,-18.46036 6.3147,-1.48193 5.9467,-1.99589 -3.5091,-4.90161 -17.2663,-5.30587 -25.6514,-5.13749 -40.6385,0.81604 -12.3193,4.89373 -19.215,6.29942 -28.6766,5.84568 -17.5257,-0.84049 -27.122,-7.72433 -39.2422,-28.15012 -8.1737,-13.77481 -16.1078,-22.49468 -22.2645,-24.46946 -12.2881,-3.94148 -31.5878,-2.17335 -69.49997,6.3672 -45.94753,10.35068 -53.94396,9.43786 -94.5,-10.78746 -21.67473,-10.80921 -28.22411,-15.23414 -33.16378,-22.40631 -7.34629,-10.66649 -5.88796,-21.17865 5.66378,-40.82673 12.11784,-20.61093 12.67505,-26.60663 3.70361,-39.85175 -8.57443,-12.65899 -9.18012,-14.15849 -9.14822,-22.64825 0.0721,-19.18527 12.1448,-29.9606 45.94461,-41.00718 37.85035,-12.3704 56.496,-30.96091 59.35933,-59.1838 2.24028,-22.08172 14.92621,-30.09459 57.45074,-36.28787 27.4271,-3.99448 42.1084,-9.9754 56.821,-23.14798 23.1948,-20.7668 53.4892,-20.1348 87.9646,1.83512 13.8865,8.84939 22.865,13.68663 33.942,18.28667 21.1434,8.78028 28.4184,9.72044 53.8494,6.95896 27.9376,-3.03367 40.2092,0.38596 48.8062,13.60052 13.2345,20.34283 19.7334,24.57059 37.3067,24.26906 7.2179,-0.12385 10.8708,-0.90477 24.2181,-5.17737 8.6449,-2.76733 19.8949,-6.03472 25,-7.26086 5.105,-1.22614 9.3871,-2.29458 9.5156,-2.3743 0.1285,-0.0797 -2.2181,-7.5398 -5.2146,-16.57796 -2.9966,-9.03815 -6.0764,-18.90801 -6.8439,-21.93301 l -1.3957,-5.5 -6.3897,-0.22961 c -17.9814,-0.64616 -28.6316,-3.63707 -48.3729,-13.58469 -16.9019,-8.51681 -18.9662,-8.71242 -40.0169,-3.79174 -17.9794,4.20278 -30.6395,4.19812 -39.5,-0.0145 -10.3005,-4.89737 -33.0152,-24.012 -41.4485,-34.87946 -15.8499,-20.42478 -12.1298,-34.77742 12.9441,-49.93962 16.684,-10.08884 22.4955,-17.75349 21.0547,-27.76843 -0.3792,-2.63557 -1.581,-9.15895 -2.6707,-14.4964 -2.3666,-11.59251 -1.6483,-15.83207 3.6826,-21.73268 6.1755,-6.83553 15.2206,-9.49692 57.9378,-17.04736 45.9815,-8.1274 61.8635,-14.55222 76.8153,-31.07447 7.1648,-7.91739 11.3246,-16.50798 18.3283,-37.85057 10.8061,-32.929973 15.133,-36.301673 46.8564,-36.513013 22.8144,-0.15198 26.247,-1.55583 55.5792,-22.73013 46.5941,-33.63534 84.7617,-38.81771 142.42079,-19.33779 43.9175,14.83738 49.4669,14.14599 85.7752,-10.68661 20.911,-14.30185 33.0092,-18.82293 50.369,-18.82293 24.4463,0 43.9753,11.68713 55.9781,33.5 3.0128,5.47523 11.558,15.54188 14.4721,17.04879 8.2561,4.26942 15.8249,2.80511 36.3233,-7.02735 43.9703,-21.0913 82.419,-24.36024 108.1747,-9.19714 9.9735,5.87169 16.1767,12.24901 24.9746,25.6757 4.5049,6.875 9.4827,13.71363 11.0618,15.19695 7.5098,7.05408 18.3166,7.67868 37.9507,2.19343 7.1063,-1.98529 15.6205,-4.21949 18.9205,-4.96487 25.9863,-5.86966 55.0233,8.72441 70.5446,35.455953 6.6393,11.43458 10.5347,14.98353 27.3879,24.95225 22.046,13.04028 28.8951,21.47754 29.0052,35.73082 0.088,11.35046 -2.0532,14.40602 -15.3804,21.95195 -20.1614,11.41549 -23.63,15.65735 -22.8422,27.93393 0.822,12.80847 5.8489,18.65131 26.3624,30.64152 5.6807,3.32036 11.6464,7.53803 13.2572,9.37259 l 2.9287,3.33556 7.3683,-7.1618 c 4.0526,-3.93899 12.9854,-11.19963 19.8508,-16.13476 26.7449,-19.2253 32.5798,-28.16604 38.9563,-59.69234 6.9047,-34.13814 21.9085,-45.6147 54.0612,-41.35196 24.211,3.20983 32.6613,1.15324 56.9725,-13.86568 18.6305,-11.50951 25.8535,-11.42354 50.2034,0.59752 19.3526,9.55396 23.5018,9.00777 52.3241,-6.88768 18.24,-10.05935 27.1699,-14.24843 38.3487,-17.98952 16.3493,-5.4715 20.2109,-4.92852 54.6513,7.68441 3.3,1.20855 12.7052,3.72487 20.9004,5.59184 26.961,6.14199 31.5619,12.70348 31.592,45.05455 0.021,22.04317 9.5955,33.31314 29.0076,34.14262 9.3842,0.40099 12.7259,-0.0501 47.5,-6.41187 16.7784,-3.06953 34.0182,-1.32207 64.9019,6.57858 31.7953,8.13388 51.6328,18.14646 70.2504,35.45752 19.745,18.35942 24.9695,29.80938 25.6439,56.2005 0.6076,23.78071 4.8854,30.49687 32.5994,51.18192 45.6939,34.10484 54.9876,53.4755 40.1609,83.70607 -13.8153,28.16828 -41.6432,36.91461 -85.0565,26.73332 -27.8503,-6.53146 -61.4427,-11.20256 -99,-13.76619 -17.5354,-1.19694 -32.222,3.75176 -47.1926,15.90168 -8.8853,7.21123 -15.3399,10.1137 -28.2853,12.71914 l -10.7702,2.16767 -23.626,14.29767 c -46.3346,28.04026 -75.7004,50.47867 -88.7262,67.79579 -5.6299,7.48451 -5.5903,7.7377 1.8278,11.69151 24.0116,12.79805 23.732,35.43767 -0.6277,50.82219 -8.2038,5.18121 -20.5728,11.32761 -28.5998,14.21184 -7.4651,2.68233 -12.9484,5.57388 -14.75,7.77822 -1.4455,1.76857 -1.6404,7.9819 -0.3161,10.0745 1.2419,1.96235 10.2217,-0.064 17.6876,-3.99125 7.396,-3.89053 17.1981,-6.82853 26.8473,-8.04702 11.3701,-1.4358 47.0694,-10.46184 53.2325,-13.45906 8.4623,-4.11534 14.4979,-13.78959 20.5657,-32.96425 6.8265,-21.57222 12.3049,-31.17873 23.9054,-41.91904 9.9165,-9.18117 17.9546,-12.91583 35.4511,-16.47124 21.731,-4.4159 24.7133,-6.20729 38.3472,-23.03465 22.3498,-27.58471 42.3287,-36.48606 67.4637,-30.0576 8.21,2.09974 11.7607,3.84357 34.0656,16.73016 24.3515,14.06902 28.3889,14.48117 57.1425,5.83335 39.8562,-11.98699 78.2895,-10.95475 116.3575,3.12515 16.4236,6.07447 44.7645,23.48071 83.5,51.28361 6.05,4.34246 14.966,10.74144 19.8134,14.21994 20.3698,14.61748 30.42,29.20504 33.6561,48.85105 0.6771,4.11043 1.64,9.94851 2.1397,12.97351 1.4382,8.70494 5.1349,14.86125 15.7856,26.28844 11.8873,12.75388 13.6018,16.57197 12.8984,28.7236 -0.8283,14.30746 -10.1709,26.66823 -25.997,34.39545 -24.2968,11.86313 -49.6463,9.71783 -83.0348,-7.02717 -29.8638,-14.97726 -37.2857,-14.43718 -63.2614,4.60346 -25.9487,19.02085 -39.0796,23.20415 -81.6359,26.00796 -31.2771,2.06068 -49.83,7.06511 -58.5611,15.79618 -3.2674,3.26734 -3.0741,3.37241 13.932,7.57488 8.1043,2.00269 20.9293,5.61771 28.5,8.03338 38.4426,12.2663 62.0745,9.35675 77.2356,-9.50925 4.8972,-6.09384 15.5095,-14.39859 23.9405,-18.73473 28.896,-14.86159 51.1501,-13.04718 100.7878,8.21737 25.0511,10.73176 37.3098,13.76875 61.3011,15.18678 25.4541,1.50449 36.415,9.20452 45.6288,32.05422 5.8951,14.61966 8.3048,18.54732 16.259,26.50159 12.2961,12.29603 19.8829,15.2135 45.1122,17.34755 28.0943,2.37639 37.9621,6.53032 47.4304,19.96617 8.8042,12.49331 13.2501,26.61681 14.2583,45.29461 1.3014,24.1111 -5.9516,29.1044 -26.692,18.3757 -16.9955,-8.7915 -29.3205,-5.44 -25.9552,7.0579 3.3979,12.6188 22.7062,21.3563 75.5556,34.1906 12.2185,2.9672 20.4141,6.7026 25.9974,11.8492 12.5135,11.5345 12.2015,34.226 -0.8292,60.3061 -12.8953,25.8093 -29.8246,40.0542 -57.3975,48.2963 -21.4964,6.4257 -32.7193,14.1817 -40.8051,28.2002 -2.5095,4.3507 -4.5627,8.1779 -4.5627,8.5049 0,0.3271 -1.6222,3.1606 -3.6048,6.2966 -9.6806,15.3123 -19.9455,21.1946 -40.5797,23.2545 -7.9843,0.797 -14.5538,2.2013 -22.3155,4.7698 -10.2925,3.4061 -11.8117,3.6414 -23.6197,3.659 l -12.6197,0.019 -8.3803,-4.2745 c -4.6092,-2.351 -12.8501,-7.881 -18.3133,-12.2888 -30.0557,-24.2498 -68.2957,-34.2782 -100.567,-26.3734 -21.9401,5.3742 -43.4425,6.8552 -57.5,3.9605 -4.9015,-1.0093 -12.1199,-4.0369 -24.0786,-10.0995 -19.4466,-9.8585 -17.2909,-9.5945 -35.5143,-4.3499 -25.0425,7.2072 -41.6245,3.6843 -58.6625,-12.4629 l -7.2686,-6.8885 -21.738,0.5566 c -40.955,1.0486 -90.7257,9.7064 -122.738,21.3508 -21.9232,7.9746 -27.1485,9.5553 -31.4205,9.5054 -7.4572,-0.087 -21.2306,-5.2179 -58.0795,-21.6355 -43.8279,-19.527 -63.162,-25.6802 -111.5,-35.4854 -10.45,-2.1198 -24.175,-5.0585 -30.5,-6.5305 -17.1579,-3.9931 -32.5245,-3.3102 -63.5,2.822 -65.4106,12.9493 -75.0264,17.5086 -103.9309,49.2783 -29.203,32.0979 -35.798,36.2657 -67.3362,42.5547 -28.6247,5.7079 -35.0455,8.5735 -47.6957,21.2861 -10.4189,10.4703 -26.8005,36.9883 -34.4592,55.7814 -9.7861,24.0133 -10.3805,38.4114 -2.9431,71.2931 7.2703,32.1424 13.7937,66.5 12.6262,66.5 -1.9862,0 -16.0585,-11.5235 -22.2849,-18.2486 -21.4322,-23.1487 -34.0154,-55.3297 -36.1332,-92.4086 -0.3563,-6.2385 -0.9745,-11.3428 -1.3738,-11.3428 -1.864,0 -4.316,14.2883 -4.7376,27.6067 -1.1965,37.7926 16.1704,74.9016 52.7498,112.7142 17.8431,18.4447 26.4277,24.9971 47.0186,35.888 17.4924,9.252 17.5055,9.2615 30.0561,21.8179 27.4395,27.452 43.4085,33.7337 97.9439,38.5285 28.7849,2.5308 42.428,6.0084 61,15.5491 10.8297,5.5634 22.4618,13.9204 27.438,19.7127 l 1.938,2.2559 -126.438,-0.3516 c -148.23,-0.4122 -125.7529,1.3812 -189.012,-15.0815 -50.0309,-13.0202 -67.5408,-12.2733 -95.6164,4.0786 -26.7962,15.6067 -45.0784,18.7415 -81.2797,13.9366 -27.0772,-3.5938 -46.0224,-1.599 -74.2182,7.8149 -31.498,10.5164 -36.9674,11.5242 -62.5617,11.5273 -12.2375,0 -22.25,-0.2402 -22.25,-0.5371 z m 48,-385.3072 c 0,-28.6609 -5.473,-54.1235 -16.261,-75.653 -13.1902,-26.3234 -35.4179,-48.4549 -57.3782,-57.13 -13.0214,-5.1438 -14.4229,-6.5995 -22.8966,-23.7816 -7.847,-15.9113 -15.1677,-26.0921 -23.0704,-32.0839 -19.1125,-14.4911 -31.1455,-25.9796 -41.3767,-39.5045 -11.1098,-14.6864 -16.1296,-19.0238 -27.5171,-23.7768 -11.0982,-4.6322 -24.6953,-9.3612 -25.2683,-8.7882 -0.204,0.2039 0.3094,6.377 1.1408,13.7179 0.8314,7.3409 1.7427,19.6471 2.0252,27.3471 0.7495,20.4299 5.0842,35.1306 16.07,54.5 10.7106,18.8841 25.2141,42.3536 28.1628,45.5727 l 3.3542,3.6619 6.2971,-0.6743 c 18.3671,-1.967 66.4289,4.8363 83.6764,11.8446 31.4145,12.7648 57.3669,52.5395 68.7058,105.2984 1.5504,7.2139 3.1603,12.9053 3.5775,12.6475 0.4172,-0.2579 0.7585,-6.1969 0.7585,-13.1978 z M 658.77941,1147.507 c 11.5437,-3.1524 22.3098,-10.6928 40.2335,-28.1791 8.4882,-8.281 15.3961,-14.1265 18.6075,-15.7456 12.0354,-6.0679 14.8532,-10.8468 11.1329,-18.8807 -7.4472,-16.0816 -40.738,-35.5899 -88.2404,-51.7086 -23.435,-7.952 -23.8724,-7.8136 -47,14.8675 -22.5851,22.1492 -25.2269,23.333 -41.2843,18.5005 -16.2629,-4.8945 -25.3254,-1.1541 -23.8861,9.8586 1.2483,9.5507 11.738,17.2755 23.1704,17.0632 5.1757,-0.096 7.8549,-0.989 19.5,-6.4988 l 13.5,-6.3875 h 10.5 c 9.4715,0 11.0576,0.2738 16.1922,2.7953 23.4914,11.5359 31.0477,40.9825 15.1188,58.9176 -2.4573,2.7667 -4.095,5.3986 -3.6393,5.8487 2.2307,2.2038 27.5307,1.8876 36.0948,-0.4511 z m 773.75849,-17.1712 c 16.5795,-89.9132 28.7855,-116.3008 79.1902,-171.1971 27.722,-30.1922 33.008,-41.5277 34.0202,-72.9534 0.6971,-21.6422 -1.8169,-50.43126 -8.3649,-95.78879 -1.2035,-8.33659 -1.7535,-18.75634 -1.8014,-34.1313 l -0.069,-22.1313 -10.5,-0.51794 c -10.2273,-0.50448 -15.258,-1.51918 -29.3378,-5.91739 -8.1752,-2.55373 -8.1443,-2.5813 -8.9882,8.02699 -0.9177,11.53532 -8.1444,53.19002 -11.6085,66.91166 -3.3567,13.29583 -5.54,19.45876 -15.9294,44.96603 -15.0753,37.01164 -15.8838,54.04034 -4.7096,99.19224 3.0043,12.1395 3.0764,13.9078 1.0497,25.72 -2.4262,14.1406 -5.0905,23.3775 -11.588,40.1754 -15.9566,41.2523 -18.2674,52.2542 -18.316,87.2056 -0.032,23.2424 2.0618,46.6993 3.9964,44.7647 0.2123,-0.2123 1.5427,-6.6587 2.9564,-14.3254 z m 693.975,-56.6618 c 24.1175,-6.3162 48.7601,-23.0446 81.3147,-55.1998 18.7291,-18.4993 19.2293,-19.0977 16.5,-19.737 -1.5481,-0.3627 -14.5147,-2.0888 -28.8147,-3.8359 -55.0089,-6.7205 -60.382,-8.4264 -69.7822,-22.1553 -5.2304,-7.6388 -6.6259,-12.4691 -8.3349,-28.8495 -2.0654,-19.7965 -3.558,-21.8977 -12.6108,-17.7532 -5.2712,2.4133 -15.1227,10.1679 -33.6245,26.4676 -18.6893,16.465 -43.8687,35.9209 -64.1476,49.5662 -13.3172,8.9609 -20.5,14.3942 -20.5,15.5068 0,1.2449 7.9365,5.6723 29.0629,16.2126 19.508,9.7329 33.0781,17.2333 41.2762,22.814 27.915,19.0023 45.513,23.2877 69.6609,16.9635 z m -471.5,-5.534 c 28.9959,-9.6639 45.9149,-25.1192 67.0436,-61.2435 14.0535,-24.0275 22.3323,-33.9383 40.4741,-48.4528 19.7347,-15.7889 31.1095,-34.1297 40.3417,-65.0472 9.7159,-32.53716 16.4057,-43.08352 42.6776,-67.28106 7.5235,-6.92941 7.8365,-7.38824 6.4804,-9.5 -0.7837,-1.22041 -4.3837,-7.95703 -8,-14.97025 -8.8013,-17.06852 -8.8755,-17.14634 -15.6788,-16.44418 -6.8848,0.71058 -14.6305,4.33115 -30.3863,14.20352 -22.522,14.11203 -24.5045,15.25473 -32.0138,18.45317 -20.0388,8.53508 -44.1469,9.98387 -65.7286,3.95 l -7.29,-2.03818 -3.2273,2.8135 c -18.502,16.12956 -27.1496,33.93769 -32.8007,67.54698 -4.5755,27.2117 -10.4818,39.4234 -28.4264,58.7735 -20.3439,21.9374 -24.1474,29.4116 -26.4586,51.993 -1.2658,12.3683 -1.3124,50 -0.062,50 0.5197,0 4.0072,-1.5292 7.75,-3.3981 9.2017,-4.595 12.3823,-5.9052 29.805,-12.2784 17.9417,-6.563 53.7936,-18.3633 54.2884,-17.8685 0.6376,0.6377 -3.9596,8.9439 -8.327,15.045 -7.4597,10.421 -26.8115,27.6303 -43.0303,38.2664 -2.7997,1.8359 2.958,0.6802 12.5689,-2.5229 z m -807.88089,-5.01 c 4.7406,-1.6106 11.9406,-4.9968 16,-7.5249 13.5904,-8.4638 17.1635,-9.6568 32.1262,-10.7261 21.6247,-1.5454 29.7632,-5.562 29.751,-14.6828 0,-3.4077 -2.1018,-6.9459 -10.0322,-16.9255 -11.4403,-14.3964 -18.2007,-31.1786 -20.0118,-49.6776 -3.035,-31 -4.5777,-33.4972 -25.4523,-41.2002 -18.9628,-6.9976 -27.9669,-13.7099 -50.2841,-37.4851 -9.0405,-9.6312 -18.6819,-19.08629 -21.4252,-21.01129 l -4.9878,-3.5 -23.6514,0.0141 c -46.7913,0.028 -74.1515,8.01744 -74.1515,21.65289 0,14.0336 17.1538,24.9762 47.4614,30.2759 17.186,3.0052 20.1865,4.2141 25.5316,10.2864 18.7018,21.2465 8.7245,61.186 -18.8943,75.6339 -12.0946,6.327 -34.0604,11.6368 -48.139,11.6368 -3.2129,0 -6.0568,0.3481 -6.3197,0.7735 -1.339,2.1666 26.8209,20.3582 50.3771,32.5442 42.4906,21.981 76.4981,28.6144 102.102,19.9158 z m 1433.35049,0.7781 c 1.8183,-0.6914 3.7751,-3.6674 7.4275,-11.2967 3.8373,-8.0155 6.5582,-12.0706 12.0308,-17.9307 3.8897,-4.1649 7.0721,-7.7809 7.0721,-8.0355 0,-0.2546 -3.4875,-0.7241 -7.75,-1.0432 -9.8911,-0.7406 -17.3916,-2.7788 -28.7033,-7.7998 -13.9673,-6.1997 -15.8052,-6.1958 -23.5955,0.049 -11.4629,9.1894 -42.9512,41.6404 -42.9512,44.2643 0,0.6858 12.7645,2.7925 18.5,3.0533 11.9702,0.5444 55.7245,-0.4075 57.9696,-1.261 z m -1263.0747,-61.6373 c -0.9295,-3.7809 -2.3687,-8.2243 -3.1982,-9.8743 -3.8311,-7.6203 -4.4472,-12.5947 -4.6446,-37.5 -0.2314,-29.1952 -1.0407,-33.1114 -11.05589,-53.5 -9.0234,-18.3697 -9.2648,-18.6829 -18.1599,-23.5699 -4.31,-2.3679 -13.4613,-8.19883 -20.3363,-12.95767 -11.7024,-8.1004 -14.9484,-10.29953 -26.5628,-17.99608 l -4.5628,-3.02367 -7.8227,2.47118 c -16.4675,5.20211 -32.5176,5.6743 -54.4946,1.60324 -11.4174,-2.11499 -21.5571,-2.65507 -21.5571,-1.14822 0,1.56581 13.3155,13.49212 22.0223,19.72471 9.8639,7.06101 19.6753,12.53711 32.9777,18.40621 40.3208,17.7897 39.4581,17.0286 47.0322,41.4902 11.7362,37.9035 22.8335,54.0226 46.5358,67.5943 5.1923,2.9732 12.92619,7.7005 17.18629,10.5053 4.2601,2.8047 7.8773,4.9981 8.0381,4.8742 0.1608,-0.1239 -0.4681,-3.3187 -1.3975,-7.0995 z m 319.1051,-21.2399 c 9.1072,-4.1478 15.3667,-14.6907 18.5071,-31.1717 1.6705,-8.7669 3.4748,-21.1043 11.1733,-76.4036 2.8034,-20.13694 -1.375,-45.41204 -10.0942,-61.05909 -5.3578,-9.61494 -8.953,-23.85731 -11.6118,-46 -1.793,-14.93209 -5.6141,-31.49771 -9.0658,-39.30256 l -2.3801,-5.38193 -19.3105,0.34225 c -21.4345,0.37988 -23.0547,0.81738 -25.9982,7.02021 -3.6055,7.59802 -4.2265,15.9617 -2.2467,30.26005 2.3232,16.77962 1.7069,28.76583 -2.497,48.56198 -6.6869,31.48841 -4.6855,59.49854 6.5024,90.99999 1.8557,5.225 4.9762,13.8891 6.9344,19.2535 3.3168,9.0861 5.849,20.1513 4.8419,21.1584 -0.8917,0.8917 -9.9745,-3.7096 -18.2139,-9.227 -16.1158,-10.7918 -28.1709,-24.3877 -35.0387,-39.5172 -3.2242,-7.1028 -4.2127,-5.9496 -4.316,5.0356 -0.08,8.4525 5.7224,19.9716 19.0375,37.7967 22.1635,29.6706 39.715,43.4591 61.2763,48.1387 7.4136,1.609 7.903,1.5893 12.5,-0.5043 z m 545.517,-5.1139 c 36.8674,-6.8818 65.3386,-15.8612 88.483,-27.9063 20.2269,-10.5268 61.4585,-37.343 68.4305,-44.5059 4.4278,-4.5491 4.4294,-4.5532 2.5,-6.7253 -3.1189,-3.5112 -9.3666,-5.7169 -19.4703,-6.8738 -32.9217,-3.7696 -36.0733,-5.1814 -43.3908,-19.43721 -12.1404,-23.65182 -24.6955,-28.38466 -47.1461,-17.77249 -20.0128,9.45985 -29.123,9.90538 -45.0371,2.20251 -4.5475,-2.2011 -8.452,-4.002 -8.6767,-4.002 -1.2244,0 -14.8483,19.66556 -22.2467,32.11219 -20.4691,34.4362 -32.4628,65.6372 -32.4628,84.4507 0,10.9191 25.9256,14.6345 59.017,8.4576 z M 1195.4825,852.14651 c 3.6301,-4.94193 11.5168,-22.43707 14.7191,-32.65163 10.2331,-32.64044 8.3351,-61.60016 -6.1509,-93.85295 -4.3677,-9.72459 -23.7298,-15.20785 -39.3935,-11.15602 -3.3793,0.87417 -6.5943,1.9441 -7.1443,2.37761 -0.55,0.43352 -2.125,1.13086 -3.5,1.54964 -7.3178,2.2288 -21.5237,13.50999 -23.1259,18.36475 -1.8743,5.67939 -0.382,19.11656 4.0115,36.1186 14.8812,57.58795 31.2347,82.37188 55.3547,83.89043 0.9964,0.0627 3.2317,-1.92089 5.2293,-4.64043 z m -134.0183,-14 c -5.5305,-39.13624 -16.8573,-75.94547 -26.7335,-86.8773 -6.1645,-6.82332 -25.6421,-14.89163 -29.7784,-12.33526 -0.884,0.54638 -0.8971,2.7339 -0.054,9.00118 4.5408,33.74091 -1.1996,52.53033 -20.38579,66.72671 l -3,2.21978 3.5,2.94229 c 14.1997,11.93701 47.12249,22.4657 71.81129,22.96515 l 5.3116,0.10745 z m 544.0873,-48.86459 c 6.6213,-4.88698 14.8338,-10.89952 18.25,-13.36121 3.4163,-2.46169 6.2114,-4.72439 6.2114,-5.02822 0,-0.62676 -3.1904,-5.1292 -7.2304,-10.20372 -6.1974,-7.78447 -7.3856,-18.01314 -3.2373,-27.86892 4.1881,-9.95051 -0.4904,-14.92942 -14.0167,-14.91679 -6.9999,0.007 -27.4544,4.86786 -30.2523,7.18992 -1.9786,1.64207 -1.7134,32.92991 0.3563,42.02939 2.8312,12.44792 14.1862,33.93229 16.8384,31.85935 0.5731,-0.44792 6.4594,-4.81283 13.0806,-9.6998 z m -199.4606,-7.65897 c 10.1068,-6.81101 25.0103,-35.98224 30.5829,-59.86127 5.3899,-23.09596 3.0607,-36.5122 -8.492,-48.91416 -9.705,-10.41856 -14.4924,-8.42543 -38.6421,16.088 -7.364,7.47486 -13.8122,13.08539 -16.75,14.57412 -5.6434,2.85969 -5.6211,2.69256 -1.7007,12.77148 1.6868,4.33654 5.0747,15.74922 7.5286,25.36151 5.7484,22.51743 9.1536,30.02269 17.6963,39.00388 3.6624,3.85041 5.2735,4.01131 9.777,0.97644 z m 795.15,-34.18096 c 10.259,-2.66553 26.9048,-9.46904 30.0802,-12.29449 1.615,-1.437 4.6918,-7.06188 4.6918,-8.57726 0,-0.21477 -4.8375,-0.6439 -10.75,-0.95361 -12.9684,-0.6793 -17.3527,-1.93469 -36.75,-10.523 -16.8922,-7.47914 -25.9951,-8.82106 -33.25,-4.90159 -4.4347,2.39589 -4.2271,2.75696 3.6337,6.31896 8.4696,3.8379 11.0385,7.68248 14.6524,21.92896 1.3629,5.37274 3.0258,10.42865 3.6953,11.23534 1.63,1.96411 11.3083,1.06337 23.9966,-2.23331 z M 752.51291,714.01404 c 2.2,-1.01121 6.0157,-3.64159 8.4793,-5.8453 l 4.4792,-4.00676 -4.1743,-8.38273 c -6.9835,-14.02392 -19.4824,-26.4688 -47.5461,-47.34044 l -3.7619,-2.79782 -4.0055,2.77582 c -4.7812,3.31343 -10.9707,9.9641 -10.9707,11.78826 0,4.09206 11.0793,27.95623 17.0995,36.83151 10.3731,15.29244 27.9744,22.68899 40.4005,16.97746 z m 145.7298,-21.10679 c 7.4775,-2.30957 14.7702,-7.19224 14.7702,-9.88909 0,-2.80753 -11.7093,-18.70259 -17.7316,-24.07023 -21.8747,-19.49657 -71.3017,-34.14428 -115.7684,-34.30797 -15.3826,-0.0566 -38.1546,4.62896 -39.284,8.08307 -0.2399,0.73377 6.9306,8.77701 16.0468,18 9.0643,9.17042 19.5577,20.04848 23.3186,24.17348 8.6816,9.52201 8.3896,9.3742 14.1012,7.13709 11.1635,-4.37247 22.4491,-6.49431 34.8174,-6.54616 14.687,-0.0616 20.641,1.58994 38,10.54025 17.8071,9.18133 21.6088,10.00561 31.7298,6.87956 z M 1932.1446,542.64651 c 12.8364,-14.62183 17.8263,-23.254 23.4834,-40.62482 6.4872,-19.91947 8.6989,-34.30538 6.7625,-43.98696 -0.7371,-3.68588 -4.51,-5.12371 -13.4679,-5.13264 -11.5368,-0.0115 -27.1946,11.81039 -46.761,35.30545 -6.041,7.25394 -13.9795,16.11397 -17.6411,19.68897 -11.5953,11.32115 -12.1387,15.62815 -3.0869,24.46551 9.7155,9.48543 25.6776,16.18181 39.1517,16.42492 l 6.0724,0.10957 z m -753.1317,-9.75 c 4.7272,-4.72724 4.6652,-4.19655 1.2266,-10.49225 -3.23,-5.91386 -6.7494,-7.87611 -17.9803,-10.02494 -13.8315,-2.64641 -21.0909,-6.96442 -34.2176,-20.35343 -17.2982,-17.64374 -26.5663,-21.38062 -42.9413,-17.31391 -17.9675,4.46219 -31.4511,5.13273 -54.348,2.70274 -37.23909,-3.95208 -52.62659,-8.76604 -70.18929,-21.95862 -9.7218,-7.30272 -12.7431,-9.02078 -24.8217,-14.1149 -24.8122,-10.46446 -37.4501,-23.36858 -52.3423,-53.44469 -8.2362,-16.63377 -11.705,-21.76972 -17.5759,-26.02256 -7.9192,-5.73659 -21.0719,-7.6005 -34.7057,-4.91821 -7.8275,1.53996 -7.9111,0.6225 2.1378,23.44894 12.6909,28.82784 14.6029,31.70444 24.7228,37.19484 8.994,4.87962 22.8752,13.92944 29.4388,19.19265 2.1472,1.72174 7.9893,5.26206 12.9824,7.86739 10.5078,5.48276 21.7558,15.84653 25.4232,23.42452 4.9231,10.17296 4.9981,26.10582 0.2338,49.63864 -2.0461,10.10618 -2.5707,9.69907 11.2862,8.75812 14.9398,-1.0145 23.5632,-3.10645 38.1339,-9.25097 66.31469,-27.96504 108.29879,-27.11202 155.52609,3.15993 15.1545,9.71379 31.1963,16.44981 39.2605,16.48562 4.2212,0.0187 5.1953,-0.42419 8.75,-3.97891 z m 817.7272,-34.54254 c 8.9989,-3.37825 17.1129,-8.31787 32.7728,-19.95146 7.15,-5.31167 14.7311,-10.55487 16.8469,-11.65155 2.1158,-1.09669 3.6908,-2.14601 3.5,-2.33183 -0.1908,-0.18582 -8.4266,-3.34706 -18.3018,-7.02496 -16.1958,-6.03194 -18.7384,-6.70231 -25.9521,-6.84238 l -7.9972,-0.15528 -3.3031,8.79641 c -6.8248,18.17529 -9.6291,36.18352 -6.2656,40.23624 1.5141,1.82443 0.712,1.92356 8.7001,-1.07519 z m -465.0569,-15.57303 c 16.7012,-5.89302 28.5978,-13.02751 42.8118,-25.67445 15.7975,-14.05588 36.9184,-20.9397 58.4156,-19.03906 21.1319,1.86834 24.9199,1.2844 31.6513,-4.87912 8.5374,-7.81713 33.7035,-45.91116 33.2244,-50.2918 -0.2639,-2.4128 -0.535,-2.5025 -7.7734,-2.57174 -14.8511,-0.14206 -17.8653,-2.03811 -24.5267,-15.42826 -7.5666,-15.20965 -11.3754,-18.46945 -31.1072,-26.62371 -5.8912,-2.43456 -12.1492,-5.31518 -13.9067,-6.40138 -4.4018,-2.72048 -7.082,-2.4939 -9.1686,0.77509 -10.6328,16.65801 -24.8163,28.06258 -43.0329,34.60168 -15.5421,5.57903 -15.2608,5.3074 -26.1193,25.2199 -15.3681,28.18253 -19.7492,42.42875 -21.1516,68.7798 -0.5605,10.53174 -1.2287,20.09431 -1.4849,21.25016 -0.9546,4.30765 0.6557,4.34509 12.1682,0.28289 z m -67.6703,-12.45555 c 0,-0.86412 1.7498,-7.72662 3.8884,-15.25 4.8327,-17.00102 5.6095,-20.70462 7.4837,-35.67888 1.7311,-13.83135 3.1306,-36.5 2.2534,-36.5 -4.0097,0 -11.1065,6.92147 -14.7509,14.38632 -4.8508,9.93614 -9.4851,14.81469 -22.1736,23.34258 -10.7811,7.24584 -12.1772,8.94915 -11.377,13.88004 0.8456,5.21085 5.471,11.01707 19.6865,24.71239 13.1785,12.69619 14.9895,14.0382 14.9895,11.10755 z"
       id="path1" />
  </g>
</svg>
