<?xml version="1.0" encoding="UTF-8" standalone="no"?>
<!-- Created with Inkscape (http://www.inkscape.org/) -->

<svg
   version="1.1"
   id="svg1"
   width="2784"
   height="1536"
   viewBox="0 0 2784 1536"
   sodipodi:docname="Tree5.svg"
   inkscape:version="1.4.2 (f4327f4, 2025-05-13)"
   xmlns:inkscape="http://www.inkscape.org/namespaces/inkscape"
   xmlns:sodipodi="http://sodipodi.sourceforge.net/DTD/sodipodi-0.dtd"
   xmlns="http://www.w3.org/2000/svg"
   xmlns:svg="http://www.w3.org/2000/svg">
  <defs
     id="defs1" />
  <sodipodi:namedview
     id="namedview1"
     pagecolor="#ffffff"
     bordercolor="#000000"
     borderopacity="0.25"
     inkscape:showpageshadow="2"
     inkscape:pageopacity="0.0"
     inkscape:pagecheckerboard="0"
     inkscape:deskcolor="#d1d1d1"
     inkscape:zoom="0.1258138"
     inkscape:cx="1689.0039"
     inkscape:cy="2523.5705"
     inkscape:window-width="1920"
     inkscape:window-height="991"
     inkscape:window-x="-9"
     inkscape:window-y="-9"
     inkscape:window-maximized="1"
     inkscape:current-layer="g1" />
  <g
     inkscape:groupmode="layer"
     inkscape:label="Image"
     id="g1">
    <path
       id="path1"
       style="fill:#000000"
       d="m 1782.6181,15.863304 c -6.5303,0.0189 -12.8954,0.697981 -17.1485,2.03125 -3.4591,1.084369 -8.9148,2.393499 -12.123,2.910156 -5.0795,0.81803 -21.6885,7.396668 -23.0879,9.144531 -0.9061,1.131656 -11.2075,7.947266 -12.0117,7.947266 -0.433,0 -3.0525,1.524112 -5.8203,3.386719 -11.7821,7.92875 -22.6993,10.075851 -36.168,7.113281 -13.2589,-2.916422 -28.3844,-1.303567 -39.5,4.210938 -3.6965,1.833845 -17.1053,15.858891 -22.2207,23.242191 -5.2936,7.64063 -10.9396,13.04687 -13.625,13.04687 -2.9796,0 -21.0682,-6.12803 -26.1387,-8.85547 -2.1918,-1.17902 -4.681,-2.14453 -5.5293,-2.14453 -0.8483,0 -2.5021,-0.67199 -3.6758,-1.49414 -1.1738,-0.82215 -3.8188,-1.71084 -5.8789,-1.97461 -2.0602,-0.26376 -5.1388,-0.93367 -6.8398,-1.48828 -32.1468,-10.481691 -70.0298,-6.55239 -94.8281,9.83594 -3.9954,2.64045 -8.2553,5.32719 -9.4668,5.9707 -1.2115,0.64351 -4.5865,3.71248 -7.5,6.82031 -2.9135,3.10783 -6.755,6.997394 -8.5371,8.642584 -1.7821,1.64519 -4.5573,5.2858 -6.166,8.08985 -8.4566,14.73861 -24.6935,28.73637 -42.5938,36.7207 -9.9158,4.42287 -37.5444,3.08815 -62.8281,-3.03516 -6.6944,-1.62128 -15.9969,-3.27167 -20.6719,-3.66797 -4.675,-0.3963 -9.3106,-0.79627 -10.3008,-0.88867 -6.0988,-0.56938 -22.2469,2.75846 -33.4277,6.88867 -23.2196,8.57739 -32.3215,14.8556 -46.2695,31.91602 -7.0285,8.59693 -9.3508,13.24628 -11.8438,23.70508 -3.7464,15.71705 -7.5045,23.87735 -13.9141,30.20898 -5.9822,5.90949 -19.124,14.08338 -25.3574,15.77344 -1.9871,0.53874 -5.2607,2.09762 -7.2754,3.46484 -2.0147,1.36722 -4.8749,2.79054 -6.3554,3.16211 -8.8515,2.22159 -24.49,15.58897 -28.4864,24.34961 -4.0204,8.81305 -3.775,23.90034 0.5059,31.20508 6.3287,10.7991 25.1543,23.66279 39.2246,26.80078 11.6048,2.58815 36.0316,0.53786 41.8105,-3.50977 1.1741,-0.82243 2.974,-1.49609 4,-1.49609 1.026,0 5.448,-1.575 9.8262,-3.5 4.3783,-1.925 8.8143,-3.5 9.8574,-3.5 1.0431,0 5.1834,-1.65251 9.2012,-3.67188 18.1351,-9.1149 36.8415,-9.55492 56.5313,-1.33203 5.0745,2.11921 11.6557,4.35622 14.625,4.97266 6.0696,1.26003 13.9174,5.79842 15.6601,9.05469 1.0436,1.94997 0.4998,2.7743 -5.6777,8.60547 -10.4994,9.91074 -18.1758,12.8305 -27.334,10.39257 -1.925,-0.51243 -6.2,-1.64888 -9.5,-2.52343 -19.2123,-5.09154 -41.2968,-0.79154 -61,11.87695 -12.2341,7.86612 -36.9897,19.625 -41.3164,19.625 -3.2832,0 -16.5893,-2.6935 -19.6836,-3.98438 -3.5636,-1.48662 -5.9376,-2.15124 -9.207,-2.57617 -1.7637,-0.22922 -4.6887,-1.31944 -6.5,-2.42383 -1.8114,-1.10435 -4.1051,-2.00971 -5.0977,-2.01171 -0.9927,-0.002 -4.8177,-1.28476 -8.5,-2.84961 -12.4619,-5.29581 -24.9193,-5.8547 -35.9863,-1.61524 -17.5129,6.70864 -20.3175,8.78296 -37.709,27.875 -4.4,4.83023 -11.825,11.99504 -16.5,15.92188 -4.675,3.92685 -9.625,8.12852 -11,9.33789 -1.375,1.20937 -4.075,3.24706 -6,4.52734 -8.8067,5.85717 -11.7735,22.77863 -5.9922,34.17578 6.0779,11.98194 23.9624,22.51605 41.9922,24.73243 21.3546,2.62509 27.2364,12.65033 12.3535,21.05859 l -4.918,2.7793 -22.9667,0.17578 c -15.9733,0.12275 -24.2004,-0.20322 -27.0137,-1.07032 -6.207,-1.91305 -41.21498,-1.09413 -44.50198,1.04102 -1.3496,0.87668 -6.2781,3.26434 -10.9531,5.30664 -4.675,2.04231 -9.6944,4.36273 -11.1543,5.15625 -1.4598,0.79352 -3.6973,1.44336 -4.9726,1.44336 -2.5148,0 -16.8731,6.82428 -16.8731,8.01953 0,0.40188 -1.2375,0.997 -2.75,1.32227 -5.5526,1.19411 -15.4897,10.98099 -17.6816,17.41406 -4.5885,13.46637 0.7573,26.60287 15.9297,39.14062 2.5447,2.10287 6.4355,6.25056 8.6445,9.21485 15.5445,20.85897 30.852,27.30744 55.4355,23.35156 14.0537,-2.26147 21.01628,-2.15791 26.61718,0.39649 2.5824,1.17769 5.151,2.14062 5.709,2.14062 0.5579,0 2.045,1.1046 3.3047,2.45508 4.0068,4.29531 15.7691,7.53397 27.291,7.51367 11.5683,-0.0204 17.0705,-1.53543 31,-8.5332 12.5468,-6.30313 22.5151,-8.27029 33.6719,-6.64649 15.1199,2.2006 28.5598,8.53813 28.7558,13.56055 0.1093,2.80154 -12.4177,16.22542 -17.3867,18.63086 -2.3699,1.14723 -8.0746,2.77062 -12.6758,3.60742 -4.6012,0.83681 -10.0527,2.16846 -12.1152,2.95899 -2.0625,0.79048 -3.75,1.23146 -3.75,0.98046 0,-0.251 -2.0614,0.42736 -4.582,1.50782 -2.5206,1.08045 -5.5116,1.96484 -6.6446,1.96484 -1.1381,0 -4.293,2.23451 -7.0507,4.99219 l -4.9903,4.99023 0.4785,9.95508 c 0.597,12.39736 3.7461,18.51079 12.9786,25.19922 3.1958,2.31522 5.8105,4.49177 5.8105,4.83594 0,0.94245 6.8525,3.28427 12.5,4.27148 13.6136,2.37972 11.7534,2.507 42,-2.88672 25.4297,-4.53473 31.2047,-4.39508 44.6602,1.07617 6.1792,2.51262 12.8562,5.69177 14.8398,7.06641 1.9837,1.37464 4.3853,2.5 5.3359,2.5 0.9506,0 3.4007,0.70886 5.4453,1.57617 2.0451,0.86732 6.8688,2.24246 10.7188,3.05469 3.85,0.81223 8.8,1.85871 11,2.32617 17.0053,3.6133 50.2856,0.92827 63.5,-5.12305 3.025,-1.38525 6.625,-3.03512 8,-3.66796 1.375,-0.63284 3.3823,-1.71672 4.4609,-2.40821 1.0786,-0.69149 5.3536,-3.42776 9.5,-6.08008 4.8375,-3.09441 12.1973,-9.57035 20.5391,-18.07421 12.3252,-12.56462 21.9854,-19.60352 26.9062,-19.60352 2.2568,0 9.6859,7.1999 13.918,13.48828 10.9059,16.20493 38.2195,42.51172 44.1387,42.51172 0.6,0 8.012,2.74674 16.4707,6.10352 15.344,6.08942 15.4081,6.10471 28.4726,6.75 l 13.0938,0.64648 -0.2656,4.5 c -0.7463,12.64654 -0.1123,35.80818 1.2578,46 4.1543,30.90386 6.2873,43.72867 7.709,46.32812 1.7014,3.11141 1.637,43.78121 -0.078,49.17188 -1.2055,3.78903 -2.232,9.71342 -3.9414,22.73633 -0.4141,3.15448 -1.2988,6.2812 -1.9668,6.94922 -0.668,0.66801 -1.2224,2.13617 -1.2324,3.26367 -0.027,3.03736 -5.7315,14.85359 -11.9824,24.82226 -3.025,4.82416 -6.0868,9.88781 -6.8047,11.25196 -0.7179,1.36415 -2.8555,3.71682 -4.75,5.22851 -1.8946,1.51169 -3.4453,3.23357 -3.4453,3.82813 0,0.59456 -1.0226,1.6294 -2.2734,2.2988 -1.2508,0.6695 -3.1022,2.4339 -4.1133,3.92 -1.9598,2.8805 -19.5026,17.2412 -25.5117,20.8847 -1.981,1.2011 -7.4266,4.2917 -12.1016,6.86721 -4.675,2.5756 -9.6629,5.4879 -11.084,6.4727 -1.4211,0.9847 -4.2877,2.2612 -6.3691,2.8359 -2.0814,0.5747 -4.6888,1.8529 -5.7949,2.8418 -1.4108,1.2612 -1.0829,0.2812 1.0996,-3.2832 2.2171,-3.6209 4.5754,-5.8763 8.2011,-7.8496 2.7984,-1.5231 5.3152,-3.36391 5.5938,-4.08991 0.2785,-0.7259 3.7342,-4.1097 7.6797,-7.5195 14.4204,-12.4626 27.4814,-29.59684 39.2246,-51.45898 2.068,-3.85 4.3615,-8.125 5.0976,-9.5 0.736,-1.375 1.3457,-3.12682 1.3457,-3.89258 0,-0.76576 1.5341,-5.04076 3.4024,-9.5 1.8684,-4.45924 4.6137,-13.50742 6.0996,-20.10742 1.4859,-6.6 3.3328,-13.99225 4.1035,-16.42773 1.9796,-6.25548 1.8465,-7.43428 -0.5996,-5.33985 -1.1,0.94185 -2,2.10749 -2,2.58985 0,1.38759 -7.0115,12.37838 -9.1055,14.27343 -1.0421,0.94308 -1.8965,2.20634 -1.8965,2.8086 -0.01,3.53237 -20.8835,28.98287 -29.6972,36.20508 -6.2478,5.11959 -15.5442,11.38567 -16.8965,11.38867 -0.6023,0.001 -1.9268,0.92149 -2.9434,2.04492 -2.1209,2.34352 -16.7294,9.41375 -22.8437,11.05664 -2.2648,0.60856 -4.3422,1.44994 -4.6172,1.86914 -1.0024,1.52794 -8.775,4.91876 -14.9375,6.51563 -3.4745,0.90034 -7.2785,2.2655 -8.4531,3.03515 -1.1747,0.76965 -4.4928,1.90575 -7.3731,2.52345 -2.8804,0.6177 -5.2363,1.5011 -5.2363,1.9629 0,0.4618 -1.6875,1.3775 -3.75,2.0351 -5.0169,1.5996 -9.3686,3.4519 -17.75,7.5586 -3.85,1.8865 -7.4935,3.4241 -8.0957,3.416 -0.6023,-0.01 -1.9088,0.8844 -2.9043,1.9844 -0.9955,1.1 -2.302,2.0196 -2.9043,2.043 -1.0542,0.041 -7.9639,4.2854 -19.8945,12.22461 -3.1144,2.0724 -7.7576,5.8062 -10.3203,8.2969 -2.5627,2.4906 -5.84,5.1384 -7.2832,5.8847 -1.4432,0.7463 -4.8689,3.8225 -7.6114,6.836 -10.6433,11.6947 -16.0419,18.0912 -17.3906,20.6015 -0.7725,1.4377 -3.81,5.277 -6.75,8.5332 -2.9401,3.2562 -5.3457,6.3518 -5.3457,6.8789 0,0.9031 -1.4999,2.7754 -10.9766,13.7012 -4.7097,5.43 -8.6405,10.7881 -9.9043,13.5 -0.5126,1.1 -3.6011,5.15 -6.8632,9 -3.262,3.85 -6.6066,8.2922 -7.4336,9.8711 -1.4389,2.7469 -9.0572,11.3591 -18.9493,21.4219 -5.254,5.3447 -16.1724,14.7846 -23.9492,20.707 -2.8889,2.2 -7.4284,6.2298 -10.0879,8.9551 l -4.8359,4.9551 v -5.0918 c 0,-5.0442 2.5596,-12.0667 8.5547,-23.4649 1.3444,-2.556 2.4453,-5.1428 2.4453,-5.748 0,-0.6051 1.5042,-3.2397 3.3438,-5.8535 1.8393,-2.6138 5.7522,-8.802 8.6933,-13.752 2.941,-4.95 5.7099,-9.1507 6.1543,-9.334 0.4445,-0.1834 0.8086,-0.761 0.8086,-1.2851 0,-2.4357 16.4221,-21.9845 32.7246,-38.9532 7.2369,-7.5326 8.213,-8.9277 6.2422,-8.9277 -2.8388,0 -22.7787,8.7368 -26.6035,11.6562 -2.4098,1.8395 -4.9666,3.3438 -5.6817,3.3438 -2.5369,0 -18.8266,10.5822 -24.6836,16.0352 -1.4982,1.3949 -3.6666,2.9699 -4.8183,3.5 -1.7729,0.8163 -16.039,13.0439 -26.502,22.7148 -1.6364,1.5125 -3.2719,2.75 -3.6367,2.75 -0.3647,0 -1.7349,0.9983 -3.0449,2.2188 -1.3101,1.2204 -4.6584,3.0466 -7.4395,4.0585 -21.2057,7.7161 -27.9,8.8977 -33.0859,5.8379 -1.8926,-1.1167 -5.2057,-2.505 -7.3633,-3.0859 -3.5863,-0.9657 -9.9475,-6.5254 -19.709,-17.2266 -4.0477,-4.4375 -18.7107,-17.2115 -21.5234,-18.75 -1.562,-0.8544 -5.4353,-3.0983 -8.6074,-4.9882 -9.5237,-5.6743 -16.5119,-9.0604 -18.7012,-9.0704 -1.13688,0 -3.41638,-0.7386 -5.06638,-1.6347 -2.7789,-1.5091 -5.493,-2.3534 -17.5,-5.4375 -2.475,-0.6357 -5.175,-1.5686 -6,-2.0742 -0.825,-0.5057 -2.7423,-1.455 -4.2598,-2.1075 -1.5175,-0.6525 -2.6039,-1.6478 -2.416,-2.2129 0.9862,-2.9658 34.60768,-3.1118 39.09768,-0.1699 1.2346,0.809 4.4578,1.7917 7.1621,2.1856 2.7043,0.3938 6.041,1.277 7.416,1.9609 6.0176,2.993 7.3364,2.9718 6.5645,-0.1035 -0.3894,-1.5516 -1.572,-3.7396 -2.627,-4.8613 -1.055,-1.1218 -2.9738,-3.1641 -4.2656,-4.5391 -2.2854,-2.4327 -6.0487,-5.6469 -12.1719,-10.3984 -1.65,-1.2803 -5.025,-3.343 -7.49998,-4.584 -2.475,-1.241 -6.5923,-3.7447 -9.1484,-5.5625 -2.5561,-1.8177 -6.3207,-3.7671 -8.3672,-4.3321 -2.0464,-0.5651 -4.456,-1.6505 -5.3535,-2.4121 -0.8974,-0.7617 -4.7809,-2.3955 -8.6309,-3.6308 -3.85,-1.2354 -8.1931,-3.0891 -9.6504,-4.1191 -1.4573,-1.0301 -3.9008,-2.1861 -5.4316,-2.5704 -1.5309,-0.3842 -4.3392,-1.7548 -6.2403,-3.0449 -1.901,-1.2901 -3.867,-2.3457 -4.3691,-2.3457 -2.0333,0 -17.5806,-11.20601 -18.8574,-13.59181 -0.7547,-1.4102 -2.1735,-2.9917 -3.1524,-3.5156 -2.9104,-1.5576 -9.2817,-10.7488 -14.455,-20.85352 l -4.8438,-9.46289 -0.035,-12.03711 c -0.057,-20.1885 2.3266,-22.49353 16.0097,-15.47656 4.4139,2.26349 12.4854,5.62935 17.9375,7.48047 5.4522,1.85112 10.1772,3.77609 10.5,4.27734 1.0736,1.66683 19.9833,3.37891 24.0567,2.17774 1.3926,-0.41069 5.4562,-1.28662 9.0312,-1.94532 3.575,-0.6587 9.7273,-2.73978 13.6719,-4.625 3.9445,-1.88522 7.6409,-3.42773 8.21478,-3.42773 0.5738,0 2.5215,-1.2713 4.3281,-2.82617 18.344,-15.78759 33.2065,-16.88459 52.1739,-3.84766 2.1393,1.47038 4.4861,2.67383 5.2129,2.67383 0.7268,0 2.1254,0.84099 3.1093,1.86914 1.6407,1.7144 17.4606,8.13086 20.0469,8.13086 0.6118,0 2.3794,0.53135 3.9277,1.17969 10.4215,4.36397 25.1164,5.4638 37.9864,2.8457 19.2796,-3.92198 23.9892,-6.4422 39.0683,-20.91406 1.7825,-1.71071 3.7381,-3.11133 4.3457,-3.11133 0.6076,0 2.2999,-0.84233 3.7598,-1.87109 5.3911,-3.79898 13.333,-5.21027 28.5488,-5.07422 15.3093,0.13689 23.6171,-1.76032 38.1055,-8.70508 25.8634,-12.39715 40.5339,-38.03901 32.2402,-56.34961 -5.4713,-12.07934 -15.6546,-21.0439 -26.0547,-22.93555 -4.7609,-0.86594 -8.7065,-1.79805 -21.957,-5.18945 -7.3702,-1.88636 -23.7285,-19.72497 -23.7285,-25.875 0,-4.95208 -9.4118,-18.57507 -19.4375,-28.13477 -2.9851,-2.84631 -15.628,-9.50974 -23.6504,-12.46484 -9.8053,-3.61181 -40.1126,-3.55565 -48.4121,0.0898 -4.6868,2.05863 -20.4276,5.59609 -26.4277,5.93946 -9.2442,0.52902 -13.4526,-1.62574 -34.2442,-17.53907 -4.0309,-3.0851 -8.4531,-5.94387 -9.8281,-6.35351 -1.375,-0.40964 -3.4017,-1.31215 -4.5039,-2.00391 -2.8541,-1.7913 -8.2432,-2.60262 -22.3301,-3.36523 -14.02268,-0.75914 -14.64068,-1.11523 -15.70118,-9.05274 -0.3392,-2.53823 -1.4825,-7.4092 -2.541,-10.82421 -1.0584,-3.415 -1.9238,-6.75535 -1.9238,-7.42188 0,-2.07217 -6.2545,-14.16698 -8.9434,-17.29492 -9.7043,-11.28867 -21.7628,-19.38315 -32.1074,-21.55469 -13.5499,-2.84438 -19.2447,-3.27134 -25.914,-1.93945 -15.3032,3.05608 -30.2144,1.20263 -39.795,-4.94727 -7.865,-5.04868 -18.0859,-12.43508 -21.9492,-15.86328 -4.096,-3.63475 -16.9975,-10.18635 -25.2675,-12.83008 -3.0126,-0.96303 -6.0516,-2.32503 -6.752,-3.02539 -0.7004,-0.70036 -3.8594,-1.78316 -7.0215,-2.4082 -3.1621,-0.62504 -7.325,-1.63967 -9.25,-2.25391 -4.5745,-1.45966 -34.963,-1.32786 -41.5,0.17969 -2.75,0.6342 -8.0173,1.71969 -11.7051,2.41406 -3.6878,0.69437 -7.5128,1.99112 -8.5,2.88086 -0.9872,0.88973 -3.1365,1.95214 -4.7754,2.36133 -2.7765,0.69325 -14.4027,6.96863 -15.5195,8.37695 -0.275,0.34679 -2.075,1.71316 -4,3.03516 -1.925,1.322 -3.725,2.69205 -4,3.04492 -1.0417,1.33672 -16.3253,11.03792 -21.3027,13.52149 -7.4483,3.7165 -17.6582,4.36806 -25.9551,1.6582 -3.4328,-1.12119 -8.6629,-2.58846 -11.6211,-3.26172 -7.4546,-1.69659 -35.9637,-1.66629 -40.2891,0.043 -13.0475,5.15599 -30.67186,15.11126 -32.49801,18.35547 -0.45827,0.81412 -3.23521,4.03409 -6.16992,7.15625 -2.9347,3.12216 -5.79105,6.98341 -6.34765,8.58008 -0.5566,1.59666 -1.36365,2.90234 -1.79297,2.90234 -0.42931,0 -2.74797,2.5875 -5.15235,5.75 -5.42574,7.1365 -5.76665,7.4143 -14.50195,11.79492 -4.48799,2.25067 -9.22336,3.7912 -12.7793,4.1582 -3.10711,0.32069 -5.8864,0.96807 -6.17773,1.43946 -0.29134,0.47139 -1.79731,0.85742 -3.3457,0.85742 -1.54839,0 -4.72811,0.675 -7.06641,1.5 -2.3383,0.825 -5.33496,1.5 -6.66016,1.5 -1.3252,0 -3.40685,0.6254 -4.625,1.38867 -1.21815,0.76327 -4.01415,1.70459 -6.21289,2.0918 -2.19874,0.38722 -4.22374,1.03479 -4.5,1.43945 -0.27626,0.40467 -4.512,1.9753 -9.41211,3.49024 -4.9001,1.51493 -12.72436,4.51695 -17.38867,6.67187 -4.66431,2.15492 -9.05625,3.91797 -9.75976,3.91797 -0.70351,0 -2.55426,0.6278 -4.11133,1.39453 -1.55707,0.76674 -6.20508,2.44557 -10.33008,3.73242 -4.125,1.28685 -8.89184,3.36102 -10.59375,4.60743 -1.70192,1.24642 -3.59752,2.26562 -4.21094,2.26562 -3.19294,0 -14.14632,15.42472 -14.17773,19.96484 -0.0199,2.88361 -7.68326,19.03516 -9.03125,19.03516 -0.50462,0 -2.45474,1.35 -4.33399,3 -1.87924,1.65 -4.37886,3 -5.55468,3 -1.17582,0 -3.82831,1.0125 -5.89454,2.25 -2.06621,1.2375 -6.36673,3.6 -9.55664,5.25 -7.60706,3.9348 -19.13721,15.14613 -21.68164,21.08203 -2.3501,5.48257 -2.44742,7.97053 -0.45898,11.7832 0.82161,1.57537 1.49509,3.37537 1.49609,4 0.004,1.76787 7.623,12.55315 10.42578,14.75782 4.28714,3.37227 21.54275,11.06783 25.91602,11.55859 2.28641,0.25657 5.874,1.37939 7.97266,2.49414 2.09865,1.11475 4.06825,1.77357 4.37695,1.46484 0.30871,-0.3087 2.12503,0.0917 4.03711,0.89063 9.02489,3.77084 40.39898,1.93582 47.54687,-2.78125 1.4585,-0.9625 3.25395,-1.75 3.98828,-1.75 0.73437,0 1.84338,-0.50939 2.46485,-1.13086 0.62148,-0.62148 3.2982,-1.91485 5.94922,-2.875 2.65103,-0.96015 6.17031,-2.23213 7.82031,-2.82617 4.27019,-1.53738 22.42739,-3.53368 26.53906,-2.91797 3.69036,0.55263 14.09979,4.59511 20.09766,7.80469 1.99989,1.07017 4.53372,1.94531 5.63086,1.94531 3.76726,0 15.73369,5.14022 17.98242,7.72461 5.19968,5.97584 1.3221,16.97611 -6.84766,19.42383 -3.87867,1.16207 -4.50258,1.04419 -10.26562,-1.91406 -13.00489,-6.67561 -28.51197,-9.9775 -33.73242,-7.1836 -1.15515,0.61822 -4.52944,1.9604 -7.5,2.98242 -2.97055,1.02202 -7.77368,3.43242 -10.67383,5.35742 -11.44828,7.59893 -23.00124,11.60938 -33.44531,11.60938 -7.01551,0 -27.47354,-3.9233 -30.86719,-5.91992 -1.69478,-0.99711 -4.84478,-2.37299 -7,-3.05664 -2.15521,-0.68365 -5.46939,-2.12986 -7.36524,-3.21485 -4.79216,-2.74252 -21.78009,-5.15847 -30.55273,-4.34375 -11.62832,1.07994 -17.10884,2.85433 -31.91602,10.32813 -3.80354,1.9198 -8.30354,4.1788 -10,5.02148 -1.69646,0.84269 -4.24603,2.11048 -5.66601,2.81641 -4.80347,2.38799 -13.4439,4.16037 -30.81055,6.31836 -4.61579,0.57357 -8.89893,1.46346 -9.51953,1.97851 -0.6206,0.51505 -5.80715,2.09346 -11.52344,3.50782 -5.7163,1.41436 -11.78119,3.46309 -13.47851,4.55273 -1.69732,1.08963 -4.88594,2.82482 -7.08594,3.85547 -8.89138,4.16544 -27.84014,25.02514 -34.20703,37.65625 -1.38618,2.75 -3.08637,5.675 -3.77735,6.49998 -2.268,2.708 -6.51562,17.4 -6.51562,22.5371 0,11.49222 5.81107,21.77512 14.74219,26.08592 3.16707,1.5292 6.07826,3.2523 6.4707,3.8282 1.44948,2.1271 19.27262,1.2712 23.99805,-1.1524 2.35852,-1.2097 6.81039,-2.9389 9.89258,-3.8418 l 5.60351,-1.6406 5.89649,3.25 c 3.24281,1.7878 7.24648,4.4417 8.89648,5.8965 12.20494,10.7613 37.0848,20.114 46.93164,17.6426 1.72752,-0.4335 2.46433,-0.1124 2.81445,1.2265 0.40951,1.566 1.30735,1.7549 6.5586,1.375 7.35792,-0.5322 13.65522,2.0274 19.44531,7.9063 8.33098,8.4588 3.17405,10.6762 -21.70117,9.3301 -10.43663,-0.5647 -12.8613,-1.04 -18.12695,-3.5489 -3.34346,-1.5931 -7.00205,-2.8965 -8.12891,-2.8965 -1.12687,0 -3.58906,-0.6426 -5.47266,-1.4296 -6.4715,-2.704 -26.721,-1.605 -31.50586,1.7109 -2.15731,1.495 -4.46995,2.7187 -5.14062,2.7187 -3.93495,0 -26.92223,22.376 -28.64844,27.8868 -0.41111,1.3125 -2.2097,4.3035 -3.99805,6.6464 -1.78835,2.343 -4.04983,6.4786 -5.02539,9.1915 -2.69873,7.505 -6.2522,11.2982 -11.20703,11.9628 -5.48192,0.7353 -19.69051,-2.1478 -25.7793,-5.2304 -7.14683,-3.6166 -24.06128,-3.6102 -30.01562,0.012 -2.2,1.3382 -6.10394,3.5715 -8.67578,4.9629 -2.57184,1.3914 -4.93375,3.3398 -5.24805,4.3301 -1.89992,5.9861 -15.3974,21.5465 -21.36328,24.6289 -1.49262,0.7712 -4.73789,1.9396 -7.21289,2.5976 -2.475,0.6579 -5.85,2.0218 -7.5,3.0313 -1.65,1.0095 -5.25,2.5924 -8,3.5156 -2.75,0.9232 -7.475,2.8148 -10.5,4.2051 -3.025,1.3903 -6.85,2.8832 -8.5,3.3164 -9.096807,2.3879 -15.702277,5.5294 -20.560547,9.7793 -2.90889,2.5446 -7.34681,5.3106 -9.86328,6.1465 -5.3634,1.7814 -6.92713,4.931 -7.01953,14.1465 -0.0856,8.5401 1.98565,12.5468 7.18945,13.9003 14.74716,3.8356 19.40055,5.8205 22.17579,9.459 1.41815,1.8593 2.57812,4.0972 2.57812,4.9727 0,0.8754 0.9,4.1515 2,7.2812 1.1,3.1297 2,7.1277 2,8.8848 0,4.8587 6.538977,12.5104 13.693357,16.0234 5.60115,2.7504 6.33806,2.8516 20.80664,2.8516 8.25,0 18.15,-0.5496 22,-1.2207 20.62335,-3.5945 26.01884,-4.2793 33.69336,-4.2793 4.62367,0 8.83492,0.4116 9.35742,0.9141 1.62905,1.5669 22.91886,11.9177 26.01172,12.6464 1.61563,0.3807 5.1875,1.9438 7.9375,3.4747 10.4193,5.8002 35.15719,5.5585 48.5,-0.4747 3.025,-1.3678 8.52247,-3.6544 12.2168,-5.08 3.69433,-1.4256 10.34655,-4.7032 14.7832,-7.2852 4.43665,-2.582 10.63918,-6.0688 13.7832,-7.748 3.14402,-1.6793 8.8668,-4.7975 12.7168,-6.9297 3.85,-2.1321 9.7,-5.3709 13,-7.1973 11.2455,-6.2239 12.51071,-6.6333 16.6582,-5.3906 5.21851,1.5635 7.08935,3.67 6.33008,7.1269 -0.90597,4.1248 1.495,18.9113 3.39649,20.9161 0.88839,0.9366 2.06523,2.4783 2.61523,3.4257 1.05948,1.825 4.48572,2.4625 27,5.0313 6.6,0.7531 13.80949,2.0526 16.02148,2.8867 11.60364,4.3757 36.69757,4.5338 48.90821,0.3086 3.88882,-1.3456 10.22031,-3.4433 14.07031,-4.6621 8.29306,-2.6254 13.98327,-5.7697 17.96875,-9.9297 1.59837,-1.6683 3.47713,-3.0332 4.17578,-3.0332 0.69865,0 2.52655,-1.6227 4.0625,-3.6055 1.53595,-1.9828 4.25547,-5.3994 6.04297,-7.5937 1.7875,-2.1942 3.25,-4.8577 3.25,-5.918 0,-1.0602 1.7961,-3.8773 3.99219,-6.2598 2.19609,-2.3824 4.66137,-6.2269 5.47851,-8.5429 0.81714,-2.316 2.38513,-5.3511 3.48242,-6.7461 1.09733,-1.395 2.27879,-4.0563 2.62696,-5.9121 0.37425,-1.995 2.40361,-5.2732 4.96289,-8.0215 l 4.32812,-4.6484 18.81446,0.873 c 47.30464,2.1982 56.64784,0.6694 77.90824,-12.7578 3.3673,-2.1266 6.5966,-3.8672 7.1757,-3.8672 0.5792,0 2.1043,-1.2375 3.3907,-2.75 3.318,-3.9013 10.6477,-9.6559 15.3398,-12.0449 2.2,-1.1201 5.7384,-3.6444 7.8633,-5.6094 2.1249,-1.965 4.1964,-3.3669 4.6035,-3.1152 0.4071,0.2516 2.7188,-0.7774 5.1367,-2.2871 2.418,-1.5096 7.7715,-4.0533 11.8965,-5.6524 4.125,-1.5991 8.4,-3.6828 9.5,-4.6289 8.1909,-7.0448 44.5606,-8.941 67.5,-3.5195 16.2143,3.8321 24.7451,4.7463 28.5,3.0547 4.0655,-1.8315 27.4073,-9.4473 28.9551,-9.4473 0.6814,0 2.2766,-0.9 3.5449,-2 1.3316,-1.1548 3.7418,-2 5.7031,-2 1.8682,0 4.6701,-0.658 6.2266,-1.4629 4.8631,-2.5148 11.3376,-4.5863 17.5703,-5.6191 3.3,-0.5468 7.125,-1.1911 8.5,-1.4317 1.375,-0.2405 9.3003,-0.7403 17.6113,-1.1113 19.9071,-0.8885 32.1644,1.4863 40.0586,7.7598 1.9833,1.5761 4.0389,2.8652 4.5684,2.8652 1.7284,0 10.0298,8.8919 11.8965,12.7422 1.0021,2.0669 2.2121,4.4328 2.6875,5.2578 9.5184,16.5186 10.8221,37.5015 3.6933,59.4199 -1.9532,6.0055 -3.9329,11.4055 -4.4004,12 -0.4674,0.5946 -1.6567,3.5551 -2.6425,6.5801 -2.0968,6.4338 -7.8428,17.423 -10.9805,21 -1.2061,1.375 -3.6634,5.1213 -5.459,8.3242 -5.3463,9.5364 -30.3373,32.7931 -41.0332,38.1856 -2.9494,1.4869 -10.2861,6.6623 -12,8.4648 -0.275,0.2892 -3.425,2.9533 -7,5.9219 -8.8483,7.3473 -20.5517,19.5411 -24.5742,25.6035 -1.8247,2.75 -5.1866,7.7 -7.4727,11 -2.286,3.3 -4.8382,7.35 -5.6699,9 -0.8317,1.65 -3.3738,4.8267 -5.6484,7.0586 -2.2747,2.2318 -6.7868,7.7443 -10.0274,12.25 -3.2405,4.5056 -6.1962,8.1914 -6.5683,8.1914 -0.3722,0 -3.5457,3.6432 -7.0528,8.0957 -7.047,8.9466 -33.4333,31.8101 -39.7636,34.4551 -2.0322,0.8491 -4.6015,2.3581 -5.709,3.3515 -3.4884,3.1291 -23.7706,13.0977 -26.6485,13.0977 -0.7931,0 -3.171,0.8812 -5.2851,1.959 -6.1359,3.1283 -27.5995,5.8663 -50.6445,6.459 -12.3801,0.3184 -22.9268,1.0905 -26.5,1.9414 -3.2646,0.7774 -8.6356,1.9584 -11.9356,2.623 -3.3,0.6646 -7.8491,2.0655 -10.1094,3.1133 -2.2602,1.0477 -4.5504,1.9043 -5.0898,1.9043 -1.9354,0 -11.43,5.7399 -12.8516,7.7695 -0.7981,1.1394 -2.9143,2.3822 -4.70114,2.7617 -3.02335,0.6424 -6.15351,2.6214 -15.53321,9.8204 -14.35755,11.0195 -32.62529,17.6322 -55.71484,20.1679 -3.3,0.3624 -7.35,1.0625 -9,1.5547 -1.65,0.4923 -6.6,1.7875 -11,2.8789 -10.9659,2.7198 -17.6029,5.2037 -27,10.1035 -4.4,2.2942 -10.1375,4.8119 -12.75,5.5957 -2.6125,0.7837 -4.75,1.8581 -4.75,2.3868 0,0.5287 -0.56956,0.9609 -1.26562,0.9609 -0.69608,0 -2.83359,0.8996 -4.75,2 -1.91643,1.1003 -5.84688,3.1009 -8.73438,4.4453 -3.91752,1.824 -5.25,2.984 -5.25,4.5684 v 2.123 l 93.75,-0.3183 c 87.04299,-0.2955 93.97979,-0.4436 96.95119,-2.0684 1.7602,-0.9625 4.9102,-1.7498 7,-1.7598 2.0898,-0.01 6.1619,-1.1101 9.0508,-2.455 2.8888,-1.345 6.9388,-2.7315 9,-3.0821 4.0314,-0.6859 14.3702,-3.5891 23.248,-6.5273 3.025,-1.0012 8.2,-2.3291 11.5,-2.9512 3.3,-0.6221 9.6,-1.9653 14,-2.9844 13.3131,-3.084 33.9626,-4.3413 49,-2.9843 7.15,0.6453 17.275,1.5556 22.5,2.0214 22.3915,1.9963 47.2447,3.0788 57,2.4844 20.6122,-1.256 29.5296,-2.1731 31.5078,-3.2402 3.3898,-1.8284 20.5381,-4.626 21.6348,-3.5293 0.9179,0.9179 -1.1242,2.7113 -12.543,11.0098 -1.7046,1.2388 -4.6746,3.8455 -6.5996,5.7929 -7.2083,7.2922 -33.2094,25.1214 -38.9453,26.7051 -1.9486,0.5381 -4.4335,1.6032 -5.5215,2.3652 -1.0879,0.762 -2.6919,1.3848 -3.5644,1.3848 -0.8725,0 -2.4598,0.6613 -3.5274,1.4688 -1.7195,1.3005 1.8266,1.4675 31.0586,1.4785 34.4824,0.012 40.5874,-0.5073 56.9512,-4.8555 4.3733,-1.1621 10.4483,-2.5486 13.5,-3.082 3.0517,-0.5335 8.6988,-1.914 12.5488,-3.0664 8.7207,-2.6104 21.2691,-5.6482 28.5,-6.9004 16.0325,-2.7765 24.736,-3.373 59.99998,-4.1075 41.2486,-0.8591 50.809,-1.3397 61,-3.0703 3.575,-0.607 7.9768,-1.2874 9.7832,-1.5117 1.8064,-0.2243 11.7064,-3.8219 22,-7.9941 10.2936,-4.1722 20.5168,-8.2897 22.7168,-9.1504 2.2,-0.8606 4.9,-2.3515 6,-3.3125 1.1,-0.961 4.25,-2.9309 7,-4.3789 12.7501,-6.7139 39.7159,-29.0568 46.7734,-38.7539 1.525,-2.0955 4.5776,-5.6147 6.7852,-7.8223 4.582,-4.582 13.9337,-18.0394 17.6797,-25.4414 1.3917,-2.75 3.7511,-6.8 5.2422,-9 1.491,-2.2 3.5319,-6.25 4.5351,-9 1.0032,-2.75 2.3677,-5.675 3.0332,-6.5 0.6654,-0.825 1.9725,-3.005 2.9043,-4.8438 0.9319,-1.8385 1.9431,-3.092 2.2481,-2.7871 1.333,1.333 -5.4895,35.3559 -7.6446,38.1231 -0.4315,0.554 -1.0853,2.9775 -1.4531,5.3848 -0.3677,2.4072 -1.3293,5.3199 -2.1367,6.4726 -0.8073,1.1526 -1.4668,2.9104 -1.4668,3.9063 0,2.3848 -4.279,10.8377 -9.0684,17.914 -2.1108,3.1185 -4.4709,7.1685 -5.2441,9 -1.4587,3.4551 -22.4348,25.3142 -31.1875,32.5 -5.4796,4.4986 -5.6423,6.2324 -0.373,3.9629 19.3319,-8.3262 59.5375,-7.9503 94.873,0.8867 8.2859,2.0722 26.0933,3.8648 39,3.9258 13.7245,0.065 41.9196,-1.2777 43.1797,-2.0566 0.4909,-0.3033 4.8128,-0.9746 9.6055,-1.4922 4.7927,-0.5177 11.1898,-1.3842 14.2148,-1.9258 13.8164,-2.4736 86.8945,-1.6086 96.5,1.1426 2.2,0.6301 5.575,1.3315 7.5,1.5566 1.925,0.2252 5.525,0.8105 8,1.3028 2.475,0.4924 6.4315,1.159 8.793,1.4804 2.3615,0.3214 5.0615,1.008 6,1.5254 1.7184,0.9474 8.9363,2.7404 14.957,3.7149 2.0298,0.3286 3.25,0.1089 3.25,-0.584 0,-0.6102 -0.3417,-1.1094 -0.7598,-1.1094 -0.4181,0 -1.9651,-1.1171 -3.4375,-2.4824 -4.3445,-4.0285 -19.3936,-14.5448 -35.8027,-25.0196 -6.529,-4.1679 -14.737,-8.4939 -16.1211,-8.5039 -0.7581,0 -2.6276,-0.6586 -4.1543,-1.455 -1.5267,-0.7963 -5.2412,-1.9021 -8.2539,-2.459 -3.0128,-0.5569 -6.3725,-1.4916 -7.4648,-2.0762 -1.0924,-0.5846 -6.8279,-1.9408 -12.7461,-3.0137 -14.7739,-2.6783 -34.348,-7.5357 -42.7598,-10.6113 -3.85,-1.4077 -8.575,-3.0142 -10.5,-3.5684 -1.925,-0.5543 -4.9328,-2.0872 -6.6836,-3.4082 -1.7508,-1.321 -3.5775,-2.4023 -4.0605,-2.4023 -0.483,0 -1.8173,-0.8742 -2.9649,-1.9434 -1.1476,-1.0692 -3.5958,-2.5896 -5.4394,-3.3769 -5.3346,-2.278 -21.2085,-17.8722 -23.2832,-22.8731 -2.6967,-6.4999 -3.4631,-8.1658 -4.5137,-9.8066 -11.7024,-18.2758 -15.8609,-49.1856 -10.5645,-78.5391 1.4847,-8.2282 3.2956,-15.901 4.0235,-17.0507 0.7279,-1.1497 1.8048,-3.8777 2.3925,-6.0606 1.1094,-4.1195 6.6889,-13.3496 8.0704,-13.3496 1.6656,0 1.926,4.8582 0.748,14 -1.7763,13.7843 -1.4266,42.5667 0.6406,52.6934 0.9199,4.5063 1.5645,8.5563 1.4317,9 -0.1327,0.4437 0.5291,1.958 1.4707,3.3652 0.9416,1.4072 2.1475,4.8634 2.6816,7.6797 0.5341,2.8162 2.0832,7.2898 3.4414,9.9414 1.3582,2.6515 2.9522,6.0834 3.543,7.6269 2.0953,5.4744 3.1056,1.7011 2.9785,-11.1269 -0.1369,-13.81 1.3349,-21.7594 5.6699,-30.627 1.33,-2.7205 2.418,-5.47 2.418,-6.1113 0,-0.6414 1.3901,-2.9166 3.0898,-5.0547 1.6996,-2.1381 3.6991,-5.3394 4.4414,-7.1152 0.7426,-1.7759 3.3354,-5.3759 5.7637,-8 4.1989,-4.5376 6.5791,-7.7331 16.3438,-21.9434 7.1981,-10.4752 8.6634,-13.9926 13.2695,-31.8535 4.9,-19.001 19.8734,-38.3713 36.5918,-47.3379 2.2,-1.18 6.7706,-4.0557 10.1582,-6.3906 3.3875,-2.3349 8.7796,-5.8211 11.9805,-7.7461 3.2009,-1.925 9.2964,-6.653 13.5468,-10.5078 4.2504,-3.8548 10.708,-8.5798 14.3497,-10.5 3.6418,-1.9202 7.0847,-4.0472 7.6523,-4.7266 1.1215,-1.3422 17.3773,-9.2656 19.0098,-9.2656 0.5504,0 2.4191,-0.636 4.1523,-1.4141 1.7331,-0.778 7.4254,-2.8163 12.6504,-4.5293 5.225,-1.7131 11.0405,-3.8347 12.9238,-4.7148 1.8833,-0.8802 5.9333,-1.9519 9,-2.3809 6.8431,-0.9571 17.6008,-3.408 21.3907,-4.873 1.5483,-0.5985 4.0233,-1.084 5.5,-1.084 2.5793,0 12.7334,-2.5413 22.1855,-5.5586 2.475,-0.7901 8.55,-1.8767 13.5,-2.4141 11.2838,-1.2249 23.0173,-4.2983 26.6426,-6.9785 1.5269,-1.1289 3.1703,-2.0527 3.6523,-2.0527 1.5419,0 10.3103,-7.289 17.1113,-14.2246 3.6269,-3.6983 7.2208,-7.2983 7.9864,-8 0.7656,-0.7017 3.2406,-3.3004 5.5,-5.7754 10.7038,-11.7252 28.1973,-28.2504 32.416,-30.6211 2.5805,-1.45 7.1664,-4.107 10.1914,-5.9062 3.025,-1.7992 7.525,-3.8118 10,-4.4707 2.475,-0.6589 5.0384,-1.6399 5.6973,-2.1797 1.2133,-0.9941 7.2891,-2.1766 19.5488,-3.8047 3.7104,-0.4927 7.0854,-1.1035 7.5,-1.3594 0.4145,-0.2559 5.0177,-1.2026 10.2285,-2.1016 5.2109,-0.8991 10.7457,-2.2691 12.3008,-3.0449 2.3692,-1.1819 11.3485,-3.2299 22.7246,-5.1855 4.5158,-0.7762 33.1854,-0.296 34.8613,0.584 0.9011,0.4732 4.1137,1.1613 7.1387,1.5312 3.025,0.3699 8.875,1.7498 13,3.0664 6.7009,2.1387 30.044,7.0167 38.8594,8.1192 1.8473,0.231 4.3223,0.946 5.5,1.5898 1.1777,0.6438 4.7195,1.483 7.8711,1.8652 3.1515,0.3823 7.4265,1.5771 9.5,2.6543 2.0734,1.0771 5.5695,2.2808 7.7695,2.6758 4.2409,0.7614 16.9951,4.7111 24.5,7.5859 2.475,0.9481 6.975,2.533 10,3.5235 3.025,0.9905 6.9786,3.0793 8.7852,4.6406 1.8066,1.5612 3.8809,2.8379 4.6093,2.8379 0.7285,0 3.8533,1.35 6.9453,3 3.0921,1.65 6.3505,3 7.2403,3 1.7175,0 6.5727,1.9718 12.5566,5.0996 1.9998,1.0453 4.1261,1.9004 4.7266,1.9004 0.6006,0 4.3656,1.5226 8.3652,3.3828 10.9046,5.0715 24.2849,8.9681 28.0918,8.1817 1.7486,-0.3611 6.7797,-1.2968 11.1797,-2.0801 4.4,-0.7833 9.7821,-2.3386 11.9609,-3.4551 2.1788,-1.1165 4.7822,-2.0293 5.7852,-2.0293 1.0031,0 2.8863,-0.6949 4.1836,-1.5449 2.4056,-1.5763 16.4468,-5.8379 24.5703,-7.4571 2.475,-0.4933 7.65,-1.6321 11.5,-2.5312 3.85,-0.8991 9.337,-2.0051 12.1934,-2.457 2.8565,-0.452 5.6332,-1.0948 6.1718,-1.4278 0.5387,-0.3329 3.1518,-0.8325 5.8067,-1.1113 2.6549,-0.2787 5.7281,-0.6993 6.8281,-0.9355 1.1,-0.2362 5.15,-0.6939 9,-1.0157 10.8248,-0.9048 14.7462,-1.624 18,-3.3047 2.2105,-1.1418 8.5433,-1.8066 24.0645,-2.5253 23.2303,-1.0755 25.7157,-0.6798 28.1992,4.5019 2.4988,5.2136 13.0617,12.4373 24.9394,17.0547 7.4436,2.8937 25.6346,3.2403 31.2969,0.5957 1.925,-0.8991 5.4496,-1.952 7.832,-2.3398 2.3825,-0.3879 5.4744,-1.2989 6.8711,-2.0235 2.7314,-1.4171 3.0459,-1.3892 13.7188,1.1719 10.7716,2.5848 14.8378,5.6858 24.6347,18.7949 5.8325,7.8044 10.4333,12.0257 15.9434,14.627 2.475,1.1684 5.4,2.9382 6.5,3.9336 1.3899,1.2578 4.4402,2.0258 10,2.5156 16.5707,1.4597 21.3632,5.9573 23.4199,21.9785 2.8858,22.4786 11.3617,31.3955 42.5801,44.8027 12.4184,5.3332 22.1257,6.3841 34.8223,3.7657 6.104,-1.2589 12.6841,-3.1405 14.623,-4.1797 1.9389,-1.0392 4.5669,-1.8887 5.8399,-1.8887 1.2729,0 3.5284,-0.6117 5.0136,-1.3594 5.8781,-2.9592 22.0822,-5.9301 28.5254,-5.2304 12.6983,1.3791 32.6983,9.9625 36.1231,15.5039 1.6973,2.7463 14.487,9.7003 24.9218,13.5507 12.2766,4.53 37.8031,3.1091 45.7461,-2.5468 1.4814,-1.0549 3.3006,-1.918 4.043,-1.918 2.4597,0 10.6503,-7.4378 12.4277,-11.2852 0.9618,-2.0818 3.3619,-5.245 5.3321,-7.0293 1.9703,-1.7843 5.0792,-5.1377 6.9082,-7.4531 4.9076,-6.2127 24.6295,-15.3373 36.3398,-16.8125 2.934,-0.3697 6.234,-1.4115 7.334,-2.3144 4.4816,-3.6784 8.5156,-6.1055 10.1484,-6.1055 3.7511,0 14.0307,-12.6662 16.9121,-20.8379 3.3604,-9.5299 4.4117,-23.7449 2.1114,-28.5644 -0.8129,-1.7032 -2.0026,-4.2227 -2.6426,-5.5977 -3.7356,-8.0252 -9.6175,-15 -12.6504,-15 -0.8536,0 -3.4249,-1.2787 -5.7148,-2.8418 -2.2899,-1.5631 -6.1114,-4.0681 -8.4922,-5.5664 -7.6625,-4.8223 -9.8886,-15.1529 -3.9219,-18.2012 3.1322,-1.6002 15.2537,-10.4734 22.9824,-16.8242 2.0526,-1.6866 3.7495,-3.7414 3.7715,-4.5664 0.054,-1.9958 2.955,-5.4887 5.7461,-6.918 l 2.25,-1.1523 v -39.793 -39.79292 l -10.25,-2.7559 c -5.6375,-1.5158 -12.05,-3.1955 -14.25,-3.7324 -5.2636,-1.2846 -12.5096,-3.3589 -20.416,-5.8418 -3.5283,-1.108 -7.2309,-2.0137 -8.2285,-2.0137 -2.2073,0 -15.5836,-4.42653 -19.5137,-6.45701 -1.5628,-0.80741 -4.9267,-2.19979 -7.4746,-3.0957 -8.9153,-3.13489 -15.7677,-11.19352 -16.0567,-18.88086 -0.1493,-3.97333 4.0744,-8.42229 8.1895,-8.62696 6.3722,-0.31692 11.7927,0.36366 15,1.88477 3.6076,1.71094 4.0076,1.83902 6.4277,2.05078 0.7857,0.0688 2.1161,0.81139 2.9551,1.65039 0.839,0.839 4.0561,1.99279 7.1484,2.56445 6.707,1.23982 9.7805,-0.19629 12.0528,-5.63476 2.9329,-7.01925 1.0972,-32.78344 -2.9707,-41.70117 -0.8165,-1.78996 -2.7968,-6.17891 -4.4004,-9.75391 -9.152,-20.40283 -21.3687,-28.28332 -45.7129,-29.48438 -16.8943,-0.83349 -26.9492,-1.7305 -27.5,-2.45507 -0.275,-0.36175 -2.4091,-1.21503 -4.7422,-1.89649 -8.9603,-2.61726 -24.1722,-15.18853 -27.8223,-22.99218 -0.9449,-2.02002 -2.6659,-5.02188 -3.8261,-6.67188 -1.9477,-2.77006 -6.0186,-11.56002 -7.3184,-15.80273 -0.4772,-1.55765 3.8662,-11.26118 5.6836,-12.69727 3.8414,-3.03567 5.4987,-9.80114 5.5117,-22.5 l 0.014,-13 -3.6074,-6.5 c -9.0773,-16.35377 -15.0465,-21.91213 -33.8574,-31.5332 -7.1289,-3.64613 -14.0352,-9.48833 -14.0352,-11.8711 0,-0.82804 1.125,-2.6289 2.5,-4.0039 3.562,-3.56201 3.6583,-16.04663 0.1758,-22.67188 -6.8029,-12.94228 -19.063,-32.33573 -21.9649,-34.74414 -0.8206,-0.68098 -2.4567,-3.36184 -3.6367,-5.95703 -1.1801,-2.59518 -3.1137,-6.29375 -4.2949,-8.21875 -6.3702,-10.38159 -6.339,-21.39633 0.086,-30.13281 1.7236,-2.34379 3.1348,-5.04504 3.1348,-6.00391 0,-0.95887 1.125,-4.86201 2.5,-8.67383 6.4198,-17.79716 -0.087,-36.91412 -18.9551,-55.68945 -4.1947,-4.17412 -6.3589,-5.70709 -10.5449,-7.46484 -1.375,-0.57739 -3.7952,-1.7814 -5.3789,-2.67578 -2.8989,-1.63719 -12.0142,-4.34207 -23.125,-6.86329 -3.3025,-0.74936 -8.0275,-2.46589 -10.5,-3.81445 -2.4726,-1.34855 -6.9026,-2.749 -9.8438,-3.11328 -14.2829,-1.76898 -29.9022,-14.73156 -34.6855,-28.78516 -2.8197,-8.28422 -6.797,-14.28833 -13.2988,-20.07226 -5.4822,-4.87691 -19.027,-13.71094 -21.0215,-13.71094 -0.3723,0 -2.4703,-0.96547 -4.6621,-2.14648 -3.9612,-2.13437 -15.1317,-4.11908 -32.4844,-5.77149 -21.1385,-2.0129 -22.7483,-3.26486 -18.8906,-14.68555 2.6551,-7.86035 2.2384,-21.7271 -0.7891,-26.25976 -0.9685,-1.4501 -2.4497,-3.82014 -3.291,-5.26563 -4.7687,-8.19328 -8.7671,-13.39379 -12.2246,-15.89843 -2.1451,-1.55386 -4.7942,-3.96073 -5.8867,-5.34961 -1.0925,-1.38889 -5.6845,-5.29112 -10.2032,-8.67188 -19.6367,-14.6917 -37.7479,-31.1511 -40.6621,-36.95117 -2.6256,-5.22569 -4.1357,-14.71816 -3.6699,-23.07422 1.2126,-21.74845 -4.7709,-35.61171 -23.291,-53.96875 -7.9025,-7.83298 -23.4948,-19.95703 -25.666,-19.95703 -0.2945,0 -3.0981,-1.73217 -6.2305,-3.84961 -3.1323,-2.11744 -8.3953,-4.86745 -11.6953,-6.11133 -10.8589,-4.09307 -41.5192,-12.39499 -49.7637,-13.47461 -2.62,-0.34309 -5.9773,-1.08629 -7.4609,-1.65039 -4.1959,-1.59526 -31.625,-1.15074 -39.7754,0.64453 -3.85,0.84803 -11.4837,2.19255 -16.9648,2.98633 -5.4811,0.79378 -11.4876,1.94469 -13.3477,2.5586 -6.5184,2.15125 -22.9639,0.71657 -28.6875,-2.50196 -6.7716,-3.80785 -6.9834,-4.01377 -9.9961,-9.77539 -4.2615,-8.15012 -1.1749,-23.93043 7.0059,-35.82617 8.0445,-11.69754 10.9448,-36.40699 5.2402,-44.63867 -1.5125,-2.18254 -2.75,-4.40999 -2.75,-4.94922 0,-5.38632 -21.969,-18.040714 -34.2363,-19.720704 -8.373,-1.14668 -15.7438,-5.74507 -24.3946,-15.2168 -9.2557,-10.133957 -20.524,-18.967133 -27.0175,-21.179687 -7.8506,-2.67496 -26.0818,-1.321927 -34.2012,2.539062 -3.4921,1.660542 -9.4354,3.572064 -13.207,4.246094 -10.4205,1.862253 -12.8986,0.557019 -27.9707,-14.708984 -6.8595,-6.947758 -13.8689,-13.586109 -15.5762,-14.751953 -1.7072,-1.165844 -4.9484,-3.402036 -7.2031,-4.970703 -3.8186,-2.656747 -7.5675,-3.934843 -25.6934,-8.753906 -4.915,-1.306739 -11.6103,-1.946632 -18.1406,-1.927735 z m 327.9414,698.906256 c 3.7297,-0.005 7.3508,1.11232 12.166,3.50976 13.582,6.7623 21.0916,9.82737 27.4238,11.19336 3.5149,0.75825 7.4367,2.06287 8.7149,2.90039 1.5685,1.02774 5.0176,1.55575 10.6093,1.62305 10.1976,0.12269 13.2128,0.88991 13.5254,3.44141 0.437,3.56688 -9.3381,11.75948 -16.1738,13.55664 -2.2369,0.58809 -5.4164,1.68465 -7.0664,2.43554 -8.1914,3.72781 -11.7486,4.67505 -20.5,5.45899 -5.225,0.46805 -10.4904,1.15788 -11.7012,1.5332 -2.1596,0.6694 -6.2839,-3.9963 -6.2949,-7.12109 0,-0.603 -0.7072,-2.50618 -1.5664,-4.22852 -0.8592,-1.72234 -1.7756,-4.37964 -2.0371,-5.9043 -1.5566,-9.07592 -7.7247,-16.6447 -14.4981,-17.78906 -7.3966,-1.24965 -7.2162,-7.17382 0.2872,-9.42187 2.5968,-0.77803 4.8735,-1.18425 7.1113,-1.1875 z m -555.0547,11.74414 c 3.5358,3.4e-4 6.3142,0.33398 7.5703,1.10156 6.6012,4.03388 7.7162,8.24401 4.127,15.58008 -4.7434,9.69539 -1.9569,21.04639 7.6718,31.25586 5.1686,5.48032 5.3618,5.13358 -8.5879,15.41211 -3.0102,2.218 -5.9582,4.0332 -6.5507,4.0332 -0.5925,0 -4.9998,3.6 -9.793,8 -4.7933,4.4 -9.2268,8 -9.8535,8 -2.6521,0 -8.5555,-7.96557 -11.1856,-15.09375 -6.3244,-17.14037 -6.7174,-19.29085 -7.3066,-39.90625 l -0.5567,-19.5 2.8594,-2.61523 c 3.5768,-3.27139 20.9982,-6.2686 31.6055,-6.26758 z m 753.8066,21.6582 c 2.1318,0.0107 3.2241,1.34883 4.9942,4.81836 2.3927,4.69012 10.6011,13.90625 12.3847,13.90625 0.6364,0 2.9003,1.83904 5.0313,4.08789 2.131,2.24885 4.9341,4.49343 6.2305,4.98633 3.2046,1.21838 3.9119,3.5996 1.7714,5.96484 -2.2091,2.44105 -11.6043,6.96094 -14.4687,6.96094 -1.1702,0 -3.0581,0.49882 -4.1953,1.10742 -7.1528,3.8281 -36.098,0.36088 -50.1446,-6.00586 -3.9765,-1.80244 -8.5086,-3.10156 -10.8203,-3.10156 -2.2029,0 -4.6479,-0.66941 -5.4785,-1.5 -0.825,-0.825 -3.1724,-1.5 -5.2168,-1.5 -2.0444,0 -5.483,-0.9 -7.6406,-2 -2.1576,-1.1 -5.1109,-2 -6.5625,-2 -3.7703,0 -8.9375,-1.97967 -8.9375,-3.42383 0,-0.67532 1.125,-2.28442 2.5,-3.57617 1.375,-1.29175 2.5,-2.93565 2.5,-3.6543 0,-0.71865 1.2375,-1.54881 2.75,-1.84375 1.5125,-0.29493 4.836,-1.20398 7.3848,-2.01953 2.5488,-0.81554 5.7201,-1.48242 7.0488,-1.48242 1.3287,0 2.8447,-0.40407 3.3672,-0.89844 0.5225,-0.49437 4.9097,-1.41511 9.75,-2.04492 4.8404,-0.62981 10.0154,-1.61189 11.5,-2.18359 1.4847,-0.57171 8.5492,-1.41686 15.6992,-1.87696 7.15,-0.4601 14.7293,-1.35461 16.8418,-1.98828 1.5595,-0.46779 2.742,-0.73726 3.7109,-0.73242 z m -532.0136,45.72461 c 6.3503,0 11.0343,5.23222 15.4824,17.29297 1.6647,4.51381 4.0578,10.15992 5.3183,12.54687 l 2.293,4.33985 -14.1699,14.16015 c -15.3914,15.38074 -27.9629,32.87655 -27.9629,38.91602 0,0.727 -0.9,3.08655 -2,5.24414 -1.1,2.15759 -2.0059,4.61473 -2.0059,5.46094 0,0.84621 -0.7295,2.88906 -1.6132,4.53906 -1.5004,2.80129 -3.451,9.28932 -5.2618,17.5 -0.4246,1.925 -1.2775,4.4 -1.8945,5.5 -0.6169,1.1 -2.6525,5.375 -4.5234,9.5 -3.4869,7.68794 -7.2436,13.96124 -10.4824,17.5 -1.0068,1.1 -3.1069,3.8 -4.6661,6 -3.5647,5.02959 -10.9498,12.03049 -19.7422,18.71488 -3.7453,2.8473 -6.8105,5.609 -6.8105,6.1367 0,0.5277 -3.4875,4.3805 -7.75,8.5625 -4.2625,4.182 -8.4052,8.9507 -9.2051,10.5957 -0.8,1.645 -2.294,3.95411 -3.3222,5.13281 -1.0282,1.1787 -2.625,3.5241 -3.5469,5.2109 -4.2913,7.8524 -8.4073,14.1465 -9.25,14.1465 -0.5096,0 -0.9297,1.0125 -0.9297,2.25 -0.01,4.0044 -4.1687,9.6115 -20.8418,28.084 -3.4898,3.8665 -8.4398,8.6118 -11,10.543 -2.5602,1.9313 -4.8793,3.8145 -5.1543,4.1855 -0.275,0.3709 -2.3,1.5437 -4.5,2.6055 -2.2,1.0617 -7.2278,3.8201 -11.1738,6.1308 -3.9459,2.3107 -8.3025,4.2012 -9.6797,4.2012 -1.3773,0 -3.0974,0.5816 -3.8242,1.293 -2.0221,1.9793 -15.8256,6.6223 -15.8106,5.3183 0.023,-2.0484 9.7476,-9.8837 26.3653,-21.2461 7.1589,-4.895 23.5539,-22.394 24.5918,-26.248 0.5624,-2.0894 1.925,-4.6157 3.0273,-5.6133 1.6393,-1.4834 2.7994,-4.5039 1.7305,-4.5039 -1.6079,0 -20.3131,5.2416 -21.1328,5.9219 -0.6019,0.4993 -4.9188,1.8507 -9.5938,3.0039 -4.675,1.1531 -9.3036,2.555 -10.2852,3.1152 -2.0169,1.1511 -22.4635,7.959 -23.9043,7.959 -1,0 -13.3061,5.5258 -15.8105,7.0996 -0.825,0.5185 -3.0914,1.7211 -5.0352,2.6719 -20.237,9.8983 -36.4897,24.4041 -50.832,45.3652 -3.955,5.7802 -6.6489,8.515 -11.0801,11.25 -3.2198,1.9874 -6.8068,3.6133 -7.9707,3.6133 h -2.1152 l 2.377,-4.75 c 7.6811,-15.3493 11.6562,-24.1813 11.6562,-25.8984 0,-1.073 0.3945,-2.3799 0.877,-2.9024 0.9919,-1.074 4.154,-9.3414 7.8203,-20.4492 3.2046,-9.7087 7.506,-20.2674 12.832,-31.5 2.3471,-4.95 4.5557,-9.9719 4.9082,-11.1602 0.3525,-1.1883 1.748,-2.8865 3.1016,-3.7734 1.3535,-0.8869 2.4609,-2.0677 2.4609,-2.625 0,-2.7908 17.4016,-23.44931 31.9609,-37.94141 29.6436,-29.50664 39.5526,-47.49063 42.9727,-77.99998 2.3891,-21.31173 13.5432,-46.13706 26.8887,-59.84375 3.3976,-3.48954 6.1777,-6.76382 6.1777,-7.27539 0,-2.39653 4.9315,-2.70033 12.1348,-0.74609 12.694,3.44385 36.7696,3.72023 49.3652,0.5664 11.8956,-2.97855 30.2554,-11.34445 35.709,-16.27148 2.144,-1.93698 5.1107,-4.04323 6.5937,-4.68164 1.483,-0.63841 4.5779,-2.41874 6.877,-3.95508 2.2991,-1.53634 4.5938,-2.79297 5.0996,-2.79297 0.5059,0 2.8948,-1.43117 5.3086,-3.17969 5.3454,-3.87221 14.4029,-6.82031 20.9512,-6.82031 z m 120.7265,61.25195 c 0.2651,0.008 0.5014,0.0267 0.7032,0.0586 5.6969,0.89908 17.5312,6.77919 17.5312,8.71093 0,0.45347 1.0972,2.12778 2.4375,3.72071 1.3404,1.59293 4.0278,6.06806 5.9727,9.94336 7.8645,15.67058 15.1724,19.21247 43.8183,21.24218 10.0956,0.71532 11.0543,0.97605 16.25,4.42579 3.0368,2.01631 5.5215,4.05613 5.5215,4.53125 0,1.34074 -9.6577,10.38431 -12.9102,12.08984 -1.5993,0.83866 -5.5353,3.5903 -8.748,6.11523 -7.3791,5.7993 -14.9727,11.0857 -18.8418,13.11524 -6.6615,3.49428 -10.2544,5.57229 -15.5,8.96484 -3.025,1.95639 -7.8625,4.75145 -10.75,6.21094 -2.8875,1.45949 -5.25,3.07496 -5.25,3.58984 0,0.51488 -1.4625,1.36037 -3.25,1.87891 -1.7875,0.51855 -7.975,3.08285 -13.75,5.69922 -5.775,2.61636 -12.3,5.10485 -14.5,5.52925 -4.7763,0.9216 -8.5117,1.9996 -18.5,5.3379 -4.125,1.3787 -9.3,2.9253 -11.5,3.4375 -13.0468,3.0379 -19.1533,4.2317 -29,5.67 -6.05,0.8837 -13.025,2.0927 -15.5,2.6875 -7.6036,1.8272 -16.1663,1.9551 -19.8652,0.2968 -1.8507,-0.8296 -5.3255,-1.5078 -7.7227,-1.5078 -5.5625,0 -13.2127,-3.6102 -13.6152,-6.4258 -0.7146,-4.9987 1.5885,-18.91996 4.7597,-28.76949 1.8941,-5.88286 3.4434,-11.23262 3.4434,-11.88672 0,-1.96611 7.8417,-20.88134 9.8457,-23.75 1.0248,-1.46688 2.1878,-4.01797 2.5859,-5.66797 0.7187,-2.97902 3.7082,-8.42656 5.9161,-10.78125 1.2904,-1.37626 8.7256,-12.54946 13.5078,-20.29883 1.7245,-2.7945 4.3758,-6.18804 5.8906,-7.54101 1.5149,-1.35297 4.3784,-4.41861 6.3633,-6.8125 l 3.6074,-4.35352 3.8926,2.11133 c 14.2683,7.74177 27.0543,8.26278 40.6562,1.6543 4.821,-2.34232 9.321,-4.71823 10,-5.2793 1.9351,-1.59919 12.5239,-4.06508 16.5,-3.94727 z m 156.6465,78.72657 c 1.6491,0.021 3.334,0.40338 4.9863,1.15625 3.3043,1.50554 3.327,1.60042 4.1133,16.47656 0.5003,9.46681 1.1694,13.86001 2.5215,16.54883 1.0125,2.01342 2.3345,5.48822 2.9356,7.72072 2.6123,9.7018 19.5119,21.4566 32.9042,22.8867 2.5447,0.2717 5.077,0.8351 5.627,1.252 0.55,0.41681 7.3,1.04921 15,1.40431 17.7847,0.8201 26.0914,1.5187 30.5,2.5664 1.925,0.4574 6.2,1.1146 9.5,1.4609 13.036,1.3678 14.9382,3.3531 7.6328,7.9648 -4.038,2.5492 -28.1328,26.1856 -28.1328,27.5977 0,0.4459 -2.8125,2.881 -6.25,5.4121 -3.4375,2.5312 -8.95,6.845 -12.25,9.5859 -5.3216,4.4199 -12.3486,9.365 -23.5,16.5352 -5.6221,3.615 -13.3574,7.4531 -15.0195,7.4531 -0.8445,0 -2.4229,0.6137 -3.5078,1.3633 -1.0849,0.7497 -6.0227,2.0705 -10.9727,2.9355 -8.9703,1.5676 -24.2349,1.9439 -26.7012,0.6582 -0.7141,-0.3723 -4.2238,-1.2268 -7.7988,-1.8984 -7.1731,-1.3475 -23.5082,-8.8336 -26.2402,-12.0254 -0.9571,-1.1183 -2.4173,-2.0332 -3.2461,-2.0332 -0.8288,0 -3.1976,-1.5152 -5.2617,-3.3672 -2.0641,-1.852 -4.773,-3.6856 -6.0215,-4.0742 -1.2485,-0.3885 -4.3224,-2.2714 -6.8301,-4.1856 -2.5078,-1.9142 -6.2118,-4.209 -8.2305,-5.0976 -4.415,-1.9432 -20.6676,-9.8703 -24.1699,-11.7891 -1.375,-0.7533 -6.8875,-3.4318 -12.25,-5.9511 -6.8903,-3.2369 -9.75,-5.0936 -9.75,-6.334 0,-2.7582 2.8295,-6.1031 6.4395,-7.6114 3.0019,-1.2543 18.2633,-11.9406 27.9179,-19.5488 2.122,-1.67211 4.3063,-3.04101 4.8535,-3.04101 0.5472,0 4.1551,-2.7259 8.0176,-6.0586 3.8625,-3.3326 8.2032,-6.8113 9.6465,-7.7285 1.4434,-0.9172 2.85,-1.9107 3.125,-2.209 1.8642,-2.0217 15.1389,-13.0954 18,-15.0156 1.925,-1.29193 5.7515,-4.62965 8.5039,-7.41797 6.2346,-6.31601 19.1012,-17.764 21.3301,-18.97851 0.9167,-0.49952 3.1446,-2.18702 4.9512,-3.75 2.2296,-1.92898 4.8784,-2.8983 7.6269,-2.86328 z m -1225.50778,2.83984 c 3.169,-0.1565 8.0959,2.28446 8.666,5.10352 0.2868,1.41819 0.9234,4.15312 1.416,6.07812 0.4927,1.925 1.6282,9.125 2.5235,16 2.3682,18.18668 6.1532,33.39198 10.2422,41.15039 3.1996,6.0711 16.1735,22.9388 18.1894,23.6484 0.4658,0.1639 5.6243,5.4144 11.4629,11.668 l 10.6152,11.3691 -11.5488,-0.5683 c -6.9487,-0.3423 -13.6239,-0.1279 -16.7597,0.539 -2.8664,0.6096 -11.4747,1.7892 -19.1309,2.6211 -7.6562,0.8319 -14.3849,1.9767 -14.9512,2.543 -0.5663,0.5663 -2.4239,1.0293 -4.1289,1.0293 -1.705,0 -3.5433,0.4437 -4.0859,0.9863 -6.4314,6.4314 -25.8334,14.8538 -36.9141,16.0235 -5.5,0.5806 -11.125,1.1606 -12.5,1.291 -1.375,0.1303 -4.975,-0.082 -8,-0.4727 -3.025,-0.3902 -7.75,-0.9619 -10.5,-1.2715 -6.1889,-0.6967 -16.1633,-2.9491 -19.5,-4.4043 -1.375,-0.5997 -5.0062,-1.5246 -8.0703,-2.0546 -3.064,-0.53 -7.745,-2.1194 -10.4004,-3.5313 -2.6553,-1.4118 -5.5471,-2.5703 -6.4277,-2.5703 -0.8806,0 -3.6023,-1.3314 -6.0469,-2.9531 -2.4446,-1.6218 -10.8103,-6.1196 -18.5918,-9.9942 -7.7815,-3.8746 -14.9643,-7.9455 -15.9609,-9.0468 -0.9967,-1.1013 -2.5747,-2.002 -3.5078,-2.002 -0.9332,0 -3.1094,-1.35 -4.836,-3 -1.7266,-1.65 -3.6477,-3 -4.2676,-3 -0.6199,0 -2.624,-1.2375 -4.4531,-2.75 -1.8291,-1.5125 -4.713,-3.8654 -6.4101,-5.2285 -6.3573,-5.1058 -2.9774,-6.7145 14.6191,-6.957 34.0835,-0.4696 55.5439,-16.6855 64.9316,-49.06449 1.5149,-5.225 3.0755,-9.87475 3.4688,-10.33203 1.2021,-1.39761 12.1822,-0.86076 16.9531,0.82812 2.475,0.87614 9.8813,2.29101 16.459,3.14453 12.4581,1.61658 14.3922,1.4675 27.4141,-2.11328 5.7992,-1.59466 21.3661,-10.76217 27.2636,-16.05468 2.0007,-1.79545 5.0348,-3.57072 6.7403,-3.94532 1.7055,-0.37459 3.3561,-1.09582 3.6699,-1.60351 0.4396,-0.71127 1.3011,-1.05331 2.3574,-1.10547 z M 2202.7587,1020.918 c 1.1,-0.015 3.8,0.8566 6,1.9355 2.2,1.0789 5.1553,2.1919 6.5664,2.4746 1.4111,0.2826 3.6167,1.4261 4.9024,2.5411 1.2855,1.1149 2.3805,2.031 2.4335,2.041 0.053,0.01 5.0477,0.9009 11.0977,1.9863 6.05,1.0854 13.025,1.986 15.5,2.002 8.4578,0.054 8.3566,1.0768 -1.0039,10.2343 -4.6733,4.5721 -9.2418,9.8776 -10.1523,11.7891 -7.5811,15.9124 -8.3583,17.2208 -10.793,18.1465 -2.7948,1.0625 -65.4934,0.8839 -70.6387,-0.2012 -6.8316,-1.4408 -6.9144,-2.6332 -0.6621,-9.4727 2.6125,-2.8579 6.55,-7.4669 8.75,-10.2421 2.2,-2.7752 5.2557,-5.8044 6.7891,-6.7305 1.5335,-0.926 3.9087,-3.3781 5.2793,-5.4492 3.7778,-5.7086 22.6234,-21.0097 25.9316,-21.0547 z m -1633.28708,15.0039 c 3.60589,0.091 7.87651,1.4885 13.33789,4.207 3.82207,1.9025 9.19922,4.1558 11.94922,5.0059 2.75,0.8501 7.475,2.3149 10.49999,3.2558 7.4285,2.3107 18.6658,7.2554 22.9902,10.1172 1.9461,1.2879 5.5563,2.9567 8.0235,3.7071 2.4671,0.7504 6.2357,2.561 8.375,4.0234 2.1392,1.4623 4.2846,2.6582 4.7656,2.6582 0.481,0 3.3598,2.025 6.3984,4.5 3.2472,2.6448 6.5507,4.5 8.0118,4.5 1.6521,0 2.7781,0.7546 3.3593,2.25 0.4811,1.2375 2.3107,3.6 4.0664,5.25 6.3434,5.9614 9.7627,18.3796 5.6875,20.6602 -0.9391,0.5255 -2.4892,1.7877 -3.4433,2.8027 -0.9541,1.0151 -4.3689,3.0894 -7.5899,4.6094 -5.7174,2.698 -8.9468,5.3304 -15.2402,12.4336 -1.7023,1.9214 -4.4023,4.7126 -6,6.2011 -1.5977,1.4885 -3.9989,4.1314 -5.3359,5.875 -1.337,1.7436 -4.0336,3.841 -5.9942,4.6602 -1.9605,0.8191 -4.9179,2.5959 -6.5703,3.9473 -8.1993,6.7056 -16.027,10.6824 -23.5039,11.9414 -4.12499,0.6946 -10.64999,1.2067 -14.49999,1.1367 -20.44501,-0.3717 -21.86117,-1.6797 -12.69727,-11.7129 4.90213,-5.3671 6.74543,-17.4255 4.17383,-27.3047 -0.53688,-2.0625 -1.3571,-5.2275 -1.82226,-7.0332 -1.32841,-5.1566 -7.92782,-13.5614 -12.4668,-15.877 -2.23426,-1.1399 -4.68827,-2.698 -5.45312,-3.4628 -4.92735,-4.9274 -28.09009,-5.6547 -34.63086,-1.0879 -2.14314,1.4964 -5.96814,3.3383 -8.5,4.0937 -2.53186,0.7554 -6.21195,2.326 -8.17774,3.4902 -5.15608,3.0536 -11.97689,3.7945 -15.24023,1.6563 -1.42917,-0.9364 -3.06561,-1.4128 -3.63867,-1.0586 -1.04563,0.6462 -7.04688,-2.3558 -7.04688,-3.5254 0,-0.3431 -1.15139,-1.1479 -2.55859,-1.7891 -5.84246,-2.6619 -7.57902,-13.5334 -3.09375,-19.3671 2.84625,-3.7019 10.95695,-4.946 14.99414,-2.3008 3.722,2.4385 21.6878,4.1558 25.79101,2.4648 1.85214,-0.7633 9.44219,-7.4255 16.86719,-14.8047 7.425,-7.3792 15.075,-14.5791 17,-15.998 1.925,-1.4188 5.46543,-4.3395 7.86719,-6.4922 2.79902,-2.5087 5.73981,-3.7243 9.3457,-3.6328 z m 843.24018,37.1582 c 0.044,0 0.075,0.01 0.092,0.027 0.243,0.243 -4.7707,5.5825 -11.1426,11.8653 -11.07,10.9149 -16.4908,17.2311 -29.1171,33.9238 -21.4327,28.3353 -33.979,39.627 -56.543,50.8926 -3.1663,1.5808 -6.4155,3.4219 -7.2227,4.0918 -0.8071,0.6699 -3.9241,2.2156 -6.9257,3.4355 -6.5434,2.6594 -12.7355,7.6383 -26.1641,21.0352 -5.5382,5.5251 -11.8902,12.2352 -14.1172,14.9121 -2.4081,2.8944 -4.3231,4.4258 -4.7227,3.7793 -0.7007,-1.1339 2.8493,-10.5409 4.961,-13.1465 0.6686,-0.825 2.2312,-3.525 3.4726,-6 1.2413,-2.475 5.854,-10.575 10.25,-18 23.3189,-39.3861 36.9393,-55.3681 56.2266,-65.9766 3.3,-1.8151 8.025,-4.4081 10.5,-5.7617 2.475,-1.3536 5.2098,-3.091 6.0781,-3.8613 0.8683,-0.7703 1.9933,-1.3926 2.5,-1.3926 0.5067,0 4.5219,-1.7401 8.9219,-3.8769 4.4,-2.1369 12.2834,-5.9654 17.5195,-8.5079 5.2361,-2.5425 9.9194,-4.623 10.4063,-4.623 0.487,0 2.2785,-1.0597 3.9804,-2.3555 1.702,-1.2959 4.2188,-2.7002 5.5938,-3.1211 1.375,-0.4208 5.3349,-2.3382 8.8008,-4.2597 3.141,-1.7415 5.9277,-3.0322 6.6035,-3.0782 0.017,0 0.034,0 0.049,0 z m -395.2519,188.2051 c 0.078,4e-4 0.1304,0.032 0.1543,0.094 0.6116,1.5937 -0.8861,13.0471 -2.2246,17.0176 -0.5563,1.65 -1.6666,5.475 -2.4668,8.5 -1.5171,5.7348 -5.6939,17.2632 -7.4551,20.5781 -1.3274,2.4984 -5.96638,12.5075 -11.32028,24.4219 -4.6751,10.4038 -9.4409,17.4773 -16.6817,24.7578 -10.3795,10.4365 -23.8484,22.742 -29.6152,27.0586 -3.3506,2.508 -7.9951,6.2769 -10.3203,8.3731 -2.3252,2.0963 -4.8768,3.8105 -5.6719,3.8105 -0.7951,0 -2.7224,1.0732 -4.2812,2.3848 -1.5588,1.3117 -4.2475,3.2242 -5.9766,4.25 -8.7455,5.1885 -16.95,9.9075 -17.8418,10.2636 -0.55,0.2197 -2.0731,1.2322 -3.3848,2.25 -1.3116,1.0179 -3.2316,1.8516 -4.2675,1.8516 -1.036,0 -4.0129,1.0787 -6.6153,2.3984 -2.6023,1.3197 -7.8824,3.6173 -11.7324,5.1036 -3.85,1.4863 -7.4267,3.1055 -7.9492,3.5996 -0.5225,0.494 -2.0975,0.8823 -3.5,0.8613 -2.4669,-0.036 -2.4204,-0.1521 1.4492,-3.5527 5.0018,-4.3957 13.5275,-10.5513 23.9961,-17.3243 4.6111,-2.9833 12.0142,-8.4704 13.9199,-10.3183 0.7185,-0.6967 2.8314,-2.4659 4.6953,-3.9317 1.864,-1.4657 4.7387,-3.8547 6.3887,-5.3086 1.65,-1.4539 4.1552,-3.2611 5.5664,-4.0156 1.4112,-0.7546 3.8508,-3.227 5.4219,-5.4941 1.5711,-2.2672 4.6293,-5.5275 6.7969,-7.2442 4.285,-3.3938 20.1681,-24.2312 22.2578,-29.2011 0.7106,-1.6901 2.646,-4.9377 4.3027,-7.2168 1.6567,-2.2791 4.1439,-6.3775 5.5273,-9.1075 1.3834,-2.73 3.6668,-6.3297 5.0723,-8 1.4055,-1.6703 2.5547,-3.6728 2.5547,-4.4492 0,-1.3582 7.2455,-12.1624 17.3008,-25.7988 6.2817,-8.519 23.98528,-26.6214 25.90038,-26.6113 z" />
  </g>
</svg>
