<?xml version="1.0" encoding="UTF-8" standalone="no"?>
<!-- Created with Inkscape (http://www.inkscape.org/) -->

<svg
   version="1.1"
   id="svg1"
   width="2815"
   height="1536"
   viewBox="0 0 2815 1536"
   sodipodi:docname="Tree_1.svg"
   inkscape:version="1.4.2 (f4327f4, 2025-05-13)"
   xmlns:inkscape="http://www.inkscape.org/namespaces/inkscape"
   xmlns:sodipodi="http://sodipodi.sourceforge.net/DTD/sodipodi-0.dtd"
   xmlns="http://www.w3.org/2000/svg"
   xmlns:svg="http://www.w3.org/2000/svg">
  <sodipodi:namedview
     id="namedview1"
     pagecolor="#ffffff"
     bordercolor="#000000"
     borderopacity="0.25"
     inkscape:showpageshadow="2"
     inkscape:pageopacity="0.0"
     inkscape:pagecheckerboard="0"
     inkscape:deskcolor="#d1d1d1"
     inkscape:zoom="0.2516276"
     inkscape:cx="1539.9741"
     inkscape:cy="1150.5097"
     inkscape:window-width="1920"
     inkscape:window-height="991"
     inkscape:window-x="-9"
     inkscape:window-y="-9"
     inkscape:window-maximized="1"
     inkscape:current-layer="svg1" />
  <defs
     id="defs1" />
  <g
     id="g1"
     transform="translate(78.727791,-0.03610554)">
    <path
       id="path1"
       style="fill:#000000;stroke:none"
       d="m 1245.1211,0.02539063 c -3.6411,0 -3.8467,0.19524399 -6.5957,6.24999997 -4.7419,10.4440974 -8.8966,12.2180344 -18.1465,7.7500004 -7.3602,-3.555242 -12.6391,-1.202797 -17.1016,7.617187 -4.6048,9.101162 -12.0768,12.214592 -18.2871,7.623047 -1.4577,-1.077672 -3.7665,-2.275213 -5.1308,-2.662109 -1.3644,-0.386896 -3.5177,-1.21349 -4.7852,-1.837891 -3.8159,-1.879892 -7.11,3.068296 -7.164,10.759766 -0.023,3.3 -0.7155,7.289865 -1.5372,8.865234 -2.9954,5.743551 -1.8248,8.507779 5.5821,13.183594 4.8187,3.041886 5.1618,3.676175 4.3418,8.046875 l -0.6817,3.626953 -4.9082,-0.650391 c -6.8475,-0.90835 -9.5573,-2.26682 -15.5175,-7.77539 -6.6217,-6.119845 -8.6155,-6.179251 -10.8516,-0.324219 -2.0778,5.44054 -4.1297,6.243432 -9.1172,3.570312 -2.0965,-1.12367 -4.3986,-2.042968 -5.1172,-2.042968 -0.7186,0 -2.244,-0.873028 -3.3887,-1.939453 -2.0605,-1.919652 -2.1091,-1.917772 -4.8457,0.105468 -3.3481,2.475376 -4.5061,4.870888 -6.1113,12.642578 -1.449,7.01561 0.1735,10.679395 6.7051,15.146485 2.047,1.40001 4.0637,3.219922 4.4824,4.044922 2.0284,3.99624 5.8136,12.772219 6.4688,14.999999 0.4045,1.375 1.3487,3.38778 2.0996,4.47266 3.5175,5.08189 -0.2801,8.01203 -9.4356,7.27929 -5.1467,-0.4119 -5.5054,-0.64753 -12.3672,-8.08789 -10.0904,-10.941282 -14.3524,-10.844424 -23.0039,0.52344 -3.7915,4.98188 -8.7717,7.15966 -13.5664,5.93359 -13.6709,-3.49582 -16.8923,-2.22691 -13.375,5.26758 1.0612,2.26107 2.2418,5.23633 2.625,6.61133 0.3831,1.375 1.3623,3.55267 2.1739,4.83789 2.0983,3.32238 1.1018,3.70331 -5.9551,2.28125 -15.6866,-3.16105 -21.7305,-2.20138 -21.7305,3.45313 0,2.72862 2.2953,7.84928 4.7969,10.70117 1.8406,2.09838 1.0553,3.0519 -3.7969,4.60742 -11.9983,3.8464 -12.6252,7.45889 -2.5,14.4043 3.85,2.6409 8.575,6.28764 10.5,8.10351 6.3149,5.95685 16.7508,10.87291 25.9023,12.20313 2.5294,0.36764 5.9477,1.38277 7.5977,2.25586 2.0202,1.06898 7.2458,1.8208 16,2.30273 7.15,0.39361 14.4625,1.02218 16.25,1.39649 5.9864,1.25351 11.7955,-0.34634 16.959,-4.66993 8.0621,-6.75076 11.0777,-7.87897 21.0019,-7.85937 23.7981,0.047 42.7328,10.25524 38.4043,20.70508 -3.3811,8.16265 -10.4023,7.67114 -26.1269,-1.82813 -10.4133,-6.29074 -15.2357,-7.59161 -18.3984,-4.9668 -2.2791,1.89145 -2.0363,7.70998 0.4101,9.80469 3.1177,2.66948 2.5339,3.89608 -5.7344,12.03125 -7.3298,7.21188 -8.0078,7.63416 -12.9375,8.04297 -4.6753,0.38771 -5.4629,0.15062 -7.7656,-2.33398 -2.649,-2.8583 -3.3616,-5.47266 -1.4922,-5.47266 0.5882,0 0.9257,-1.0125 0.75,-2.25 -0.3146,-2.215 -8.4245,-5.69375 -16.5703,-7.10742 -1.5116,-0.26233 -6.575,-2.17065 -11.25,-4.24024 -5.3478,-2.36745 -10.5568,-3.91968 -14.0488,-4.1875 l -5.5508,-0.42578 -1.8418,4.08399 c -3.1039,6.88314 -5.6175,7.8221 -12.5762,4.69922 -3.1973,-1.43488 -8.4197,-3.09079 -11.6054,-3.67969 -3.1856,-0.5889 -6.6336,-1.65792 -7.6602,-2.37695 -1.6584,-1.16163 -2.3156,-0.81917 -5.9062,3.07617 -2.2225,2.41119 -4.327,4.21723 -4.6758,4.01367 -1.3847,-0.80809 -12.4141,1.33623 -13.9727,2.7168 -0.9134,0.80899 -2.5237,1.62994 -3.5781,1.82422 -2.7248,0.50206 -2.9422,2.13477 -0.6367,4.79296 1.0965,1.26429 2.2354,3.06034 2.5312,3.99219 0.2957,0.93185 3.3463,3.76102 6.7793,6.28711 3.4331,2.5261 7.3211,5.74636 8.6387,7.15625 l 2.3945,2.56445 -3.7109,4.53125 c -4.3478,5.3059 -2.9255,4.91432 -18.1504,4.97852 -11.49637,0.0484 -12.26219,0.18178 -16.05469,2.80078 -5.516,3.80914 -7.72363,3.51502 -13.14063,-1.75 -2.5464,-2.475 -5.12411,-4.5 -5.72851,-4.5 -0.6043,0 -3.65038,-2.70286 -6.76758,-6.00586 -8.7786,-9.30183 -13.65872,-10.22881 -13.79102,-2.62109 -0.0783,4.5038 -3.2124,12.05496 -5.1582,12.42968 -0.9136,0.17595 -4.50211,-1.03411 -7.97461,-2.68945 -8.2221,-3.91952 -11.16854,-4.59337 -12.58984,-2.88086 -1.2365,1.48988 0.40872,7.80133 2.60742,10 0.6423,0.64234 1.16797,1.649 1.16797,2.23633 0,0.58732 1.1123,2.70404 2.4707,4.70313 2.1394,3.1484 2.2732,3.79686 1,4.85351 -2.3025,1.91087 -1.87902,8.90953 0.70508,11.66016 1.9249,2.04901 3.10056,2.31445 10.25586,2.31445 4.4453,0 9.62602,0.44356 11.51172,0.98438 3.5926,1.03035 10.05664,6.55699 10.05664,8.59765 0,2.13902 -4.69499,4.42859 -7.80469,3.80664 -3.4389,-0.68778 -7.34075,1.11523 -11.93555,5.51172 -1.7825,1.70557 -3.75968,3.09961 -4.39258,3.09961 -0.633,0 -2.48312,1.39386 -4.11132,3.09766 -3.4933,3.65547 -2.96234,4.57915 4.03906,7.04883 11.4412,4.03572 14.20188,5.18905 22.45508,9.36523 4.8125,2.43517 8.75,4.23556 8.75,4.00195 0,-0.23361 1.85785,0.23065 4.12695,1.03125 8.4918,2.99606 18.78264,0.64869 26.77934,-6.10742 3.8725,-3.2717 12.9083,-3.67044 20.0039,-0.88281 7.0902,2.78549 29.7897,7.35867 39.9336,8.04492 10.013,0.67739 29.3065,-0.92759 31.6562,-2.63281 0.55,-0.39914 3.7,-1.497 7,-2.44141 3.3,-0.94441 7.125,-2.32738 8.5,-3.07226 10.7486,-5.82286 33.6112,-8.59474 53.3477,-6.46875 13.4863,1.45271 13.9423,2.01386 5.8945,7.25781 -11.3617,7.40323 -15.3507,12.31491 -8.9922,11.07422 8.8065,-1.71835 29.75,-10.27196 29.75,-12.15039 0,-3.37446 41.9633,-14.16602 55.0859,-14.16602 9.1342,0 28.7912,5.00008 34.9141,8.88086 4.943,3.13289 7.9745,11.10766 9.5879,25.23242 0.9572,8.38053 -0.1276,8.88763 -19.0606,8.89063 -18.4609,0.003 -29.8871,2.73001 -58.5273,13.97461 -3.025,1.18766 -7.1558,2.77251 -9.1797,3.52148 l -3.6797,1.36133 -7.8515,-7.75586 c -9.4842,-9.37027 -11.3067,-10.06183 -15.6231,-5.93164 -3.4355,3.28739 -7.4487,5.61731 -11.8476,6.8789 -2.5235,0.72372 -3.4657,0.16774 -9.5586,-5.63867 -11.9051,-11.34525 -14.5114,-11.53302 -45.5254,-3.27929 -6.0979,1.62284 -13.341,2.86523 -16.7031,2.86523 -8.5565,0 -11.1438,1.37981 -9.8028,5.22656 0.7037,2.01854 2.2176,3.47299 4.6582,4.47852 4.957,2.04224 14.1133,9.04225 14.1133,10.78906 0,4.00459 -8.0278,7.33237 -13.5684,5.625 -1.6123,-0.49686 -5.6316,-1.46302 -8.9316,-2.14648 -15.0027,-3.10721 -26.6771,-8.85339 -33.2949,-16.39063 -5.0277,-5.72622 -9.7667,-4.38219 -12.2735,3.48242 -2.132,6.68839 -3.11,7.93555 -6.2167,7.93555 -2.8466,0 -9.7406,-4.32912 -15.6583,-9.83203 -4.0808,-3.79484 -11.6215,-7.16797 -16.02339,-7.16797 -3.9295,0 -4.0332,0.0889 -4.0332,3.44141 0,1.89254 0.45,3.71867 1,4.05859 1.5688,0.96957 1.17112,5.22205 -0.55079,5.88281 -1.5564,0.59726 -5.20861,-1.23552 -8.94921,-4.49218 -4.2356,-3.68762 -7.0156,-3.42 -8.0586,0.77539 -0.5549,2.23232 -1.82008,4.22227 -3.08398,4.84961 -1.1789,0.58513 -2.85777,1.65466 -3.73047,2.3789 -1.1898,0.98753 -3.58246,1.1412 -9.56836,0.61133 -8.0194,-0.70989 -14.05664,0.57365 -14.05664,2.98828 0.005,6.07496 3.93084,11.11012 12.86914,16.50586 5.011,3.025 9.10914,5.82552 9.11914,6.22266 0.005,0.39713 -2.4559,1.43996 -5.4707,2.3164 -3.0149,0.87644 -5.741,2.01342 -6.0586,2.52735 -1.4509,2.34751 -9.75913,0.66419 -15.46093,-3.13282 -2.9384,-1.95679 -7.1574,-2.924 -15.75,-3.60742 l -6.25,-0.49609 v 3.01953 c 0,4.40358 1.33776,7.26429 5.81836,12.44141 2.1937,2.5347 5.15859,7.08036 6.58789,10.10156 1.4292,3.02121 3.0468,5.77011 3.5957,6.10937 3.1723,1.96066 0.182,6.69105 -4.3418,6.86719 -2.7504,0.1071 -4.57759,1.10823 -7.87109,4.31836 -2.3589,2.29911 -5.63906,4.50694 -7.28906,4.90625 -1.65,0.39931 -3.675,1.46459 -4.5,2.36524 -6.2317,6.8031 -9.81674,7.25193 -17.61914,2.20898 -5.2576,-3.39817 -6.7202,-3.85873 -12.9043,-4.06836 -3.8363,-0.13003 -9.76152,-0.56945 -13.16602,-0.97656 -7.8126,-0.93422 -11.31054,0.55876 -11.31054,4.83008 0,2.45535 0.4875,2.98925 3.25,3.55664 5.595,1.14915 14.27215,7.39769 12.59765,9.07226 -1.9488,1.94853 -12.01604,1.95264 -19.30664,0.008 -10.8384,-2.89126 -16.54101,-0.67837 -16.54101,6.41993 0,5.13593 1.94346,5.99023 13.63086,5.99023 11.7313,0 12.36914,0.46003 12.36914,8.90039 v 6.82813 l 4.64062,0.63671 c 2.5518,0.34976 6.3768,0.63477 8.5,0.63477 2.1233,0 3.85938,0.25525 3.85938,0.56641 0,1.24854 -2.37324,4.98351 -3.64453,5.73437 -0.7447,0.43983 -1.35547,1.90233 -1.35547,3.25 0,4.545 9.24608,3.04921 18.30078,-2.96094 7.0513,-4.68036 10.6468,-5.41267 13.1289,-2.66992 2.4406,2.69678 3.37317,2.62255 6.04297,-0.48437 1.212,-1.41054 2.98682,-2.67964 3.94532,-2.82032 0.95839,-0.14066 2.11993,-0.86762 2.58203,-1.61523 0.8356,-1.35201 4.91382,1.05642 9.41992,5.5625 1.9127,1.91273 8.30219,1.7204 10.74219,-0.32227 0.9142,-0.76537 2.2642,-1.50249 3,-1.63867 0.7357,-0.13617 3.08133,-1.00157 5.21093,-1.92383 4.7425,-2.05369 13.76144,-2.14474 22.80274,-0.22851 12.1116,2.56696 19.73358,2.87664 28.83398,1.16992 16.96393,-3.18147 34.57353,-8.83814 53.49023,-17.18359 12.8349,-5.66234 45.8158,-8.98819 47.2246,-4.76172 0.2058,0.61744 -2.2341,2.60821 -5.4238,4.42383 -3.1897,1.81563 -8.9508,5.396 -12.8008,7.95507 -4.5786,3.04335 -12.0158,6.46333 -21.5,9.88868 -14.4429,5.21625 -26,10.61289 -26,12.14062 0,0.44178 1.0125,0.59695 2.25,0.34375 1.2375,-0.25321 7.65,-1.15827 14.25,-2.00976 15.3919,-1.98578 18.6982,-2.86139 26,-6.89258 3.3,-1.82187 11.4,-6.12086 18,-9.55274 6.6,-3.43188 13.8,-7.2204 16,-8.41797 2.2,-1.19756 7.825,-3.68227 12.5,-5.52343 12.5846,-4.95621 50.9348,-21.71101 66.0527,-28.85742 4.7041,-2.2237 10.7791,-4.58837 13.5,-5.25391 2.7208,-0.66553 6.0827,-1.77727 7.4688,-2.4707 3.3419,-1.6719 13.5976,-3.53067 15.4844,-2.80664 0.8225,0.31563 1.5019,1.76313 1.5019,3.21679 0,1.45365 0.6531,3.88576 1.4453,5.4043 1.3202,2.53098 1.266,2.92347 -0.6484,4.70703 -5.4734,5.09923 -10.4076,6.31939 -27.5547,6.81836 l -16.25,0.47266 v 3.8125 c 0,2.09611 0.45,4.08781 1,4.42773 1.666,1.02966 1.1196,4.06461 -0.75,4.16602 -0.9625,0.0522 -5.125,0.99572 -9.25,2.0957 -9.0722,2.4192 -9.7749,3.98413 -4.3144,9.59766 4.9924,5.13237 6.7626,5.69514 20.8144,6.62695 12.499,0.82883 13.0931,0.92594 18,2.93555 7.2213,2.95746 13.6816,1.40656 21.9219,-5.26172 8.2717,-6.69364 12.6183,-8.05314 19.2812,-6.03516 3.1887,0.96576 6.5087,2.34383 7.377,3.06445 2.2068,1.83143 12.3415,1.66176 16.0762,-0.26953 1.6809,-0.86922 5.0323,-1.74072 7.4472,-1.9375 5.208,-0.42438 4.9991,-0.94839 5.8653,14.74805 0.5867,10.63121 0.5677,10.75199 -2.002,12.98633 -4.7473,4.12778 -22.7165,9.76993 -34.4336,10.8125 -16.2615,1.44693 -30.2767,5.53395 -53.0332,15.46679 -23.6277,10.31312 -22.4966,10.10912 -51.5,9.35547 -13.75,-0.35729 -26.6875,-0.95695 -28.75,-1.33203 -4.4633,-0.81168 -4.721,0.17599 -0.9844,3.75586 3.8908,3.72764 10.2895,5.82629 20.7344,6.80078 16.5556,1.5446 16.9405,2.28587 5.2891,10.19532 -11.2511,7.6377 -14.5505,8.93148 -40.125,15.72265 -12.8984,3.4251 -15.9858,3.24664 -19.7891,-1.13867 -2.4534,-2.82876 -2.3653,-4.31584 0.3887,-6.5332 4.4164,-3.55568 6.7363,-7.48745 6.7363,-11.41797 0,-3.7449 -0.1105,-3.85927 -5.1816,-5.36524 -2.8498,-0.84631 -5.6657,-1.53906 -6.2578,-1.53906 -0.592,0 -3.1885,-1.125 -5.7715,-2.5 -2.5829,-1.375 -5.5045,-2.49523 -6.4922,-2.49023 -7.654,0.0358 -27.4349,-7.13769 -36.4512,-13.21875 -3.0447,-2.0535 -7.885,-2.34937 -9.6445,-0.58985 -1.6926,1.69263 -1.4992,3.92249 0.7773,8.93946 3.7384,8.23863 1.1705,10.73434 -11.8808,11.53906 -13.0123,0.80232 -36.03603,-4.06553 -41.77933,-8.83203 -2.096,-1.73955 -4.0159,-0.26453 -4.75,3.64843 -1.4481,7.71909 -11.26196,7.32004 -24.56836,-1 -4.3172,-2.69943 -9.0454,-4.18332 -15.25,-4.7871 l -4.75,-0.4629 v 3.32813 c 0,1.8306 0.68649,5.93762 1.52539,9.12695 4.501,17.11204 3.72133,22.29883 -3.35157,22.29883 -1.934,0 -4.24521,0.66004 -5.13671,1.4668 -2.538,2.29683 -12.36559,3.11691 -15.0254,1.2539 -3.7486,-2.62563 -12.85861,2.30477 -12.97851,7.02344 -0.0378,1.48769 7.66495,7.25586 9.68945,7.25586 1.964,0 10.27735,4.97209 10.27735,6.14649 0,1.24805 -6.2742,3.85351 -9.2793,3.85351 -3.6664,0 -16.67023,-3.64513 -23.01953,-6.45312 -10.9604,-4.8472 -17.70117,-3.22326 -17.70117,4.26562 0,3.87227 -0.5502,5.34516 -3,8.02734 -3.6826,4.03202 -4.1398,9.81868 -1,12.66016 2.9152,2.63822 2.46587,4.40852 -1.54883,6.08594 -2.6446,1.10501 -4.0322,2.60631 -5.4375,5.88476 -1.0376,2.42062 -3.13325,5.21692 -4.65625,6.21485 -3.1705,2.07739 -12.01007,2.49465 -13.16797,0.62109 -0.406,-0.65687 -2.52639,-1.61453 -4.71289,-2.12695 -2.1864,-0.51242 -4.6199,-1.09898 -5.4082,-1.30469 -0.8246,-0.21518 -2.04656,0.89903 -2.87696,2.625 -2.0893,4.34216 -6.2056,8.53869 -9.9414,10.13672 -2.8635,1.22493 -3.25,1.84851 -3.25,5.24219 0,8.13442 6.4219,11.61538 23.5,12.73632 5.5,0.36101 10.45,1.00276 11,1.42774 0.55,0.42498 3.63175,1.45952 6.84765,2.29687 7.8147,2.03479 7.88085,2.22327 2.40235,6.85352 -6.884,5.81824 -7.01039,10.80664 -0.27539,10.80664 2.4603,0 6.3978,-0.86664 8.75,-1.92578 2.3522,-1.05914 6.97539,-2.93519 10.27539,-4.16992 3.3,-1.23472 7.125,-3.00938 8.5,-3.94336 1.375,-0.93398 3.52504,-2.01538 4.77734,-2.4043 1.2523,-0.38892 4.31685,-2.47457 6.81055,-4.63281 2.4936,-2.15824 5.29551,-3.9579 6.22461,-4 0.929,-0.0421 2.52959,-0.23567 3.55859,-0.42969 3.1801,-0.59958 6.25841,1.1978 7.59961,4.43555 0.7891,1.90506 2.29245,3.37837 3.90625,3.83008 3.671,1.0275 22.05595,0.57884 31.62305,-0.77149 4.4,-0.62102 9.125,-1.26422 10.5,-1.42969 2.8602,-0.34419 16.40747,5.33061 19.70117,8.25196 1.2106,1.07372 2.51534,3.20036 2.89844,4.72656 1.1606,4.62417 -1.3218,5.55834 -13.5625,5.10742 -5.7952,-0.21348 -10.98711,-0.0552 -11.53711,0.35156 -0.55,0.40672 -4.68164,1.97631 -9.18164,3.48829 -7.0036,2.35314 -15.31836,7.65404 -15.31836,9.76562 0,0.26379 1.33815,2.0032 2.97265,3.86523 9.8412,11.21166 4.44111,16.3738 -17.15429,16.4004 -6.9753,0.009 -13.01212,0.34608 -13.41602,0.75 -0.4039,0.40391 -2.03149,0.73437 -3.61719,0.73437 -2.8341,0 -8.78515,2.47374 -8.78515,3.65234 0,0.33079 1.64876,3.98522 3.66406,8.11915 3.8044,7.80368 3.48478,10.22851 -1.35352,10.22851 -1.7197,0 -1.65724,2.2345 0.18946,6.6543 2.2426,5.3673 1.98173,5.88603 -4.10157,8.12695 l -5.60351,2.06445 -6.08008,-2.17187 c -3.9044,-1.39518 -7.94271,-3.87343 -11.28711,-6.92383 -5.5921,-5.10058 -7.78597,-5.65044 -12.60547,-3.1582 -2.9739,1.53785 -3.05796,1.76629 -2.47656,6.67578 0.3311,2.79542 1.17691,5.46139 1.87891,5.92578 4.8017,3.17629 -10.33067,5.1483 -17.07227,2.22461 -2.0081,-0.87089 -5.12092,-2.21836 -6.91602,-2.99219 -1.7951,-0.77382 -5.11776,-1.70195 -7.38476,-2.06445 l -4.12109,-0.66016 0.6621,3.40039 c 1.791,9.18896 1.89118,13.89844 0.29688,13.89844 -3.0271,0 -15.7347,-2.99129 -19.4375,-4.57617 -2.0633,-0.88319 -5.55195,-1.72008 -7.75195,-1.85938 -2.2,-0.1393 -6.3625,-0.60599 -9.25,-1.03711 l -5.25,-0.78515 v 6.66992 c 0,9.90184 2.9267,13.19393 16.5,18.55859 11.6198,4.59254 13.5882,7.10929 8.5,10.8711 -1.9447,1.43784 -3,3.10056 -3,4.72461 0,1.37789 -0.74164,3.63759 -1.64844,5.02148 -3.7261,5.68669 4.80219,4.39666 19.62109,-2.9668 l 8.81446,-4.38086 9.70117,3.38086 c 7.1135,2.47841 11.40737,3.37891 16.10547,3.37891 7.5097,0 7.36615,-0.2744 2.90625,5.56836 -4.5363,5.94288 -4.41847,6.91583 1.02343,8.43945 8.0965,2.26689 20.94529,-0.63204 29.33789,-6.61914 20.364,-14.52712 28.32968,-17.2204 46.63868,-15.76367 6.05,0.48138 24.6125,0.71881 41.25,0.52734 36.8693,-0.42429 35.36564,-1.51165 17.87304,12.92579 -16.1312,13.31386 -21.03344,15.30724 -25.62304,10.42187 -1.2917,-1.375 -3.40868,-2.5 -4.70508,-2.5 -1.2964,0 -2.61504,-0.675 -2.93164,-1.5 -0.9567,-2.49311 -7.92532,-1.96111 -9.82422,0.75 -0.8668,1.2375 -1.81161,2.09093 -2.09961,1.89649 -0.288,-0.19446 -1.8783,0.20709 -3.5332,0.89257 -3.2358,1.34028 -10.90625,-0.12087 -10.90625,-2.07812 0,-2.21415 -11.03581,-1.03428 -14.41211,1.54101 -1.8038,1.37583 -5.33165,2.88494 -7.83985,3.35352 -6.037,1.12783 -11.1689,4.2092 -11.5664,6.94531 -0.1758,1.20965 0.0989,2.19922 0.61133,2.19922 1.72009,0 10.20021,7.48305 10.19921,9 -6e-4,0.825 -1.08224,2.85 -2.40234,4.5 -2.3599,2.94957 -2.55634,2.99924 -11.74414,2.99023 -5.1396,-0.005 -10.93189,-0.27913 -12.87109,-0.60937 -1.9391,-0.33024 -8.3515,-0.22403 -14.25,0.23633 -9.6853,0.75589 -11.78686,1.32754 -16.56446,4.5039 l -0.002,0.002 -0.002,0.002 -0.002,0.002 -0.002,0.002 c -0.10965,0.21701 1.6202,2.80291 3.9043,5.82812 4.0735,5.39532 4.16274,5.66771 2.33984,7.09766 -5.2198,4.09469 -7.99972,4.86369 -19.57422,5.41406 -6.4229,0.30542 -11.89807,0.77505 -12.16797,1.04492 -1.5669,1.5669 -1.67914,5.87142 -0.18554,7.12305 2.7979,2.34451 3.46709,3.19747 7.46679,9.51562 4.9671,7.84622 6.73622,8.30936 19.82032,5.17969 13.0863,-3.13017 38.0821,-3.36258 48.4375,-0.44922 14.3619,4.04056 23.98643,0.20775 36.17773,-14.40625 9.0284,-10.82261 10.06048,-11.44079 15.73828,-9.4375 5.2884,1.86584 4.96236,1.90333 9.31836,-1.05273 3.8251,-2.59578 16.10893,-6.47889 20.55274,-6.4961 4.22999,-0.0164 12.72728,-4.62418 17.24218,-9.3496 6.6652,-6.97612 30.55763,-16.15524 32.83003,-12.61329 4.6409,7.23349 -13.8058,28.49356 -36.42573,41.98243 -17.4636,10.41405 -16.53187,12.79491 2.14453,5.47851 19.791,-7.75306 38.0939,-22.03716 43.6699,-34.08203 8.718,-18.83182 9.0101,-19.26059 17.2442,-25.34766 13.2568,-9.80005 29.9636,-28.47302 35.8398,-40.05859 6.7624,-13.33257 24.9289,-33 30.4824,-33 2.9373,0 8.6724,-2.19946 18.8711,-7.23828 8.4593,-4.17939 15.6211,-4.52893 15.6211,-0.76172 0,2.08957 -0.5336,2.55254 -3.25,2.81445 -2.5938,0.25008 -3.25,0.7603 -3.25,2.52735 0,1.21778 -0.7205,3.24206 -1.6016,4.5 -0.8811,1.25795 -1.3291,2.55955 -0.9961,2.89258 0.333,0.33303 -0.09,1.6679 -0.9394,2.96484 -2.5929,3.95731 0.2321,5.17662 4.4238,1.91016 0.7621,-0.59384 1.8871,-1.08575 2.5,-1.09375 2.2984,-0.0311 7.2306,-3.83319 10.6133,-8.17969 1.925,-2.47345 4.0343,-5.18135 4.6856,-6.01758 1.4357,-1.84351 2.2352,-1.31473 9.9804,6.5957 l 5.3008,5.41407 5.582,-1.33985 c 3.0709,-0.7367 6.1232,-2.10734 6.7813,-3.04687 4.8181,-6.87881 14.1562,-7.54277 25.5605,-1.81641 10.7631,5.40443 12.643,5.14031 25.3594,-3.56445 5.3625,-3.6708 9.75,-7.04023 9.75,-7.48633 0,-0.44611 -2.8125,-1.59585 -6.25,-2.55664 -8.4209,-2.35367 -12.2417,-4.44952 -18.75,-10.28516 -7.3586,-6.59804 -10.808,-8.23242 -17.3848,-8.23242 -3.0165,0 -6.7116,-0.46514 -8.2109,-1.03516 l -2.7246,-1.03711 3.4102,-3.54101 c 4.8388,-5.02312 14.316,-9.95311 21.9101,-11.39844 8.7329,-1.66208 28.5497,2.3429 41.1973,8.32617 2.9523,1.39665 6.4787,2.82482 7.8359,3.17383 4.1687,1.07195 10.1644,5.78036 13.793,10.83203 l 3.457,4.8125 0.7949,21.6836 c 0.4382,11.92638 1.4672,27.98359 2.2852,35.68359 3.0323,28.54393 2.7188,68.04546 -0.6309,79.49219 -2.8484,9.73347 -14.7649,9.17985 -31.7168,-1.47266 -8.9519,-5.62535 -21.2533,-6.97129 -28.5156,-3.12109 -1.65,0.87477 -3.4817,1.5927 -4.0723,1.5957 -0.5907,0.003 -4.7217,1.58767 -9.1796,3.51953 -15.336,6.64593 -21.7642,6.52779 -37.0528,-0.67383 -4.5685,-2.15196 -9.5642,-4.16363 -11.0996,-4.4707 -4.3533,-0.87066 -19.6288,1.34424 -23.709,3.4375 l -3.6777,1.88672 10.6211,1.19531 c 10.9261,1.22945 22.2429,5.48151 25.7109,9.66016 3.201,3.85705 -8.2056,9.1629 -24.541,11.41601 -36.6781,5.05894 -36.1042,4.94095 -47.5,9.74024 -13.0097,5.47899 -12.7615,5.59607 10.5,4.96094 31.9744,-0.87302 46.1828,-3.04292 79.5,-12.14063 15.4378,-4.21549 19.7692,-5.71815 30.9063,-10.73242 5.2058,-2.34381 12.5224,-1.85335 18.9941,1.27344 2.2023,1.06403 4.3866,1.93359 4.8555,1.93359 0.4689,0 3.0786,1.41289 5.7988,3.13867 2.7202,1.72577 8.505,4.63925 12.8555,6.47461 16.2015,6.8351 18.0898,9.69361 18.0898,27.38672 0,12.4622 -3.3683,53.16295 -5.1211,61.87305 -0.68,3.37959 -6.8399,2.57219 -20.8066,-2.72656 -15.3567,-5.826 -15.8241,-5.71052 -14.6114,3.61328 0.7642,5.87537 2.0296,7.25537 9.0391,9.85357 10.1323,3.7558 21.4276,8.4138 22.1328,9.1269 2.6717,2.7018 3.8765,56.7718 1.8262,81.9551 -1.1358,13.9511 -4.8044,35.4544 -8.0703,47.3047 -3.1475,11.4206 -3.186,11.9969 -1.4805,22.7246 1.8502,11.6372 2.2322,73.5118 0.6348,102.7754 -0.5103,9.35 -1.208,24.65 -1.5508,34 -1.7201,46.9259 -6.4148,83.4965 -12.4805,97.209 -4.9486,11.1871 -27.7628,39.4273 -37.3515,46.2344 -10.2036,7.2434 -17.7157,10.035 -29.8067,11.0761 -21.3034,1.8343 -23.3571,2.0894 -29.7734,3.6992 -4.9442,1.2405 -7.6165,2.6665 -11.6152,6.1973 -9.5998,8.4763 -14.9306,12.6783 -20.9649,16.5274 -3.3,2.1049 -7.125,4.5839 -8.5,5.5097 -1.375,0.9259 -7.675,3.4144 -14,5.5293 -6.325,2.1149 -12.4,4.2068 -13.5,4.6504 -1.1,0.4436 -5.5661,2.197 -9.9258,3.8965 -7.8495,3.06 -15.3434,7.9707 -12.164,7.9707 0.8592,0 11.3556,-0.6796 23.3261,-1.5098 27.6796,-1.9198 36.4534,-3.9309 43.2637,-9.916 5.2126,-4.5809 20.7384,-13.407 26.4668,-15.0469 4.9827,-1.4264 8.1979,-1.5899 19.5,-0.9882 11.0341,0.5874 21.5398,2.1395 16.2363,2.3984 -0.7141,0.035 -3.1627,0.9625 -5.4394,2.0625 -2.2768,1.1 -4.617,2.0037 -5.2012,2.0137 -1.7638,0.021 -19.4283,8.7764 -23.8926,11.8418 -2.293,1.5744 -8.1167,5.3641 -12.9414,8.4218 l -8.7715,5.5586 6.6231,0.709 c 10.0276,1.0739 15.6893,0.024 23.9863,-4.4512 9.1789,-4.9511 18.9566,-8.4947 27.4766,-9.957 8.228,-1.4121 23.1134,-6.4016 26.7207,-8.957 2.3875,-1.6912 21.1327,-7.3092 29.7363,-8.9121 4.7639,-0.8875 9.6743,-4.5978 20.5371,-15.5176 2.0518,-2.0625 4.0063,-3.75 4.3457,-3.75 1.6814,0 -0.1596,2.7339 -8.8594,13.1523 -6.4844,7.7655 -10.3316,13.4 -12.1855,17.8477 -1.4902,3.575 -3.125,7.0573 -3.6348,7.7383 -1.1232,1.5006 -16.8667,9.2575 -18.8164,9.2715 -6.3954,0.045 -21.8568,12.9324 -21.8828,18.2402 -0.01,1.2477 13.7875,0.8798 14.207,-0.3789 0.4909,-1.4725 12.6336,-4.7385 20.2891,-5.457 18.2618,-1.7138 35.6259,-11.9307 42.5215,-25.0215 3.7226,-7.067 17.0659,-11.9125 27.4473,-9.9649 3.5007,0.6567 11.5312,6.7468 11.5312,8.7442 0,0.5162 0.8999,2.9113 1.9981,5.3222 1.9873,4.3623 2.7514,7.194 2.9687,11.0059 0.1821,3.1938 8.4352,-6.4592 12.1152,-14.1699 4.0062,-8.3942 5.5455,-8.2309 19.0332,2.0254 13.3551,10.1556 19.411,11.9663 45.5664,13.6269 9.4494,0.6 19.6847,1.7441 22.7442,2.541 6.3483,1.6536 20.5359,8.5193 22.5039,10.8907 1.5676,1.8888 5.0703,2.1154 5.0703,0.3281 0,-2.3522 -5.2093,-11.2276 -8.8613,-15.0977 -7.095,-7.5186 -14.1196,-10.7963 -33.5274,-15.6445 -11.2867,-2.8194 -22.6113,-8.7502 -22.6113,-11.8418 0,-0.4275 -2.025,-3.1493 -4.5,-6.0488 -6.7107,-7.8618 -5.5477,-8.8994 2.75,-2.4532 9.057,7.036 12.1862,8.4328 28.8457,12.877 17.0922,4.5597 22.7792,5.0339 36.6895,3.0644 21.7803,-3.0838 26.4734,-2.3865 38.416,5.6973 8.9875,6.0836 16.077,8.194 26.7988,7.9824 32.9698,-0.6508 41.8534,-0.5622 45.25,0.4473 4.6861,1.3928 4.7913,0.1719 0.2793,-3.2695 -5.4485,-4.1558 -17.4746,-7.5011 -30.5293,-8.4922 -17.4097,-1.3219 -19.1411,-2.0161 -32,-12.8301 -10.5963,-8.9112 -14.8912,-10.4094 -32.3984,-11.2969 -22.8026,-1.156 -30.863,-3.3045 -45.8692,-12.2304 -13.4278,-7.9871 -39.2752,-32.177 -41.7773,-39.0977 -0.598,-1.654 -2.0126,-5.2578 -3.1445,-8.0078 -7.867,-19.1137 -12.1277,-41.4194 -12.2247,-64 -0.07,-16.2635 1.0644,-47.3717 1.9786,-54.2734 0.2386,-1.8012 -1.1248,-13.0512 -3.0293,-25 -7.6008,-47.6885 -9.783,-74.0204 -9.9219,-119.7266 -0.1337,-43.9897 0.8784,-49.9586 12.8008,-75.5 4.5198,-9.6828 2.4767,-12.5916 -5.9805,-8.5156 -2.7027,1.3025 -5.0623,2.2209 -5.2422,2.041 -0.1799,-0.18 -0.7583,-6.5591 -1.2851,-14.1758 -0.5269,-7.6168 -1.3361,-17.8996 -1.7989,-22.8496 -1.731,-18.5161 0.5983,-48.7301 4.4121,-57.2227 2.5767,-5.7379 5.7625,-8.22294 13.9805,-10.90234 5.1093,-1.6658 6.2777,-2.15426 22.1328,-9.27344 5.0226,-2.25525 9.6123,-4.10156 10.1992,-4.10156 2.1641,0 6.4179,-7.03736 6.9141,-11.4375 l 0.5,-4.42578 -3.709,-0.69531 c -7.0716,-1.32664 -26.589,3.27649 -43.0351,10.15039 -1.65,0.68964 -4.2122,1.55659 -5.6934,1.92578 l -2.6934,0.67187 -0.3867,-13.3457 c -0.6511,-22.44611 0.1455,-47.99966 1.7598,-56.43555 1.908,-9.9729 1.8816,-22.15363 -0.064,-29.9082 -1.5812,-6.30041 -3.1454,-36.48686 -2.1054,-40.63086 2.7474,-10.94654 10.0617,-14.93061 43.7832,-23.84765 12.0503,-3.18648 26.4273,-12.76455 31.0644,-20.69532 l 1.6641,-2.84765 -9.7754,0.6582 c -6.0508,0.40652 -13.1615,1.68443 -18.6641,3.35547 -4.8894,1.4848 -15.4156,4.70808 -23.3906,7.16211 -21.605,6.64819 -26.4006,7.52628 -28.3965,5.19531 -5.8477,-6.82969 -7.9882,-60.44925 -3.7461,-93.84961 4.7204,-37.16585 4.2857,-36.56748 26.4864,-36.35156 32.4082,0.31518 59.1197,8.55983 83.582,25.79883 8.6041,6.06353 11.5231,9.11248 21.0742,21.99804 12.8257,17.30336 14.7063,18.74659 28.5078,21.89649 13.7221,3.13176 24.7092,8.06757 28.6934,12.89062 23.2558,28.152 44.4357,47.66089 55.584,51.19922 1.3948,0.44269 3.7128,3.82574 6.7597,9.86719 2.5503,5.05679 5.1364,9.5048 5.7481,9.88281 1.7449,1.07824 2.7643,-0.0982 1.7129,-1.97656 -0.8473,-1.5137 -3.0798,-14.36916 -2.5918,-14.92383 1.5947,-1.81283 31.3913,7.92632 37.7656,12.34375 5.8257,4.03717 6.337,2.38991 1.2852,-4.14062 -5.0903,-6.58009 -9.7941,-9.94865 -15.3379,-10.98633 -1.9941,-0.37326 -5.515,-1.53777 -7.8223,-2.58789 -2.3074,-1.05013 -4.7824,-1.91488 -5.5,-1.92188 -2.3328,-0.0231 -13.3942,-3.78092 -20.1621,-6.84961 -9.0652,-4.11038 -19.744,-13.16074 -29.6426,-25.11914 -2.475,-2.99002 -6.1875,-7.39318 -8.25,-9.78711 -3.7127,-4.30935 -4.5722,-6.60564 -2.8691,-7.6582 1.7922,-1.10763 22.38,5.56517 33.3203,10.79883 29.6567,14.18729 32.8905,14.70888 55.7812,9.02344 18.0403,-4.48072 39.3541,-4.74567 48.2051,-0.59961 4.811,2.25358 14.9473,5.20312 17.8809,5.20312 0.9058,0 6.9829,1.63355 13.5058,3.62891 14.6985,4.49632 19.5961,4.29598 39.8946,-1.62891 12.4595,-3.63679 14.69,-4.00726 20.6308,-3.42187 8.2686,0.81476 12.819,-0.5638 17.207,-5.21485 2.9229,-3.09821 3.5659,-3.36234 5.9727,-2.44726 2.4703,0.93919 2.7457,0.79624 3.2695,-1.69532 1.1489,-5.46526 1.1964,-6.01454 0.5801,-6.86914 -1.072,-1.48665 -11.3866,-5.14878 -16.4355,-5.83593 -5.8789,-0.80011 -6.5066,-2.09334 -4.3418,-8.96094 4.2207,-13.38961 -1.0563,-23.84999 -8.3516,-16.55469 -1.1,1.1 -2.4699,2 -3.0449,2 -0.575,0 -2.1743,1.12931 -3.5547,2.50977 l -2.5098,2.50976 -4.5351,-3.11914 -4.5352,-3.12109 0.666,-6.64258 c 0.9591,-9.5501 -1.3155,-11.7225 -10.5976,-10.12305 -18.1138,3.12127 -23.0519,3.17483 -27.502,0.30078 -1.9369,-1.25093 -2.8561,-0.83175 -11,5.00782 -9.3647,6.71495 -12.898,8.28832 -20.6367,9.19531 -6.5161,0.76369 -6.2863,-1.09142 1,-8.07031 4.4229,-4.23632 7.0194,-5.85577 11.25,-7.01954 9.512,-2.6166 15.3596,-8.66844 14.8027,-15.32226 l -0.3027,-3.60547 -9.25,0.23828 c -10.3442,0.26528 -10.0647,0.52222 -7.7383,-7.14648 0.8191,-2.69991 1.4883,-5.28741 1.4883,-5.75 0,-1.20005 -11.339,-1.04248 -14.6152,0.20312 -1.5107,0.57436 -6.1538,1.43398 -10.3164,1.91016 -4.1626,0.47619 -10.4934,1.4195 -14.0684,2.0957 l -6.5,1.22852 -10,-5.04883 c -16.2787,-8.22036 -21.0619,-9.64093 -26.1797,-7.77539 -0.6494,0.23669 -1.963,3.04387 -2.918,6.23828 -2.501,8.36623 -6.788,11.88862 -7.9785,6.55664 -1.8657,-8.35661 -3.5853,-11.24659 -6.3047,-10.5957 -3.1928,0.7642 -2.3361,-0.24129 -5.9902,7.04883 -8.2079,16.37511 -17.5335,17.34043 -49.6289,5.13867 -13.312,-5.06088 -15.0909,-9.30367 -6.5,-15.50391 10.5667,-7.62621 13.8617,-11.31996 8.75,-9.80664 -4.3148,1.27741 -25.2543,11.78741 -26.0098,13.05469 -2.8842,4.83789 -36.4111,5.14695 -52.3027,0.48242 -19.9924,-5.8682 -35.843,-11.3464 -44.3203,-15.32031 -4.6104,-2.16123 -10.2268,-4.58114 -12.4824,-5.37696 -2.2556,-0.79582 -5.0804,-2.0887 -6.2774,-2.87304 -2.9024,-1.90174 -9.5667,-2.88208 -40.8574,-6.00977 -15.5851,-1.55782 -21.9076,-7.11127 -22.9004,-20.11523 -1.5899,-20.82645 3.6259,-28.60006 25.4004,-37.85938 3.025,-1.28634 8.875,-3.87627 13,-5.75586 7.4049,-3.3741 14.47,-5.43748 26.8301,-7.83593 6.4681,-1.2551 11.873,-1.16573 61.1699,1.01757 12.375,0.54808 29.475,1.18973 38,1.42578 19.2067,0.53184 19.7071,0.68519 52.8867,16.28516 5.1619,2.42691 9.6036,4.19523 9.8711,3.92774 1.826,-1.82598 -8.4312,-14.19238 -16.2109,-19.54493 -5.4222,-3.73063 -5.5045,-4.61474 -0.8008,-8.5332 5.2537,-4.37663 16.1032,-4.851 25.0254,-1.0957 3.3934,1.42825 6.6535,2.5957 7.2461,2.5957 0.5927,0 8.8457,3.825 18.3398,8.5 9.4942,4.675 18.0964,8.5 19.1153,8.5 1.0189,0 4.1411,0.67014 6.9394,1.48828 2.7983,0.81815 7.616,1.96236 10.7051,2.54297 5.676,1.06683 9.7622,3.29568 23.0625,12.57813 12.6339,8.81735 19.3614,11.87245 35.0019,15.89843 12.0789,3.10919 32.1127,3.39505 30.2813,0.43164 -0.278,-0.44975 0.2912,-0.84711 1.2656,-0.88281 19.1387,-0.70106 33.8432,-3.11808 30.2715,-4.97656 -3.2163,-1.67354 -21.7803,-3.38734 -26.6601,-2.46094 -14.6486,2.78081 -37.831,-0.90382 -47.8399,-7.60351 -1.65,-1.10447 -5.3236,-3.18774 -8.1641,-4.63086 -2.8404,-1.44313 -6.8904,-4.41001 -9,-6.5918 l -3.8359,-3.9668 6.5,0.66016 c 14.5741,1.47839 38.2124,1.00644 44.1191,-0.88086 6.9815,-2.23075 13.3252,-1.88604 29.3809,1.59961 6.6,1.43284 16.7411,3.49548 22.5352,4.58398 10.4453,1.96228 12.4395,2.85679 20.9902,9.40625 4.2968,3.2912 11.8558,5.181 15.373,3.84375 3.6493,-1.38744 11.012,-6.91942 11.6739,-8.77148 0.314,-0.87873 1.214,-1.721 2,-1.87305 0.7859,-0.15205 2.5527,-0.58687 3.9277,-0.96484 5.5702,-1.53116 11.2244,-1.53939 17.8809,-0.0254 12.4286,2.82683 15.9266,0.99875 12.8125,-6.70117 -2.2993,-5.68558 -1.3973,-6.70313 5.9472,-6.70313 3.5708,0 7.419,-0.49671 8.5528,-1.10351 1.1338,-0.60682 5.5816,-1.34373 9.8847,-1.63868 7.6561,-0.52476 7.8394,-0.59833 8.4629,-3.4375 0.8158,-3.71412 -0.1376,-4.78073 -6.957,-7.7832 -6.8546,-3.01794 -6.9498,-4.05587 -0.6348,-7.01367 5.6075,-2.6264 6.3366,-3.80498 5.4961,-8.90625 -1.6571,-10.05675 -4.4996,-11.2648 -13.3594,-5.67188 -4.5522,2.87372 -7.0193,1.35028 -3.7187,-2.29687 1.2766,-1.41068 1.5126,-3.3144 1.1445,-9.21289 -0.2552,-4.08908 -0.4733,-8.43224 -0.4863,-9.65039 -0.079,-7.32508 -8.1145,-3.74512 -16.7559,7.46484 -2.2033,2.85831 -3.0635,3.24462 -7.1367,3.19922 l -4.6328,-0.0527 -3,-6.19727 c -3.8074,-7.86649 -8.4735,-9.4567 -16.5918,-5.6543 -2.6555,1.24376 -5.511,1.93756 -6.4629,1.57227 -2.8276,-1.08504 -21.5616,-3.98826 -27.4453,-4.25391 -3.025,-0.13658 -5.6951,-0.27544 -5.9355,-0.30664 -0.7934,-0.10306 5.2906,-6.05664 6.1894,-6.05664 0.4838,0 2.3555,-1.125 4.1582,-2.5 2.5917,-1.97676 4.4468,-2.5 8.8613,-2.5 7.9981,0 9.9639,-2.59613 9.0899,-12 -0.5466,-5.88099 -0.3034,-7.44743 1.8926,-12.24414 3.9027,-8.52463 5.5849,-19.42038 3.2617,-21.11914 -1.5703,-1.14827 -2.7322,-0.81597 -8.7754,2.50586 l -6.9649,3.82812 -3.3652,-3.73437 c -1.8509,-2.05433 -3.3757,-4.07383 -3.3887,-4.48633 -0.096,-3.1103 -8.2513,4.79448 -11.4414,11.08984 -3.9774,7.84901 -7.9749,11.80278 -13.8789,13.72852 -2.8619,0.93346 -5.7138,2.10027 -6.3398,2.59375 -0.6885,0.54281 -2.1831,0.42159 -3.7813,-0.30664 -2.5192,-1.14778 -2.6134,-1.46254 -2.0312,-6.7793 0.5596,-5.10886 0.3445,-5.97399 -2.5645,-10.32617 -1.7463,-2.6125 -3.6129,-4.75 -4.1504,-4.75 -0.5374,0 -1.6535,-0.675 -2.4785,-1.5 -3.5133,-3.51332 -7.4446,-0.62914 -8.7441,6.41602 -2.067,11.20715 -14.9227,15.5549 -23.3867,7.9082 -4.1022,-3.70605 -10.4825,-6.27286 -18.2266,-7.33399 -2.475,-0.33913 -5.4,-0.74413 -6.5,-0.89843 -4.3532,-0.61067 -2.5425,-3.21541 4.7149,-6.78321 4.007,-1.96995 8.4888,-3.85607 9.9589,-4.19336 1.4701,-0.33729 3.9451,-1.64899 5.5,-2.91406 1.5549,-1.26507 6.0571,-4.19223 10.0059,-6.5039 8.5747,-5.01972 15.3203,-13.58778 15.3203,-19.46094 0,-1.42202 -9.065,-0.18359 -17,2.32226 -7.5067,2.37058 -13.9164,1.99187 -20.7363,-1.2246 -6.9473,-3.2765 -9.9033,-2.11553 -25.2266,9.91601 -10.4179,8.17985 -11.4472,8.4901 -13.832,4.15234 -5.8272,-10.5991 -11.7706,-13.24908 -27.5996,-12.30273 -9.8708,0.59013 -11.8817,0.44887 -14.0782,-0.99023 -2.8917,-1.8947 -8.8503,-0.77656 -12.25,2.29882 -6.5309,5.9079 -15.2528,8.39589 -27.8203,7.93555 -11.0757,-0.40571 -13.7949,-1.86919 -11.1054,-5.97852 0.8515,-1.30104 1.8601,-4.32323 2.2422,-6.71679 0.8329,-5.218 -0.366,-6.3598 -5.7754,-5.5 -2.7248,0.43309 -4.414,0.0772 -6.5,-1.36914 -5.4553,-3.78229 -6.0976,-3.67653 -15.0254,2.44726 -13.5002,9.26013 -14.8001,9.67451 -35.4883,11.29883 -9.643,0.75711 -12.325,0.65575 -15.2734,-0.57617 -6.0882,-2.54383 -9.0621,1.69742 -10.3594,14.77539 -0.3374,3.40078 -5.8508,5.08563 -14.6211,4.4668 -7.3953,-0.52181 -8.3391,-0.36987 -11.6074,1.87304 l -3.5586,2.44141 -7.4414,-1.97852 c -9.452,-2.51351 -10.9434,-2.52584 -10.9434,-0.0859 0,1.06754 0.45,2.21867 1,2.55859 0.55,0.33992 1,1.85672 1,3.36914 0,1.51242 0.6613,3.62183 1.4688,4.68945 2.0916,2.76535 1.9676,2.99497 -2.3321,4.28321 -5.3623,1.60659 -9.1367,4.79892 -9.1367,7.73047 0,2.41672 0.047,2.42773 10.5625,2.42773 16.9832,0 19.4856,1.22976 32.1875,15.8125 5.852,6.71831 10.8893,7.01609 16.2227,0.95703 5.0475,-5.73426 8.5667,-7.20054 15.5625,-6.47851 8.1776,0.844 11.6771,6.47595 4.6738,7.52148 -2.0168,0.30109 -9.209,7.3419 -9.209,9.01563 0,1.48805 4.4467,4.89668 7.2539,5.56054 4.0521,0.95826 11.7461,8.69594 11.7461,11.8125 0,3.34298 -13.3619,16.16914 -19.6562,18.86719 -6.2432,2.67615 -15.0353,2.39581 -46.8438,-1.48633 -20.7196,-2.52877 -24.5907,-5.30519 -17.1543,-12.30469 3.5947,-3.38359 5.417,-7.91298 3.8242,-9.50585 -1.4656,-1.4656 -6.5439,1.6524 -11.8886,7.30078 -2.63,2.77949 -7.0313,6.69919 -9.7813,8.70898 -2.75,2.0098 -5.225,3.93984 -5.5,4.28906 -0.7679,0.97521 -12.7576,4.92969 -14.9453,4.92969 -1.0653,0 -2.184,0.4014 -2.4863,0.89063 -0.3024,0.48923 -2.016,1.1353 -3.8086,1.4375 -9.8498,1.66052 -14.1925,2.89753 -23.2598,6.61914 -5.5,2.25744 -11.2691,4.8107 -12.8203,5.67578 -7.6449,4.26351 -12.8423,-0.95596 -15.0606,-15.12305 -4.1863,-26.73598 -3.2983,-35.68184 4.2344,-42.62695 7.1842,-6.62383 10.2851,-6.97875 19.9824,-2.28906 11.22,5.42606 13.6351,5.79518 18.1895,2.78124 2.3273,-1.5401 6.2539,-2.83874 10.3301,-3.41601 9.6559,-1.36744 17.875,-6.62405 23.3945,-14.96289 4.7853,-7.22968 5.0627,-8.68313 2.3184,-12.17188 -3.8067,-4.83944 -14.6388,-6.21261 -22.4844,-2.84961 l -4.584,1.96485 0.045,-5.71485 c 0.024,-3.14295 0.6919,-7.51484 1.4844,-9.71484 1.9752,-5.48264 1.8456,-6.95449 -0.8984,-10.14453 -2.7709,-3.22135 -3.583,-2.89127 -12.6133,5.12891 -7.7993,6.92689 -10.4586,8.0364 -11.8653,4.94921 -1.7801,-3.90697 -5.5142,-4.7989 -10.1621,-2.42773 -8.3141,4.24156 -12.5272,1.97727 -12.414,-6.67383 0.2275,-17.40097 8.4401,-28.36904 32.9238,-43.9707 23.2356,-14.80633 62.5553,-20.26986 104.5078,-14.52149 8.5295,1.16872 17.9304,2.84355 20.8906,3.72266 6.4165,1.90548 26.3602,5.43186 30.6016,5.41016 3.6681,-0.0187 11.8523,-3.59346 11.082,-4.83985 -0.3067,-0.49622 -2.699,-1.22185 -5.3183,-1.61328 -2.6193,-0.39143 -7.4086,-1.78507 -10.6426,-3.09765 -3.2341,-1.31258 -8.015,-2.66967 -10.623,-3.01563 -6.6477,-0.88186 -7.9849,-1.84587 -5.7129,-4.11914 2.2571,-2.25838 22.5106,-3.061 33.2148,-1.31641 18.9428,3.08732 25.5902,3.90179 32.3086,3.96289 9.802,0.0892 20.2969,1.80164 28.1914,4.59766 3.575,1.26616 11.1404,3.45434 16.8106,4.86328 5.6701,1.40894 10.6201,2.75205 11,2.98633 0.3798,0.23429 5.0369,0.94611 10.3496,1.58008 11.3229,1.35119 21.5006,-0.89805 27.2304,-6.01758 4.9162,-4.39262 3.5092,-4.75571 -13.8906,-3.57227 -12.008,0.81672 -18.1951,0.12664 -31,-3.45898 -7.5277,-2.10789 -8.3168,-4.91211 -1.3828,-4.91211 2.1991,0 7.0104,-0.42544 10.6914,-0.94531 3.6809,-0.51986 10.9664,-1.44061 16.1914,-2.04688 5.225,-0.60628 14.9,-2.4947 21.5,-4.19531 14.4971,-3.73542 18.7516,-3.70254 27.1856,0.20117 10.1965,4.71951 14.7376,3.90533 20.0293,-3.58789 2.4836,-3.51686 8.854,-8.21016 11.7949,-8.68945 1.0946,-0.17837 5.2534,-1.58027 9.2422,-3.11719 8.671,-3.34094 14.4396,-8.46428 24.6582,-21.90039 l 2.8769,-3.7832 -2.3164,-2.4668 c -3.9261,-4.17914 -24.0289,-2.71676 -27.9726,2.03516 -1.2677,1.52746 -5.5694,1.98108 -8.4161,0.88867 -2.4889,-0.95508 -1.9089,-6.4961 1.3106,-12.5293 6.2772,-11.76317 5.5448,-16.45879 -2.7422,-17.57031 -3.6329,-0.48727 -4.8477,-0.1307 -8.5,2.49219 -4.2102,3.0235 -13.9908,6.21484 -19.0449,6.21484 -2.1915,0 -2.6055,-0.4469 -2.6055,-2.81836 0,-3.06889 -2.7206,-5.97392 -8.1953,-8.74805 -7.9025,-4.00434 -8.314,-5.72507 -3.1543,-13.21679 4.9479,-7.1841 5.9257,-14.78328 2.0273,-15.76172 -1.4121,-0.35443 -4.9017,-0.14294 -7.7539,0.46875 -2.8522,0.61169 -9.9642,1.34481 -15.8047,1.63086 -8.8018,0.4311 -24.7748,2.32491 -33.6191,3.98437 -1.1,0.2064 -5.0479,2.41914 -8.7734,4.91797 -7.9226,5.31393 -7.6948,5.27014 -10.7266,2.04297 -3.0453,-3.24156 -5.1822,-3.15466 -9.2148,0.375 -3.4313,3.00329 -10.1436,4.78083 -13.7422,3.63867 -2.5878,-0.8214 -2.6046,-2.69549 -0.043,-5.01367 1.1,-0.99549 1.9998,-2.30204 2.0098,-2.9043 0.01,-0.60225 2.48,-6.20808 5.5,-12.45703 4.4248,-9.15586 5.4902,-12.33974 5.4902,-16.40039 v -5.03906 l -10.6934,0.60547 c -12.3549,0.69965 -16.4651,-0.73093 -19.7793,-6.88477 -2.8175,-5.23178 -8.1649,-5.03734 -9.0644,0.33008 -1.5593,9.30382 -3.3379,12.81374 -7.668,15.125 -3.2813,1.75147 -4.3164,1.94275 -4.8965,0.90625 -0.4045,-0.72287 -1.7844,-2.48284 -3.0664,-3.91016 -1.2819,-1.42732 -2.8022,-3.39822 -3.3769,-4.38086 -1.0018,-1.71269 -1.2652,-1.71415 -6.3731,-0.0176 -4.3123,1.43232 -6.0239,1.56236 -8.9765,0.67773 -2.0066,-0.60118 -6.5639,-1.55008 -10.127,-2.10742 -3.5631,-0.55735 -8.7285,-1.49047 -11.4785,-2.07422 -9.1105,-1.93391 -20.6511,2.11525 -28.334,9.94141 -3.6807,3.74938 -9.4313,7.08494 -12.2832,7.12304 -2.8509,0.0381 -4.9074,1.50527 -7.3398,5.24219 -2.0609,3.16616 -4.0221,2.97481 -9.0938,-0.88672 -1.6782,-1.27781 -5.7282,-3.49089 -9,-4.91992 -9.6122,-4.19839 -14.4035,-6.58694 -14.9316,-7.44141 -0.272,-0.44006 -2.0488,-1.0927 -3.9492,-1.44921 -2.453,-0.46018 -3.8722,-1.47987 -4.8887,-3.51758 l -1.4316,-2.8711 4.6269,-0.63867 c 2.5443,-0.35167 5.75,-1.02868 7.125,-1.5039 1.375,-0.47521 9.7,-2.30185 18.5,-4.06055 8.8,-1.75869 16.9,-3.56695 18,-4.01758 1.1,-0.45062 5.4179,-1.09061 9.5957,-1.42187 4.1777,-0.33127 8.4527,-0.76137 9.5,-0.95704 1.0472,-0.19566 4.8293,-0.67246 8.4043,-1.05859 24.5061,-2.64686 57.5541,-12.36064 70,-20.57617 3.025,-1.99681 10,-6.02732 15.5,-8.95508 16.0008,-8.51752 20.8639,-12.18287 23.9219,-18.03125 3.7743,-7.2182 2.9046,-7.96512 -9.293,-7.98242 -10.9743,-0.0156 -14.6309,-0.66512 -13.2519,-2.35742 0.9299,-1.14123 4.123,-11.17582 4.123,-12.95703 0,-0.59387 -3.4821,-0.74234 -9.0312,-0.38282 -4.9672,0.32181 -10.2739,0.15262 -11.793,-0.37695 -3.0871,-1.07617 -8.1758,-8.17924 -8.1758,-11.41211 0,-6.3573 -6.8334,-6.19532 -10.543,0.25 -4.5758,7.95048 -5.0648,8.31191 -9.0039,6.66602 -5.2445,-2.19126 -8.3429,-1.83598 -9.4531,1.08398 -1.2008,3.15836 -1.0998,3.17424 -6.5684,-1 -2.5222,-1.9253 -6.2378,-3.76794 -8.2578,-4.0957 -4.5476,-0.73788 -10.4912,-3.56146 -10.3261,-4.9043 0.068,-0.55 3.6385,-2.125 7.9355,-3.5 9.1898,-2.94064 13.7105,-5.6259 17.4277,-10.34961 1.4907,-1.89432 5.8694,-5.54451 9.7305,-8.11133 3.861,-2.56684 7.2918,-5.10736 7.625,-5.64648 1.0216,-1.653026 -2.4312,-5.826344 -5.3281,-6.439454 -1.5056,-0.31864 -4.388,-1.175807 -6.4063,-1.904297 -3.2669,-1.17915 -4.0116,-1.116317 -6.7754,0.564453 -4.8702,2.96174 -13.7152,1.757208 -20.5293,-2.794922 -2.8523,-1.90558 -5.0622,-1.64045 -10.1835,1.21875 -5.5881,3.11977 -7.6017,2.57727 -9.6329,-2.59375 -1.4376,-3.65957 -1.8266,-3.959306 -4.3945,-3.384766 -6.0249,1.34803 -13.4006,5.759217 -19.1855,11.472657 l -6.045,5.968749 h -7.4707 c -12.1613,0 -14.0875,-4.49948 -4.8652,-11.36914 5.6228,-4.18842 6.4429,-6.484535 3.707,-10.390625 -1.7189,-2.45406 -1.0758,-4.46434 2.4512,-7.65625 1.1509,-1.04159 2.0918,-2.393769 2.0918,-3.005859 0,-0.61208 1.1354,-2.785495 2.5234,-4.828125 4.1412,-6.094257 2.7741,-8.75 -4.5078,-8.75 -7.6208,0 -8.2935,-0.96355 -5.9277,-8.5 2.8639,-9.123314 2.6286,-16.5 -0.5273,-16.5 -1.3425,0 -2.689,0.399068 -2.9903,0.886718 -0.3014,0.48765 -2.2298,1.202315 -4.2851,1.587891 -2.1156,0.396883 -5.3754,2.181466 -7.5137,4.113281 -6.1099,5.519916 -9.2618,3.925888 -15.9902,-8.082031 -3.708,-6.61768 -5.9557,-7.75103 -9.1543,-4.617188 -5.7101,5.594493 -12.0109,10.124964 -15.3868,11.0625 -5.6484,1.568684 -10.9894,1.318038 -12.0429,-0.564453 -2.4589,-4.393801 -9.1973,3.696431 -9.1973,11.042969 0,3.370255 -0.5032,4.810826 -2.0644,5.904297 -4.5718,3.202193 -9.9356,-1.727429 -9.9356,-9.130859 0,-10.410494 -10.4296,-20.547682 -22.7578,-22.119141 -4.1559,-0.529739 -9.0436,-2.033455 -12.7422,-3.921875 -3.3,-1.6849 -7.8,-3.799226 -10,-4.697266 -2.2,-0.898039 -4.7813,-2.045065 -5.7363,-2.548828 -0.9551,-0.503763 -4.1772,-0.916015 -7.1602,-0.916015 -4.8229,0 -5.9877,-0.4459039 -10.5136,-4.0234379 -2.7995,-2.212789 -5.0899,-4.462789 -5.0899,-5 0,-0.54263797 -3.1111,-0.97656247 -7,-0.97656247 -5.4354,0 -7,0.3238775 -7,1.44531247 0,0.79433 -1.0872,2.70683 -2.416,4.25 l -2.416,2.8046875 -2.334,-2.0585937 c -1.2837,-1.132536 -3.5715,-2.5853437 -5.084,-3.2285157 -1.5125,-0.6431729 -2.75,-1.6296152 -2.75,-2.1914062 0,-0.561792 -1.6905,-1.02148437 -3.7578,-1.02148437 z M 1350.2754,113.02539 c 1.2204,0 1.6113,1.01813 1.6113,4.25 0,2.3375 0.6862,5.55411 1.5176,7.14844 1.891,3.626 2.4109,3.26569 -7.9922,5.53906 -5.4465,1.19021 -10.6605,3.08743 -13.7246,4.99219 -2.7176,1.68936 -5.1451,3.07031 -5.3945,3.07031 -0.2494,0 -2.236,1.125 -4.4141,2.5 -2.1781,1.375 -4.1926,2.5 -4.4785,2.5 -0.8955,0 -0.4858,-6.24884 0.8203,-12.5 l 1.2539,-6 h 5.4883 c 4.6714,0 6.0936,-0.47865 9.5547,-3.2168 4.6725,-3.69656 13.3982,-8.2832 15.7578,-8.2832 z m -101.6484,51 c 1.9175,0 18.9939,5.55029 21.0078,6.82813 1.1141,0.70686 3.5595,8.13169 4.9961,15.17187 0.2806,1.375 1.1966,3.2875 2.0351,4.25 1.6838,1.93302 1.3194,1.98983 -3.7871,0.58203 -1.925,-0.53071 -5.193,-1.4057 -7.2637,-1.94336 -4.0525,-1.05228 -14.7363,-12.61343 -14.7363,-15.94726 0,-0.91882 -0.9,-2.81447 -2,-4.21289 -2.4631,-3.13133 -2.5477,-4.72852 -0.2519,-4.72852 z m -30.6563,2.31055 c 6.6376,-0.24765 14.3343,2.49021 20.4473,7.85742 3.4345,3.01551 6.4609,7.5994 6.4609,9.7832 0,2.52714 -25.9038,1.2089 -34.6934,-1.76562 -11.5165,-3.89736 -14.8156,-7.17794 -8.5761,-8.52539 1.5239,-0.3291 4.2808,-1.95052 6.1269,-3.60352 2.6509,-2.37367 6.2518,-3.59751 10.2344,-3.74609 z m 265.0918,18.02929 c 4.3252,0.18824 3.264,4.81822 -3.0801,12.44141 -5.608,6.73872 -10.4416,8.80676 -28.4765,12.18164 -5.5696,1.04225 -12.152,2.19477 -14.627,2.56055 l -4.5,0.66406 2.5,-2.54297 c 8.0373,-8.17955 32.142,-22.82439 39.5,-23.99804 2.2,-0.35091 5.125,-0.85098 6.5,-1.11133 0.8381,-0.1587 1.5657,-0.22221 2.1836,-0.19532 z m 30.6348,3.86915 c 3.4937,-0.12694 8.5213,1.85918 11.9668,5.07421 l 2.2851,2.13086 -10.2617,3.38672 c -13.2976,4.39 -25.6399,5.62244 -23.9082,2.38672 0.6239,-1.16567 2.1391,-2.82536 3.3672,-3.6875 4.7958,-3.3667 9.8549,-6.50028 10.5273,-6.52148 0.3881,-0.0122 1.8082,-0.87013 3.1563,-1.90625 0.7086,-0.54458 1.7026,-0.82097 2.8672,-0.86328 z m -132.3907,2.24023 c 0.7133,-0.0571 2.0635,0.62794 3.4551,1.79883 6.3806,5.36888 20.3342,5.4026 26.3047,0.0644 2.0005,-1.78861 8.2356,-0.25838 9.2012,2.25781 1.2515,3.26145 -6.6056,15.23824 -12.4219,18.93555 -5.2096,3.31158 -39.9668,4.8863 -39.9668,1.81055 0,-1.0533 0.3973,-2.34274 0.8809,-2.86524 0.4836,-0.5225 1.4066,-2.60579 2.0527,-4.6289 1.0315,-3.22981 7.806,-14.76305 10.1094,-17.21094 0.09,-0.0952 0.2201,-0.14893 0.3847,-0.16211 z m -143.8711,66.44531 c 8.3537,0.11016 25.8201,2.85548 31.8809,5.58008 2.7852,1.25207 7.425,2.82646 10.3125,3.5 2.8875,0.67354 5.25,1.62986 5.25,2.125 0,0.49514 0.6637,0.90039 1.4746,0.90039 2.956,0 4.1479,5.02428 3.7344,15.75 l -0.3965,10.25 h -3.2383 c -1.7818,0 -3.4816,-0.23937 -3.7754,-0.5332 -0.2938,-0.29383 -3.403,-0.99771 -6.9101,-1.5625 -12.2861,-1.97863 -19.5616,-7.13079 -30.9297,-21.9043 -3.1742,-4.125 -7.1636,-8.61932 -8.8652,-9.98828 -1.7016,-1.36897 -3.0938,-2.83147 -3.0938,-3.25 0,-0.64689 1.7721,-0.90391 4.5566,-0.86719 z m 85.6797,2.19141 5.8301,0.23828 c 3.2058,0.13061 6.1483,0.55853 6.541,0.95117 1.4026,1.40262 -3.181,7.86614 -7.2851,10.27344 -2.2979,1.34789 -4.6514,2.45117 -5.2305,2.45117 -1.8166,0 -2.3797,-4.89805 -1.0918,-9.49805 z m -102.8925,11.3457 c 3.5467,-0.25094 18.6562,14.3505 18.6562,18.61719 0,1.16489 -9.0846,4.66169 -15.5,5.9668 -3.3,0.67133 -10.275,2.478 -15.5,4.01562 -18.5784,5.46728 -39.0504,3.86675 -58.5,-4.57422 -1.65,-0.71609 -5.925,-2.3133 -9.5,-3.54883 -7.8942,-2.72824 -9,-3.51282 -9,-6.39843 0,-2.07124 0.6834,-2.33562 8.75,-3.38282 4.8125,-0.62476 10.1,-1.51293 11.75,-1.97265 4.8099,-1.34011 7.8745,0.30564 9.5391,5.12109 1.7205,4.97686 3.6902,5.525 20.2539,5.65039 8.433,0.0638 10.0852,-0.20033 11.9121,-1.90234 1.1667,-1.08695 3.7362,-2.49225 5.709,-3.12305 1.9728,-0.63079 4.4859,-1.90914 5.5859,-2.8418 1.1,-0.93265 4.7948,-3.46436 8.209,-5.625 3.4141,-2.16064 6.5641,-4.68054 7,-5.60156 0.1182,-0.24991 0.3342,-0.37912 0.6348,-0.40039 z m 321.2812,29.19531 c 2.9264,-0.021 4.9344,1.18261 6.2813,3.69922 2.0727,3.87283 -2.4698,7.08112 -17.0743,12.06055 -10.0962,3.44231 -24.0994,3.22439 -26.3457,-0.41016 -1.4064,-2.27552 0.6692,-4.91396 4.3203,-5.48828 5.1753,-0.81409 14.2988,-4.42645 16.7579,-6.63476 1.1459,-1.02915 3.5929,-1.86366 5.5,-1.87696 1.8895,-0.0131 5.1826,-0.42837 7.3183,-0.92383 1.1891,-0.27585 2.2668,-0.41877 3.2422,-0.42578 z m -177.1074,0.31055 c 6.4079,0.23023 11.6268,1.0691 13.9101,2.45117 l 3.9278,2.37696 -2.9278,1.48242 c -1.6102,0.81511 -5.4027,2.27771 -8.4277,3.25 -3.025,0.97229 -6.0625,2.21324 -6.75,2.75781 -0.6875,0.54457 -1.25,0.65383 -1.25,0.24414 0,-0.40969 -0.5625,-0.28857 -1.25,0.26953 -0.6875,0.5581 -4.85,2.15238 -9.25,3.54102 -4.4,1.38864 -11.4333,4.36182 -15.6309,6.60742 -8.6586,4.6322 -8.7154,4.64676 -9.5332,2.51562 -0.9794,-2.55227 0.3053,-19.70204 1.6993,-22.68359 1.3408,-2.86771 3.7606,-3.55383 5.6972,-1.61719 0.8423,0.84229 3.0771,0.84229 8.7403,0 7.0401,-1.04709 14.637,-1.42554 21.0449,-1.19531 z m -299.6094,2.76953 c 3.7345,-0.1724 8.0249,0.69071 12.1895,2.76563 2.5278,1.25945 7.8153,3.30702 11.75,4.54883 7.8111,2.46522 8.2004,2.84482 4.9902,4.8496 -2.7879,1.74105 -28.4557,2.45229 -35.0879,0.97266 -4.5222,-1.00889 -4.75,-1.22158 -4.75,-4.44336 0,-5.23929 4.684,-8.40603 10.9082,-8.69336 z m 384.2734,10.75 c 2.7946,0.1054 8.2983,2.21087 9.8399,4.06836 1.6422,1.97868 -1.4532,6.81729 -11.2969,17.66016 -8.9388,9.8461 -18.3492,15.39512 -31.2246,18.41601 -37.549,8.80995 -49.0354,12.76733 -63.4258,21.85157 -2.219,1.40085 -4.1543,2.49544 -4.3027,2.43164 -0.1485,-0.0638 -1.0526,-0.3202 -2.0078,-0.57032 -1.7822,-0.46668 -3.138,-2.90584 -6.7129,-12.06445 -5.206,-13.33717 -6.2639,-15.81177 -7.127,-16.69922 -2.8316,-2.91136 2.1203,-9.18658 10.0762,-12.76953 2.475,-1.11462 5.175,-2.58811 6,-3.27344 0.825,-0.68533 4.65,-2.45384 8.5,-3.92968 3.85,-1.47584 7.9,-3.09584 9,-3.59961 18.9002,-8.65568 29.8127,-9.816 42,-4.47071 7.3827,3.23801 16.4982,6.49128 18.1719,6.48828 2.6392,-0.005 7.9232,-3.46439 11.4785,-7.51367 1.6904,-1.92532 4.2597,-3.78296 5.7109,-4.1289 1.4512,-0.34594 3.2068,-1.07649 3.9004,-1.62305 0.2745,-0.21629 0.775,-0.29776 1.4199,-0.27344 z m 41.1719,11.85742 c 1.6875,0.0882 3.4658,0.27094 5.3574,0.54102 4.284,0.61166 11.0904,1.57917 15.125,2.15039 10.2192,1.44685 14.1641,3.2309 14.1641,6.4043 0,5.06208 -6.3121,8.64252 -27.2129,15.43359 -17.5406,5.69927 -27.6145,6.13735 -38.5371,1.67578 -5.3733,-2.19483 -5.4581,-1.78504 2.3086,-11.1289 9.6799,-11.6455 16.9827,-15.69353 28.7949,-15.07618 z m 123.3574,7.61914 c 1.8663,-0.0937 12.3021,5.64995 12.2754,6.86133 -0.069,3.19741 -15.6005,10.51258 -28.9863,13.65235 -3.575,0.83855 -8.075,1.46979 -10,1.40429 -7.8587,-0.26733 -20.617,-2.08278 -23.7051,-3.37304 -3.5315,-1.47556 -4.4174,-3.47852 -1.539,-3.47852 0.9649,0 4.9024,-1.17476 8.75,-2.61133 8.4455,-3.15323 13.525,-4.28585 19.4726,-4.34375 3.8533,-0.0375 20.0253,-5.57589 23.5215,-8.05469 0.048,-0.0341 0.1192,-0.052 0.2109,-0.0566 z m 41.1407,5.31446 c 3.0459,-0.1719 6.8274,0.59114 10.8164,2.25781 4.8064,2.00823 3.4696,3.41204 -6.168,6.48437 -3.85,1.22732 -10.7569,2.4726 -15.3496,2.76758 l -8.3496,0.53711 1.3496,-2.17773 c 0.7427,-1.19745 3.3746,-3.1961 5.8496,-4.44141 2.475,-1.24532 5.7503,-3.09058 7.2773,-4.10156 1.1834,-0.78348 2.7467,-1.22303 4.5743,-1.32617 z m -393.4082,22.23828 c 2.0688,0.10246 3.9176,0.38268 5.375,0.85937 2.7822,0.91001 5.9766,1.6543 7.0996,1.6543 5.1693,0 18.7538,3.41483 20.7324,5.21094 3.7388,3.39387 8.3496,21.22172 8.3496,32.28515 0,8.506 -0.7825,9.20148 -9.2266,8.20508 -24.0645,-2.83961 -27.1588,-2.93709 -39.7734,-1.26172 -15.5404,2.06396 -41.9497,8.96323 -48.3262,12.625 -4.7477,2.72643 -14.9924,1.8868 -28.1738,-2.30859 -4.4,-1.40044 -9.35,-2.84904 -11,-3.21875 -7.7583,-1.73834 -8.9654,-5.59366 -3.1211,-9.96875 4.9289,-3.68991 15.2051,-5.22356 39.7207,-5.92969 8.7184,-0.25112 15.9118,-2.72174 22.7246,-7.80664 3.373,-2.51749 9.155,-10.06174 9.166,-11.95898 0.01,-0.89515 0.6848,-2.18836 1.5098,-2.87305 2.6329,-2.18515 1.6291,-2.91962 -3.25,-2.37891 -5.2138,0.57781 -12.419,-0.62162 -12.9199,-2.15039 -0.1748,-0.53378 3.6148,-2.05653 8.4219,-3.38476 4.8072,-1.32823 10.5418,-3.20544 12.7441,-4.17188 5.5518,-2.43632 13.7407,-3.73512 19.9473,-3.42773 z m 1.5468,64.20703 c 1.0281,0.0188 2.5738,0.29858 4.8868,0.78125 7.0388,1.46886 8.123,2.08018 8.123,4.58398 0,1.59352 -0.6713,1.92355 -3.75,1.84375 -5.1624,-0.13378 -11.25,-2.76927 -11.25,-4.87109 0,-1.6771 0.2767,-2.36928 1.9902,-2.33789 z m -105.9121,5.5332 c 4.6716,0.0198 8.5528,0.64815 11.3184,1.90821 3.6504,1.66324 3.2594,2.77083 -1.6465,4.67773 -4.655,1.80936 -22.6273,10.8551 -24.2851,12.22266 -0.5694,0.46975 -4.3978,2.19993 -8.5079,3.8457 -11.0377,4.41969 -13.3628,4.51711 -24.957,1.04102 -16.8785,-5.06042 -16.9607,-7.75283 -0.3945,-12.76954 5.4427,-1.64821 14.4587,-4.3786 20.0351,-6.06835 10.6709,-3.23346 20.6517,-4.89043 28.4375,-4.85743 z m -130.4648,15.96485 c 0.4752,-0.0115 1.0427,0.0812 1.7734,0.22461 1.7124,0.33615 3.5681,1.2175 4.1231,1.95898 0.6976,0.93212 4.4008,1.49202 12,1.81445 11.6589,0.49469 15.0854,1.58224 19.334,6.13086 2.9064,3.11164 2.3243,3.51486 -9.3438,6.47071 -8.073,2.04512 -10.9364,3.10542 -15.5,5.73828 -3.3233,1.91724 -17.3631,1.88545 -21.8164,-0.0488 -7.6459,-3.32102 -11.4449,-7.48047 -6.832,-7.48047 3.7275,0 10.1466,-5.33169 12.6523,-10.50781 1.5977,-3.30034 2.1838,-4.26634 3.6094,-4.30078 z m -39.6172,25.01172 c 2.89345,-0.0152 6.38374,0.91989 10.52539,2.80664 2.2844,1.04067 5.42631,2.12246 6.98051,2.40429 6.6641,1.20843 5.9641,2.96953 -2.0039,5.04493 -6.74231,1.75613 -19.89579,1.93705 -23.24809,0.32031 -3.0599,-1.47573 -2.82652,-3.70211 0.80468,-7.67774 1.75145,-1.91758 4.04796,-2.88329 6.94141,-2.89843 z m 612.7559,4.61132 c 2.9823,0.11476 5.9768,0.51398 6.5683,1.10547 0.5945,0.59457 3.4397,1.08008 6.3223,1.08008 5.7488,0 6.8607,0.86071 5.9258,4.58594 -0.5292,2.1084 -1.1385,2.43812 -4.1348,2.23633 -1.9327,-0.13016 -3.6393,-0.36194 -3.793,-0.51563 -0.1537,-0.15369 -2.0775,-0.5051 -4.2754,-0.78125 -8.2385,-1.03513 -15.338,-4.88453 -13.1132,-7.10937 0.5477,-0.54767 3.5176,-0.71632 6.5,-0.60157 z m -31.4024,12.26368 c 2.6333,-0.095 5.2414,0.48964 7.6133,1.76171 5.8042,3.11282 5.1565,4.03216 -5.4629,7.75977 -2.75,0.9653 -5.1428,1.8566 -5.3184,1.98047 -0.1756,0.12387 0.2331,2.06872 0.9083,4.32226 l 1.2265,4.09766 7.0918,0.0117 c 7.0628,0.0118 16.6273,1.94782 18.8984,3.82422 0.6565,0.54238 2.9934,1.31126 5.1934,1.70898 8.5133,1.53906 11.6065,5.13055 8.2188,9.54297 -3.5051,4.5652 -7.4614,4.83578 -18.7422,1.28516 -8.8393,-2.78219 -18.2624,-2.89442 -23.1524,-0.27735 -1.203,0.64382 -4.4683,1.76038 -7.2558,2.48243 -2.7876,0.72206 -7.5279,2.01208 -10.5352,2.86718 -7.0018,1.99085 -23.477,1.44285 -25.7773,-0.85742 -0.7361,-0.73613 12.0133,-17.2973 20.2578,-26.31445 5.1151,-5.59442 7.5543,-7.48286 10.7969,-8.35547 2.304,-0.62006 6.0289,-2.2063 8.2773,-3.52344 2.4695,-1.44675 5.1285,-2.2214 7.7617,-2.3164 z m 137.0215,29.84765 c 1.7778,0.0742 2.6289,1.07848 2.6289,3.02539 0,1.62267 -0.5625,3.31017 -1.25,3.75 -0.6875,0.43983 -1.925,1.9764 -2.75,3.41602 -0.825,1.43963 -6.5101,7.40213 -12.6348,13.25 l -11.1367,10.63281 -12.3633,-0.16797 c -19.3284,-0.26279 -24.9727,-1.09264 -33.6035,-4.9414 -2.3315,-1.0397 -4.5204,-1.89063 -4.8652,-1.89063 -0.3448,0 -2.713,-1.51766 -5.2617,-3.37305 -2.5487,-1.8554 -5.6795,-3.69542 -6.9571,-4.08984 -2.2201,-0.68532 -2.2469,-0.80206 -0.5918,-2.63086 3.0221,-3.33946 8.6215,-4.0389 29.7422,-3.71484 l 20.1719,0.30859 8,-3.83984 c 11.1201,-5.33702 11.4177,-5.44523 16.7891,-6.15821 2.6335,-0.34957 6.3305,-1.28021 8.2168,-2.06836 2.5387,-1.06075 4.4825,-1.56553 5.8652,-1.50781 z m -426.1055,16.36719 c 6.3428,0.30753 8.3914,5.86814 9.6621,21.71484 1.8175,22.66607 1.2721,25.22437 -5.625,26.43946 -1.672,0.29457 -5.9103,1.83837 -9.4199,3.42968 -3.5097,1.59131 -7.0751,3.11958 -7.9219,3.39649 -3.8645,1.26366 -18.2868,13.40898 -26.3808,22.21679 -11.7865,12.82598 -13.4458,13.80193 -29.5801,17.38672 -20.3318,4.51743 -41.7703,14.5012 -56.3262,26.23047 -6.5911,5.31112 -6.5177,5.2775 -8.582,3.97071 -0.7751,-0.49069 -2.0126,-0.66187 -2.75,-0.37891 -3.2292,1.23916 -0.6061,-5.72331 3.6543,-9.69922 2.3217,-2.16665 6.3288,-9 5.2773,-9 -0.4902,0 -3.7316,-2.8125 -7.2031,-6.25 -3.8981,-3.85991 -6.4916,-5.7635 -6.7812,-4.97851 -0.5885,1.59528 -6.2891,4.61907 -6.2891,3.33593 0,-0.51993 -2.3625,-1.71359 -5.25,-2.65039 -2.8875,-0.93681 -5.6767,-2.09769 -6.1992,-2.58008 -3.1593,-2.91677 -10.3361,4.10718 -11.2637,11.02344 -0.4817,3.59097 -0.7026,3.81593 -3.1035,3.17383 -3.5218,-0.94185 -9.0793,-11.07422 -6.0742,-11.07422 1.4272,0 13.6633,-10.03613 20.1172,-16.5 2.7457,-2.75 8.2766,-9.95 12.289,-16 10.0625,-15.1726 13.9073,-19.03042 25.9844,-26.07031 5.4747,-3.19125 5.9141,-3.41043 19,-9.47461 44.1101,-20.44122 50.5525,-22.55023 74.8574,-24.49805 9.4292,-0.75567 19.6827,-1.92542 22.7871,-2.59961 1.9645,-0.42662 3.6574,-0.63542 5.1211,-0.56445 z m 457.8067,5.7793 c 1.7876,0.0662 1.9277,0.56678 1.9277,1.82031 0,3.42892 -7.07,9.36079 -14.1328,11.85742 -7.5428,2.6663 -14.7038,2.76539 -23.6992,0.32813 l -6.3321,-1.71485 3.6055,-2.75 c 1.9828,-1.51236 4.6392,-3.78365 5.9024,-5.04687 1.9161,-1.91606 3.7764,-2.40696 11.2265,-2.96875 4.9117,-0.37037 12.1922,-0.93023 16.1797,-1.24414 2.5838,-0.20341 4.2497,-0.321 5.3223,-0.28125 z m -681.252,45.79492 c 2.5825,-0.0616 4.9051,0.1309 6.5117,0.66015 2.842,0.93619 5.7427,1.79117 6.4453,1.90039 0.7027,0.10922 1.2651,0.50674 1.25,0.88477 -0.015,0.37803 -0.027,1.30026 -0.027,2.04883 0,1.41804 -4.6378,3.96522 -14,7.68945 -7.7059,3.06536 -23.5894,3.61654 -26.3984,0.91602 -1.3722,-1.31931 1.8246,-5.48563 5.3203,-6.9336 1.6926,-0.7011 3.0781,-1.62137 3.0781,-2.04492 0,-2.47147 10.073,-4.93641 17.8203,-5.12109 z m 63.4883,2.39062 c 4.9507,0.30269 -2.4495,11.84664 -18.6113,28.74219 l -9.6035,10.03906 -4.2969,-0.57617 c -5.3603,-0.71865 -12.4543,-2.34018 -15.9863,-3.6543 -2.3702,-0.88186 -3.073,-0.60793 -5.9278,2.3125 -2.8921,2.95857 -5.1429,4.21967 -6.0644,3.39844 -0.175,-0.15596 -3.6047,-0.5261 -7.6231,-0.82422 -4.0183,-0.29812 -7.9558,-1.08308 -8.75,-1.74218 -1.965,-1.63085 -1.8189,-3.8768 0.3047,-4.66016 0.9625,-0.35505 3.325,-1.62163 5.25,-2.8125 1.925,-1.19086 7.55,-3.87583 12.5,-5.96875 4.95,-2.09292 9.675,-4.36054 10.5,-5.03711 1.9132,-1.56897 13.2776,-6.76857 18.5,-8.46484 2.2,-0.71457 4.225,-1.59558 4.5,-1.95704 1.2146,-1.5964 17.5539,-7.48537 24.1523,-8.70507 0.4409,-0.0815 0.8263,-0.11003 1.1563,-0.0899 z m 163.5293,16.07227 c 4.022,-0.0511 5.6999,3.40226 6.5137,10.66992 0.2771,2.475 1.0257,8.48154 1.664,13.34766 1.6535,12.60431 -0.2988,54.10714 -2.9355,62.40234 -0.1593,0.50107 -6.671,6.7e-4 -10.0801,-0.77539 -1.925,-0.43822 -7.4539,-1.57319 -12.2871,-2.52148 -10.4028,-2.04108 -12.0159,-3.62395 -8.207,-8.05664 4.1726,-4.85592 5.2704,-13.07334 2.1621,-16.18165 -3.0422,-3.04213 -14.1172,-3.40342 -24.8946,-0.81054 -9.245,2.22423 -13.7734,2.38937 -13.7734,0.50195 0,-0.94624 5.2359,-8.30951 10.2852,-14.46484 0.8758,-1.06754 3.1954,-3.89563 5.1543,-6.28516 1.9588,-2.38954 3.5605,-4.65538 3.5605,-5.03516 0,-1.88691 22.3643,-22.6465 28.5,-26.45507 6.6629,-4.13579 11.2097,-6.29619 14.3379,-6.33594 z M 999.63281,625.0332 c 6.58499,0.007 6.80529,0.0908 9.12699,3.5 1.3084,1.92124 2.8834,3.53595 3.5,3.58985 0.6166,0.0539 3.7938,0.10437 7.0605,0.10937 8.3669,0.0138 10.2921,1.15269 12.0703,7.14063 1.8594,6.26208 1.8555,7.52966 -0.025,12.03125 v 0 c -1.7695,4.23502 -2.613,4.32895 -14.9863,1.67968 -4.4,-0.9421 -11.967,-2.25804 -16.81449,-2.92382 -14.6756,-2.01563 -24.44854,-6.58516 -19.61524,-9.17188 1.2657,-0.67758 1.76002,-1.45049 1.16602,-1.82031 -1.0316,-0.64221 -1.56856,-3.15855 -1.35157,-6.32031 0.2149,-3.1294 12.14659,-7.82246 19.86719,-7.81446 z m 213.83199,15.02539 c 2.5037,-0.0644 4.4141,0.1668 4.4141,0.72461 0,0.416 -4.7693,5.0285 -10.5996,10.25 -15.5714,13.94561 -19.0519,15.26364 -22.3164,8.45118 -1.5468,-3.22791 -4.1199,-5.55364 -5.3223,-4.81055 -0.4185,0.25869 -0.7617,0.005 -0.7617,-0.56445 0,-1.40673 14.6506,-9.91426 19,-11.03321 1.925,-0.49523 5.3534,-1.38341 7.6172,-1.97461 2.3693,-0.61875 5.4651,-0.97857 7.9687,-1.04297 z M 961,648.07617 c 0.73124,-0.0217 1.8131,0.5433 4.06836,1.74219 2.3711,1.26048 5.12093,3.3989 6.11133,4.75391 1.7781,2.43264 1.76854,2.47694 -0.81446,3.45898 -7.1621,2.72301 -14.94247,-3.30907 -11.04687,-8.56445 0.66417,-0.89599 1.03643,-1.37145 1.68164,-1.39063 z m 528.9746,19.44922 16.7031,0.17578 c 21.2374,0.2235 27.1213,0.81643 32.4239,3.26172 2.3528,1.08502 6.5072,2.83215 9.2324,3.88281 5.9496,2.29378 6.3842,3.13861 2.789,5.42774 -1.5087,0.96064 -5.2191,3.35377 -8.2441,5.31836 -3.025,1.96459 -8.1016,4.73097 -11.2832,6.14843 -6.886,3.06779 -6.8464,3.4479 1.0273,9.43946 3.3634,2.55941 5.8477,4.92191 5.5196,5.25 -0.9309,0.93088 -5.6003,0.6707 -7.2637,-0.4043 -0.825,-0.53316 -2.4741,-0.97637 -3.666,-0.98437 -7.1321,-0.0504 -16.1734,-7.36622 -24.4531,-19.78711 -2.8332,-4.25023 -6.1577,-8.85352 -7.3868,-10.22852 -1.2291,-1.375 -2.9466,-3.625 -3.8164,-5 z m -441.5254,36.20899 c 0.9358,0.0114 1.8552,0.12521 2.7383,0.35351 1.756,0.45397 4.9914,1.302 7.1914,1.88477 2.8564,0.75664 6.4776,0.73513 12.6641,-0.0742 11.4736,-1.50102 13.8359,-0.88856 13.8359,3.58203 0,3.56632 -0.4285,3.98826 -11.293,11.07226 -4.5132,2.94272 -5.0039,2.96358 -10.33,0.46485 -6.4337,-3.0184 -17.2606,-4.36505 -23.9395,-2.97852 -6.628,1.37595 -6.7712,1.28713 -5.8555,-3.59375 1.0978,-5.85161 8.4378,-10.79098 14.9883,-10.71093 z m 601.3086,12.55273 c 0.9118,-0.049 1.1131,1.78673 1.086,8.38086 l -0.037,8.85742 -4.2343,2.67969 c -8.3936,5.31066 -22.8187,4.68761 -36.9414,-1.5957 -8.8008,-3.91558 -7.5574,-6.57825 3.08,-6.58985 3.1175,-0.003 6.9578,-0.67839 8.5332,-1.5 1.5754,-0.82161 3.2844,-1.49414 3.7969,-1.49414 0.5126,0 4.1728,-1.50967 8.1348,-3.35547 3.9621,-1.84579 8.9239,-3.67214 11.0254,-4.05859 2.1016,-0.38646 4.4641,-0.95036 5.25,-1.25195 0.11,-0.0422 0.2123,-0.0672 0.3066,-0.0723 z m 63.6211,22.08789 c 1.0365,0.0384 2.0624,0.18264 3,0.44531 3.9084,1.09492 4.5395,4.41158 1.1348,5.96289 -5.4756,2.49484 -13.5163,2.29416 -15.7461,-0.39258 -1.2782,-1.54009 0.527,-3.84525 2.2012,-2.81054 0.3764,0.23266 1.2308,-0.23467 1.8984,-1.03906 1.1992,-1.44493 4.4023,-2.28122 7.5117,-2.16602 z m -640.4805,30.44141 c 3.9711,0.19307 3.5323,2.72101 -1.0019,11.20898 -2.2037,4.125 -6.0285,11.5844 -8.5,16.57617 -9.5293,19.24649 -25.5102,31.98631 -53.0176,42.26758 -4.4,1.64456 -10.46707,3.92849 -13.48437,5.07422 -6.5402,2.48351 -7.39272,2.53746 -9.01562,0.58203 -0.6847,-0.825 -2.29187,-1.5 -3.57227,-1.5 -1.2803,0 -2.76859,-0.7875 -3.30859,-1.75 -0.7682,-1.36919 -2.19952,-1.72144 -6.57422,-1.61914 -6.8023,0.15906 -6.45112,-0.53517 3.92578,-7.76172 10.0569,-7.00365 13.85358,-9.99666 21.90239,-17.27148 8.9717,-8.10902 19.4697,-15.7725 26.4394,-19.29883 2.9631,-1.49921 7.2374,-4.52096 9.4981,-6.71484 13.0694,-12.68344 24.0539,-18.92796 34.7363,-19.74415 0.7482,-0.0572 1.4053,-0.0764 1.9726,-0.0488 z m 229.0078,1.70898 2.379,10.5 c 1.3084,5.775 4.6895,19.47683 7.5136,30.44727 6.9753,27.09582 8.068,38.65542 5.6387,59.64062 -3.9699,34.2928 -5.9966,38.99063 -7.0586,16.35547 -1.8802,-40.07587 -2.7149,-51.98984 -4.8965,-69.94336 -1.3366,-11 -2.6889,-26.075 -3.0039,-33.5 z m -316.51753,10.55664 c 4.3538,-0.091 9.54633,0.2499 15.16403,1.03125 11.1321,1.54833 11.5947,1.9796 6.8907,6.41602 -4.7142,4.44612 -7.2604,5.4939 -13.37895,5.5039 -2.5767,0.004 -7.38554,0.41474 -10.68554,0.91211 -12.1978,1.83847 -30.5,2.32929 -30.5,0.81836 0,-1.33672 14.47644,-9.82594 22.37304,-13.12109 2.26725,-0.94608 5.78293,-1.4696 10.13672,-1.56055 z m 354.50193,207.35156 c 0.487,-0.0157 0.7868,3.1018 0.8809,9.3418 0.081,5.36251 1.0866,19.65001 2.2344,31.75001 1.5253,16.0814 1.9425,25.9009 1.5488,36.5 -0.357,9.6099 -1.2003,17.0294 -2.4981,22 l -1.957,7.5 -0.1523,-10.5 c -0.084,-5.775 -0.7978,-15.675 -1.584,-22 -4.2439,-34.144 -4.2599,-38.5324 -0.2539,-66.75001 0.7405,-5.21588 1.3379,-7.82747 1.7812,-7.8418 z m -44.3613,134.20311 1.3184,25.1465 c 1.3423,25.6339 0.9405,48.0596 -1.1504,64.2422 -1.6216,12.551 -2.2061,11.7162 -4.7207,-6.7402 -4.065,-29.8353 -3.9477,-41.4066 0.6484,-63.7032 z m 48.7461,118.4824 c 0.387,-0.038 0.5647,1.7811 0.916,6.5274 0.3208,4.3336 0.8101,9.4539 1.0879,11.3789 0.2777,1.925 1.0087,8.225 1.625,14 0.6163,5.775 1.8237,15.45 2.6816,21.5 1.278,9.0132 1.4365,16.4494 0.8789,41.1699 -0.4623,20.4909 -0.3179,32.8931 0.4493,38.6582 v 0 c 1.7808,13.3821 0.8344,14.5731 -2.795,3.5176 -3.0629,-9.3301 -4.4915,-16.284 -5.7246,-27.8457 -1.2523,-11.7622 -1.2458,-104.3861 0.01,-107.3789 0.3945,-0.9403 0.6652,-1.5069 0.875,-1.5274 z m -57.3477,92.4063 c 1.2359,-3.0253 1.1228,51.1859 -0.1211,58.0664 -2.7687,15.3152 -8.6455,28.6742 -16.1601,36.7305 -1.7964,1.926 -4.7556,5.348 -6.5742,7.6035 -5.8229,7.2218 -7.263,4.7215 -1.7227,-2.9903 10.2207,-14.2264 15.3682,-32.9994 21.0899,-76.9101 1.4691,-11.275 3.0388,-21.4 3.4882,-22.5 z" />
  </g>
</svg>
