<?xml version="1.0" encoding="UTF-8" standalone="no"?>
<!-- Created with Inkscape (http://www.inkscape.org/) -->

<svg
   version="1.1"
   id="svg1"
   width="2815"
   height="1536"
   viewBox="0 0 2815 1536"
   xmlns="http://www.w3.org/2000/svg"
   xmlns:svg="http://www.w3.org/2000/svg">
  <defs
     id="defs1" />
  <g
     id="g1">
    <path
       id="path1"
       style="fill:#000000;stroke:none;stroke-width:2.08929"
       d="m 1178.8555,24.933002 c -9.0157,0.09683 -17.6187,1.628586 -27.1855,4.46875 -30.8636,9.162687 -48.713,23.810094 -62.6875,51.439453 -10.0913,19.951805 -9.4906,19.323435 -21.6836,22.652335 -19.2308,5.25034 -27.1021,21.00505 -16.8887,33.80079 l 4.7891,6.00195 -4.1836,3.9043 c -3.1308,2.92197 -3.9226,4.87139 -3.1446,7.74023 0.8557,3.15534 0.5428,3.6245 -1.7656,2.6543 -5.1212,-2.15245 -17.3065,-13.37939 -18.2344,-16.80078 -5.0122,-18.48166 -20.0042,4.07808 -20.0722,30.20507 -0.031,11.88697 -0.3206,13.10933 -3.1231,13.11133 -8.14559,0.009 -29.78733,12.22383 -35.34178,19.94922 -11.53635,16.04528 2.82103,32.57835 29.83203,34.35352 3.67875,0.24178 -6.30343,5.36718 -10.45313,5.36718 -11.22677,0 -20.99897,9.1779 -25.79882,24.23047 -1.36997,4.29628 -3.12111,5.67747 -9.69532,7.64649 -15.71467,4.70664 -28.61023,15.3962 -30.4707,25.25781 -1.68142,8.91255 -1.88125,9.22309 -6.65234,10.33984 -13.26933,3.10586 -19.69228,18.69159 -11.16407,27.08985 14.27478,14.05721 94.62058,14.95147 102.10943,1.13672 0.4515,-0.83298 4.2759,0.45601 8.498,2.86328 35.6108,20.3036 71.9443,17.7297 92.2793,-6.53711 9.3138,-11.11455 13.1155,-13.33502 27.4121,-16.01367 8.1701,-1.53079 14.1628,-3.99489 20.3184,-8.35352 12.6911,-8.9863 31.6023,-9.26432 38.5449,-0.56641 5.3793,6.73939 5.6978,10.32884 1.0059,11.33204 -1.9119,0.40884 -7.5518,1.62253 -12.5332,2.69531 -4.9815,1.07278 -12.2817,4.19512 -16.2227,6.93945 -8.5426,5.94861 -14.7446,8.65757 -23.6191,10.31836 -10.3933,1.94503 -21.267,11.32702 -23.6055,20.36719 -1.5173,5.8656 4.0004,10.75664 16.3262,14.47265 11.7936,3.55556 12.4452,4.63818 6.4297,10.6875 -7.5058,7.54807 -18.9,7.77148 -28.6387,0.56055 -4.4734,-3.31231 -8.4814,-6.50058 -8.9063,-7.08594 -5.0388,-6.94183 -41.0563,-12.96225 -46.5879,-7.78711 -4.04,3.7797 -15.7354,4.47887 -23,1.375 -19.4724,-8.31983 -47.01753,-3.22772 -68.40428,12.64454 -1.85776,1.37875 -9.75344,5.03777 -17.54492,8.13281 -19.97871,7.93616 -29.7718,14.74591 -44.83789,31.17578 -4.4104,4.80964 -9.02997,8.74609 -10.26562,8.74609 -3.79359,0 -11.84375,10.13415 -11.84375,14.91016 0,7.53774 5.69534,11.20112 27.42382,17.63867 7.98867,2.36684 8.13261,3.93756 1.07227,11.73047 -5.32293,5.87521 -5.62715,5.9748 -9.72461,3.22266 -7.42175,-4.98498 -14.55057,-2.01516 -17.29297,7.20312 -2.28174,7.66979 -2.29036,7.67608 -9.36523,7.10352 -11.48297,-0.92931 -17.51777,6.13476 -16.22656,18.99218 l 0.96484,9.60743 h -8.66406 c -17.74717,0 -30.1518,14.42022 -20.86524,24.25586 15.01435,15.9021 93.22436,13.54263 105.01172,-3.16797 2.6744,-3.79144 11.83327,-3.93217 19.27148,-0.29492 6.98659,3.41628 24.31873,3.50809 34.33399,0.18164 4.1906,-1.39187 12.97461,-3.04931 19.51951,-3.6836 25.0305,-2.42571 49.1036,-17.89617 49.1426,-31.58203 0.016,-5.75634 9.2769,-17.69488 16.4434,-21.19922 2.9648,-1.44977 10.7151,-2.49828 18.6426,-2.52148 16.4272,-0.0481 22.56,-2.86861 38.0273,-17.49414 11.5088,-10.88241 20.2249,-13.17985 29.0469,-7.6543 4.1446,2.59589 22.3217,0.99523 29.7051,-2.61523 2.7462,-1.34289 7.9651,-6.39309 11.5976,-11.22266 9.6386,-12.81503 14.8405,-14.92014 20.9395,-8.48047 2.6125,2.75824 4.9326,5.08889 5.1562,5.17969 0.2236,0.091 0.7726,5.4973 1.2207,12.01367 l 0.8145,11.84766 -6.6211,2.67187 c -3.6416,1.46903 -10.4297,5.62346 -15.084,9.23242 -9.2273,7.15489 -11.1393,7.72682 -14.2168,4.26172 -7.5117,-8.45781 -11.1423,-10.35742 -19.7871,-10.35742 -13.0032,0 -17.2815,2.52142 -27.8184,16.39648 -5.6308,7.41482 -11.2039,12.99054 -13.6484,13.65235 -10.0922,2.73243 -23.0964,13.16832 -26.4199,21.20312 -2.6329,6.36495 -4.4234,8.27233 -9.4063,10.01953 -12.8309,4.49901 -16.9547,18.02403 -6.9824,22.9004 8.3091,4.06308 41.7898,3.4532 65.5391,-1.19336 16.0682,-3.14376 20.795,-3.45952 26.9433,-1.80664 10.0991,2.71497 36.0307,2.39702 43.0274,-0.52735 7.2992,-3.05085 16.7749,-11.85683 21.5058,-19.98633 2.0445,-3.51321 4.4163,-6.39339 5.2696,-6.40039 2.3306,-0.0186 16.1128,13.30362 15.6777,15.1543 -0.2079,0.88376 -7.6462,6.06109 -16.5293,11.50391 -33.6675,20.62819 -36.8134,23.16049 -55.8203,44.9414 l -13.4024,15.35938 -23.7871,-0.54102 c -15.3989,-0.35067 -25.1121,0.17895 -27.541,1.50195 -2.0637,1.12405 -6.7284,3.49629 -10.3652,5.27149 -3.6368,1.77518 -8.811,5.12737 -11.5,7.44922 -6.1809,5.33677 -8.5621,5.29208 -16.8789,-0.30664 -10.4682,-7.04697 -17.48,-8.63157 -39.9414,-9.02539 -17.8502,-0.313 -22.1955,-0.98264 -30.129,-4.6543 -20.69827,-9.5794 -48.84896,-4.47197 -57.59958,10.45117 -9.22421,15.7308 -10.82798,16.8141 -25.89453,17.49219 -16.16046,0.72731 -22.59091,3.76279 -27.15625,12.81836 -2.40573,4.77187 -4.62115,6.49655 -10.44922,8.13281 -19.10683,5.36434 -29.60071,24.19571 -19.55468,35.0918 6.26593,6.79613 15.33087,8.96357 38.68359,9.2539 11.89671,0.14788 26.49695,0.44602 32.44531,0.66211 l 10.81446,0.39258 -4.63477,2.89453 c -7.95243,4.96482 -14.52355,14.18481 -15.57031,21.84571 -1.10539,8.09013 -5.99531,11.27929 -17.29492,11.27929 -6.22646,0 -18.67832,3.21666 -26.80079,6.92383 -5.60709,2.55913 -10.49268,10.39434 -11.61914,18.63867 -0.88334,6.46485 -1.22403,6.84801 -5.00195,5.60547 -14.74441,-4.84934 -38.90435,2.17801 -46.53906,13.53711 -6.66772,9.92035 -5.09964,21.76311 3.57617,27.01367 l 4.6875,2.83789 -5.00781,2.46485 c -2.75493,1.35565 -6.73943,4.0558 -8.85352,6.00195 -2.37108,2.18277 -6.12353,3.50256 -9.79492,3.44336 -9.59265,-0.15494 -18.19274,6.62803 -21.27344,16.7793 -2.30189,7.58498 -3.43079,8.90785 -10.5664,12.36914 -16.45444,7.98155 -22.29688,13.64241 -22.29688,21.60547 0,15.16111 14.13101,21.44209 43.08984,19.15429 36.32084,-2.86941 41.3544,-2.45725 54.2461,4.44336 17.31582,9.26873 27.78891,9.6653 40.49414,1.53125 8.50849,-5.44724 10.39273,-6.011 15.12695,-4.53515 7.18882,2.24106 37.39076,0.52979 47.22852,-2.67579 4.30658,-1.40325 11.01967,-5.07138 14.91797,-8.15039 6.08904,-4.8094 9.01245,-5.77429 20.75192,-6.84961 17.674,-1.61892 27.1737,-6.60027 39.9297,-20.93554 l 9.8711,-11.0918 9.1407,1.24219 c 10.8441,1.47296 25.3265,-2.23427 39.5996,-10.13672 7.2048,-3.98902 11.693,-5.21372 19.414,-5.29492 25.992,-0.27347 60.9477,-19.13566 57.836,-31.20899 -1.3211,-5.12588 -7.4456,-12.73761 -12.7227,-15.80859 -2.2929,-1.33437 -6.2554,-4.65815 -8.8047,-7.38672 -3.9897,-4.27023 -6.0961,-5.01534 -15.125,-5.34961 -12.9692,-0.48011 -13.7628,-1.7664 -5.291,-8.58789 8.217,-6.61636 16.4306,-17.10526 23.9668,-30.60547 3.1451,-5.63403 6.0966,-10.85666 6.5586,-11.60547 0.462,-0.74884 6.5899,0.24469 13.6172,2.20899 25.7775,7.20542 45.6096,1.50277 61.041,-17.55274 3.0742,-3.79629 5.5915,-8.21601 5.6035,-9.82226 0.049,-10.68228 -18.5799,-20.78367 -39.3945,-21.36133 -4.0395,-0.11213 -5.1101,-1.3181 -8.2285,-9.27344 l -3.586,-9.14648 5.9805,-9.38867 c 3.2894,-5.16333 9.5682,-15.08345 13.9512,-22.04493 16.8381,-26.74382 28.4516,-34.37791 57.8261,-38.00586 11.9291,-1.47334 23.2661,-2.67773 25.1914,-2.67773 1.9254,0 10.7148,6.18611 19.5333,13.74609 8.8184,7.55998 20.0408,16.11953 24.9394,19.02344 25.2483,14.96732 32.0371,22.7514 32.0371,36.73438 0,11.72485 -5.3869,22.34547 -17.1035,33.71679 -22.3046,21.64743 -45.7432,54.89991 -56.791,80.57032 -9.3017,21.61344 -7.6991,43.07771 5.7637,77.18359 7.0952,17.97469 27.7338,48.22266 32.9023,48.22266 0.7575,0 7.7774,7.14996 15.5996,15.88867 16.7997,18.76815 21.9262,23.3531 34.3067,30.67578 10.1117,5.98089 29.3319,21.87142 28.1406,23.26562 -0.408,0.4776 -5.2571,-0.0507 -10.7774,-1.17578 -9.9265,-2.02303 -35.1308,3.14307 -35.1308,7.20117 0,0.7282 -2.955,2.33632 -6.5664,3.57422 -3.6115,1.2378 -8.0814,3.3827 -9.9336,4.7656 -7.4881,5.5909 -39.7955,3.06 -46.8457,-3.66989 -1.2746,-1.2167 -6.2419,-4.78966 -11.0371,-7.93946 -14.1708,-9.3086 -17.1806,-19.03543 -9.8204,-31.72851 5.3875,-9.29106 5.1487,-10.14594 -6.5664,-23.52539 -15.4444,-17.63816 -24.4043,-20.83625 -46.7109,-16.67383 -12.6025,2.35163 -18.1333,2.61788 -24.5781,1.1875 -4.5739,-1.01518 -8.6184,-1.8457 -8.9864,-1.8457 -3.2034,0 1.4759,8.83075 6.5,12.26757 5.6998,3.89902 7.4482,4.15918 22.5079,3.35547 13.409,-0.71563 17.4165,-0.2999 22.4043,2.32032 6.0241,3.16449 17.6601,16.45079 17.6601,20.16406 0,4.56226 -8.2894,17.93573 -12.4551,20.09375 -5.985,3.1004 -5.8453,3.7375 3.1856,14.47461 4.2488,5.0515 7.7246,9.7583 7.7246,10.4609 0,2.8902 -24.6279,14.3603 -34.5606,16.09568 -12.1883,2.1295 -13.6898,3.161 -9.6464,6.6211 8.4007,7.189 31.7513,5.3284 49.6152,-3.9531 16.9291,-8.79588 18.1836,-8.98088 25.8359,-3.8105 11.2247,7.584 39.1679,19.4433 45.8125,19.4433 3.4194,0 11.9885,-2.0563 19.043,-4.5683 7.0544,-2.512 16.2079,-5.7665 20.3418,-7.2325 9.7416,-3.4546 13.2074,-3.3645 30.5742,0.7891 24.975,5.9733 35.5941,13.4672 40.1973,28.3652 1.0455,3.384 2.4576,6.1524 3.1367,6.1524 0.679,0 1.2344,1.1613 1.2344,2.582 0,1.4208 0.8695,3.6585 1.9316,4.9727 1.0623,1.3141 2.7162,4.4238 3.6758,6.9101 18.7744,48.649 40.3802,86.793 49.1621,86.793 0.631,0 3.0439,1.5786 5.3613,3.5098 2.3173,1.9312 8.8834,5.5692 14.5918,8.0839 13.1112,5.7755 33.282,17.7892 44.0137,26.2149 4.5468,3.5697 9.823,7.7114 11.7246,9.2031 23.0544,18.0859 50.2309,50.7241 64.7422,77.752 4.0046,7.4587 7.9406,14.7817 8.7461,16.2734 18.058,33.4474 15.5288,81.4062 -5.8789,111.4883 -12.6352,17.7548 -20.797,22.1674 -41.25,22.3027 -15.016,0.099 -26.1284,1.9403 -32.4453,5.375 -1.6995,0.9241 -7.9579,4.2504 -13.9063,7.3926 -5.9482,3.1421 -12.3141,7.3241 -14.1465,9.293 -4.0706,4.3739 -31.1457,22.17 -40.7011,26.7519 -3.824,1.8335 -12.1677,6.1588 -18.541,9.6133 -14.8373,8.0421 -11.774,9.4348 17.5605,7.9824 21.5348,-1.0663 31.0435,-3.9238 57.4551,-17.2715 14.6358,-7.3964 23.2022,-8.4615 40.0898,-4.9843 16.306,3.3573 34.3734,3.7243 40.4844,0.8222 31.6332,-15.0218 44.6906,-32.9196 53.998,-74.0117 2.8362,-12.5216 3.9037,-61.0462 1.7286,-78.5351 -0.6983,-5.614 -0.5931,-7.9913 0.2754,-6.2715 1.9328,3.8269 6.4997,27.3856 5.5293,28.5215 -0.4343,0.5081 0.01,2.0506 0.9882,3.4296 1.1782,1.6615 1.7475,11.7819 1.6875,30.002 -0.1047,31.7943 -2.9635,47.9989 -11.9648,67.8379 -8.1066,17.8668 -8.2057,17.7265 10.6172,14.9824 17.2029,-2.5081 35.5956,3.2823 42.3515,13.334 1.6897,2.5139 3.7399,4.5703 4.5567,4.5703 4.047,0 13.5383,-18.4258 19.0918,-37.0664 l 2.1543,-7.2324 0.5156,9.041 c 1.1508,20.1841 -7.7933,40.601 -21.3906,48.8301 -6.0657,3.6709 -17.0241,16.416 -20.3399,23.6562 -3.499,7.6403 -4.0218,7.5983 20.3418,1.5781 21.9426,-5.422 27.845,-8.3765 43.2754,-21.664 26.9193,-23.1809 30.8715,-25.14 48.3399,-23.9727 10.0842,0.6738 16.0196,2.3737 28.9121,8.2793 19.6176,8.9863 35.8645,13.0176 52.4648,13.0176 15.921,0 15.9294,-1.6443 0.066,-15.1465 -11.394,-9.6982 -16.192,-16.071 -9.6582,-12.8301 12.8366,6.3669 16.2958,6.9745 46.7383,8.2266 34.2197,1.4073 34.0837,1.3825 59.9199,11.6328 21.3415,8.4672 23.4565,7.4912 14.793,-6.8203 -13.2248,-21.8465 -32.669,-34.8095 -63.125,-42.0781 -27.0845,-6.464 -39.233,-13.5595 -53.0606,-30.9922 -12.7925,-16.1277 -12.4653,-15.6297 -18.5156,-28.041 -6.3262,-12.9772 -19.168,-26.0308 -35.0312,-35.6075 -15.7243,-9.4931 -26.4264,-21.4943 -33.4024,-37.457 -12.0745,-27.6297 -30.3317,-64.1975 -36.0312,-72.168 -2.1334,-2.9835 -3.897,-6.5193 -3.918,-7.8574 -0.021,-1.3383 -1.2956,-4.5947 -2.834,-7.2343 -2.9322,-5.0312 -14.1847,-33.4579 -14.2187,-35.92 -0.064,-4.6638 -10.0297,-23.2613 -15.6973,-29.2929 -8.7021,-9.2609 -28.7612,-24.5695 -41.4492,-31.6348 -9.8135,-5.4645 -10.5088,-5.5846 -30.5235,-5.2109 -24.7507,0.4622 -28.806,-1.1763 -43.6367,-17.6426 -14.3503,-15.9331 -28.1483,-25.9848 -40.6738,-29.6309 -5.8004,-1.6885 -15.3909,-5.9156 -21.3105,-9.3926 l -10.7618,-6.3203 -12.6132,-30.1758 c -12.9755,-31.04104 -16.054,-43.43912 -13.1836,-53.11907 0.8436,-2.84512 2.2714,-4.49131 3.4394,-3.9668 1.0978,0.49304 2.424,-0.57447 2.9473,-2.37109 0.5232,-1.79663 2.7233,-6.52006 4.8906,-10.49805 2.1672,-3.97798 4.9161,-9.67471 6.1074,-12.6582 1.1913,-2.98348 5.4096,-9.49237 9.3731,-14.46485 7.9255,-9.94297 9.9843,-14.66018 9.9843,-22.87109 0,-3.55514 0.6716,-5.19877 1.9297,-4.7168 1.8847,0.72203 4.0493,4.85025 15.002,28.63867 6.6185,14.37488 27.5093,39.2298 48.3555,57.52735 8.2912,7.2776 15.4627,13.96415 15.9355,14.85935 0.957,1.8122 0.6136,1.9852 -12.4551,6.293 -17.3273,5.7115 -23.0838,17.57448 -16.1953,33.37688 10.3135,23.6594 42.9651,29.9856 74.8926,14.5098 13.3772,-6.4842 10.0881,-7.0819 29.1055,5.2871 8.5089,5.5343 9.6953,5.817 20.8593,4.9688 6.5101,-0.4946 12.9111,-1.434 14.2266,-2.086 1.4907,-0.7388 4.9842,1.1623 9.2715,5.0469 26.0158,23.572 78.3643,34.8725 116.5742,25.1641 23.6647,-6.0127 23.9881,-6.0432 34.2793,-3.25 30.2412,8.2079 89.8334,-8.5312 95.3926,-26.795 3.9789,-13.0721 -9.4017,-24.3417 -34.6524,-29.1855 -3.2728,-0.6278 -8.1104,-3.8916 -12.2539,-8.2656 -10.1955,-10.7625 -16.6615,-12.24318 -44.832,-10.2735 -4.8714,0.3406 -5.4158,-0.1363 -6.3828,-5.57808 -0.5815,-3.2728 -2.2615,-7.5079 -3.7324,-9.4101 -6.4825,-8.38325 -37.6028,-9.79127 -49.8829,-2.2579 -4.601,2.8227 -9.3021,4.0564 -15.4492,4.0684 -4.86,0.01 -10.5935,1.0833 -12.7402,2.3945 -5.1136,3.1233 -7.2642,2.094 -10.0957,-4.832 -7.0509,-17.24621 -10.619,-20.52119 -24.3242,-22.33593 -8.0581,-1.067 -19.6153,-6.57042 -19.6153,-9.33985 0,-2.86877 7.8826,-5.62713 21.7032,-7.59375 13.8853,-1.97585 13.9855,-1.96039 16.9336,2.42578 5.3254,7.92343 17.6247,12.70797 29.998,11.67188 7.1048,-0.59491 12.8859,-0.0478 16.8613,1.59375 15.1009,6.23531 42.874,1.4771 59.8828,-10.25977 4.2432,-2.92795 8.2832,-5.32422 8.9786,-5.32422 3.248,0 24.4007,-11.40612 27.5273,-14.84375 13.5884,-14.93988 -15.606,-33.68056 -37.8047,-24.26757 l -6.5586,2.78125 -0.9863,-7.21094 c -1.801,-13.18037 -9.4073,-20.03536 -24.9063,-22.44141 -6.2337,-0.96775 -8.1113,-1.98031 -8.1113,-4.37695 0,-8.49665 -5.0775,-22.24129 -10.2558,-27.76172 -12.6654,-13.50228 -26.9008,-15.2301 -54.3477,-6.59961 -19.5384,6.14366 -18.1494,6.2456 -40.459,-2.99414 -15.465,-6.40495 -25.7597,-5.51972 -41.2871,3.55273 -6.1371,3.58593 -11.7107,6.52149 -12.3867,6.52149 -0.6762,0 -3.8264,2.06401 -7,4.58789 -5.0631,4.02642 -6.4804,4.37057 -11.5606,2.80078 -3.1844,-0.98396 -12.7425,-3.07143 -21.2402,-4.63867 -23.6345,-4.35895 -25.0095,-5.33565 -14.8828,-10.56445 4.8945,-2.52731 8.7353,-2.883 21.2441,-1.97071 16.4421,1.19913 23.6947,-0.73096 48.4141,-12.8789 9.9661,-4.89763 9.9742,-4.899 26.2656,-2.58789 35.2046,4.99425 54.475,-0.71933 56.7071,-16.81641 1.3949,-10.06002 -8.4219,-19.79991 -22.8653,-22.68555 -5.2636,-1.05163 -7.3931,-2.60452 -9.8164,-7.15429 -5.5324,-10.38696 -16.9886,-15.50211 -31.375,-14.01172 -12.1152,1.25512 -12.1294,1.25058 -14.9336,-3.87696 -9.9664,-18.22427 -27.6613,-26.67925 -45.4707,-21.72656 -7.8631,2.18669 -9.0506,2.02839 -20.584,-2.74805 -25.4922,-10.55743 -46.9568,-1.29477 -57.0449,24.61719 -1.1162,2.86699 -2.4508,4.08394 -3.4941,3.1836 -7.2365,-6.24526 -30.8737,3.57294 -36.7735,15.27539 l -3.1015,6.15429 -5.0606,-3.66015 c -8.5061,-6.15241 -32.011,-19.34124 -40.1855,-22.54883 -4.2489,-1.6672 -12.6452,-6.20794 -18.6582,-10.08985 -27.4561,-17.72501 -45.5941,-15.72949 -67.0918,7.38086 -3.8239,4.11077 -8.4882,8.18512 -10.3653,9.05469 -3.8275,1.77303 -60.705,0.0328 -60.705,-1.85742 0,-0.66503 1.815,-3.18277 4.0332,-5.59375 3.7475,-4.0734 15.3203,-21.51913 23.7734,-35.83789 1.994,-3.37743 7.7301,-11.51449 12.7461,-18.08203 15.7648,-20.6416 18.4422,-31.07243 13.6269,-53.07227 -1.6865,-7.70518 -3.7877,-15.02813 -4.6699,-16.27343 -0.882,-1.24529 -4.8585,-7.4512 -8.8359,-13.78907 -15.5115,-24.71697 -27.2687,-34.47443 -51.4883,-42.72851 -3.2545,-1.10917 -9.3344,-5.67874 -16.2226,-12.19336 -0.8498,-0.80365 -6.4486,-5.711 -12.4415,-10.9043 -9.7569,-8.45518 -22.3222,-22.71971 -22.3222,-25.3418 0,-2.32002 12.2041,-5.42763 21.5644,-5.49023 17.258,-0.11554 36.5206,7.54112 48.4649,19.26562 l 4.3652,4.28516 -4.7519,5.56055 c -9.6968,11.34847 -2.3633,19.39221 19.3457,21.21875 7.42,0.62433 13.7474,2.21985 16.3457,4.12109 29.2948,21.43657 33.0295,23.13374 56.5527,25.69141 16.9717,1.84533 34.7547,7.59784 44.6855,14.45508 36.9712,25.52882 87.7098,27.67693 123.2832,5.2207 11.7924,-7.44402 11.8009,-7.44651 17.4903,-4.50977 7.6307,3.93879 34.3401,10.16211 43.6172,10.16211 9.6918,0 30.0971,-5.74802 40.8398,-11.5039 4.6621,-2.49788 17.1163,-6.99997 27.6758,-10.00586 39.7199,-11.30673 48.9821,-18.07242 39.1777,-28.60938 -4.4838,-4.8186 -17.0567,-12.31305 -25.7129,-15.32617 -5.0738,-1.76613 -7.309,-3.73185 -8.8574,-7.78711 -5.9895,-15.68621 -10.5235,-17.90601 -33.4394,-16.37695 l -18.8965,1.26172 4.2617,-4.73633 c 7.7486,-8.60767 9.4691,-12.96532 7.4121,-18.77735 -3.474,-9.81512 -16.4093,-17.40489 -33.0684,-19.40234 -10.0086,-1.20007 -10.0126,-1.20345 -12.4453,-8.65234 -3.677,-11.25908 -8.7479,-16.67167 -16.8339,-17.96875 -8.7689,-1.40664 -21.5683,-8.42169 -30.0215,-16.45313 -16.2912,-15.47847 -45.8106,-11.51296 -64.9512,8.72461 l -6.1426,6.49414 -6.7656,-3.48242 c -9.9772,-5.13895 -29.2814,-7.72537 -42.7871,-5.73047 -15.131,2.23495 -25.929,8.74958 -37.961,22.90039 -5.4367,6.39415 -11.1767,11.63815 -12.7558,11.65625 -15.6457,0.16886 -34.5104,12.25595 -34.5684,22.14844 -0.039,6.5937 -2.3657,9.07411 -10.9218,11.63672 -9.1438,2.7386 -9.0506,2.78822 -30.7696,-16.45508 -21.855,-19.36378 -38.9931,-25.5048 -71.0722,-25.4707 -24.7386,0.0264 -38.5517,3.07869 -42.5274,9.40039 -3.4207,5.43936 -29.8001,-34.42761 -34.1191,-51.56446 -3.1892,-12.65379 -2.6662,-13.6302 9.3398,-17.43359 16.9373,-5.36555 33.8871,-3.42731 50.3125,5.75391 15.9578,8.91982 32.5347,15.09288 54.0762,20.13672 36.6228,8.57506 52.5834,6.64955 81.3223,-9.8086 10.6523,-6.10034 19.22,-9.85156 22.5,-9.85156 10.5239,0 39.4796,-5.4259 57.6035,-10.79297 13.6109,-4.03066 22.0826,-5.48047 32,-5.48047 18.0635,0 38.104,-5.5233 46.914,-12.92773 12.3143,-10.34973 12.0388,-22.11696 -0.623,-26.55664 -6.6837,-2.34354 -12.5996,-9.43034 -12.5996,-15.09571 0,-14.77403 -14.5776,-23.06461 -32.8301,-18.66992 -5.0598,1.21825 -5.7983,0.96413 -5.8203,-2.00586 -0.045,-6.01043 -6.7659,-17.38888 -12.3106,-20.84179 -7.1614,-4.45973 -20.1871,-4.34792 -30.5546,0.26367 -4.4703,1.98851 -11.7901,3.61719 -16.2657,3.61719 -4.4755,0 -9.5253,1.13802 -11.2226,2.52929 -5.0995,4.18021 -8.9667,3.95378 -13.168,-0.76953 -2.1883,-2.46014 -5.4917,-5.88851 -7.3398,-7.61914 -5.5712,-5.21688 -4.7089,-15.24438 1.3281,-15.44531 2.5785,-0.0858 8.8196,-1.82991 13.8691,-3.875 5.0495,-2.04509 12.5004,-4.57986 16.5567,-5.63281 27.3084,-7.0888 39.2745,-20.82313 30.3574,-34.84571 -4.1787,-6.57107 -9.9834,-10.10517 -20.1934,-12.29492 -11.0713,-2.37449 -13.6505,-4.95933 -19.1269,-19.15625 -11.9359,-30.94282 -37.2057,-42.84522 -67.8672,-31.96875 -7.9641,2.8251 -17.9496,3.27632 -19.2207,0.86914 -0.4751,-0.89959 -4.5552,-4.07311 -9.0664,-7.05273 -9.6519,-6.37495 -14.985,-5.91606 -28.8789,2.48242 -13.5663,8.20047 -36.0844,8.81158 -43.3848,1.17773 l -5.1934,-5.42969 13.8614,-1.1914 c 54.3566,-4.67589 70.8541,-9.87022 75.8554,-23.87891 5.2146,-14.60565 -3.8424,-24.12499 -31.3886,-32.98828 -3.8317,-1.23289 -6.837,-3.42525 -7.3653,-5.37305 -2.5051,-9.23747 -14.135,-15.20499 -35.7578,-18.3496 -17.4355,-2.53566 -17.6826,-2.81156 -9.9804,-11.134766 3.5763,-3.8646 6.2222,-8.02121 5.8808,-9.23633 -1.1714,-4.170261 -12.2247,-9.865632 -23.293,-12.001952 -9.0087,-1.73881 -12.0312,-3.218939 -16.1816,-7.925781 -4.9752,-5.642304 -5.5033,-5.801785 -21.0469,-6.396485 -15.1317,-0.578933 -16.1956,-0.881471 -20.8945,-5.904296 -6.9048,-7.380634 -10.7279,-9.419959 -31.3555,-16.738282 -23.6821,-8.402011 -39.8527,-12.227792 -54.8789,-12.066406 z M 1293.4766,270.9037 c 10.2165,0 21.0945,3.77493 28.7363,9.97266 7.6861,6.23368 8.3617,8.80328 3.9043,14.86523 -3.6651,4.98403 -3.7264,4.99661 -24.2793,5.06641 l -20.6035,0.0703 -14.6777,8.42578 c -16.3362,9.37776 -18.7547,11.31972 -21.4316,17.20117 -3.0329,6.66333 -7.6248,5.23312 -8.711,-2.71289 -0.5099,-3.72935 -1.5833,-8.19304 -2.3867,-9.91992 -3.2999,-7.09352 -1.9638,-8.1388 12.0586,-9.4375 24.2473,-2.24569 34.3769,-9.52672 34.3769,-24.70898 0,-7.78535 1.5298,-8.82227 13.0137,-8.82227 z m 132.5938,19.46875 c 1.163,-0.0145 3.2033,1.22334 7.0918,4.02344 4.1544,2.99158 8.3443,5.43945 9.3125,5.43945 3.3155,0 1.762,3.32002 -3.2598,6.96485 -2.7617,2.0045 -7.4174,6.54546 -10.3457,10.09179 -5.1524,6.23953 -5.6923,6.44922 -16.6602,6.44922 -6.5798,0 -13.661,1.13642 -16.8808,2.71094 -6.3455,3.10288 -9.8047,3.46515 -9.8047,1.02539 0,-0.92825 -3.2536,-5.39009 -7.2324,-9.91602 -8.5916,-9.77283 -8.3341,-10.33423 5.2422,-11.32617 13.6367,-0.99633 24.7265,-3.92947 30.5449,-8.08203 2.5655,-1.83099 5.807,-3.33094 7.2031,-3.33594 1.3963,-0.004 2.9398,-1.23453 3.4316,-2.73437 0.2762,-0.8423 0.6596,-1.30185 1.3575,-1.31055 z m -37.4844,103.79492 c 0.7438,-0.0146 1.4645,0.64283 2.5664,1.79883 1.6687,1.75065 7.3664,3.64387 13.6133,4.52149 l 10.7441,1.50781 -12.3691,8.40625 c -6.8033,4.62279 -15.1139,9.29667 -18.4688,10.38672 -8.0001,2.59938 -12.0772,2.2389 -22.3222,-1.97266 -12.5615,-5.16379 -12.9266,-6.87322 -1.4688,-6.88672 11.1006,-0.0133 15.6949,-2.57549 23.0234,-12.84179 2.456,-3.44055 3.5945,-4.89861 4.6817,-4.91993 z m 44.7363,15.36719 9.7051,5.65039 c 5.3379,3.10809 12.3651,6.19352 15.6152,6.85547 7.2528,1.4772 6.1173,2.99157 -6.748,9.00195 -13.1467,6.14174 -37.6068,7.75463 -42.0645,2.77344 -0.6523,-0.72903 2.1302,-4.04155 6.1817,-7.36133 4.0514,-3.3198 9.603,-8.48534 12.3379,-11.47851 z m -396.123,45.33203 c 0.5982,-0.0125 0.9534,0.46071 1.2539,1.37695 0.4644,1.41636 5.048,5.05866 10.1855,8.09376 11.4959,6.79151 11.5014,7.16877 0.2246,13.22656 -5.0135,2.69319 -9.7072,4.80275 -10.4297,4.6875 -9.3646,-1.49542 -23.9673,-7.31713 -26.8672,-10.71094 -3.608,-4.22254 -4.3634,-10.70779 -0.8496,-7.29492 1.2475,1.21166 2.5542,1.40866 3.0547,0.46094 0.481,-0.91088 4.0916,-2.08095 8.0235,-2.59961 3.9319,-0.51865 9.098,-2.62999 11.4804,-4.69141 1.9816,-1.71452 3.1548,-2.53275 3.9239,-2.54883 z m 455.248,113.56055 c 4.2868,0.0507 9.8394,1.04486 15.8047,3.12305 5.5657,1.93893 5.7596,2.20812 2.3164,3.21093 -5.6381,1.64209 -23.7991,2.07976 -25.0605,0.60352 -3.8349,-4.48801 -0.2052,-7.02199 6.9394,-6.9375 z m 84.2949,8.98047 c 10.5172,-0.11772 19.7503,0.60179 18.5743,2.25976 -0.889,1.25263 -1.2439,5.52372 -0.7891,9.49219 0.6391,5.57581 0.3118,7.21484 -1.4395,7.21484 -3.1659,0 -17.9865,5.61925 -19.7656,7.49414 -1.8856,1.98751 -6.6089,2.00097 -7.6543,0.0215 -0.4435,-0.83981 -5.3512,-4.14716 -10.9062,-7.34766 -12.3572,-7.11952 -13.7355,-12.35782 -4.3067,-16.37304 3.9668,-1.68922 15.77,-2.644 26.2871,-2.76172 z m 50.1211,21.0332 c 1.9782,-0.0211 4.1156,0.3803 6.5821,1.15234 3.4688,1.08576 9.9411,2.53699 14.3828,3.22657 4.4418,0.68956 8.0761,1.90838 8.0761,2.70703 10e-5,3.02709 -8.9749,8.74182 -18.0507,11.49414 -10.028,3.04108 -38.3461,3.97044 -39.7539,1.30469 -0.4518,-0.85568 1.8221,-2.95031 5.0546,-4.65625 3.2327,-1.70597 8.2551,-5.50296 11.1602,-8.43555 4.6168,-4.66045 8.197,-6.74656 12.5488,-6.79297 z m -495.4961,37.55859 21.1192,0.5293 c 11.6159,0.29176 21.558,1.04438 22.0918,1.67188 0.5337,0.6275 -0.6696,5.91523 -2.6739,11.75 -3.9733,11.56753 -5.7341,12.69968 -12.7265,8.18554 -3.4139,-2.20387 -10.13,-3.23177 -25.4922,-3.89843 l -20.8594,-0.9043 9.2715,-8.66797 z m -79.5293,50.79102 c 1.3324,0.029 2.6167,0.12197 3.8301,0.2832 5.1647,0.68626 6.0566,0.0477 -18.0683,12.94727 -4.8355,2.58556 -10.3557,7.17389 -12.2657,10.19726 -3.8849,6.14961 -3.7373,6.10569 -9.0703,2.69727 -2.1244,-1.35775 -5.7745,-2.92512 -8.1113,-3.48438 -5.7056,-1.36547 -5.3315,-3.02869 1.5605,-6.93554 3.178,-1.80151 9.4447,-5.60548 13.9258,-8.45117 7.1338,-4.5303 18.8726,-7.45686 28.1992,-7.25391 z m 84.5137,41.82617 c 0.1234,-10e-4 0.2241,0.0132 0.3008,0.0449 2.211,0.91472 -11.8329,20.00396 -20.957,28.48633 -4.3705,4.0631 -8.5415,7.30484 -9.2696,7.20313 -0.7281,-0.10179 -3.7562,-0.87723 -6.7304,-1.72266 -2.9742,-0.84541 -8.9055,-1.07876 -13.1797,-0.51758 l -7.7715,1.02149 -4.2031,-9.72071 c -4.5638,-10.55661 -5.2962,-15.81659 -2.2715,-16.31836 1.0622,-0.17623 12.7075,-0.41496 25.8789,-0.52929 21.8679,-0.19003 24.5154,-0.5691 30.4824,-4.36328 3.257,-2.07103 6.5276,-3.57229 7.7207,-3.58399 z m 228.1133,45.64649 c 0.3507,-9.3e-4 0.093,1.72951 -0.6992,4.39062 -4.4297,14.87129 7.1186,39.04792 23.7012,49.6211 8.1363,5.1879 11.1694,4.16973 16.2226,-5.44141 5.328,-10.13384 16.6096,-14.54664 31.6738,-12.39063 36.0769,5.16328 47.089,1.28616 58.6192,-20.63867 1.3211,-2.51195 4.8046,-6.08217 7.7422,-7.93359 9.3458,-5.89029 35.5786,3.26103 52.4101,18.2832 l 7.293,6.50781 -15.3359,8.74219 c -8.4344,4.80823 -15.334,9.79519 -15.334,11.08203 0,8.40973 13.4368,15.76969 33.7832,18.50196 l 9.8379,1.32031 -0.7696,6.70508 c -1.0211,8.90934 -6.767,27.06829 -10.2851,32.50195 l -2.8184,4.35351 -10.1035,-6.61328 c -14.5788,-9.5415 -19.619,-9.12767 -40.5723,3.33204 -20.382,12.12017 -25.5254,12.67106 -37.9707,4.06835 -4.6759,-3.23211 -12.6294,-8.31729 -17.6758,-11.30078 -5.0465,-2.98349 -9.5243,-5.92025 -9.9492,-6.52734 -0.4249,-0.60713 -3.2055,-2.55039 -6.1797,-4.31641 -2.9741,-1.76604 -7.9968,-5.92612 -11.1621,-9.24609 -3.1652,-3.31998 -7.6847,-6.51733 -10.0429,-7.10547 -26.2544,-6.54782 -47.7688,-21.54282 -54.3223,-37.85937 -4.7358,-11.791 -3.8846,-32.71087 1.6191,-39.77735 0.136,-0.17461 0.2416,-0.25956 0.3184,-0.25976 z m 250.1387,68.02343 h 9.1894 c 14.3172,0 38.7141,10.77663 43.5371,19.23047 7.3815,12.93809 9.2331,17.57954 6.5293,16.36524 -3.4726,-1.5595 -15.5678,1.82976 -22.5898,6.33008 -2.9741,1.90612 -6.8539,5.86067 -8.6211,8.78906 l -3.2129,5.32422 -3.1035,-4.06055 c -6.5086,-8.51683 -14.1446,-25.5909 -19,-42.48438 z m -624.88872,2.80274 c 4.45528,-0.15316 10.41882,-0.0572 17.80272,0.29297 l 22.4532,1.06445 -3.8477,5.9043 c -2.1162,3.24708 -6.8994,7.58392 -10.6309,9.63672 -6.8621,3.77493 -17.25157,6.18499 -20.08787,4.66015 -0.8498,-0.45685 -6.75955,-1.97574 -13.13281,-3.375 -22.14818,-4.8627 -35.53616,-9.89902 -35.53516,-13.36523 2.6e-4,-0.71088 6.77949,-1.36839 15.06445,-1.46289 8.28495,-0.0944 16.90919,-1.06272 19.16407,-2.15039 1.34823,-0.65032 4.29471,-1.05192 8.75,-1.20508 z m -33.31446,31.75195 c 1.06338,-0.0125 2.2623,0.0896 3.68555,0.27734 11.48208,1.51462 10.79743,3.73366 -3.30664,10.72461 -7.48034,3.70775 -21.43651,4.39175 -20.47266,1.00391 0.35366,-1.24313 1.97636,-2.54653 3.60547,-2.89648 1.62912,-0.34995 5.28446,-2.68336 8.12305,-5.1875 3.19867,-2.82179 5.1751,-3.88437 8.36523,-3.92188 z m 573.22858,26.18555 c 4.1217,-0.0765 7.463,1.43082 11.7617,4.49023 7.0341,5.0063 6.2616,14.26765 -3.1504,37.83594 -5.1559,12.91069 -5.3903,27.45035 -0.6856,42.3809 4.8599,15.42308 4.5719,15.93038 -2.6289,4.6425 -6.1326,-9.61337 -7.75,-15.90355 -10.2343,-39.79098 -1.735,-16.68295 -2.7522,-18.42767 -19.3672,-33.25976 l -5.8614,-5.23243 13.7149,-6.05273 c 7.4257,-3.27695 12.3294,-4.93719 16.4512,-5.01367 z m 230.3183,16.96484 c 11.5957,0.33328 31.9198,7.11909 31.9199,12.62695 -10e-5,2.32645 -21.9829,2.2591 -28.5839,-0.0879 -6.3224,-2.24783 -12.2729,-7.92183 -10.9454,-10.43554 0.8501,-1.60964 3.7442,-2.21461 7.6094,-2.10352 z m -31.3554,11.35742 6.7207,6.00586 c 9.9643,8.90423 9.9041,10.61736 -0.504,14.00391 -4.8948,1.59264 -9.7878,4.1474 -10.873,5.67773 -1.2865,1.81414 -4.6167,2.78321 -9.5703,2.78321 -4.4945,0 -10.0211,1.44446 -13.5293,3.53906 l -5.9297,3.54102 -9.0723,-6.33204 c -8.7421,-6.10255 -26.3936,-25.38031 -24.8711,-27.16211 0.4079,-0.47738 15.7916,-1.13586 34.1856,-1.46289 z m -245.3692,95.92189 c 1.313,-0.1069 5.8049,5.5948 6.7559,9.1015 0.9376,3.4573 5.2466,11.4663 18.4804,34.3575 13.4497,23.2649 31.8276,39.8008 60.5371,54.4667 11.2594,5.7517 20.4727,10.7653 20.4727,11.1407 0,3.7509 -43.0047,-14.5988 -56.5898,-24.1465 -14.7572,-10.3714 -28.2591,-25.3662 -33.8164,-37.5527 -4.3235,-9.4816 -16.2012,-43.7465 -16.2012,-46.7383 0,-0.414 0.1324,-0.6103 0.3613,-0.6289 z m 340.6875,2.0781 c 2.5827,0.06 3.0397,2.1397 1.1621,6.1367 -1.2392,2.638 -3.8331,7.0011 -5.7637,9.6953 l -3.5097,4.8985 -6.0528,-3.9942 c -9.6633,-6.3778 -9.5191,-6.6658 7.2657,-14.6387 3.0351,-1.4418 5.3488,-2.1334 6.8984,-2.0976 z m -116.3535,106.0254 c 1.765,-0.098 4.241,-0.01 7.4453,0.2441 22.0248,1.7358 37.4329,17.4261 52.3691,53.3281 10.4268,25.0626 10.8009,28.023 1.9571,15.4376 -3.323,-4.7289 -9.6567,-13.0732 -14.0762,-18.543 -4.4196,-5.4698 -9.2887,-11.6243 -10.8184,-13.6758 -1.5297,-2.0515 -6.257,-6.489 -10.5058,-9.8613 -4.2489,-3.3722 -9.8101,-8.3982 -12.3594,-11.1699 -2.5493,-2.7719 -7.5897,-6.876 -11.2012,-9.1211 -7.005,-4.3546 -8.1056,-6.3435 -2.8105,-6.6387 z m -27.1309,113.8535 c 0.375,-0.037 1.9231,1.4422 4.6192,4.4199 6.3135,6.9728 14.6201,24.4795 18.7187,39.4492 2.8211,10.304 1.3492,9.2534 -3.4765,-2.4804 -4.0492,-9.8453 -13.7064,-29.7359 -19.2657,-39.6817 -0.6241,-1.1166 -0.8206,-1.6848 -0.5957,-1.707 z m 122.5723,31.5234 c 0.4168,-7e-4 1.1751,0.8629 2.2969,2.7813 1.4378,2.4589 3.0899,4.8777 3.6699,5.375 0.5801,0.4972 2.3823,3.7516 4.0039,7.2324 4.8608,10.434 11.717,22.5621 13.1191,23.2051 0.7229,0.3316 1.3145,1.3331 1.3145,2.2265 0,0.8936 2.2598,4.3914 5.0215,7.7735 2.7618,3.3821 6.0633,7.9283 7.3379,10.1015 1.2747,2.1735 7.7042,7.7113 14.2871,12.3067 19.4322,13.5652 34.9494,31.5326 35.1269,40.6719 0.061,3.1376 -2.8805,0.7785 -10.8398,-8.6895 -5.0883,-6.0526 -12.3367,-12.228 -18.2363,-15.5371 -21.8336,-12.2461 -35.626,-27.0191 -44.2129,-47.3574 -3.0143,-7.1395 -5.4805,-13.5601 -5.4805,-14.2676 0,-0.7077 -1.7369,-5.7325 -3.8613,-11.168 -3.3445,-8.5566 -4.6545,-14.6523 -3.5469,-14.6543 z" />
  </g>
</svg>
